<?xml version="1.0" standalone="no"?>
<!DOCTYPE svg PUBLIC "-//W3C//DTD SVG 1.1//EN" "http://www.w3.org/Graphics/SVG/1.1/DTD/svg11.dtd" >
<svg xmlns="http://www.w3.org/2000/svg" xmlns:xlink="http://www.w3.org/1999/xlink" version="1.1">
<metadata>
Created by FontForge 20201107 at Thu Oct 28 18:08:48 2021
 By 
Copyright 2019 The Baloo 2 Project Authors (https://github.com/EkType/Baloo2)
</metadata>
<defs>
<font id="BalooTammudu2-Medium" horiz-adv-x="0" >
  <font-face 
    font-family="Baloo Tammudu 2 Medium"
    font-weight="500"
    font-stretch="normal"
    units-per-em="1000"
    panose-1="0 0 0 0 0 0 0 0 0 0"
    ascent="800"
    descent="-200"
    x-height="467"
    cap-height="614"
    bbox="-1056 -1076 2110 1082"
    underline-thickness="50"
    underline-position="-125"
    unicode-range="U+000D-FB04"
  />
<missing-glyph horiz-adv-x="653" 
d="M159 0q-30 0 -47 17t-17 47v521q0 30 16.5 47t46.5 17h336q30 0 47 -17t17 -47v-521q0 -30 -17 -47t-47 -17h-335zM190 81h274v487h-274v-487z" />
    <glyph glyph-name="f_f" unicode="ff" horiz-adv-x="795" 
d="M152 360v78h207q4 -5 7.5 -15t3.5 -23q0 -20 -9.5 -30t-27.5 -10h-181zM168 495v-122h-96v127q0 60 23.5 98t66 56t99.5 18q60 0 93 -16t33 -43q0 -13 -5 -23.5t-14 -18.5q-18 9 -43.5 15t-51.5 6q-57 0 -81 -23t-24 -74zM72 413h98v-411q-6 -2 -18 -5t-26 -3
q-27 0 -40.5 10.5t-13.5 34.5v374zM543 360v78h207q4 -5 7.5 -15t3.5 -23q0 -20 -9.5 -30t-27.5 -10h-181zM559 495v-122h-96v127q0 60 23.5 98t66 56t99.5 18q60 0 93 -16t33 -43q0 -13 -5 -23.5t-14 -18.5q-18 9 -43.5 15t-51.5 6q-57 0 -81 -23t-24 -74zM463 413h98v-411
q-6 -2 -18 -5t-26 -3q-27 0 -40.5 10.5t-13.5 34.5v374z" />
    <glyph glyph-name="fi" unicode="fi" horiz-adv-x="654" 
d="M152 360v78h207q4 -5 7.5 -15t3.5 -23q0 -20 -9.5 -30t-27.5 -10h-181zM168 495v-122h-96v127q0 60 23.5 98t66 56t99.5 18q60 0 93 -16t33 -43q0 -13 -5 -23.5t-14 -18.5q-18 9 -43.5 15t-51.5 6q-57 0 -81 -23t-24 -74zM72 413h98v-411q-6 -2 -18 -5t-26 -3
q-27 0 -40.5 10.5t-13.5 34.5v374zM469 611q0 24 17 41t43 17q27 0 43.5 -17t16.5 -41q0 -25 -16.5 -41.5t-43.5 -16.5q-26 0 -43 16.5t-17 41.5zM480 264h98v-262q-6 -2 -18 -5t-27 -3q-26 0 -39.5 10.5t-13.5 34.5v225zM578 215h-98v249q6 2 18.5 4.5t27.5 2.5
q27 0 39.5 -10t12.5 -35v-211z" />
    <glyph glyph-name="fl" unicode="fl" horiz-adv-x="658" 
d="M152 360v78h207q4 -5 7.5 -15t3.5 -23q0 -20 -9.5 -30t-27.5 -10h-181zM168 495v-122h-96v127q0 60 23.5 98t66 56t99.5 18q60 0 93 -16t33 -43q0 -13 -5 -23.5t-14 -18.5q-18 9 -43.5 15t-51.5 6q-57 0 -81 -23t-24 -74zM72 413h98v-411q-6 -2 -18 -5t-26 -3
q-27 0 -40.5 10.5t-13.5 34.5v374zM483 264l98 -10v-252q-6 -2 -18.5 -5t-26.5 -3q-27 0 -40 10.5t-13 34.5v225zM581 206l-98 9v434q6 2 18.5 4.5t26.5 2.5q27 0 40 -10t13 -35v-405z" />
    <glyph glyph-name="f_f_i" unicode="ffi" horiz-adv-x="1013" 
d="M152 360v78h207q4 -5 7.5 -15t3.5 -23q0 -20 -9.5 -30t-27.5 -10h-181zM168 495v-122h-96v127q0 60 23.5 98t66 56t99.5 18q60 0 93 -16t33 -43q0 -13 -5 -23.5t-14 -18.5q-18 9 -43.5 15t-51.5 6q-57 0 -81 -23t-24 -74zM72 413h98v-411q-6 -2 -18 -5t-26 -3
q-27 0 -40.5 10.5t-13.5 34.5v374zM514 360v78h207q4 -5 7.5 -15t3.5 -23q0 -20 -9.5 -30t-27.5 -10h-181zM530 495v-122h-96v127q0 60 23.5 98t66 56t99.5 18q60 0 93 -16t33 -43q0 -13 -5 -23.5t-14 -18.5q-18 9 -43.5 15t-51.5 6q-57 0 -81 -23t-24 -74zM434 413h98v-411
q-6 -2 -18 -5t-26 -3q-27 0 -40.5 10.5t-13.5 34.5v374zM828 611q0 24 17 41t43 17q27 0 43.5 -17t16.5 -41q0 -25 -16.5 -41.5t-43.5 -16.5q-26 0 -43 16.5t-17 41.5zM839 264h98v-262q-6 -2 -18 -5t-27 -3q-26 0 -39.5 10.5t-13.5 34.5v225zM937 215h-98v249q6 2 18.5 4.5
t27.5 2.5q27 0 39.5 -10t12.5 -35v-211z" />
    <glyph glyph-name="f_f_l" unicode="ffl" horiz-adv-x="1049" 
d="M152 360v78h207q4 -5 7.5 -15t3.5 -23q0 -20 -9.5 -30t-27.5 -10h-181zM168 495v-122h-96v127q0 60 23.5 98t66 56t99.5 18q60 0 93 -16t33 -43q0 -13 -5 -23.5t-14 -18.5q-18 9 -43.5 15t-51.5 6q-57 0 -81 -23t-24 -74zM72 413h98v-411q-6 -2 -18 -5t-26 -3
q-27 0 -40.5 10.5t-13.5 34.5v374zM514 360v78h207q4 -5 7.5 -15t3.5 -23q0 -20 -9.5 -30t-27.5 -10h-181zM530 495v-122h-96v127q0 60 23.5 98t66 56t99.5 18q60 0 93 -16t33 -43q0 -13 -5 -23.5t-14 -18.5q-18 9 -43.5 15t-51.5 6q-57 0 -81 -23t-24 -74zM434 413h98v-411
q-6 -2 -18 -5t-26 -3q-27 0 -40.5 10.5t-13.5 34.5v374zM845 264l98 -10v-252q-6 -2 -18.5 -5t-26.5 -3q-27 0 -40 10.5t-13 34.5v225zM943 206l-98 9v434q6 2 18.5 4.5t26.5 2.5q27 0 40 -10t13 -35v-405z" />
    <glyph glyph-name=".notdef" horiz-adv-x="653" 
d="M159 0q-30 0 -47 17t-17 47v521q0 30 16.5 47t46.5 17h336q30 0 47 -17t17 -47v-521q0 -30 -17 -47t-47 -17h-335zM190 81h274v487h-274v-487z" />
    <glyph glyph-name=".null" 
 />
    <glyph glyph-name="uni000D" unicode="&#xd;" horiz-adv-x="223" 
 />
    <glyph glyph-name="space" unicode=" " horiz-adv-x="200" 
 />
    <glyph glyph-name="exclam" unicode="!" horiz-adv-x="260" 
d="M179 577q0 -28 -1 -75t-2.5 -101.5t-4 -108.5t-5.5 -96q-7 -5 -18 -8t-21 -3q-17 0 -28.5 6.5t-12.5 22.5q-3 27 -5.5 76.5t-3.5 108.5t-2 115.5t-1 97.5q26 15 55 15q24 0 37 -12t13 -38zM63 51q0 28 17.5 46t46.5 18q30 0 47 -18t17 -46q0 -27 -17 -45t-47 -18
q-29 0 -46.5 18t-17.5 45z" />
    <glyph glyph-name="quotedbl" unicode="&#x22;" horiz-adv-x="298" 
d="M112 410q-7 -4 -16 -5.5t-20 -1.5q-17 0 -27.5 7.5t-11.5 24.5l-7 179q20 13 47 13q22 0 33.5 -10.5t11.5 -32.5q0 -17 -1.5 -49.5t-4 -66t-4.5 -58.5zM259 410q-8 -4 -17.5 -5.5t-19.5 -1.5q-18 0 -27.5 7.5t-10.5 24.5l-8 179q10 6 21.5 9.5t26.5 3.5q22 0 33 -10.5
t11 -33.5q0 -16 -1.5 -48.5t-3.5 -66t-4 -58.5z" />
    <glyph glyph-name="numbersign" unicode="#" horiz-adv-x="676" 
d="M573 155h-524q-3 7 -6 16.5t-3 19.5q0 21 10 30t28 9h525q3 -6 5.5 -15.5t2.5 -20.5q0 -20 -9.5 -29.5t-28.5 -9.5zM602 388h-524q-3 7 -6 16t-3 20q0 20 10.5 29.5t28.5 9.5h524q3 -7 6 -16t3 -20q0 -20 -10 -29.5t-29 -9.5zM314 515l-109 -518q-7 -1 -14.5 -1.5
t-15.5 -0.5q-20 0 -32 9.5t-12 30.5q0 13 3.5 30t6.5 29l110 518q6 1 14.5 1.5t14.5 0.5q21 0 33 -9t12 -30q0 -13 -4 -29.5t-7 -30.5zM535 515l-109 -518q-7 -1 -14.5 -1.5t-15.5 -0.5q-20 0 -32 9.5t-12 30.5q0 13 3.5 30t5.5 29l110 518q7 1 15 1.5t15 0.5q20 0 32.5 -9
t12.5 -30q0 -13 -4 -29.5t-7 -30.5z" />
    <glyph glyph-name="dollar" unicode="$" horiz-adv-x="531" 
d="M218 34h88v-122q-5 -2 -15.5 -4t-23.5 -2q-23 0 -36 10t-13 31v87zM306 558h-88v139q6 2 17 3.5t23 1.5q25 0 36.5 -9.5t11.5 -30.5v-104zM257 69q63 0 94.5 27.5t31.5 69.5q0 37 -24.5 61t-75.5 39l-78 23q-45 15 -79 36t-52 52.5t-18 75.5q0 79 58 124t156 45
q55 0 98 -11.5t67.5 -30.5t24.5 -42q0 -15 -8 -27.5t-20 -19.5q-24 19 -65.5 33t-90.5 14q-55 0 -86.5 -23t-31.5 -62q0 -31 22 -50.5t71 -33.5l60 -18q82 -24 128.5 -67t46.5 -118q0 -80 -59.5 -130t-168.5 -50q-61 0 -107.5 13.5t-72.5 35t-26 44.5q0 20 12 33t27 20
q24 -22 65.5 -42.5t100.5 -20.5z" />
    <glyph glyph-name="percent" unicode="%" horiz-adv-x="777" 
d="M338 471q0 -67 -41.5 -106.5t-103.5 -39.5q-61 0 -103 39.5t-42 106.5t42 106t103 39q62 0 103.5 -39t41.5 -106zM129 471q0 -37 18 -57.5t46 -20.5t46 20.5t18 57.5t-18 57t-46 20t-46 -20t-18 -57zM188 75l364 541q25 -3 41 -12.5t16 -25.5q0 -11 -4.5 -22t-13.5 -24
l-363 -539q-25 2 -41.5 13t-16.5 26q0 10 5 20.5t13 22.5zM729 138q0 -67 -41.5 -106.5t-103.5 -39.5q-60 0 -102.5 39.5t-42.5 106.5t42.5 106t102.5 39q62 0 103.5 -39t41.5 -106zM520 138q0 -38 18 -58t46 -20t46 20t18 58q0 36 -18 56t-46 20t-46 -20t-18 -56z" />
    <glyph glyph-name="ampersand" unicode="&#x26;" horiz-adv-x="644" 
d="M518 105l-36 -39q-36 -38 -86.5 -59.5t-116.5 -21.5q-71 0 -123 25t-80.5 70.5t-28.5 106.5q0 50 20.5 88.5t55 64t75.5 37.5l44 -68q-25 -5 -47 -20.5t-36.5 -40.5t-14.5 -60q0 -55 36.5 -89t101.5 -34q33 0 72 14.5t72 51.5l28 41q17 33 26 81t9 105q11 5 22 7.5
t21 2.5q25 0 36 -14.5t11 -39.5q0 -53 -15.5 -110t-45.5 -99zM565 -14q-24 0 -47 26l-301 312l-26 31q-32 34 -46 64t-14 63q0 41 19.5 72.5t56 49t89.5 17.5q55 0 82 -16.5t27 -41.5q0 -13 -6.5 -24t-15.5 -17q-15 8 -35 13.5t-42 5.5q-35 0 -56 -17t-21 -48q0 -27 15 -49
t43 -52l330 -337q-3 -24 -16.5 -38t-35.5 -14z" />
    <glyph glyph-name="quotesingle" unicode="'" horiz-adv-x="155" 
d="M116 411q-8 -3 -18 -5.5t-21 -2.5q-17 0 -28 8.5t-12 24.5l-7 177q9 7 21 10.5t28 3.5q23 0 34.5 -10.5t11.5 -34.5q0 -17 -1.5 -48.5t-3 -65t-4.5 -57.5z" />
    <glyph glyph-name="parenleft" unicode="(" horiz-adv-x="264" 
d="M208 -120q-21 0 -37 14t-31 37q-42 62 -65 146.5t-23 194.5t26.5 196t61.5 141q14 23 30.5 36.5t37.5 13.5q16 0 29 -9.5t19 -22.5q-53 -69 -81.5 -157.5t-28.5 -197.5q0 -108 26 -193.5t84 -165.5q-6 -13 -19 -23t-29 -10z" />
    <glyph glyph-name="parenright" unicode=")" horiz-adv-x="264" 
d="M57 -120q-17 0 -29.5 10t-18.5 23q57 80 83.5 165.5t26.5 193.5q0 109 -29 197.5t-81 157.5q6 13 18.5 22.5t29.5 9.5q21 0 37 -13.5t30 -36.5q36 -55 62 -141t26 -196t-23 -194.5t-65 -146.5q-14 -23 -30 -37t-37 -14z" />
    <glyph glyph-name="asterisk" unicode="*" horiz-adv-x="309" 
d="M147 538l25 -69l-148 48q-4 12 -4 24q0 16 9.5 26t25.5 10q5 0 11 -2l12 -4zM193 507l-85 -124q-4 -1 -8 -1.5t-7 -0.5q-22 0 -33 9.5t-11 23.5q0 9 4 17t10 15l48 54zM137 484l34 53l97 -121q-3 -15 -14.5 -25t-26.5 -10q-13 0 -22.5 9.5t-17.5 20.5zM127 516l133 71
q11 -5 19.5 -15.5t8.5 -24.5q0 -15 -8 -21.5t-21 -12.5l-80 -37zM186 519l-61 -33l-4 152q6 3 15 7t21 4q15 0 24.5 -7t9.5 -23q0 -6 -1.5 -26.5t-2.5 -42.5t-1 -31z" />
    <glyph glyph-name="plus" unicode="+" horiz-adv-x="547" 
d="M460 257h-404q-4 8 -6.5 17.5t-2.5 21.5q0 21 11 31t29 10h405q2 -7 5.5 -17t3.5 -21q0 -21 -11 -31.5t-30 -10.5zM320 483v-415q-8 -3 -18.5 -5t-23.5 -2q-24 0 -35.5 10t-11.5 36v415q8 3 19 5t24 2q23 0 34.5 -10t11.5 -36z" />
    <glyph glyph-name="comma" unicode="," horiz-adv-x="165" 
d="M84 -90q-19 -30 -48 -30q-26 0 -44 19q11 29 22.5 66t21 75t14.5 66q10 5 22.5 8.5t26.5 3.5q20 0 33 -9.5t13 -32.5t-10.5 -56.5t-25 -63.5t-25.5 -46z" />
    <glyph glyph-name="hyphen" unicode="-" horiz-adv-x="382" 
d="M293 220h-234q-4 7 -7 17t-3 22q0 21 11 31t29 10h234q3 -7 6.5 -17t3.5 -21q0 -21 -10.5 -31.5t-29.5 -10.5z" />
    <glyph glyph-name="period" unicode="." horiz-adv-x="160" 
d="M17 50q0 27 17 45.5t47 18.5q29 0 45.5 -18.5t16.5 -45.5t-16.5 -45.5t-45.5 -18.5q-30 0 -47 18.5t-17 45.5z" />
    <glyph glyph-name="slash" unicode="/" horiz-adv-x="313" 
d="M283 603l-184 -708q-7 -1 -14.5 -1.5t-16.5 -0.5q-23 0 -35.5 11t-12.5 33q0 14 4.5 31.5t7.5 28.5l183 708q8 1 15.5 1.5t15.5 0.5q21 0 34.5 -10t13.5 -33q0 -14 -4 -30.5t-7 -30.5z" />
    <glyph glyph-name="zero" unicode="0" horiz-adv-x="588" 
d="M293 -14q-71 0 -126 35t-86 105.5t-31 177.5q0 113 34 182t89.5 102t119.5 33q66 0 121.5 -33t89 -103t33.5 -181q0 -106 -30.5 -176.5t-85.5 -106t-128 -35.5zM293 68q69 0 107 60.5t38 175.5q0 83 -19.5 135t-52 76t-73.5 24q-40 0 -72.5 -24.5t-51.5 -77t-19 -133.5
q0 -115 38 -175.5t105 -60.5z" />
    <glyph glyph-name="one" unicode="1" horiz-adv-x="364" 
d="M268 205h-99v308l-122 -54q-13 6 -23 17.5t-10 30.5q0 35 43 52l135 56h22q25 0 39.5 -14.5t14.5 -39.5v-356zM169 264h99v-265q-7 -2 -19 -4.5t-26 -2.5q-27 0 -40.5 10.5t-13.5 35.5v226z" />
    <glyph glyph-name="two" unicode="2" horiz-adv-x="511" 
d="M58 540q0 21 22.5 39.5t62 30t87.5 11.5q67 0 114.5 -22.5t72.5 -62t25 -92.5q0 -54 -30 -106.5t-101 -116.5l-157 -142h286q4 -5 7.5 -15.5t3.5 -22.5q0 -20 -10 -30.5t-26 -10.5h-352q-13 9 -19.5 22t-6.5 29q0 19 8 34t21 26l171 162q60 56 82.5 93t22.5 75
q0 44 -30.5 71t-90.5 27q-43 0 -77 -14.5t-56 -30.5q-12 6 -21 17.5t-9 28.5z" />
    <glyph glyph-name="three" unicode="3" horiz-adv-x="508" 
d="M220 621q99 0 158 -42.5t59 -124.5q0 -39 -15.5 -67t-37.5 -44.5t-41 -22.5q27 -8 52.5 -27.5t42 -49.5t16.5 -73q0 -60 -29.5 -100t-81.5 -61t-120 -21q-58 0 -101 12t-67 31t-24 41q0 16 8.5 28t21.5 20q25 -19 61.5 -35t95.5 -16q63 0 101 26.5t38 78.5q0 47 -34.5 75
t-101.5 28h-85q-5 6 -8.5 16.5t-3.5 23.5t3.5 23.5t8.5 16.5h79q67 0 95.5 25t28.5 66q0 45 -33.5 68.5t-91.5 23.5q-47 0 -82.5 -13.5t-58.5 -29.5q-11 6 -20 18.5t-9 27.5q0 21 23.5 39t63 28.5t89.5 10.5z" />
    <glyph glyph-name="four" unicode="4" horiz-adv-x="559" 
d="M36 237l279 370q11 3 25 5t25 2q18 0 33 -4.5t25 -17t10 -36.5v-333h96q4 -6 7.5 -16.5t3.5 -23.5q0 -20 -10 -30.5t-27 -10.5h-70v-143q-6 -2 -18 -4.5t-25 -2.5q-25 0 -38.5 9.5t-13.5 32.5v108h-279q-13 7 -22 22t-9 34q0 11 2 21t6 18zM340 223l2 290h-2l-203 -290
h203z" />
    <glyph glyph-name="five" unicode="5" horiz-adv-x="535" 
d="M212 608l-27 -67l-15 -178q17 9 45.5 16.5t61.5 7.5q62 0 109.5 -23.5t74.5 -67t27 -106.5q0 -57 -26.5 -103.5t-78 -73.5t-127.5 -27q-57 0 -101 13t-68 33t-24 42q0 18 11.5 31.5t24.5 19.5q23 -20 61.5 -39t93.5 -19q65 0 99.5 35t34.5 88q0 55 -35 86t-94 31
q-33 0 -60 -10t-52 -24q-31 2 -50 19t-19 45q0 5 0.5 13.5t1.5 18.5l16 184q2 25 15.5 40t39.5 15h61zM164 526v82h289q4 -5 7.5 -16t3.5 -23q0 -20 -9.5 -31.5t-27.5 -11.5h-263z" />
    <glyph glyph-name="six" unicode="6" horiz-adv-x="552" 
d="M461 556q0 -14 -7.5 -26.5t-17.5 -18.5q-23 11 -51 19.5t-59 8.5q-74 0 -123.5 -51.5t-53.5 -158.5q20 19 59.5 39.5t95.5 20.5q89 0 145.5 -51t56.5 -149q0 -61 -26.5 -106.5t-75 -71t-116.5 -25.5q-69 0 -123 31.5t-84.5 97.5t-30.5 171q0 91 22 155.5t60 103.5
t87 57.5t101 18.5q39 0 71 -8t51 -22t19 -35zM288 67q53 0 86 33t33 91q0 59 -33.5 88t-84.5 29q-47 0 -83.5 -20t-57.5 -50l2 1q0 -79 36.5 -125.5t101.5 -46.5z" />
    <glyph glyph-name="seven" unicode="7" horiz-adv-x="463" 
d="M60 608h358q12 -7 19.5 -19.5t7.5 -28.5q0 -11 -2.5 -22.5t-9.5 -23.5l-242 -519q-8 -1 -14.5 -1h-13.5q-25 0 -41.5 11.5t-16.5 32.5q0 14 6 28t15 33l210 427h-302q-4 6 -7.5 16.5t-3.5 22.5q0 21 10 32t27 11z" />
    <glyph glyph-name="eight" unicode="8" horiz-adv-x="567" 
d="M284 -14q-69 0 -121 21t-81 60.5t-29 94.5q0 50 23 85t58.5 56t74.5 28l61 12q66 13 99.5 39t33.5 69t-31.5 67t-87.5 24q-53 0 -85.5 -25t-32.5 -66q0 -34 18.5 -55.5t50 -32.5t69.5 -15l56 -20q39 -8 74.5 -28.5t58 -54t22.5 -84.5q0 -54 -29 -93.5t-81 -60.5t-121 -21
zM284 65q60 0 96.5 26t36.5 75q0 54 -46 85.5t-124 36.5l-49 19q-59 16 -94 52.5t-35 94.5q0 52 27 89t75.5 57.5t112.5 20.5q101 0 159 -45t58 -124q0 -62 -40.5 -97.5t-98.5 -47.5l-73 -19q-64 -9 -101 -41t-37 -82q0 -47 36 -73.5t97 -26.5z" />
    <glyph glyph-name="nine" unicode="9" horiz-adv-x="553" 
d="M79 54q0 14 7.5 26.5t17.5 18.5q21 -11 51 -21t69 -10q50 0 91 21t65 67t24 120q-10 -10 -30 -23.5t-49 -23t-66 -9.5q-57 0 -105.5 20t-77.5 63.5t-29 112.5q0 62 28 108t77 71.5t112 25.5q71 0 124.5 -32.5t84 -98.5t30.5 -168q0 -120 -34.5 -194t-95.5 -108t-143 -34
q-63 0 -107 17.5t-44 50.5zM275 299q45 0 80.5 22t48.5 50l-1 -6q0 82 -36.5 128.5t-103.5 46.5q-50 0 -83.5 -32.5t-33.5 -89.5q0 -62 38 -90.5t91 -28.5z" />
    <glyph glyph-name="colon" unicode=":" horiz-adv-x="203" 
d="M40 393q0 27 16.5 45.5t45.5 18.5q30 0 47 -18.5t17 -45.5q0 -28 -17 -46t-47 -18q-29 0 -45.5 18t-16.5 46zM38 50q0 27 16.5 45.5t46.5 18.5t46.5 -18.5t16.5 -45.5t-16.5 -45.5t-46.5 -18.5t-46.5 18.5t-16.5 45.5z" />
    <glyph glyph-name="semicolon" unicode=";" horiz-adv-x="215" 
d="M44 393q0 27 16.5 45.5t46.5 18.5t46.5 -18.5t16.5 -45.5q0 -28 -16.5 -46t-46.5 -18t-46.5 18t-16.5 46zM104 -90q-20 -30 -48 -30q-27 0 -44 19q10 29 21.5 66t21.5 75t15 66q10 5 22 8.5t26 3.5q21 0 33.5 -9.5t12.5 -32.5t-10.5 -56.5t-25 -63.5t-24.5 -46z" />
    <glyph glyph-name="less" unicode="&#x3c;" horiz-adv-x="476" 
d="M144 296l299 -152q2 -6 2 -10.5v-10.5q0 -19 -11.5 -32t-33.5 -13q-10 0 -21 4.5t-26 12.5l-291 156q-13 19 -13 45q0 20 6.5 32t16.5 18l327 167q24 -7 33.5 -19.5t9.5 -27.5q0 -20 -11.5 -32t-30.5 -23z" />
    <glyph glyph-name="equal" unicode="=" horiz-adv-x="516" 
d="M428 357h-372q-4 7 -6.5 16.5t-2.5 21.5q0 21 11 31t29 10h373q3 -7 5.5 -16.5t2.5 -21.5q0 -21 -10.5 -31t-29.5 -10zM428 154h-372q-4 7 -6.5 16t-2.5 21q0 21 11 31t29 10h373q3 -6 5.5 -16.5t2.5 -21.5q0 -20 -10.5 -30t-29.5 -10z" />
    <glyph glyph-name="greater" unicode="&#x3e;" horiz-adv-x="466" 
d="M325 299l-292 149q-1 6 -1 11v10q0 18 11 31.5t33 13.5q10 0 21.5 -4.5t24.5 -11.5l284 -156q13 -19 13 -45q0 -20 -6 -32t-17 -19l-318 -166q-23 7 -33 20t-10 28q0 19 11.5 31t30.5 23z" />
    <glyph glyph-name="question" unicode="?" horiz-adv-x="467" 
d="M218 225l-99 -23q-10 9 -17.5 22.5t-7.5 30.5t9.5 27.5t32.5 15.5l70 19q58 15 89 44t31 77q0 42 -31.5 73t-98.5 31q-40 0 -79.5 -12t-63.5 -31q-12 9 -19.5 21.5t-7.5 27.5q0 34 50 56.5t127 22.5q69 0 119.5 -24t78.5 -66.5t28 -97.5q0 -85 -52.5 -136.5t-158.5 -77.5
zM104 51q0 28 17.5 46.5t46.5 18.5t47 -18.5t18 -46.5q0 -27 -18 -45t-47 -18t-46.5 18t-17.5 45z" />
    <glyph glyph-name="at" unicode="@" horiz-adv-x="1014" 
d="M400 200q0 -60 30 -91t81 -31q35 0 61.5 15.5t50.5 46.5l17 -86q-21 -23 -56.5 -38.5t-86.5 -15.5q-88 0 -142 52.5t-54 146.5q0 73 29.5 125t82 80t122.5 28q40 0 74.5 -9.5t58.5 -22.5q40 -22 40 -53q0 -6 -0.5 -13.5t-1.5 -14.5l-26 -260l-94 -1l27 277
q-14 7 -34.5 12t-47.5 5q-58 0 -94.5 -39.5t-36.5 -112.5zM614 36q4 16 12 30.5t19 23t24 8.5q11 -8 27.5 -16t38.5 -8q61 0 92.5 54.5t31.5 140.5q0 91 -41.5 160.5t-116.5 108.5t-176 39q-113 0 -198 -47t-131.5 -131t-46.5 -195q0 -106 43 -184t120 -121t179 -43
q39 0 68 4.5t49 10.5q6 -7 10 -17t4 -20q0 -17 -12.5 -29.5t-43 -19.5t-83.5 -7q-73 0 -138 18t-118.5 54t-92 87.5t-59.5 118.5t-21 148q0 102 33.5 185t96 142t149 91t191.5 32q99 0 178.5 -27.5t136 -78.5t86.5 -122t30 -158q0 -130 -56 -201.5t-164 -71.5
q-31 0 -63.5 10.5t-57.5 30.5z" />
    <glyph glyph-name="A" unicode="A" horiz-adv-x="599" 
d="M302 528h-4q-14 -39 -32.5 -92t-38 -109.5t-37.5 -107.5l-8 -34q-6 -19 -14 -44t-17 -52l-17 -51l-13 -39q-8 -4 -17 -6t-23 -2q-22 0 -37 10.5t-15 31.5q0 10 3 20.5t7 23.5q11 33 28.5 82.5t38 107.5t43 118t43 115.5t37.5 97.5q10 6 30 11t40 5q26 0 48.5 -8t28.5 -25
q23 -57 49 -129.5t53 -151t51 -152.5t43 -134q-8 -10 -22 -16t-31 -6q-25 0 -37 10t-19 33l-49 149l-11 43q-18 57 -37 113.5t-35.5 105.5t-28.5 82zM136 155l34 80h268l17 -80h-319z" />
    <glyph glyph-name="B" unicode="B" horiz-adv-x="603" 
d="M412 353v-77h-261v77h261zM307 276l27 59q72 0 119.5 -22t71.5 -59t24 -84q0 -92 -67 -137t-192 -45q-26 0 -54 1.5t-55.5 6t-51.5 11.5q-45 13 -45 51v503q0 17 9.5 26.5t25.5 14.5q34 10 75 14t87 4q116 0 180.5 -41t64.5 -126q0 -43 -22.5 -78t-70.5 -55.5t-124 -20.5
l-8 54q61 0 92 25t31 71q0 45 -36 68t-106 23q-31 0 -55.5 -2.5t-44.5 -5.5v-453q22 -5 52 -8t59 -3q74 0 114 26t40 79q0 48 -35.5 75.5t-104.5 27.5z" />
    <glyph glyph-name="C" unicode="C" horiz-adv-x="585" 
d="M535 536q0 -15 -9.5 -27.5t-21.5 -18.5q-25 18 -59.5 33t-87.5 15q-59 0 -105 -26.5t-72.5 -79t-26.5 -129.5q0 -116 57.5 -175t150.5 -59q50 0 87 14.5t62 32.5q12 -6 21 -18.5t9 -28.5q0 -13 -7 -24.5t-23 -20.5q-22 -15 -60.5 -26.5t-97.5 -11.5q-85 0 -153.5 35
t-108.5 105.5t-40 176.5q0 105 41 176t108.5 107t147.5 36q56 0 98.5 -12.5t66 -32t23.5 -41.5z" />
    <glyph glyph-name="D" unicode="D" horiz-adv-x="655" 
d="M502 309q0 -118 -56.5 -178t-163.5 -60q-26 0 -51.5 1.5t-46.5 7.5v450q19 4 41 5.5t50 1.5q63 0 114.5 -23.5t82 -73.5t30.5 -131zM605 310q0 104 -42 172.5t-116.5 103t-173.5 34.5q-39 0 -79.5 -3.5t-74.5 -14.5q-16 -5 -25.5 -14t-9.5 -26v-505q0 -37 45 -51
q37 -12 79.5 -15t73.5 -3q98 0 170.5 35t112.5 106.5t40 180.5z" />
    <glyph glyph-name="E" unicode="E" horiz-adv-x="534" 
d="M84 381h99v-373q-5 -2 -18 -5.5t-27 -3.5q-25 0 -39.5 15t-14.5 39v328zM183 231h-99v323q0 24 14.5 39t39.5 15q14 0 27 -3t18 -6v-368zM138 270v82h301q4 -5 7.5 -16t3.5 -23q0 -20 -9.5 -31.5t-27.5 -11.5h-275zM138 -1v82h336q4 -5 7.5 -15.5t3.5 -23.5
q0 -20 -9.5 -31.5t-27.5 -11.5h-310zM138 525v83h332q3 -6 6.5 -16.5t3.5 -22.5q0 -20 -9.5 -32t-26.5 -12h-306z" />
    <glyph glyph-name="F" unicode="F" horiz-adv-x="520" 
d="M184 247l-100 1v306q0 24 14.5 39t39.5 15q14 0 27 -3t19 -6v-352zM138 253v82h297q4 -6 7.5 -16t3.5 -23q0 -20 -9.5 -31.5t-27.5 -11.5h-271zM138 524v84h332q4 -6 7.5 -16.5t3.5 -23.5q0 -20 -9.5 -32t-27.5 -12h-306zM84 343h101v-342q-6 -1 -19 -4t-27 -3
q-28 0 -41.5 11t-13.5 35v303z" />
    <glyph glyph-name="G" unicode="G" horiz-adv-x="644" 
d="M579 290v-215q0 -20 -10.5 -33t-32.5 -24q-26 -14 -71.5 -23t-92.5 -9q-94 0 -166.5 34t-114 104t-41.5 179q0 106 42.5 177t113.5 106.5t156 35.5q58 0 102 -12.5t68 -31.5t24 -41q0 -16 -9 -28t-21 -18q-27 17 -64 32t-93 15q-61 0 -110 -26.5t-77.5 -79t-28.5 -129.5
q0 -81 29 -132.5t79 -76.5t112 -25q34 0 62.5 6t45.5 14v166h-143q-3 6 -6.5 16.5t-3.5 22.5q0 21 9.5 31.5t26.5 10.5h168q20 0 33.5 -12.5t13.5 -33.5z" />
    <glyph glyph-name="H" unicode="H" horiz-adv-x="658" 
d="M84 378h101v-376q-7 -2 -19.5 -5t-27.5 -3q-28 0 -41 11t-13 36v337zM185 278h-101v328q7 2 20 5t27 3q27 0 40.5 -10.5t13.5 -35.5v-290zM473 378h100v-376q-7 -2 -19.5 -5t-26.5 -3q-28 0 -41 11t-13 36v337zM573 278h-100v328q6 2 19 5t27 3q28 0 41 -10.5t13 -36.5
v-289zM527 266h-389v82h389v-82z" />
    <glyph glyph-name="I" unicode="I" horiz-adv-x="271" 
d="M85 379h100v-377q-6 -2 -19 -5t-27 -3q-28 0 -41 11t-13 36v338zM185 279h-100v327q6 2 19.5 5t27.5 3q27 0 40 -10.5t13 -35.5v-289z" />
    <glyph glyph-name="J" unicode="J" horiz-adv-x="390" 
d="M207 289h100v-135q0 -59 -22.5 -96t-61 -53.5t-86.5 -16.5q-55 0 -84 15t-29 42q0 15 6 26t12 17q15 -6 35 -11t41 -5q44 0 66.5 21.5t22.5 68.5v127zM307 255h-100v351q6 2 19.5 5t26.5 3q27 0 40.5 -10.5t13.5 -35.5v-313z" />
    <glyph glyph-name="K" unicode="K" horiz-adv-x="576" 
d="M153 313l91 35q100 -99 173.5 -176t123.5 -124q-1 -26 -16 -41t-37 -15t-38 12t-32 28zM253 279l-111 11l304 322q35 -1 51 -15.5t16 -34.5q0 -16 -7.5 -29.5t-24.5 -29.5zM84 382h101v-381q-7 -2 -19.5 -4.5t-27.5 -2.5q-28 0 -41 10.5t-13 35.5v342zM185 282h-101v324
q7 2 20 5t27 3q27 0 40.5 -10.5t13.5 -35.5v-286z" />
    <glyph glyph-name="L" unicode="L" horiz-adv-x="503" 
d="M84 372h101v-364l-47 -9q-24 0 -39 15t-15 39v319zM138 -1v85h322q6 -6 9.5 -16.5t3.5 -23.5q0 -21 -10.5 -33t-28.5 -12h-296zM185 278h-101v328q7 2 20 5t27 3q27 0 40.5 -10.5t13.5 -35.5v-290z" />
    <glyph glyph-name="M" unicode="M" horiz-adv-x="783" 
d="M445 156q-8 -6 -21.5 -10.5t-30.5 -4.5q-20 0 -34.5 6t-19.5 19q-48 107 -83.5 192.5t-56.5 142.5h-4q-3 -72 -6 -134t-6.5 -119.5t-6.5 -117.5t-8 -129q-7 -3 -19 -5t-25 -2q-26 0 -38 10t-12 31q0 14 2 57.5t5.5 105t8.5 130.5t10 136.5t10 122.5q8 8 25.5 16t42.5 8
q29 0 47.5 -10.5t28.5 -33.5q23 -47 47 -103.5t46.5 -113.5t43.5 -107h4q40 102 79.5 196t67.5 160q10 6 26 9t32 3q28 0 45 -9t21 -28q4 -18 9 -59t10 -96t9.5 -115t8.5 -118t7.5 -105t4.5 -74q-11 -7 -22.5 -10t-27.5 -3q-20 0 -34.5 8.5t-16.5 31.5q-5 93 -10 181
t-8.5 161.5t-5.5 121.5h-5q-19 -52 -53.5 -133t-86.5 -209z" />
    <glyph glyph-name="N" unicode="N" horiz-adv-x="664" 
d="M84 511l87 5q4 -34 6.5 -76t4 -85t1.5 -82v-271q-6 -2 -19 -5t-27 -3q-27 0 -40 10.5t-13 34.5v472zM580 97l-88 -5q-9 82 -10.5 163.5t-1.5 157.5v194q7 2 19.5 4.5t26.5 2.5q28 0 41 -10.5t13 -34.5v-472zM580 132v28v-147q-10 -8 -26.5 -13.5t-37.5 -5.5
q-27 0 -47 9.5t-36 38.5l-172 296q-14 26 -30 55.5t-30.5 57t-23.5 47.5l-93 -22v116q9 10 26.5 16t37.5 6q27 0 47.5 -10t35.5 -38l173 -296q14 -26 30 -55.5t29.5 -57.5t22.5 -48z" />
    <glyph glyph-name="O" unicode="O" horiz-adv-x="692" 
d="M641 304q0 -104 -39 -175t-105.5 -107t-151.5 -36q-83 0 -150.5 36t-106 107t-38.5 175t39.5 174.5t106.5 107t149 36.5q84 0 150.5 -36.5t106 -107t39.5 -174.5zM538 304q0 113 -52.5 173.5t-140.5 60.5q-86 0 -139 -60.5t-53 -173.5t52.5 -174t140.5 -61t140 61t52 174
z" />
    <glyph glyph-name="P" unicode="P" horiz-adv-x="570" 
d="M84 211v350q0 17 9.5 26t25.5 15q30 9 72.5 13.5t81.5 4.5q129 0 190.5 -54.5t61.5 -147.5q0 -63 -27.5 -109.5t-82.5 -72t-138 -25.5h-193zM138 -6q-28 0 -41 11t-13 36v217h101v-256q-7 -2 -19.5 -5t-27.5 -3zM184 293h87q72 0 112.5 31t40.5 93t-39 91t-111 29
q-25 0 -48 -2t-42 -5v-237z" />
    <glyph glyph-name="Q" unicode="Q" horiz-adv-x="693" 
d="M331 1l98 26q56 -32 96 -51t73.5 -32.5t68.5 -26.5q2 -7 2 -11.5v-8.5q0 -26 -15 -40.5t-42 -14.5q-34 0 -85.5 27t-113.5 73zM641 304q0 -104 -39 -174.5t-105.5 -107t-151.5 -36.5q-83 0 -150.5 36.5t-106 107t-38.5 174.5t39.5 175t106.5 107t149 36q84 0 150.5 -36
t106 -107t39.5 -175zM538 304q0 113 -52.5 173.5t-140.5 60.5q-86 0 -139 -60.5t-53 -173.5t52.5 -173.5t140.5 -60.5t140 60.5t52 173.5z" />
    <glyph glyph-name="R" unicode="R" horiz-adv-x="593" 
d="M184 304h102q67 0 106 29.5t39 87.5q0 57 -40 86.5t-116 29.5q-24 0 -48 -2t-43 -6v-225zM289 223h-205v338q0 17 9.5 26t25.5 15q30 9 73 13.5t85 4.5q128 0 191.5 -52.5t63.5 -145.5q0 -60 -28.5 -104.5t-82.5 -69.5t-132 -25zM283 252l80 30q27 -34 55.5 -70t55 -70.5
t47.5 -61.5t33 -44q-5 -20 -21.5 -32t-33.5 -12q-23 0 -36 11t-27 30zM84 254h101v-252q-7 -2 -19.5 -5t-27.5 -3q-28 0 -41 11t-13 36v213z" />
    <glyph glyph-name="S" unicode="S" horiz-adv-x="529" 
d="M256 69q63 0 94.5 27.5t31.5 69.5q0 37 -24 61t-76 39l-78 23q-45 15 -78.5 36t-52 52.5t-18.5 75.5q0 79 58 124t156 45q55 0 98 -11.5t67.5 -30.5t24.5 -42q0 -15 -8 -27.5t-20 -19.5q-24 19 -65.5 33t-90.5 14q-55 0 -86.5 -23t-31.5 -62q0 -31 22.5 -50.5t71.5 -33.5
l59 -18q82 -24 128.5 -67t46.5 -118q0 -80 -59.5 -130t-168.5 -50q-61 0 -107 13.5t-72.5 35t-26.5 44.5q0 20 12 33t27 20q24 -22 65.5 -42.5t100.5 -20.5z" />
    <glyph glyph-name="T" unicode="T" horiz-adv-x="530" 
d="M246 524l-4 84h253q4 -6 7.5 -16.5t3.5 -23.5q0 -20 -10 -32t-27 -12h-223zM284 608l4 -84h-254q-3 7 -6.5 17.5t-3.5 22.5q0 22 9.5 33t27.5 11h223zM214 551h100v-549q-6 -2 -19 -5t-27 -3q-28 0 -41 11t-13 36v510z" />
    <glyph glyph-name="U" unicode="U" horiz-adv-x="652" 
d="M326 -14q-77 0 -131.5 28t-83 79t-28.5 119v78h100v-71q0 -74 40.5 -112t102.5 -38q61 0 102 38t41 112v71h100v-78q0 -68 -28.5 -119t-83 -79t-131.5 -28zM183 252h-100v354q6 2 19 5t27 3q28 0 41 -10.5t13 -35.5v-316zM569 252h-100v354q6 2 19 5t27 3q28 0 41 -10.5
t13 -35.5v-316z" />
    <glyph glyph-name="V" unicode="V" horiz-adv-x="593" 
d="M363 10q-7 -5 -24 -10.5t-37 -5.5q-24 0 -42 7t-24 20q-16 30 -37 81t-45 114t-47.5 129.5t-43.5 129.5t-35 113q8 9 23 17t33 8q22 0 34 -10.5t19 -32.5q41 -124 79.5 -240.5t83.5 -235.5h5q26 73 55 158t56.5 175t49.5 176q9 5 20 7.5t24 2.5q22 0 36 -10.5t14 -32.5
q0 -16 -11 -57.5t-29 -97t-40 -116t-44.5 -118.5t-41 -103t-31.5 -68z" />
    <glyph glyph-name="W" unicode="W" horiz-adv-x="815" 
d="M356 457q9 4 23 8t30 4q24 0 40.5 -8t20.5 -23q23 -68 42 -126.5t36 -113t34 -112.5h5q17 89 33 171.5t31.5 167t28.5 178.5q18 10 43 10q22 0 36.5 -10t14.5 -31q0 -20 -5.5 -58.5t-14.5 -90t-21 -108.5t-25.5 -113t-27 -105t-25.5 -83q-11 -7 -29 -12.5t-39 -5.5
q-27 0 -45.5 8t-24.5 22q-12 34 -30 86.5t-37.5 115t-37.5 125.5q-17 -62 -36.5 -127t-38 -121.5t-32.5 -91.5q-9 -6 -26.5 -11.5t-39.5 -5.5q-26 0 -45 8.5t-25 21.5q-10 25 -24.5 74t-30 112.5t-30.5 132t-27.5 132.5t-20.5 114q9 8 23.5 15t31.5 7q22 0 35 -10t17 -34
q14 -71 25.5 -131.5t22.5 -117t23 -114t26 -120.5h5q13 44 25 83.5t24.5 81.5t27.5 91.5t34 114.5z" />
    <glyph glyph-name="X" unicode="X" horiz-adv-x="593" 
d="M264 284l-19 6l-201 276q6 19 21 33.5t39 14.5q18 0 31.5 -10.5t27.5 -31.5l155 -224l27 -21l206 -287q-4 -21 -19 -34t-39 -13q-18 0 -30.5 9t-27.5 31zM344 293l-28 -22l-195 -276q-5 -1 -10.5 -1.5t-11.5 -0.5q-27 0 -42 12.5t-15 32.5q0 16 7.5 29.5t20.5 29.5
l176 229l37 33l179 250q5 2 12 2.5t15 0.5q25 0 39 -12t14 -31q0 -13 -7.5 -26.5t-18.5 -28.5q-42 -55 -84.5 -110t-87.5 -111z" />
    <glyph glyph-name="Y" unicode="Y" horiz-adv-x="555" 
d="M327 212h-89q-27 41 -57.5 88t-60.5 95.5t-56 95.5t-46 87q6 12 19 23.5t34 11.5q23 0 36.5 -11t26.5 -36q10 -19 25 -45t32 -56.5t34 -60.5t31.5 -55.5t23.5 -41.5h5q32 55 58 103.5t50.5 96t48.5 97.5q9 5 20.5 7t21.5 2q22 0 34.5 -11t12.5 -31q0 -10 -14 -40.5
t-40 -76.5t-64 -107.5t-86 -134.5zM233 255h99v-253q-6 -2 -19 -5t-27 -3q-28 0 -40.5 11t-12.5 35v215z" />
    <glyph glyph-name="Z" unicode="Z" horiz-adv-x="558" 
d="M72 109l375 499h35q24 -20 24 -49q0 -17 -6.5 -30.5t-18.5 -29.5l-373 -499h-38q-10 8 -16.5 21t-6.5 28q0 16 7 30.5t18 29.5zM91 0l20 84h390q5 -7 8.5 -17t3.5 -24q0 -20 -10 -31.5t-27 -11.5h-385zM461 608l-17 -84h-378q-4 7 -8 17.5t-4 23.5q0 21 10.5 32t27.5 11
h369z" />
    <glyph glyph-name="bracketleft" unicode="[" horiz-adv-x="275" 
d="M64 -55v643h90v-643h-90zM64 -38h194q3 -7 5.5 -16t2.5 -21q0 -19 -10 -29t-28 -10h-116q-24 0 -36 13.5t-12 34.5v28zM112 652h146q3 -6 5.5 -15t2.5 -21q0 -19 -10 -29t-28 -10h-164v28q0 21 12 34t36 13z" />
    <glyph glyph-name="backslash" unicode="\" horiz-adv-x="345" 
d="M122 634l187 -675q-8 -8 -22.5 -15t-28.5 -7q-16 0 -27 7.5t-16 24.5l-187 675q10 10 24 16t27 6q16 0 27.5 -7t15.5 -25z" />
    <glyph glyph-name="bracketright" unicode="]" horiz-adv-x="279" 
d="M211 595v-645h-90v645h90zM211 577h-194q-3 7 -5.5 16t-2.5 20q0 21 10.5 30t28.5 9h115q24 0 36 -13t12 -34v-28zM163 -114h-146q-3 7 -5.5 16t-2.5 20q0 21 10.5 30.5t28.5 9.5h163v-28q0 -21 -12 -34.5t-36 -13.5z" />
    <glyph glyph-name="asciicircum" unicode="^" horiz-adv-x="468" 
d="M186 645q6 5 19 8.5t28 3.5q38 0 48 -19q13 -23 32 -60t39 -80t37.5 -84t28.5 -71q-7 -8 -19 -15t-26 -7q-19 0 -30.5 8.5t-20.5 30.5l-88 204h-7q-5 -12 -16 -38t-25.5 -60t-28 -69.5t-23.5 -65.5q-9 -5 -19.5 -8t-22.5 -3q-17 0 -29.5 8.5t-12.5 27.5q0 10 11.5 39
t29.5 67t37 76t35 67.5t23 39.5z" />
    <glyph glyph-name="underscore" unicode="_" horiz-adv-x="474" 
d="M434 -136h-426q-3 7 -5.5 16.5t-2.5 21.5q0 21 10.5 31t29.5 10h425q3 -7 6 -17t3 -21q0 -21 -10.5 -31t-29.5 -10z" />
    <glyph glyph-name="grave" unicode="`" horiz-adv-x="302" 
d="M146 538l-95 98q-1 4 -1.5 8.5t-0.5 6.5q0 21 13 33t32 12q13 0 23.5 -5.5t19.5 -15.5l89 -113q-1 -20 -12.5 -31t-27.5 -11q-13 0 -22 5t-18 13z" />
    <glyph glyph-name="a" unicode="a" horiz-adv-x="508" 
d="M244 -14q-96 0 -150 37.5t-54 109.5q0 66 43 101t122 43l140 14v23q0 46 -29.5 67t-79.5 21q-40 0 -77.5 -11t-66.5 -26q-9 8 -16 19t-7 23q0 31 34 46q27 13 63.5 20t75.5 7q91 0 145 -40t54 -126v-234q0 -23 -10 -35.5t-27 -23.5q-26 -14 -67 -24.5t-93 -10.5zM244 63
q37 0 63 7.5t38 15.5v132l-114 -12q-47 -3 -70.5 -20.5t-23.5 -50.5t26.5 -52.5t80.5 -19.5z" />
    <glyph glyph-name="b" unicode="b" horiz-adv-x="557" 
d="M289 480q63 0 113.5 -27t79.5 -81.5t29 -137.5q0 -84 -30.5 -139t-84 -82t-125.5 -27q-52 0 -93 13t-67 29q-21 14 -30 27.5t-9 35.5v329h98v-326q14 -10 40.5 -19t60.5 -9q63 0 101.5 41t38.5 127q0 87 -38.5 127t-99.5 40q-38 0 -67.5 -14.5t-48.5 -33.5l-12 79
q22 16 58 32t86 16zM170 399h-98v250q7 2 19.5 4.5t26.5 2.5q27 0 39.5 -10t12.5 -35v-212z" />
    <glyph glyph-name="c" unicode="c" horiz-adv-x="480" 
d="M296 400q-64 0 -107.5 -43.5t-43.5 -124.5q0 -80 42 -123t109 -43q40 0 67 11t48 24q12 -7 19.5 -17.5t7.5 -25.5q0 -31 -41 -51t-105 -20q-72 0 -128 27t-87.5 81.5t-31.5 136.5q0 83 33 138t89 82.5t122 27.5q64 0 104.5 -22t40.5 -52q0 -13 -7.5 -23.5t-18.5 -16.5
q-21 13 -47 23.5t-65 10.5z" />
    <glyph glyph-name="d" unicode="d" horiz-adv-x="555" 
d="M385 89v327l97 1v-335q0 -20 -8.5 -33t-27.5 -24q-22 -14 -61 -26.5t-89 -12.5q-75 0 -131.5 26t-88 80.5t-31.5 138.5q0 88 31.5 142.5t84.5 80.5t117 26q39 0 72 -10t52 -25v-87q-17 18 -45.5 30.5t-66.5 12.5q-40 0 -73 -17t-52.5 -54.5t-19.5 -99.5q0 -86 41 -125
t109 -39q32 0 53 7t37 16zM482 395l-98 -1v255q7 2 19.5 4.5t25.5 2.5q28 0 40.5 -10t12.5 -35v-216z" />
    <glyph glyph-name="e" unicode="e" horiz-adv-x="525" 
d="M110 177l-4 73l287 41q-3 48 -34 80t-86 32q-58 0 -95.5 -40.5t-38.5 -116.5l1 -35q8 -73 51.5 -109.5t115.5 -36.5q42 0 77 13t55 29q12 -8 19.5 -19t7.5 -25q0 -22 -22 -39.5t-59 -27.5t-84 -10q-77 0 -134.5 28.5t-89.5 84.5t-32 138q0 59 17.5 104t48.5 76t72.5 47
t89.5 16q63 0 111 -26t75 -73t27 -107q0 -25 -11.5 -36t-33.5 -14z" />
    <glyph glyph-name="f" unicode="f" horiz-adv-x="405" 
d="M152 360v78h207q4 -5 7.5 -15t3.5 -23q0 -20 -9.5 -30t-27.5 -10h-181zM168 495v-122h-96v127q0 60 23.5 98t66 56t99.5 18q60 0 93 -16t33 -43q0 -13 -5 -23.5t-14 -18.5q-18 9 -43.5 15t-51.5 6q-57 0 -81 -23t-24 -74zM72 413h98v-411q-6 -2 -18 -5t-26 -3
q-27 0 -40.5 10.5t-13.5 34.5v374z" />
    <glyph glyph-name="g" unicode="g" horiz-adv-x="543" 
d="M264 15q-58 0 -107.5 22.5t-79.5 74t-30 135.5q0 77 30 129t83 78t123 26q48 0 88.5 -12t66.5 -29q16 -11 26 -24.5t10 -33.5v-310h-97v305q-16 10 -38.5 17.5t-54.5 7.5q-62 0 -100.5 -38t-38.5 -115q0 -85 38.5 -120t94.5 -35q41 0 66.5 14.5t41.5 31.5l4 -84
q-16 -15 -48 -27.5t-78 -12.5zM378 -10v102h96v-107q0 -66 -30 -107.5t-81 -60t-115 -18.5q-50 0 -87 10.5t-53 19.5q-31 18 -31 48q0 15 7 26.5t18 17.5q22 -16 60.5 -29t81.5 -13q64 0 99 27t35 84z" />
    <glyph glyph-name="h" unicode="h" horiz-adv-x="558" 
d="M487 200h-98v92q0 56 -31 82.5t-79 26.5q-37 0 -68.5 -14.5t-53.5 -33.5l-12 79q24 16 62 32t87 16q86 0 139.5 -46t53.5 -139v-95zM72 264h98v-262q-6 -2 -18 -5t-26 -3q-27 0 -40.5 10.5t-13.5 34.5v225zM389 263l98 -1v-260q-6 -2 -18.5 -5t-26.5 -3q-27 0 -40 10.5
t-13 34.5v224zM170 215h-98v434q7 2 19.5 4.5t26.5 2.5q27 0 39.5 -10t12.5 -35v-396z" />
    <glyph glyph-name="i" unicode="i" horiz-adv-x="249" 
d="M64 611q0 24 17 41t43 17q27 0 43.5 -17t16.5 -41q0 -25 -16.5 -41.5t-43.5 -16.5q-26 0 -43 16.5t-17 41.5zM75 264h98v-262q-6 -2 -18 -5t-27 -3q-26 0 -39.5 10.5t-13.5 34.5v225zM173 215h-98v249q6 2 18.5 4.5t27.5 2.5q27 0 39.5 -10t12.5 -35v-211z" />
    <glyph glyph-name="j" unicode="j" horiz-adv-x="252" 
d="M3 -137q24 11 41 23.5t26 33.5t9 57v312h98v-327q0 -59 -20 -93.5t-47.5 -49t-50.5 -14.5q-28 0 -41 17t-15 41zM66 611q0 24 17.5 41t43.5 17t42.5 -17t16.5 -41q0 -25 -16.5 -41.5t-42.5 -16.5t-43.5 16.5t-17.5 41.5zM177 206l-98 9v249q6 2 18.5 4.5t26.5 2.5
q27 0 40 -10t13 -35v-220z" />
    <glyph glyph-name="k" unicode="k" horiz-adv-x="501" 
d="M217 206l-64 47l227 222q30 0 47 -13t17 -34q0 -17 -11 -30.5t-33 -31.5zM153 237l72 39l245 -225q-2 -27 -16 -42.5t-38 -15.5q-18 0 -33 9.5t-31 27.5zM72 267l98 -9v-256q-6 -2 -18 -5t-26 -3q-27 0 -40.5 10.5t-13.5 34.5v228zM170 209l-98 9v431q7 2 19.5 4.5
t26.5 2.5q27 0 39.5 -10t12.5 -35v-402z" />
    <glyph glyph-name="l" unicode="l" horiz-adv-x="254" 
d="M78 264l98 -10v-252q-6 -2 -18.5 -5t-26.5 -3q-27 0 -40 10.5t-13 34.5v225zM176 206l-98 9v434q6 2 18.5 4.5t26.5 2.5q27 0 40 -10t13 -35v-405z" />
    <glyph glyph-name="m" unicode="m" horiz-adv-x="822" 
d="M460 323v-115h-98v105q0 46 -26.5 67t-68.5 21q-29 0 -55 -9t-44 -21v-163h-98v164q0 22 9.5 36.5t29.5 27.5q29 18 72 31t88 13q50 0 90 -15t62 -43q6 -7 11 -12t9 -13q8 -13 13.5 -32.5t5.5 -41.5zM752 318v-110h-98v105q0 46 -26 67t-68 21q-32 0 -61.5 -13t-52.5 -37
l-44 66q28 25 70 44t98 19q53 0 94 -17t64.5 -53t23.5 -92zM70 259h98v-257q-6 -2 -18 -5t-26 -3q-27 0 -40.5 10.5t-13.5 34.5v220zM362 259h98v-257q-6 -2 -18.5 -5t-26.5 -3q-27 0 -40 10.5t-13 34.5v220zM654 259h98v-257q-7 -2 -19.5 -5t-25.5 -3q-28 0 -40.5 10.5
t-12.5 34.5v220z" />
    <glyph glyph-name="n" unicode="n" horiz-adv-x="557" 
d="M486 307v-100h-98v95q0 51 -29 75t-77 24q-36 0 -64.5 -9t-49.5 -21v-164h-98v165q0 22 9.5 36.5t29.5 27.5q28 17 73 30.5t100 13.5q96 0 150 -43t54 -130zM70 259h98v-257q-6 -2 -18 -5t-26 -3q-27 0 -40.5 10.5t-13.5 34.5v220zM388 259h98v-257q-6 -2 -18.5 -5
t-26.5 -3q-27 0 -40 10.5t-13 34.5v220z" />
    <glyph glyph-name="o" unicode="o" horiz-adv-x="560" 
d="M514 233q0 -75 -29 -130.5t-81.5 -86t-123.5 -30.5t-124 30.5t-82 86t-29 130.5q0 76 29.5 131.5t82.5 85.5t123 30t122.5 -30.5t82 -85.5t29.5 -131zM280 401q-62 0 -98 -44.5t-36 -123.5t35.5 -123t98.5 -44t98.5 44.5t35.5 122.5q0 79 -35.5 123.5t-98.5 44.5z" />
    <glyph glyph-name="p" unicode="p" horiz-adv-x="554" 
d="M278 -13q-41 0 -76.5 11.5t-54.5 25.5v88q20 -18 48.5 -32t68.5 -14q66 0 105.5 40.5t39.5 128.5q0 61 -19.5 97t-52 52.5t-72.5 16.5q-32 0 -55.5 -8t-41.5 -18v-326h-98v329q0 22 8 35t30 26q28 16 67.5 28.5t89.5 12.5q69 0 124 -25.5t87 -79.5t32 -140
q0 -83 -29 -138t-81.5 -82.5t-119.5 -27.5zM124 -187q-27 0 -40.5 10.5t-13.5 35.5v222l98 -2v-259q-6 -2 -18 -4.5t-26 -2.5z" />
    <glyph glyph-name="q" unicode="q" horiz-adv-x="554" 
d="M483 66h-97v310q-16 10 -39 17.5t-54 7.5q-41 0 -74.5 -17.5t-53.5 -55t-20 -97.5q0 -87 40 -126t106 -39q34 0 61.5 11.5t43.5 27.5v-87q-19 -13 -49 -22.5t-71 -9.5q-66 0 -118.5 26t-82.5 80.5t-30 138.5t32.5 139.5t87.5 82.5t125 27q50 0 91 -12.5t67 -28.5
q16 -10 25.5 -24t9.5 -33v-316zM385 82l98 1v-266q-6 -2 -18.5 -4.5t-25.5 -2.5q-28 0 -41 10.5t-13 35.5v226z" />
    <glyph glyph-name="r" unicode="r" horiz-adv-x="388" 
d="M168 369v-149h-98v150q0 24 10 39t31 29q28 18 73.5 30t99.5 12q86 0 86 -47q0 -12 -3.5 -22t-9.5 -17q-10 2 -25.5 4t-31.5 2q-42 0 -75.5 -9t-56.5 -22zM70 264l98 -10v-252q-6 -2 -18 -5t-26 -3q-27 0 -40.5 10.5t-13.5 34.5v225z" />
    <glyph glyph-name="s" unicode="s" horiz-adv-x="456" 
d="M413 127q0 -66 -49 -103.5t-142 -37.5q-78 0 -127.5 24t-49.5 56q0 15 7.5 27.5t20.5 20.5q27 -19 63.5 -34t83.5 -15q96 0 96 62q0 26 -16.5 42.5t-49.5 23.5l-72 19q-66 16 -97 48.5t-31 83.5q0 57 46.5 96.5t136.5 39.5q47 0 83 -9.5t56.5 -26t20.5 -36.5
q0 -15 -7 -26.5t-18 -17.5q-12 8 -31.5 17t-45 15t-53.5 6q-42 0 -67 -15t-25 -43q0 -20 14.5 -34.5t47.5 -22.5l61 -15q74 -17 109 -52.5t35 -92.5z" />
    <glyph glyph-name="t" unicode="t" horiz-adv-x="377" 
d="M72 264h97v-130q0 -37 22 -52.5t60 -15.5q16 0 36 5.5t34 12.5q6 -7 11.5 -17t5.5 -23q0 -25 -26.5 -41t-77.5 -16q-74 0 -118 32.5t-44 108.5v136zM126 378v79h201q3 -6 6.5 -16.5t3.5 -22.5q0 -20 -9.5 -30t-25.5 -10h-176zM169 235h-97v362q6 2 18.5 4.5t26.5 2.5
q27 0 39.5 -10t12.5 -35v-324z" />
    <glyph glyph-name="u" unicode="u" horiz-adv-x="556" 
d="M70 174v86h98v-83q0 -59 31.5 -85t86.5 -26q37 0 62.5 7.5t39.5 15.5v171h98v-174q0 -21 -6.5 -35t-27.5 -26q-25 -15 -67.5 -27t-99.5 -12q-67 0 -115.5 20t-74 61.5t-25.5 106.5zM486 210h-98v255q6 2 18.5 4.5t26.5 2.5q27 0 40 -10t13 -35v-217zM168 210h-98v255
q7 2 19.5 4.5t26.5 2.5q27 0 39.5 -10t12.5 -35v-217z" />
    <glyph glyph-name="v" unicode="v" horiz-adv-x="505" 
d="M424 476q21 0 34 -10t13 -31q0 -15 -10.5 -51.5t-28 -86.5t-39 -103.5t-43 -103t-39.5 -84.5q-7 -5 -22.5 -9t-33.5 -4q-21 0 -37.5 6.5t-22.5 18.5q-11 21 -28 59t-36.5 87t-39.5 101.5t-36.5 101t-26.5 84.5q8 11 22.5 18t29.5 7q22 0 34.5 -10t19.5 -35l58 -174
q8 -24 19.5 -56.5t23 -64t18.5 -52.5h5q35 96 67.5 192.5t55.5 189.5q18 10 43 10z" />
    <glyph glyph-name="w" unicode="w" horiz-adv-x="741" 
d="M373 330q-16 -60 -35.5 -120.5t-37.5 -113t-32 -89.5q-9 -6 -22 -10t-33 -4q-21 0 -37.5 7t-22.5 20q-10 20 -22.5 58t-25.5 86.5t-26.5 101t-24.5 101.5t-18 87q8 8 21 15t31 7q22 0 34 -11.5t17 -37.5q9 -49 19.5 -101.5t21.5 -100t20 -84t13 -54.5h4q7 23 23 76
t38 120.5t44 137.5q10 6 23 9.5t29 3.5q21 0 35.5 -7.5t19.5 -22.5q22 -67 41.5 -131t34.5 -113.5t22 -73.5h5q20 87 44 185t39 194q18 11 43 11q20 0 33 -9.5t13 -30.5q0 -12 -6.5 -43t-17 -72.5t-23 -88.5t-26 -90.5t-25.5 -79t-20 -55.5q-7 -5 -22 -9.5t-34 -4.5
q-49 0 -58 24q-13 33 -30 84t-34.5 110.5t-34.5 118.5z" />
    <glyph glyph-name="x" unicode="x" horiz-adv-x="490" 
d="M213 271l19 6q39 51 74.5 97t72.5 99q5 1 7 1h6q26 0 41 -11.5t15 -31.5q0 -14 -6 -26t-21 -29q-32 -40 -65.5 -79.5t-65.5 -78.5l-31 -22q-36 -49 -74 -100.5t-74 -101.5h-7h-8q-28 0 -43 12.5t-15 30.5q0 11 5.5 22t21.5 30q35 46 73.5 91t74.5 91zM272 266l23 -13
q40 -54 81 -106t81 -105q-2 -23 -16 -36t-35 -13q-20 0 -33.5 11t-29.5 32q-28 40 -59.5 84.5t-60.5 83.5l-24 20q-43 52 -81.5 100.5t-78.5 98.5q4 24 18 37.5t33 13.5q20 0 32 -10t24 -27q29 -39 60.5 -84t65.5 -87z" />
    <glyph glyph-name="y" unicode="y" horiz-adv-x="501" 
d="M161 107q-17 33 -39.5 85.5t-46.5 119t-47 139.5q8 11 22 18t30 7q21 0 34.5 -10t20.5 -35q28 -81 58.5 -161t66.5 -165h4q20 43 41.5 104t41 128.5t32.5 128.5q9 4 19.5 7t22.5 3q20 0 34 -10t14 -31q0 -19 -8.5 -57.5t-24 -87.5t-35.5 -102.5t-42.5 -105t-45.5 -93.5
q-48 -87 -88 -133t-76 -46q-26 0 -41.5 14.5t-18.5 35.5q21 19 47.5 48.5t51 63.5t40.5 65q-17 5 -32.5 19t-34.5 51z" />
    <glyph glyph-name="z" unicode="z" horiz-adv-x="471" 
d="M102 0h-39q-9 8 -14.5 19t-5.5 24q0 14 6 26t15 24l302 374h37q9 -9 14.5 -20t5.5 -24t-5.5 -25t-15.5 -24zM387 467v-79h-328q-4 6 -7.5 16.5t-3.5 22.5q0 21 10 30.5t26 9.5h303zM78 0v78h343q3 -5 6.5 -15.5t3.5 -22.5q0 -20 -9.5 -30t-26.5 -10h-317z" />
    <glyph glyph-name="braceleft" unicode="{" horiz-adv-x="292" 
d="M137 273q32 -16 49.5 -49t17.5 -84v-127q0 -35 14 -49.5t42 -16.5q2 -6 2.5 -12t0.5 -12q0 -20 -12 -31t-34 -11q-45 0 -73.5 31t-28.5 93v119q0 52 -18 79t-56 34q-3 6 -5 16.5t-2 19.5t2 19t5 17q38 7 56 34.5t18 77.5v113q0 62 29 93t73 31q23 0 34.5 -10.5
t11.5 -32.5q0 -6 -0.5 -11.5t-2.5 -12.5q-28 -1 -42 -15.5t-14 -49.5v-120q0 -50 -17.5 -83.5t-49.5 -49.5z" />
    <glyph glyph-name="bar" unicode="|" horiz-adv-x="257" 
d="M173 635v-813q-8 -3 -18.5 -5t-23.5 -2q-23 0 -35 10t-12 36v813q9 3 19 5t23 2q24 0 35.5 -9.5t11.5 -36.5z" />
    <glyph glyph-name="braceright" unicode="}" horiz-adv-x="292" 
d="M155 273q-32 16 -49.5 49.5t-17.5 83.5v120q0 35 -14 49.5t-42 15.5q-1 7 -2 12.5t-1 11.5q0 22 12 32.5t34 10.5q45 0 73.5 -31t28.5 -93v-113q0 -50 18.5 -77.5t55.5 -34.5q3 -7 5 -17t2 -19t-1.5 -19.5t-5.5 -16.5q-37 -7 -55.5 -34t-18.5 -79v-119q0 -62 -28.5 -93
t-72.5 -31q-23 0 -35 11t-12 31q0 6 1 12l2 12q28 2 42 16.5t14 49.5v127q0 51 17.5 84t49.5 49z" />
    <glyph glyph-name="asciitilde" unicode="~" horiz-adv-x="459" 
d="M315 288q26 0 38 14.5t20 29.5q26 0 44.5 -14.5t18.5 -39.5q0 -35 -28 -55.5t-72 -20.5q-38 0 -71.5 10t-62.5 19.5t-57 9.5q-27 0 -39 -14.5t-20 -29.5q-25 0 -43.5 15t-18.5 39t13 41.5t36 26.5t50 9q39 0 72.5 -10t63 -20t56.5 -10z" />
    <glyph glyph-name="DEL" 
 />
    <glyph glyph-name="uni00A0" unicode="&#xa0;" horiz-adv-x="200" 
 />
    <glyph glyph-name="exclamdown" unicode="&#xa1;" horiz-adv-x="260" 
d="M81 -118q0 28 0.5 75t2.5 101.5t4.5 108t5.5 96.5q6 5 17 8t22 3q17 0 28 -6.5t13 -22.5q3 -28 5 -77t3.5 -108t2 -115.5t0.5 -97.5q-25 -15 -55 -15q-23 0 -36 12t-13 38zM196 408q0 -28 -17 -46t-47 -18q-29 0 -46.5 18t-17.5 46q0 27 17.5 45t46.5 18q30 0 47 -18
t17 -45z" />
    <glyph glyph-name="cent" unicode="&#xa2;" horiz-adv-x="479" 
d="M224 36h88v-140q-5 -1 -16 -3t-23 -2q-24 0 -36.5 9.5t-12.5 30.5v105zM312 417h-88v155q6 2 16.5 3.5t22.5 1.5q25 0 37 -9.5t12 -30.5v-120zM296 400q-64 0 -107.5 -43.5t-43.5 -124.5q0 -80 42 -123t109 -43q39 0 66.5 11t47.5 24q13 -7 20.5 -17.5t7.5 -25.5
q0 -31 -41 -51t-106 -20q-72 0 -127.5 27t-87 81.5t-31.5 136.5q0 83 33 138t89 82.5t122 27.5q64 0 104 -22t40 -52q0 -13 -7.5 -23.5t-18.5 -16.5q-21 13 -47 23.5t-64 10.5z" />
    <glyph glyph-name="sterling" unicode="&#xa3;" horiz-adv-x="504" 
d="M379 258h-292q-14 0 -24 9.5t-10 30.5q0 12 3.5 21.5t6.5 17.5h341q4 -8 7 -17.5t3 -21.5q0 -21 -9.5 -30.5t-25.5 -9.5zM139 221q0 23 -3.5 58.5t-7.5 73t-4 64.5q0 72 28.5 117t75.5 66.5t104 21.5q66 0 97.5 -21t31.5 -46q0 -10 -6 -23t-18 -21q-21 14 -42.5 21.5
t-52.5 7.5q-60 0 -90 -32.5t-30 -100.5q0 -26 3.5 -62.5t6.5 -70.5t3 -55q0 -48 -13 -82.5t-37 -57.5h278q5 -7 7.5 -16.5t2.5 -22.5q0 -20 -9.5 -30t-25.5 -10h-338q-20 0 -35 13.5t-15 38.5q0 9 1 15q44 22 66 54.5t22 99.5z" />
    <glyph glyph-name="currency" unicode="&#xa4;" horiz-adv-x="533" 
d="M266 110q-53 0 -96.5 21.5t-69 63t-25.5 102.5q0 60 25.5 101.5t69 63t95.5 21.5q53 0 96.5 -21.5t69 -63t25.5 -101.5q0 -61 -25.5 -102.5t-69 -63t-95.5 -21.5zM125 60q-21 4 -37 15.5t-16 29.5q0 13 7.5 25.5t17.5 25.5l52 63l57 -54zM423 67q-13 0 -25 12t-23 25
l-51 63l64 41l85 -101q-8 -20 -21.5 -30t-28.5 -10zM265 182q47 0 75.5 29.5t28.5 85.5q0 54 -28.5 84t-75.5 30q-46 0 -75 -30t-29 -84q0 -56 29 -85.5t75 -29.5zM144 381l-85 101q9 20 22.5 29.5t27.5 9.5t26 -11.5t22 -24.5l52 -64zM386 369l-57 55l81 104
q21 -4 36.5 -14.5t15.5 -29.5q0 -14 -7 -26t-18 -26z" />
    <glyph glyph-name="yen" unicode="&#xa5;" horiz-adv-x="556" 
d="M362 312h-159q-30 46 -62 96t-59 96t-46 82q8 11 21.5 20.5t31.5 9.5q21 0 34 -10.5t26 -35.5l131 -219h5q29 48 50 86.5t42 78t48 90.5q11 6 21.5 8t22.5 2q21 0 32.5 -11t11.5 -29q0 -9 -12 -33t-33 -60t-48 -79.5t-58 -91.5zM231 189h100v-188q-6 -1 -19 -4t-27 -3
q-28 0 -41 11t-13 34v150zM250 275l19 70h230q3 -7 6 -16t3 -20q0 -16 -8.5 -25t-21.5 -9h-228zM299 345l15 -70h-252q-4 5 -7.5 15t-3.5 21q0 19 8.5 26.5t20.5 7.5h219zM478 139h-416q-4 5 -7.5 15t-3.5 21q0 20 8.5 27t20.5 7h417q3 -6 6 -16t3 -20q0 -16 -8 -25t-20 -9z
" />
    <glyph glyph-name="brokenbar" unicode="&#xa6;" horiz-adv-x="293" 
d="M173 636v-325q-8 -3 -18.5 -5t-23.5 -2q-23 0 -35 9.5t-12 36.5v325q9 3 19 5t23 2q24 0 35.5 -10t11.5 -36zM173 148v-326q-8 -3 -18.5 -5t-23.5 -2q-23 0 -35 10t-12 36v326q9 3 19 5t23 2q24 0 35.5 -10t11.5 -36z" />
    <glyph glyph-name="section" unicode="&#xa7;" horiz-adv-x="512" 
d="M454 86q0 -63 -52 -99.5t-153 -36.5q-55 0 -98 10.5t-67.5 29t-24.5 41.5q0 16 7.5 27t18.5 19q33 -20 73 -34.5t89 -14.5q54 0 82.5 15t28.5 44q0 24 -18 36t-59 21l-85 18q-60 11 -98 42t-38 91q0 52 34 82t82 40l41 -41q-27 -10 -45 -29.5t-18 -48.5q0 -25 18 -40.5
t51 -22.5l90 -19q65 -14 103 -42.5t38 -87.5zM454 282q0 -33 -14 -58t-36.5 -41.5t-46.5 -25.5l-61 42q29 13 46.5 31.5t17.5 48.5q0 26 -18.5 41t-59.5 24l-86 17q-38 8 -68 22.5t-47 40t-17 66.5q0 63 50 97.5t137 34.5q49 0 88 -9t61.5 -25t22.5 -37q0 -15 -6.5 -26
t-15.5 -17q-17 8 -40 16.5t-50 14t-56 5.5q-44 0 -69 -14t-25 -42q0 -24 16.5 -35.5t48.5 -18.5l83 -16q67 -15 106 -45.5t39 -90.5z" />
    <glyph glyph-name="dieresis" unicode="&#xa8;" horiz-adv-x="374" 
d="M156 611q0 -22 -16 -38.5t-41 -16.5q-24 0 -39.5 16.5t-15.5 38.5q0 23 15.5 39t39.5 16q25 0 41 -16t16 -39zM337 611q0 -22 -16 -38.5t-41 -16.5q-23 0 -39.5 16.5t-16.5 38.5q0 23 16.5 39t39.5 16q25 0 41 -16t16 -39z" />
    <glyph glyph-name="copyright" unicode="&#xa9;" horiz-adv-x="713" 
d="M50 300q0 87 38.5 157.5t107 112t159.5 41.5t160.5 -41.5t108.5 -112t39 -157.5q0 -85 -39 -153.5t-108.5 -108.5t-160.5 -40t-159.5 40t-107 108.5t-38.5 153.5zM355 550q-72 0 -125 -32.5t-81 -88t-28 -129.5q0 -70 28 -124.5t81 -85t125 -30.5q73 0 125.5 30.5
t80.5 85t28 124.5q0 74 -28 129.5t-80.5 88t-125.5 32.5zM380 411q-39 0 -69 -25.5t-30 -80.5q0 -52 29 -79t73 -27q26 0 41.5 6.5t27.5 14.5q21 -13 21 -36q0 -17 -25.5 -34t-73.5 -17t-87 20t-62.5 58t-23.5 94q0 60 25.5 98t64 56t78.5 18q43 0 71.5 -15.5t28.5 -39.5
q0 -9 -6.5 -18t-14.5 -14q-13 8 -29.5 14.5t-38.5 6.5z" />
    <glyph glyph-name="ordfeminine" unicode="&#xaa;" horiz-adv-x="353" 
d="M172 301q-62 0 -99 24.5t-37 72.5q0 45 29.5 68t86.5 28l82 9v6q0 30 -17.5 41.5t-54.5 11.5q-24 0 -50 -7.5t-43 -18.5q-7 5 -12.5 13.5t-5.5 19.5q0 12 6 19.5t17 13.5q16 8 42.5 13.5t52.5 5.5q59 0 97 -24.5t38 -87.5v-153q0 -11 -7 -18.5t-19 -14.5
q-43 -22 -106 -22zM172 360q19 0 36 4t26 9v74l-64 -6q-32 -4 -47.5 -12.5t-15.5 -26.5q0 -20 16 -31t49 -11z" />
    <glyph glyph-name="guillemotleft" unicode="&#xab;" horiz-adv-x="490" 
d="M115 224l135 -140q0 -17 -11.5 -32t-34.5 -15q-15 0 -27.5 9.5t-23.5 20.5l-108 118q-5 8 -8 18t-3 21q0 19 4.5 30t12.5 18l146 149q23 -5 34.5 -17t11.5 -27q0 -14 -6.5 -25t-23.5 -28zM317 224l135 -140q0 -17 -11.5 -32t-34.5 -15q-14 0 -27 9.5t-23 20.5l-109 118
q-5 8 -8 18t-3 21q0 19 4.5 30t12.5 18l146 149q23 -5 34.5 -17t11.5 -27q0 -14 -7 -25t-24 -28z" />
    <glyph glyph-name="logicalnot" unicode="&#xac;" horiz-adv-x="539" 
d="M86 396h360q21 0 33.5 -11.5t12.5 -33.5v-169q-8 -3 -19.5 -5t-24.5 -2q-24 0 -36 10t-12 37v96h-344q-4 7 -6.5 17t-2.5 21q0 20 10.5 30t28.5 10z" />
    <glyph glyph-name="uni00AD" unicode="&#xad;" horiz-adv-x="382" 
d="M293 220h-234q-4 7 -7 17t-3 22q0 21 11 31t29 10h234q3 -7 6.5 -17t3.5 -21q0 -21 -10.5 -31.5t-29.5 -10.5z" />
    <glyph glyph-name="registered" unicode="&#xae;" horiz-adv-x="619" 
d="M54 376q0 69 32 126t89.5 91t133.5 34q75 0 133 -34t90.5 -91t32.5 -126t-32.5 -126t-90.5 -91t-133 -34q-76 0 -133.5 34t-89.5 91t-32 126zM116 376q0 -56 24 -100.5t67.5 -70t101.5 -25.5t101.5 25.5t67.5 70t24 100.5t-24 100.5t-67.5 70.5t-101.5 26t-101.5 -26
t-67.5 -70.5t-24 -100.5zM304 347h-23v-79q-4 -1 -11.5 -1.5t-16.5 -0.5q-13 0 -20.5 4.5t-7.5 20.5v185q0 14 21 18q14 4 27 5t28 1q50 0 77 -20t27 -57q0 -25 -14 -42.5t-35 -24.5l56 -70q-3 -9 -11.5 -15t-19.5 -6q-12 0 -20 5.5t-16 16.5zM281 391h29q37 0 37 34
q0 15 -11.5 23t-30.5 8q-7 0 -13 -0.5t-11 -1.5v-63z" />
    <glyph glyph-name="macron" unicode="&#xaf;" horiz-adv-x="335" 
d="M273 569h-235q-4 7 -8 16.5t-4 21.5q0 21 10 30t27 9h235q5 -6 8 -16.5t3 -21.5q0 -21 -9.5 -30t-26.5 -9z" />
    <glyph glyph-name="degree" unicode="&#xb0;" horiz-adv-x="360" 
d="M326 486q0 -41 -19.5 -71.5t-52.5 -46.5t-73 -16q-64 0 -105.5 37.5t-41.5 96.5q0 42 20 72t53 46.5t73 16.5t73 -16.5t53 -46.5t20 -72zM180 554q-25 0 -45.5 -17t-20.5 -51q0 -33 20 -51t46 -18q27 0 46.5 18t19.5 51q0 34 -20 51t-46 17z" />
    <glyph glyph-name="plusminus" unicode="&#xb1;" horiz-adv-x="547" 
d="M444 317h-373q-3 7 -5.5 17t-2.5 21q0 21 11 31t29 10h373q2 -7 5 -16.5t3 -21.5q0 -20 -10.5 -30.5t-29.5 -10.5zM444 0h-373q-3 7 -5.5 16.5t-2.5 21.5q0 21 11 31t29 10h373q2 -7 5 -16.5t3 -21.5q0 -21 -10.5 -31t-29.5 -10zM320 512v-354q-8 -2 -18.5 -4.5
t-23.5 -2.5q-24 0 -35.5 10.5t-11.5 36.5v353q8 3 19 5t23 2q24 0 35.5 -10t11.5 -36z" />
    <glyph glyph-name="uni00B2" unicode="&#xb2;" horiz-adv-x="277" 
d="M123 698q55 0 85.5 -26.5t30.5 -74.5q0 -31 -17 -59t-57 -61l-64 -51h139q3 -5 5 -12t2 -15q0 -13 -6.5 -20.5t-21.5 -7.5h-181q-7 7 -11 15.5t-4 19.5q0 15 4 24.5t11 15.5l85 74q25 22 37.5 40.5t12.5 36.5q0 22 -15.5 33.5t-38.5 11.5q-19 0 -36.5 -7t-31.5 -17
q-7 5 -12 12.5t-5 18.5q0 22 27 35.5t62 13.5z" />
    <glyph glyph-name="uni00B3" unicode="&#xb3;" horiz-adv-x="275" 
d="M77 562h55q19 0 31 10.5t12 27.5q0 20 -16 31t-45 11q-21 0 -39.5 -6.5t-30.5 -14.5q-8 6 -13 13.5t-5 18.5q0 21 28.5 33t67.5 12q57 0 88 -25t31 -67q0 -23 -13 -42t-34 -27q23 -8 37.5 -28.5t14.5 -48.5q0 -49 -36 -72.5t-88 -23.5q-46 0 -76 14.5t-30 35.5q0 12 6 21
t16 13q13 -10 32 -19t48 -9q27 0 44.5 11.5t17.5 34.5q0 19 -13 30.5t-35 11.5h-55q-4 5 -6 12t-2 15q0 18 8 27z" />
    <glyph glyph-name="acute" unicode="&#xb4;" horiz-adv-x="298" 
d="M87 591l98 109q28 -1 44 -14.5t16 -30.5q0 -15 -7 -25t-23 -25l-91 -87q-24 0 -38.5 13t-14.5 28q0 9 4.5 16.5t11.5 15.5z" />
    <glyph glyph-name="uni03BC" unicode="&#xb5;" horiz-adv-x="558" 
d="M72 242h94l-8 -177q5 -34 8.5 -83t3.5 -99v-62q-6 -2 -18 -5t-26 -3q-27 0 -40.5 11t-13.5 34v384zM126 146v109l44 5v-83q0 -59 32 -85t86 -26q37 0 62 7.5t40 15.5v171h98v-174q0 -21 -7 -35t-27 -26q-23 -13 -61.5 -26t-92.5 -13q-52 0 -91.5 16.5t-61 52t-21.5 91.5z
M488 210h-98v255q6 2 18 4.5t26 2.5q27 0 40.5 -10t13.5 -35v-217zM170 210h-98v255q6 2 18.5 4.5t26.5 2.5q27 0 40 -10t13 -35v-217z" />
    <glyph glyph-name="paragraph" unicode="&#xb6;" horiz-adv-x="463" 
d="M221 613h122q24 0 38.5 -8.5t14.5 -37.5v-636q-5 -1 -18 -4t-26 -3q-26 0 -40 10t-14 36v559h-67v-263q0 -12 -13.5 -20t-42.5 -8q-39 0 -75.5 19.5t-60.5 60t-24 102.5q0 66 29 108.5t76 63.5t101 21z" />
    <glyph glyph-name="periodcentered" unicode="&#xb7;" horiz-adv-x="160" 
d="M17 256q0 27 17 45.5t47 18.5q29 0 45.5 -18.5t16.5 -45.5t-16.5 -45.5t-45.5 -18.5q-30 0 -47 18.5t-17 45.5z" />
    <glyph glyph-name="cedilla" unicode="&#xb8;" horiz-adv-x="195" 
d="M56 3l58 18q30 -19 42.5 -46.5t12.5 -59.5q0 -48 -30.5 -77.5t-79.5 -29.5q-29 0 -45 12t-16 33q0 15 6 25h14q35 0 51 15.5t16 40.5q0 16 -7 34.5t-22 34.5z" />
    <glyph glyph-name="uni00B9" unicode="&#xb9;" horiz-adv-x="213" 
d="M96 399v222l-57 -26q-8 4 -16.5 13.5t-8.5 21.5t6.5 20t19.5 13l73 31h13q18 0 27 -9.5t9 -27.5v-283q-6 -3 -14.5 -4.5t-16.5 -1.5q-16 0 -25.5 6.5t-9.5 24.5z" />
    <glyph glyph-name="ordmasculine" unicode="&#xba;" horiz-adv-x="382" 
d="M339 461q0 -77 -41 -118t-108 -41q-66 0 -108 41t-42 119q0 77 42.5 118t107.5 41q67 0 108 -41.5t41 -118.5zM190 560q-35 0 -56 -25.5t-21 -72.5q0 -48 21 -73.5t56 -25.5t55.5 25.5t20.5 72.5t-20 73t-56 26z" />
    <glyph glyph-name="guillemotright" unicode="&#xbb;" horiz-adv-x="490" 
d="M375 234l-135 140q0 18 11.5 32.5t33.5 14.5q16 0 28.5 -8.5t22.5 -21.5l109 -118q5 -7 8 -17t3 -22q0 -19 -4.5 -29.5t-12.5 -17.5l-147 -150q-22 7 -33.5 18t-11.5 26t6.5 25.5t23.5 28.5zM173 234l-135 140q0 18 11.5 32.5t34.5 14.5q15 0 27.5 -8.5t22.5 -21.5
l109 -118q6 -7 8.5 -17t2.5 -22q0 -19 -4.5 -29.5t-13.5 -17.5l-145 -150q-23 7 -34.5 18t-11.5 26t7 25.5t24 28.5z" />
    <glyph glyph-name="onequarter" unicode="&#xbc;" horiz-adv-x="608" 
d="M90 319v222l-57 -26q-8 4 -16.5 13.5t-8.5 21.5t6.5 20t19.5 13l73 31h13q18 0 27 -9.5t9 -27.5v-283q-6 -3 -14.5 -4.5t-16.5 -1.5q-16 0 -25.5 6.5t-9.5 24.5zM544 287v-162h47q2 -5 3.5 -11t1.5 -15q0 -14 -7.5 -21t-17.5 -7h-230q-9 4 -15 13.5t-6 20.5
q0 10 2.5 17.5t8.5 15.5l131 178q8 2 17.5 3.5t18.5 1.5q19 0 32.5 -8.5t13.5 -25.5zM482 125v60q0 13 0.5 32t1.5 37l-88 -129h86zM480 27v69h64v-94q-6 -3 -14 -4.5t-17 -1.5q-16 0 -24.5 6.5t-8.5 24.5zM90 72l364 539q21 -2 33 -10.5t13 -23.5q0 -11 -4.5 -20.5
t-13.5 -22.5l-364 -539q-21 1 -33.5 9.5t-12.5 23.5q0 11 4.5 20.5t13.5 23.5z" />
    <glyph glyph-name="onehalf" unicode="&#xbd;" horiz-adv-x="624" 
d="M90 319v222l-57 -26q-8 4 -16.5 13.5t-8.5 21.5t6.5 20t19.5 13l73 31h13q18 0 27 -9.5t9 -27.5v-283q-6 -3 -14.5 -4.5t-16.5 -1.5q-16 0 -25.5 6.5t-9.5 24.5zM474 327q55 0 85.5 -26.5t30.5 -74.5q0 -31 -17 -59t-57 -61l-64 -51h139q3 -5 5 -12t2 -15
q0 -13 -6.5 -20.5t-21.5 -7.5h-181q-7 7 -11 15.5t-4 19.5q0 15 4 24.5t11 15.5l85 74q25 22 37.5 40.5t12.5 36.5q0 22 -15.5 33.5t-38.5 11.5q-19 0 -36.5 -7t-31.5 -17q-7 5 -12 12.5t-5 18.5q0 22 27 35.5t62 13.5zM90 72l364 539q21 -2 33 -10.5t13 -23.5
q0 -11 -4.5 -20.5t-13.5 -22.5l-364 -539q-21 1 -33.5 9.5t-12.5 23.5q0 11 4.5 20.5t13.5 23.5z" />
    <glyph glyph-name="threequarters" unicode="&#xbe;" horiz-adv-x="655" 
d="M77 483h55q19 0 31 10.5t12 27.5q0 20 -16 31t-45 11q-21 0 -39.5 -6.5t-30.5 -14.5q-8 6 -13 13.5t-5 18.5q0 21 28.5 33t67.5 12q57 0 88 -25t31 -67q0 -23 -13 -42t-34 -27q23 -8 37.5 -28.5t14.5 -48.5q0 -49 -36 -72.5t-88 -23.5q-46 0 -76 14.5t-30 35.5q0 12 6 21
t16 13q13 -10 32 -19t48 -9q27 0 44.5 11.5t17.5 34.5q0 19 -13 30.5t-35 11.5h-55q-4 5 -6 12t-2 15q0 18 8 27zM592 287v-162h47q2 -5 3.5 -11t1.5 -15q0 -14 -7.5 -21t-17.5 -7h-230q-9 4 -15 13.5t-6 20.5q0 10 2.5 17.5t8.5 15.5l131 178q8 2 17.5 3.5t18.5 1.5
q19 0 32.5 -8.5t13.5 -25.5zM530 125v60q0 13 0.5 32t1.5 37l-88 -129h86zM528 27v69h64v-94q-6 -3 -14 -4.5t-17 -1.5q-16 0 -24.5 6.5t-8.5 24.5zM141 72l364 539q21 -2 33 -10.5t13 -23.5q0 -11 -4.5 -20.5t-13.5 -22.5l-364 -539q-21 1 -33.5 9.5t-12.5 23.5
q0 11 4.5 20.5t13.5 23.5z" />
    <glyph glyph-name="questiondown" unicode="&#xbf;" horiz-adv-x="467" 
d="M247 234l98 23q11 -9 18.5 -22.5t7.5 -30.5t-10 -27.5t-32 -15.5l-71 -19q-58 -15 -88.5 -44t-30.5 -77q0 -42 31 -73t99 -31q40 0 79.5 12.5t63.5 30.5q12 -9 19 -21.5t7 -27.5q0 -34 -49.5 -56.5t-127.5 -22.5q-68 0 -118.5 24t-78.5 67t-28 97q0 85 53 137t158 77z
M361 408q0 -28 -17.5 -46.5t-46.5 -18.5q-30 0 -47.5 18.5t-17.5 46.5q0 27 17.5 45t47.5 18q29 0 46.5 -18t17.5 -45z" />
    <glyph glyph-name="Agrave" unicode="&#xc0;" horiz-adv-x="599" 
d="M302 528h-4q-14 -39 -32.5 -92t-38 -109.5t-37.5 -107.5l-8 -34q-6 -19 -14 -44t-17 -52l-17 -51l-13 -39q-8 -4 -17 -6t-23 -2q-22 0 -37 10.5t-15 31.5q0 10 3 20.5t7 23.5q11 33 28.5 82.5t38 107.5t43 118t43 115.5t37.5 97.5q10 6 30 11t40 5q26 0 48.5 -8t28.5 -25
q23 -57 49 -129.5t53 -151t51 -152.5t43 -134q-8 -10 -22 -16t-31 -6q-25 0 -37 10t-19 33l-49 149l-11 43q-18 57 -37 113.5t-35.5 105.5t-28.5 82zM136 155l34 80h268l17 -80h-319zM257 679l-89 83q-1 4 -1 8v6q0 21 12 33.5t30 12.5q25 0 43 -22l85 -98q-2 -20 -13 -30.5
t-27 -10.5q-12 0 -21 5t-19 13z" />
    <glyph glyph-name="Aacute" unicode="&#xc1;" horiz-adv-x="599" 
d="M302 528h-4q-14 -39 -32.5 -92t-38 -109.5t-37.5 -107.5l-8 -34q-6 -19 -14 -44t-17 -52l-17 -51l-13 -39q-8 -4 -17 -6t-23 -2q-22 0 -37 10.5t-15 31.5q0 10 3 20.5t7 23.5q11 33 28.5 82.5t38 107.5t43 118t43 115.5t37.5 97.5q10 6 30 11t40 5q26 0 48.5 -8t28.5 -25
q23 -57 49 -129.5t53 -151t51 -152.5t43 -134q-8 -10 -22 -16t-31 -6q-25 0 -37 10t-19 33l-49 149l-11 43q-18 57 -37 113.5t-35.5 105.5t-28.5 82zM136 155l34 80h268l17 -80h-319zM282 730l96 95q26 -1 40 -13.5t14 -29.5q0 -15 -6.5 -25.5t-23.5 -23.5l-88 -72
q-23 1 -35.5 11t-12.5 25q0 10 4 18t12 15z" />
    <glyph glyph-name="Acircumflex" unicode="&#xc2;" horiz-adv-x="599" 
d="M303 748q-17 -18 -41 -42.5t-51 -48.5q-20 2 -33 12t-13 27q0 14 8 24t22 23l53 52q29 26 56 26q18 0 31.5 -7.5t27.5 -22.5l81 -90q0 -19 -11 -30.5t-30 -11.5q-12 0 -23.5 7.5t-27.5 25.5zM302 528h-4q-14 -39 -32.5 -92t-38 -109.5t-37.5 -107.5l-8 -34
q-6 -19 -14 -44t-17 -52l-17 -51l-13 -39q-8 -4 -17 -6t-23 -2q-22 0 -37 10.5t-15 31.5q0 10 3 20.5t7 23.5q11 33 28.5 82.5t38 107.5t43 118t43 115.5t37.5 97.5q10 6 30 11t40 5q26 0 48.5 -8t28.5 -25q23 -57 49 -129.5t53 -151t51 -152.5t43 -134q-8 -10 -22 -16
t-31 -6q-25 0 -37 10t-19 33l-49 149l-11 43q-18 57 -37 113.5t-35.5 105.5t-28.5 82zM136 155l34 80h268l17 -80h-319z" />
    <glyph glyph-name="Atilde" unicode="&#xc3;" horiz-adv-x="599" 
d="M302 528h-4q-14 -39 -32.5 -92t-38 -109.5t-37.5 -107.5l-8 -34q-6 -19 -14 -44t-17 -52l-17 -51l-13 -39q-8 -4 -17 -6t-23 -2q-22 0 -37 10.5t-15 31.5q0 10 3 20.5t7 23.5q11 33 28.5 82.5t38 107.5t43 118t43 115.5t37.5 97.5q10 6 30 11t40 5q26 0 48.5 -8t28.5 -25
q23 -57 49 -129.5t53 -151t51 -152.5t43 -134q-8 -10 -22 -16t-31 -6q-25 0 -37 10t-19 33l-49 149l-11 43q-18 57 -37 113.5t-35.5 105.5t-28.5 82zM136 155l34 80h268l17 -80h-319zM230 798q28 0 51 -8.5t43.5 -16.5t36.5 -8q19 0 28 11.5t14 25.5h5q21 0 37 -11t16 -35
q0 -31 -22 -49t-56 -18q-29 0 -53.5 8.5t-44.5 17t-36 8.5q-19 0 -27.5 -11.5t-13.5 -27.5h-5q-21 0 -37 12t-16 35q0 22 11.5 36.5t30 22.5t38.5 8z" />
    <glyph glyph-name="Adieresis" unicode="&#xc4;" horiz-adv-x="599" 
d="M302 528h-4q-14 -39 -32.5 -92t-38 -109.5t-37.5 -107.5l-8 -34q-6 -19 -14 -44t-17 -52l-17 -51l-13 -39q-8 -4 -17 -6t-23 -2q-22 0 -37 10.5t-15 31.5q0 10 3 20.5t7 23.5q11 33 28.5 82.5t38 107.5t43 118t43 115.5t37.5 97.5q10 6 30 11t40 5q26 0 48.5 -8t28.5 -25
q23 -57 49 -129.5t53 -151t51 -152.5t43 -134q-8 -10 -22 -16t-31 -6q-25 0 -37 10t-19 33l-49 149l-11 43q-18 57 -37 113.5t-35.5 105.5t-28.5 82zM136 155l34 80h268l17 -80h-319zM266 740q0 -22 -16 -38.5t-41 -16.5q-24 0 -39.5 16.5t-15.5 38.5q0 23 15.5 39t39.5 16
q25 0 41 -16t16 -39zM447 740q0 -22 -16 -38.5t-41 -16.5q-23 0 -39.5 16.5t-16.5 38.5q0 23 16.5 39t39.5 16q25 0 41 -16t16 -39z" />
    <glyph glyph-name="Aring" unicode="&#xc5;" horiz-adv-x="599" 
d="M302 528h-4q-14 -39 -32.5 -92t-38 -109.5t-37.5 -107.5l-8 -34q-6 -19 -14 -44t-17 -52l-17 -51l-13 -39q-8 -4 -17 -6t-23 -2q-22 0 -37 10.5t-15 31.5q0 10 3 20.5t7 23.5q11 33 28.5 82.5t38 107.5t43 118t43 115.5t37.5 97.5q10 6 30 11t40 5q26 0 48.5 -8t28.5 -25
q23 -57 49 -129.5t53 -151t51 -152.5t43 -134q-8 -10 -22 -16t-31 -6q-25 0 -37 10t-19 33l-49 149l-11 43q-18 57 -37 113.5t-35.5 105.5t-28.5 82zM136 155l34 80h268l17 -80h-319zM190 746q0 40 30 67.5t82 27.5q53 0 82.5 -27.5t29.5 -67.5t-29.5 -67t-82.5 -27
q-52 0 -82 27t-30 67zM259 746q0 -18 12 -28.5t31 -10.5t31.5 10.5t12.5 28.5q0 19 -12.5 29.5t-31.5 10.5t-31 -10.5t-12 -29.5z" />
    <glyph glyph-name="AE" unicode="&#xc6;" horiz-adv-x="850" 
d="M468 525h-72l-163 -311l-22 -41l-88 -175q-8 -2 -15.5 -4t-20.5 -2q-25 0 -37.5 10t-12.5 28q0 10 4 21.5t11 25.5q12 23 35.5 68t54 103t64.5 120.5t66.5 122t58.5 106.5q9 6 25.5 11t36.5 5q16 0 31 -3.5t27 -10.5t16 -18zM141 155l35 80h258l17 -80h-310zM402 542h98
v-534q-6 -2 -19.5 -5.5t-26.5 -3.5q-24 0 -38 15t-14 39v489zM454 270v82h301q5 -5 8.5 -16t3.5 -23q0 -20 -10 -31.5t-27 -11.5h-276zM454 -1v82h336q4 -5 8 -15.5t4 -23.5q0 -20 -10 -31.5t-27 -11.5h-311zM436 525v45q4 17 18.5 27.5t36.5 10.5h294q5 -6 8.5 -16.5
t3.5 -22.5q0 -20 -10 -32t-27 -12h-324z" />
    <glyph glyph-name="Ccedilla" unicode="&#xc7;" horiz-adv-x="585" 
d="M535 536q0 -15 -9.5 -27.5t-21.5 -18.5q-25 18 -59.5 33t-87.5 15q-59 0 -105 -26.5t-72.5 -79t-26.5 -129.5q0 -116 57.5 -175t150.5 -59q50 0 87 14.5t62 32.5q12 -6 21 -18.5t9 -28.5q0 -13 -7 -24.5t-23 -20.5q-22 -15 -60.5 -26.5t-97.5 -11.5q-85 0 -153.5 35
t-108.5 105.5t-40 176.5q0 105 41 176t108.5 107t147.5 36q56 0 98.5 -12.5t66 -32t23.5 -41.5zM302 3l58 18q30 -19 42.5 -46.5t12.5 -59.5q0 -48 -30.5 -77.5t-79.5 -29.5q-29 0 -45 12t-16 33q0 15 6 25h14q35 0 51 15.5t16 40.5q0 16 -7 34.5t-22 34.5z" />
    <glyph glyph-name="Egrave" unicode="&#xc8;" horiz-adv-x="543" 
d="M94 381h99v-373q-5 -2 -18 -5.5t-27 -3.5q-25 0 -39.5 15t-14.5 39v328zM193 231h-99v323q0 24 14.5 39t39.5 15q14 0 27 -3t18 -6v-368zM148 270v82h301q4 -5 7.5 -16t3.5 -23q0 -20 -9.5 -31.5t-27.5 -11.5h-275zM148 -1v82h336q4 -5 7.5 -15.5t3.5 -23.5
q0 -20 -9.5 -31.5t-27.5 -11.5h-310zM148 525v83h332q3 -6 6.5 -16.5t3.5 -22.5q0 -20 -9.5 -32t-26.5 -12h-306zM271 679l-89 83q-1 4 -1 8v6q0 21 12 33.5t30 12.5q25 0 43 -22l85 -98q-2 -20 -13 -30.5t-27 -10.5q-12 0 -21 5t-19 13z" />
    <glyph glyph-name="Eacute" unicode="&#xc9;" horiz-adv-x="543" 
d="M94 381h99v-373q-5 -2 -18 -5.5t-27 -3.5q-25 0 -39.5 15t-14.5 39v328zM193 231h-99v323q0 24 14.5 39t39.5 15q14 0 27 -3t18 -6v-368zM148 270v82h301q4 -5 7.5 -16t3.5 -23q0 -20 -9.5 -31.5t-27.5 -11.5h-275zM148 -1v82h336q4 -5 7.5 -15.5t3.5 -23.5
q0 -20 -9.5 -31.5t-27.5 -11.5h-310zM148 525v83h332q3 -6 6.5 -16.5t3.5 -22.5q0 -20 -9.5 -32t-26.5 -12h-306zM275 730l96 95q26 -1 40 -13.5t14 -29.5q0 -15 -6.5 -25.5t-23.5 -23.5l-88 -72q-23 1 -35.5 11t-12.5 25q0 10 4 18t12 15z" />
    <glyph glyph-name="Ecircumflex" unicode="&#xca;" horiz-adv-x="543" 
d="M94 381h99v-373q-5 -2 -18 -5.5t-27 -3.5q-25 0 -39.5 15t-14.5 39v328zM193 231h-99v323q0 24 14.5 39t39.5 15q14 0 27 -3t18 -6v-368zM148 270v82h301q4 -5 7.5 -16t3.5 -23q0 -20 -9.5 -31.5t-27.5 -11.5h-275zM148 -1v82h336q4 -5 7.5 -15.5t3.5 -23.5
q0 -20 -9.5 -31.5t-27.5 -11.5h-310zM148 525v83h332q3 -6 6.5 -16.5t3.5 -22.5q0 -20 -9.5 -32t-26.5 -12h-306zM296 748q-18 -18 -41.5 -42.5t-51.5 -48.5q-19 2 -32 12t-13 27q0 14 8 24t22 23l53 52q28 26 56 26q18 0 31 -7.5t27 -22.5l82 -90q0 -19 -11.5 -30.5
t-29.5 -11.5q-13 0 -24.5 7.5t-27.5 25.5z" />
    <glyph glyph-name="Edieresis" unicode="&#xcb;" horiz-adv-x="543" 
d="M94 381h99v-373q-5 -2 -18 -5.5t-27 -3.5q-25 0 -39.5 15t-14.5 39v328zM193 231h-99v323q0 24 14.5 39t39.5 15q14 0 27 -3t18 -6v-368zM148 270v82h301q4 -5 7.5 -16t3.5 -23q0 -20 -9.5 -31.5t-27.5 -11.5h-275zM148 -1v82h336q4 -5 7.5 -15.5t3.5 -23.5
q0 -20 -9.5 -31.5t-27.5 -11.5h-310zM148 525v83h332q3 -6 6.5 -16.5t3.5 -22.5q0 -20 -9.5 -32t-26.5 -12h-306zM264 733q0 -22 -16 -38.5t-41 -16.5q-24 0 -39.5 16.5t-15.5 38.5q0 23 15.5 39t39.5 16q25 0 41 -16t16 -39zM445 733q0 -22 -16 -38.5t-41 -16.5
q-23 0 -39.5 16.5t-16.5 38.5q0 23 16.5 39t39.5 16q25 0 41 -16t16 -39z" />
    <glyph glyph-name="Igrave" unicode="&#xcc;" horiz-adv-x="271" 
d="M85 379h100v-377q-6 -2 -19 -5t-27 -3q-28 0 -41 11t-13 36v338zM185 279h-100v327q6 2 19.5 5t27.5 3q27 0 40 -10.5t13 -35.5v-289zM88 679l-89 83q-1 4 -1 8v6q0 21 12 33.5t30 12.5q25 0 43 -22l85 -98q-2 -20 -13 -30.5t-27 -10.5q-12 0 -21 5t-19 13z" />
    <glyph glyph-name="Iacute" unicode="&#xcd;" horiz-adv-x="271" 
d="M85 379h100v-377q-6 -2 -19 -5t-27 -3q-28 0 -41 11t-13 36v338zM185 279h-100v327q6 2 19.5 5t27.5 3q27 0 40 -10.5t13 -35.5v-289zM111 730l96 95q26 -1 40 -13.5t14 -29.5q0 -15 -6.5 -25.5t-23.5 -23.5l-88 -72q-23 1 -35.5 11t-12.5 25q0 10 4 18t12 15z" />
    <glyph glyph-name="Icircumflex" unicode="&#xce;" horiz-adv-x="271" 
d="M85 379h100v-377q-6 -2 -19 -5t-27 -3q-28 0 -41 11t-13 36v338zM185 279h-100v327q6 2 19.5 5t27.5 3q27 0 40 -10.5t13 -35.5v-289zM136 748q-18 -18 -41.5 -42.5t-51.5 -48.5q-19 2 -32 12t-13 27q0 14 8 24t22 23l53 52q28 26 56 26q18 0 31 -7.5t27 -22.5l82 -90
q0 -19 -11.5 -30.5t-29.5 -11.5q-13 0 -24.5 7.5t-27.5 25.5z" />
    <glyph glyph-name="Idieresis" unicode="&#xcf;" horiz-adv-x="271" 
d="M85 379h100v-377q-6 -2 -19 -5t-27 -3q-28 0 -41 11t-13 36v338zM185 279h-100v327q6 2 19.5 5t27.5 3q27 0 40 -10.5t13 -35.5v-289zM100 733q0 -22 -16 -38.5t-41 -16.5q-24 0 -39.5 16.5t-15.5 38.5q0 23 15.5 39t39.5 16q25 0 41 -16t16 -39zM281 733
q0 -22 -16 -38.5t-41 -16.5q-23 0 -39.5 16.5t-16.5 38.5q0 23 16.5 39t39.5 16q25 0 41 -16t16 -39z" />
    <glyph glyph-name="Eth" unicode="&#xd0;" horiz-adv-x="686" 
d="M159 345v-81h171q17 0 27 11t10 31q0 13 -3.5 23.5t-7.5 15.5h-197zM212 264v81h-163q-17 0 -27 -11t-10 -32q0 -12 3.5 -22t8.5 -16h188zM532 309q0 -118 -56.5 -178t-163.5 -60q-26 0 -51.5 1.5t-46.5 7.5v450q19 4 41 5.5t50 1.5q63 0 114.5 -23.5t82 -73.5t30.5 -131
zM635 310q0 104 -42 172.5t-116.5 103t-173.5 34.5q-39 0 -79.5 -3.5t-74.5 -14.5q-16 -5 -25.5 -14t-9.5 -26v-505q0 -37 45 -51q37 -12 79.5 -15t73.5 -3q98 0 170.5 35t112.5 106.5t40 180.5z" />
    <glyph glyph-name="Ntilde" unicode="&#xd1;" horiz-adv-x="664" 
d="M84 511l87 5q4 -34 6.5 -76t4 -85t1.5 -82v-271q-6 -2 -19 -5t-27 -3q-27 0 -40 10.5t-13 34.5v472zM580 97l-88 -5q-9 82 -10.5 163.5t-1.5 157.5v194q7 2 19.5 4.5t26.5 2.5q28 0 41 -10.5t13 -34.5v-472zM580 132v28v-147q-10 -8 -26.5 -13.5t-37.5 -5.5
q-27 0 -47 9.5t-36 38.5l-172 296q-14 26 -30 55.5t-30.5 57t-23.5 47.5l-93 -22v116q9 10 26.5 16t37.5 6q27 0 47.5 -10t35.5 -38l173 -296q14 -26 30 -55.5t29.5 -57.5t22.5 -48zM250 798q28 0 51 -8.5t43.5 -16.5t36.5 -8q19 0 28 11.5t14 25.5h5q21 0 37 -11t16 -35
q0 -31 -22 -49t-56 -18q-29 0 -53.5 8.5t-44.5 17t-36 8.5q-19 0 -27.5 -11.5t-13.5 -27.5h-5q-21 0 -37 12t-16 35q0 22 11.5 36.5t30 22.5t38.5 8z" />
    <glyph glyph-name="Ograve" unicode="&#xd2;" horiz-adv-x="692" 
d="M641 304q0 -104 -39 -175t-105.5 -107t-151.5 -36q-83 0 -150.5 36t-106 107t-38.5 175t39.5 174.5t106.5 107t149 36.5q84 0 150.5 -36.5t106 -107t39.5 -174.5zM538 304q0 113 -52.5 173.5t-140.5 60.5q-86 0 -139 -60.5t-53 -173.5t52.5 -174t140.5 -61t140 61t52 174
zM306 679l-89 83q-1 4 -1 8v6q0 21 12 33.5t30 12.5q25 0 43 -22l85 -98q-2 -20 -13 -30.5t-27 -10.5q-12 0 -21 5t-19 13z" />
    <glyph glyph-name="Oacute" unicode="&#xd3;" horiz-adv-x="692" 
d="M641 304q0 -104 -39 -175t-105.5 -107t-151.5 -36q-83 0 -150.5 36t-106 107t-38.5 175t39.5 174.5t106.5 107t149 36.5q84 0 150.5 -36.5t106 -107t39.5 -174.5zM538 304q0 113 -52.5 173.5t-140.5 60.5q-86 0 -139 -60.5t-53 -173.5t52.5 -174t140.5 -61t140 61t52 174
zM328 730l96 95q26 -1 40 -13.5t14 -29.5q0 -15 -6.5 -25.5t-23.5 -23.5l-88 -72q-23 1 -35.5 11t-12.5 25q0 10 4 18t12 15z" />
    <glyph glyph-name="Ocircumflex" unicode="&#xd4;" horiz-adv-x="692" 
d="M641 304q0 -104 -39 -175t-105.5 -107t-151.5 -36q-83 0 -150.5 36t-106 107t-38.5 175t39.5 174.5t106.5 107t149 36.5q84 0 150.5 -36.5t106 -107t39.5 -174.5zM538 304q0 113 -52.5 173.5t-140.5 60.5q-86 0 -139 -60.5t-53 -173.5t52.5 -174t140.5 -61t140 61t52 174
zM346 748q-18 -18 -41.5 -42.5t-51.5 -48.5q-19 2 -32 12t-13 27q0 14 8 24t22 23l53 52q28 26 56 26q18 0 31 -7.5t27 -22.5l82 -90q0 -19 -11.5 -30.5t-29.5 -11.5q-13 0 -24.5 7.5t-27.5 25.5z" />
    <glyph glyph-name="Otilde" unicode="&#xd5;" horiz-adv-x="692" 
d="M641 304q0 -104 -39 -175t-105.5 -107t-151.5 -36q-83 0 -150.5 36t-106 107t-38.5 175t39.5 174.5t106.5 107t149 36.5q84 0 150.5 -36.5t106 -107t39.5 -174.5zM538 304q0 113 -52.5 173.5t-140.5 60.5q-86 0 -139 -60.5t-53 -173.5t52.5 -174t140.5 -61t140 61t52 174
zM271 798q28 0 51 -8.5t43.5 -16.5t36.5 -8q19 0 28 11.5t14 25.5h5q21 0 37 -11t16 -35q0 -31 -22 -49t-56 -18q-29 0 -53.5 8.5t-44.5 17t-36 8.5q-19 0 -27.5 -11.5t-13.5 -27.5h-5q-21 0 -37 12t-16 35q0 22 11.5 36.5t30 22.5t38.5 8z" />
    <glyph glyph-name="Odieresis" unicode="&#xd6;" horiz-adv-x="692" 
d="M641 304q0 -104 -39 -175t-105.5 -107t-151.5 -36q-83 0 -150.5 36t-106 107t-38.5 175t39.5 174.5t106.5 107t149 36.5q84 0 150.5 -36.5t106 -107t39.5 -174.5zM538 304q0 113 -52.5 173.5t-140.5 60.5q-86 0 -139 -60.5t-53 -173.5t52.5 -174t140.5 -61t140 61t52 174
zM310 733q0 -22 -16 -38.5t-41 -16.5q-24 0 -39.5 16.5t-15.5 38.5q0 23 15.5 39t39.5 16q25 0 41 -16t16 -39zM491 733q0 -22 -16 -38.5t-41 -16.5q-23 0 -39.5 16.5t-16.5 38.5q0 23 16.5 39t39.5 16q25 0 41 -16t16 -39z" />
    <glyph glyph-name="multiply" unicode="&#xd7;" horiz-adv-x="497" 
d="M293 306l151 -165q-5 -17 -18 -30t-33 -13q-9 0 -18.5 5t-15.5 13l-122 137l-29 24l-153 162q5 16 18 31t31 15q11 0 19.5 -5.5t14.5 -12.5l127 -138zM414 400l-119 -126l-38 -28l-151 -152q-18 5 -34.5 17.5t-16.5 29.5q0 10 6.5 19t14.5 17l127 127l35 23l151 157
q15 -5 29.5 -17.5t14.5 -31.5q0 -9 -5 -18t-14 -17z" />
    <glyph glyph-name="Oslash" unicode="&#xd8;" horiz-adv-x="692" 
d="M184 74l-85 -90q-27 5 -40 18.5t-13 27.5t7.5 25t21.5 25l46 46zM606 530l-49 -53l-52 64l78 85q23 -5 37.5 -17.5t14.5 -27.5q0 -11 -7 -22.5t-22 -28.5zM531 452l-346 -379l-38 75l331 365zM641 304q0 -104 -39 -175t-105.5 -107t-151.5 -36q-83 0 -150 37.5
t-106 108.5t-39 172q0 104 39.5 174.5t106.5 107t149 36.5q83 0 150 -37.5t106.5 -108.5t39.5 -172zM540 304q0 111 -53.5 172.5t-141.5 61.5q-86 0 -139.5 -60.5t-53.5 -173.5q0 -110 53 -172.5t141 -62.5t141 61t53 174z" />
    <glyph glyph-name="Ugrave" unicode="&#xd9;" horiz-adv-x="652" 
d="M326 -14q-77 0 -131.5 28t-83 79t-28.5 119v78h100v-71q0 -74 40.5 -112t102.5 -38q61 0 102 38t41 112v71h100v-78q0 -68 -28.5 -119t-83 -79t-131.5 -28zM183 252h-100v354q6 2 19 5t27 3q28 0 41 -10.5t13 -35.5v-316zM569 252h-100v354q6 2 19 5t27 3q28 0 41 -10.5
t13 -35.5v-316zM278 679l-89 83q-1 4 -1 8v6q0 21 12 33.5t30 12.5q25 0 43 -22l85 -98q-2 -20 -13 -30.5t-27 -10.5q-12 0 -21 5t-19 13z" />
    <glyph glyph-name="Uacute" unicode="&#xda;" horiz-adv-x="652" 
d="M326 -14q-77 0 -131.5 28t-83 79t-28.5 119v78h100v-71q0 -74 40.5 -112t102.5 -38q61 0 102 38t41 112v71h100v-78q0 -68 -28.5 -119t-83 -79t-131.5 -28zM183 252h-100v354q6 2 19 5t27 3q28 0 41 -10.5t13 -35.5v-316zM569 252h-100v354q6 2 19 5t27 3q28 0 41 -10.5
t13 -35.5v-316zM306 730l96 95q26 -1 40 -13.5t14 -29.5q0 -15 -6.5 -25.5t-23.5 -23.5l-88 -72q-23 1 -35.5 11t-12.5 25q0 10 4 18t12 15z" />
    <glyph glyph-name="Ucircumflex" unicode="&#xdb;" horiz-adv-x="652" 
d="M326 -14q-77 0 -131.5 28t-83 79t-28.5 119v78h100v-71q0 -74 40.5 -112t102.5 -38q61 0 102 38t41 112v71h100v-78q0 -68 -28.5 -119t-83 -79t-131.5 -28zM183 252h-100v354q6 2 19 5t27 3q28 0 41 -10.5t13 -35.5v-316zM569 252h-100v354q6 2 19 5t27 3q28 0 41 -10.5
t13 -35.5v-316zM331 748q-18 -18 -41.5 -42.5t-51.5 -48.5q-19 2 -32 12t-13 27q0 14 8 24t22 23l53 52q28 26 56 26q18 0 31 -7.5t27 -22.5l82 -90q0 -19 -11.5 -30.5t-29.5 -11.5q-13 0 -24.5 7.5t-27.5 25.5z" />
    <glyph glyph-name="Udieresis" unicode="&#xdc;" horiz-adv-x="652" 
d="M326 -14q-77 0 -131.5 28t-83 79t-28.5 119v78h100v-71q0 -74 40.5 -112t102.5 -38q61 0 102 38t41 112v71h100v-78q0 -68 -28.5 -119t-83 -79t-131.5 -28zM183 252h-100v354q6 2 19 5t27 3q28 0 41 -10.5t13 -35.5v-316zM569 252h-100v354q6 2 19 5t27 3q28 0 41 -10.5
t13 -35.5v-316zM290 733q0 -22 -16 -38.5t-41 -16.5q-24 0 -39.5 16.5t-15.5 38.5q0 23 15.5 39t39.5 16q25 0 41 -16t16 -39zM471 733q0 -22 -16 -38.5t-41 -16.5q-23 0 -39.5 16.5t-16.5 38.5q0 23 16.5 39t39.5 16q25 0 41 -16t16 -39z" />
    <glyph glyph-name="Yacute" unicode="&#xdd;" horiz-adv-x="555" 
d="M327 212h-89q-27 41 -57.5 88t-60.5 95.5t-56 95.5t-46 87q6 12 19 23.5t34 11.5q23 0 36.5 -11t26.5 -36q10 -19 25 -45t32 -56.5t34 -60.5t31.5 -55.5t23.5 -41.5h5q32 55 58 103.5t50.5 96t48.5 97.5q9 5 20.5 7t21.5 2q22 0 34.5 -11t12.5 -31q0 -10 -14 -40.5
t-40 -76.5t-64 -107.5t-86 -134.5zM233 255h99v-253q-6 -2 -19 -5t-27 -3q-28 0 -40.5 11t-12.5 35v215zM250 730l96 95q26 -1 40 -13.5t14 -29.5q0 -15 -6.5 -25.5t-23.5 -23.5l-88 -72q-23 1 -35.5 11t-12.5 25q0 10 4 18t12 15z" />
    <glyph glyph-name="Thorn" unicode="&#xde;" horiz-adv-x="575" 
d="M183 191v229h98q69 0 108 -28t39 -87q0 -58 -39 -86t-108 -28h-98zM83 502v-393h217q115 0 171.5 54t56.5 142q0 91 -56.5 144t-171.5 53h-217zM183 163h-100v-123q0 -24 13.5 -35t41.5 -11q14 0 27 3t18 4v162zM83 448h100v120q0 25 -13 35.5t-41 10.5q-13 0 -26 -2.5
t-20 -4.5v-159z" />
    <glyph glyph-name="germandbls" unicode="&#xdf;" horiz-adv-x="586" 
d="M173 285h-98v186q0 66 27.5 110.5t74 67.5t105.5 23q60 0 107 -23.5t74.5 -70.5t27.5 -116q0 -37 -35 -52l-42 -17q-24 -12 -33.5 -23t-9.5 -30q0 -18 11 -31t39 -30q42 -24 70 -45.5t42 -47.5t14 -63q0 -70 -47.5 -105t-122.5 -35q-58 0 -91.5 18t-33.5 47q0 14 7 27
t21 19q18 -14 40 -23t53 -9q33 0 53.5 17t20.5 44q0 25 -15.5 43t-59.5 42q-50 26 -76 57t-26 76q0 41 22.5 68.5t64.5 45.5l36 15q0 52 -31 86t-81 34q-44 0 -76 -28.5t-32 -91.5v-185zM75 357h98v-358q-6 -2 -18 -4.5t-25 -2.5q-28 0 -41.5 11t-13.5 35v319z" />
    <glyph glyph-name="agrave" unicode="&#xe0;" horiz-adv-x="508" 
d="M244 -14q-96 0 -150 37.5t-54 109.5q0 66 43 101t122 43l140 14v23q0 46 -29.5 67t-79.5 21q-40 0 -77.5 -11t-66.5 -26q-9 8 -16 19t-7 23q0 31 34 46q27 13 63.5 20t75.5 7q91 0 145 -40t54 -126v-234q0 -23 -10 -35.5t-27 -23.5q-26 -14 -67 -24.5t-93 -10.5zM244 63
q37 0 63 7.5t38 15.5v132l-114 -12q-47 -3 -70.5 -20.5t-23.5 -50.5t26.5 -52.5t80.5 -19.5zM212 538l-95 98q-1 4 -1.5 8.5t-0.5 6.5q0 21 13 33t32 12q13 0 23.5 -5.5t19.5 -15.5l89 -113q-1 -20 -12.5 -31t-27.5 -11q-13 0 -22 5t-18 13z" />
    <glyph glyph-name="aacute" unicode="&#xe1;" horiz-adv-x="508" 
d="M244 -14q-96 0 -150 37.5t-54 109.5q0 66 43 101t122 43l140 14v23q0 46 -29.5 67t-79.5 21q-40 0 -77.5 -11t-66.5 -26q-9 8 -16 19t-7 23q0 31 34 46q27 13 63.5 20t75.5 7q91 0 145 -40t54 -126v-234q0 -23 -10 -35.5t-27 -23.5q-26 -14 -67 -24.5t-93 -10.5zM244 63
q37 0 63 7.5t38 15.5v132l-114 -12q-47 -3 -70.5 -20.5t-23.5 -50.5t26.5 -52.5t80.5 -19.5zM218 591l98 109q28 -1 44 -14.5t16 -30.5q0 -15 -7 -25t-23 -25l-91 -87q-24 0 -38.5 13t-14.5 28q0 9 4.5 16.5t11.5 15.5z" />
    <glyph glyph-name="acircumflex" unicode="&#xe2;" horiz-adv-x="508" 
d="M244 -14q-96 0 -150 37.5t-54 109.5q0 66 43 101t122 43l140 14v23q0 46 -29.5 67t-79.5 21q-40 0 -77.5 -11t-66.5 -26q-9 8 -16 19t-7 23q0 31 34 46q27 13 63.5 20t75.5 7q91 0 145 -40t54 -126v-234q0 -23 -10 -35.5t-27 -23.5q-26 -14 -67 -24.5t-93 -10.5zM244 63
q37 0 63 7.5t38 15.5v132l-114 -12q-47 -3 -70.5 -20.5t-23.5 -50.5t26.5 -52.5t80.5 -19.5zM308 548l-60 72q-24 -29 -45 -51.5t-42 -45.5q-22 1 -36 12t-14 27q0 13 7.5 22.5t18.5 22.5l56 59q14 13 26.5 20t29.5 7q18 0 30.5 -7t26.5 -23l81 -98q0 -16 -9 -28t-29 -12
q-13 0 -22 6.5t-19 16.5z" />
    <glyph glyph-name="atilde" unicode="&#xe3;" horiz-adv-x="508" 
d="M244 -14q-96 0 -150 37.5t-54 109.5q0 66 43 101t122 43l140 14v23q0 46 -29.5 67t-79.5 21q-40 0 -77.5 -11t-66.5 -26q-9 8 -16 19t-7 23q0 31 34 46q27 13 63.5 20t75.5 7q91 0 145 -40t54 -126v-234q0 -23 -10 -35.5t-27 -23.5q-26 -14 -67 -24.5t-93 -10.5zM244 63
q37 0 63 7.5t38 15.5v132l-114 -12q-47 -3 -70.5 -20.5t-23.5 -50.5t26.5 -52.5t80.5 -19.5zM170 664q28 0 51 -8.5t43.5 -16.5t36.5 -8q19 0 28 11.5t14 25.5h5q21 0 37 -11t16 -35q0 -31 -22 -49t-56 -18q-29 0 -53.5 8.5t-44.5 17t-36 8.5q-19 0 -27.5 -11.5t-13.5 -27.5
h-5q-21 0 -37 12t-16 35q0 22 11.5 36.5t30 22.5t38.5 8z" />
    <glyph glyph-name="adieresis" unicode="&#xe4;" horiz-adv-x="508" 
d="M244 -14q-96 0 -150 37.5t-54 109.5q0 66 43 101t122 43l140 14v23q0 46 -29.5 67t-79.5 21q-40 0 -77.5 -11t-66.5 -26q-9 8 -16 19t-7 23q0 31 34 46q27 13 63.5 20t75.5 7q91 0 145 -40t54 -126v-234q0 -23 -10 -35.5t-27 -23.5q-26 -14 -67 -24.5t-93 -10.5zM244 63
q37 0 63 7.5t38 15.5v132l-114 -12q-47 -3 -70.5 -20.5t-23.5 -50.5t26.5 -52.5t80.5 -19.5zM219 607q0 -22 -16 -38.5t-41 -16.5q-24 0 -39.5 16.5t-15.5 38.5q0 23 15.5 39t39.5 16q25 0 41 -16t16 -39zM400 607q0 -22 -16 -38.5t-41 -16.5q-23 0 -39.5 16.5t-16.5 38.5
q0 23 16.5 39t39.5 16q25 0 41 -16t16 -39z" />
    <glyph glyph-name="aring" unicode="&#xe5;" horiz-adv-x="508" 
d="M244 -14q-96 0 -150 37.5t-54 109.5q0 66 43 101t122 43l140 14v23q0 46 -29.5 67t-79.5 21q-40 0 -77.5 -11t-66.5 -26q-9 8 -16 19t-7 23q0 31 34 46q27 13 63.5 20t75.5 7q91 0 145 -40t54 -126v-234q0 -23 -10 -35.5t-27 -23.5q-26 -14 -67 -24.5t-93 -10.5zM244 63
q37 0 63 7.5t38 15.5v132l-114 -12q-47 -3 -70.5 -20.5t-23.5 -50.5t26.5 -52.5t80.5 -19.5zM144 618q0 40 29.5 68.5t80.5 28.5q53 0 82 -28.5t29 -68.5q0 -41 -29 -69t-82 -28q-51 0 -80.5 28t-29.5 69zM211 618q0 -21 12.5 -32.5t30.5 -11.5q19 0 32 11.5t13 32.5t-13 32
t-32 11q-18 0 -30.5 -11t-12.5 -32z" />
    <glyph glyph-name="ae" unicode="&#xe6;" horiz-adv-x="815" 
d="M591 -14q-109 0 -169 60.5t-62 160.5q0 5 -4.5 14.5t-4.5 15.5q0 79 27.5 132.5t75.5 82t109 28.5q63 0 111 -26t75 -73t27 -107q0 -25 -11.5 -36t-33.5 -14l-331 -47l-4 73l287 41q-4 48 -34.5 80t-85.5 32q-59 0 -96 -40.5t-38 -116.5l1 -35q7 -73 50.5 -109.5
t115.5 -36.5q42 0 77 13t56 29q12 -8 19.5 -19t7.5 -25q0 -22 -22 -39.5t-59 -27.5t-84 -10zM244 63q37 0 63 7.5t38 15.5v132l-114 -12q-47 -3 -70.5 -20.5t-23.5 -50.5t26.5 -52.5t80.5 -19.5zM243 -14q-96 0 -149.5 37.5t-53.5 109.5q0 66 43 101t122 43l140 14v23
q0 46 -29.5 67t-79.5 21q-40 0 -77.5 -11t-66.5 -26q-9 8 -16 19t-7 23q0 31 34 46q27 13 63.5 20t75.5 7q85 0 132.5 -41t47.5 -125v-239q0 -23 -10.5 -37.5t-27.5 -22.5q-24 -12 -56.5 -20.5t-84.5 -8.5z" />
    <glyph glyph-name="ccedilla" unicode="&#xe7;" horiz-adv-x="480" 
d="M296 400q-64 0 -107.5 -43.5t-43.5 -124.5q0 -80 42 -123t109 -43q40 0 67 11t48 24q12 -7 19.5 -17.5t7.5 -25.5q0 -31 -41 -51t-105 -20q-72 0 -128 27t-87.5 81.5t-31.5 136.5q0 83 33 138t89 82.5t122 27.5q64 0 104.5 -22t40.5 -52q0 -13 -7.5 -23.5t-18.5 -16.5
q-21 13 -47 23.5t-65 10.5zM245 3l58 18q30 -19 42.5 -46.5t12.5 -59.5q0 -48 -30.5 -77.5t-79.5 -29.5q-29 0 -45 12t-16 33q0 15 6 25h14q35 0 51 15.5t16 40.5q0 16 -7 34.5t-22 34.5z" />
    <glyph glyph-name="egrave" unicode="&#xe8;" horiz-adv-x="525" 
d="M110 177l-4 73l287 41q-3 48 -34 80t-86 32q-58 0 -95.5 -40.5t-38.5 -116.5l1 -35q8 -73 51.5 -109.5t115.5 -36.5q42 0 77 13t55 29q12 -8 19.5 -19t7.5 -25q0 -22 -22 -39.5t-59 -27.5t-84 -10q-77 0 -134.5 28.5t-89.5 84.5t-32 138q0 59 17.5 104t48.5 76t72.5 47
t89.5 16q63 0 111 -26t75 -73t27 -107q0 -25 -11.5 -36t-33.5 -14zM231 538l-95 98q-1 4 -1.5 8.5t-0.5 6.5q0 21 13 33t32 12q13 0 23.5 -5.5t19.5 -15.5l89 -113q-1 -20 -12.5 -31t-27.5 -11q-13 0 -22 5t-18 13z" />
    <glyph glyph-name="eacute" unicode="&#xe9;" horiz-adv-x="525" 
d="M110 177l-4 73l287 41q-3 48 -34 80t-86 32q-58 0 -95.5 -40.5t-38.5 -116.5l1 -35q8 -73 51.5 -109.5t115.5 -36.5q42 0 77 13t55 29q12 -8 19.5 -19t7.5 -25q0 -22 -22 -39.5t-59 -27.5t-84 -10q-77 0 -134.5 28.5t-89.5 84.5t-32 138q0 59 17.5 104t48.5 76t72.5 47
t89.5 16q63 0 111 -26t75 -73t27 -107q0 -25 -11.5 -36t-33.5 -14zM252 591l98 109q28 -1 44 -14.5t16 -30.5q0 -15 -7 -25t-23 -25l-91 -87q-24 0 -38.5 13t-14.5 28q0 9 4.5 16.5t11.5 15.5z" />
    <glyph glyph-name="ecircumflex" unicode="&#xea;" horiz-adv-x="525" 
d="M110 177l-4 73l287 41q-3 48 -34 80t-86 32q-58 0 -95.5 -40.5t-38.5 -116.5l1 -35q8 -73 51.5 -109.5t115.5 -36.5q42 0 77 13t55 29q12 -8 19.5 -19t7.5 -25q0 -22 -22 -39.5t-59 -27.5t-84 -10q-77 0 -134.5 28.5t-89.5 84.5t-32 138q0 59 17.5 104t48.5 76t72.5 47
t89.5 16q63 0 111 -26t75 -73t27 -107q0 -25 -11.5 -36t-33.5 -14zM334 548l-60 72q-24 -29 -45 -51.5t-42 -45.5q-22 1 -36 12t-14 27q0 13 7.5 22.5t18.5 22.5l56 59q14 13 26.5 20t29.5 7q18 0 30.5 -7t26.5 -23l81 -98q0 -16 -9 -28t-29 -12q-13 0 -22 6.5t-19 16.5z
" />
    <glyph glyph-name="edieresis" unicode="&#xeb;" horiz-adv-x="525" 
d="M110 177l-4 73l287 41q-3 48 -34 80t-86 32q-58 0 -95.5 -40.5t-38.5 -116.5l1 -35q8 -73 51.5 -109.5t115.5 -36.5q42 0 77 13t55 29q12 -8 19.5 -19t7.5 -25q0 -22 -22 -39.5t-59 -27.5t-84 -10q-77 0 -134.5 28.5t-89.5 84.5t-32 138q0 59 17.5 104t48.5 76t72.5 47
t89.5 16q63 0 111 -26t75 -73t27 -107q0 -25 -11.5 -36t-33.5 -14zM236 607q0 -22 -16 -38.5t-41 -16.5q-24 0 -39.5 16.5t-15.5 38.5q0 23 15.5 39t39.5 16q25 0 41 -16t16 -39zM417 607q0 -22 -16 -38.5t-41 -16.5q-23 0 -39.5 16.5t-16.5 38.5q0 23 16.5 39t39.5 16
q25 0 41 -16t16 -39z" />
    <glyph glyph-name="igrave" unicode="&#xec;" horiz-adv-x="249" 
d="M75 326h98v-327q-5 -2 -17 -4.5t-26 -2.5q-27 0 -41 11t-14 35v288zM173 276h-98v187q6 2 18.5 4.5t25.5 2.5q28 0 41 -11t13 -35v-148zM82 538l-94 98q-1 4 -1.5 8.5t-0.5 6.5q0 21 13 33t32 12q12 0 22.5 -5.5t19.5 -15.5l90 -113q-1 -20 -12.5 -31t-27.5 -11
q-13 0 -22 5t-19 13z" />
    <glyph glyph-name="iacute" unicode="&#xed;" horiz-adv-x="249" 
d="M75 326h98v-327q-5 -2 -17 -4.5t-26 -2.5q-27 0 -41 11t-14 35v288zM173 276h-98v187q6 2 18.5 4.5t25.5 2.5q28 0 41 -11t13 -35v-148zM102 591l98 109q28 -1 44 -14.5t16 -30.5q0 -15 -7 -25t-23 -25l-92 -87q-24 0 -38.5 13t-14.5 28q0 9 5 16.5t12 15.5z" />
    <glyph glyph-name="icircumflex" unicode="&#xee;" horiz-adv-x="249" 
d="M75 326h98v-327q-5 -2 -17 -4.5t-26 -2.5q-27 0 -41 11t-14 35v288zM173 276h-98v187q6 2 18.5 4.5t25.5 2.5q28 0 41 -11t13 -35v-148zM186 548l-60 72q-23 -29 -44.5 -51.5t-41.5 -45.5q-22 1 -36.5 12t-14.5 27q0 13 7.5 22.5t19.5 22.5l55 59q14 13 27 20t29 7
q18 0 31 -7t26 -23l82 -98q0 -16 -9.5 -28t-28.5 -12q-14 0 -23 6.5t-19 16.5z" />
    <glyph glyph-name="idieresis" unicode="&#xef;" horiz-adv-x="249" 
d="M75 326h98v-327q-5 -2 -17 -4.5t-26 -2.5q-27 0 -41 11t-14 35v288zM173 276h-98v187q6 2 18.5 4.5t25.5 2.5q28 0 41 -11t13 -35v-148zM90 607q0 -22 -16 -38.5t-41 -16.5q-24 0 -39.5 16.5t-15.5 38.5q0 23 15.5 39t39.5 16q25 0 41 -16t16 -39zM271 607
q0 -22 -16 -38.5t-41 -16.5q-23 0 -39.5 16.5t-16.5 38.5q0 23 16.5 39t39.5 16q25 0 41 -16t16 -39z" />
    <glyph glyph-name="eth" unicode="&#xf0;" horiz-adv-x="547" 
d="M366 543l-32 -12l-160 -58q-10 7 -18 19t-8 27q0 23 26 33l88 33l41 14l125 50q11 -8 19 -19.5t8 -26.5q0 -16 -6.5 -23.5t-20.5 -12.5zM418 363l-14 -76q-20 35 -53 55t-73 20q-66 0 -99 -39.5t-33 -106.5q0 -68 35 -109t95 -41q63 0 93.5 42.5t30.5 113.5
q0 33 -2.5 59.5t-8.5 52.5q-2 16 -2 22.5t-0.5 12t-4.5 15.5q-19 44 -43 81t-59 67q-9 8 -15.5 14.5t-15.5 13.5q-25 19 -53.5 31.5t-59.5 21.5q1 25 14 40.5t36 15.5q33 0 72.5 -18.5t77.5 -48.5q7 -7 10 -9t10 -9q39 -38 71.5 -91t52.5 -116t20 -134q0 -82 -26 -139.5
t-76 -87.5t-123 -30q-105 0 -167.5 61.5t-62.5 168.5q0 77 31 126.5t80 73.5t104 24t94.5 -21.5t63.5 -55.5z" />
    <glyph glyph-name="ntilde" unicode="&#xf1;" horiz-adv-x="565" 
d="M494 307v-100h-98v95q0 51 -29 75t-77 24q-36 0 -64.5 -9t-49.5 -21v-164h-98v165q0 22 9.5 36.5t29.5 27.5q28 17 73 30.5t100 13.5q96 0 150 -43t54 -130zM78 259h98v-257q-6 -2 -18 -5t-26 -3q-27 0 -40.5 10.5t-13.5 34.5v220zM396 259h98v-257q-6 -2 -18.5 -5
t-26.5 -3q-27 0 -40 10.5t-13 34.5v220zM204 664q28 0 51 -8.5t43.5 -16.5t36.5 -8q19 0 28 11.5t14 25.5h5q21 0 37 -11t16 -35q0 -31 -22 -49t-56 -18q-29 0 -53.5 8.5t-44.5 17t-36 8.5q-19 0 -27.5 -11.5t-13.5 -27.5h-5q-21 0 -37 12t-16 35q0 22 11.5 36.5t30 22.5
t38.5 8z" />
    <glyph glyph-name="ograve" unicode="&#xf2;" horiz-adv-x="560" 
d="M514 233q0 -75 -29 -130.5t-81.5 -86t-123.5 -30.5t-124 30.5t-82 86t-29 130.5q0 76 29.5 131.5t82.5 85.5t123 30t122.5 -30.5t82 -85.5t29.5 -131zM280 401q-62 0 -98 -44.5t-36 -123.5t35.5 -123t98.5 -44t98.5 44.5t35.5 122.5q0 79 -35.5 123.5t-98.5 44.5z
M246 538l-95 98q-1 4 -1.5 8.5t-0.5 6.5q0 21 13 33t32 12q13 0 23.5 -5.5t19.5 -15.5l89 -113q-1 -20 -12.5 -31t-27.5 -11q-13 0 -22 5t-18 13z" />
    <glyph glyph-name="oacute" unicode="&#xf3;" horiz-adv-x="560" 
d="M514 233q0 -75 -29 -130.5t-81.5 -86t-123.5 -30.5t-124 30.5t-82 86t-29 130.5q0 76 29.5 131.5t82.5 85.5t123 30t122.5 -30.5t82 -85.5t29.5 -131zM280 401q-62 0 -98 -44.5t-36 -123.5t35.5 -123t98.5 -44t98.5 44.5t35.5 122.5q0 79 -35.5 123.5t-98.5 44.5z
M262 591l98 109q28 -1 44 -14.5t16 -30.5q0 -15 -7 -25t-23 -25l-91 -87q-24 0 -38.5 13t-14.5 28q0 9 4.5 16.5t11.5 15.5z" />
    <glyph glyph-name="ocircumflex" unicode="&#xf4;" horiz-adv-x="560" 
d="M514 233q0 -75 -29 -130.5t-81.5 -86t-123.5 -30.5t-124 30.5t-82 86t-29 130.5q0 76 29.5 131.5t82.5 85.5t123 30t122.5 -30.5t82 -85.5t29.5 -131zM280 401q-62 0 -98 -44.5t-36 -123.5t35.5 -123t98.5 -44t98.5 44.5t35.5 122.5q0 79 -35.5 123.5t-98.5 44.5z
M340 548l-60 72q-24 -29 -45 -51.5t-42 -45.5q-22 1 -36 12t-14 27q0 13 7.5 22.5t18.5 22.5l56 59q14 13 26.5 20t29.5 7q18 0 30.5 -7t26.5 -23l81 -98q0 -16 -9 -28t-29 -12q-13 0 -22 6.5t-19 16.5z" />
    <glyph glyph-name="otilde" unicode="&#xf5;" horiz-adv-x="560" 
d="M514 233q0 -75 -29 -130.5t-81.5 -86t-123.5 -30.5t-124 30.5t-82 86t-29 130.5q0 76 29.5 131.5t82.5 85.5t123 30t122.5 -30.5t82 -85.5t29.5 -131zM280 401q-62 0 -98 -44.5t-36 -123.5t35.5 -123t98.5 -44t98.5 44.5t35.5 122.5q0 79 -35.5 123.5t-98.5 44.5z
M206 664q28 0 51 -8.5t43.5 -16.5t36.5 -8q19 0 28 11.5t14 25.5h5q21 0 37 -11t16 -35q0 -31 -22 -49t-56 -18q-29 0 -53.5 8.5t-44.5 17t-36 8.5q-19 0 -27.5 -11.5t-13.5 -27.5h-5q-21 0 -37 12t-16 35q0 22 11.5 36.5t30 22.5t38.5 8z" />
    <glyph glyph-name="odieresis" unicode="&#xf6;" horiz-adv-x="560" 
d="M514 233q0 -75 -29 -130.5t-81.5 -86t-123.5 -30.5t-124 30.5t-82 86t-29 130.5q0 76 29.5 131.5t82.5 85.5t123 30t122.5 -30.5t82 -85.5t29.5 -131zM280 401q-62 0 -98 -44.5t-36 -123.5t35.5 -123t98.5 -44t98.5 44.5t35.5 122.5q0 79 -35.5 123.5t-98.5 44.5z
M246 607q0 -22 -16 -38.5t-41 -16.5q-24 0 -39.5 16.5t-15.5 38.5q0 23 15.5 39t39.5 16q25 0 41 -16t16 -39zM427 607q0 -22 -16 -38.5t-41 -16.5q-23 0 -39.5 16.5t-16.5 38.5q0 23 16.5 39t39.5 16q25 0 41 -16t16 -39z" />
    <glyph glyph-name="divide" unicode="&#xf7;" horiz-adv-x="523" 
d="M436 257h-380q-4 8 -6.5 17.5t-2.5 21.5q0 21 11 31t29 10h380q3 -7 6 -17t3 -21q0 -21 -10.5 -31.5t-29.5 -10.5zM205 132q0 25 16 41.5t42 16.5q27 0 42.5 -16.5t15.5 -41.5q0 -24 -15.5 -41t-42.5 -17q-26 0 -42 17t-16 41zM205 459q0 25 16 41.5t42 16.5
q27 0 42.5 -16.5t15.5 -41.5t-15.5 -41.5t-42.5 -16.5q-26 0 -42 16.5t-16 41.5z" />
    <glyph glyph-name="oslash" unicode="&#xf8;" horiz-adv-x="560" 
d="M428 396l-49 49l54 83q14 0 26 -4.5t19.5 -13t7.5 -21.5q0 -7 -6 -17zM187 31l-62 -92q-15 0 -27 5t-19 13.5t-7 19.5q0 9 6 18l46 67zM204 55l-41 61l183 280l60 -27zM514 233q0 -75 -29 -130.5t-81.5 -86t-123.5 -30.5t-124 30.5t-82 86t-29 130.5q0 76 29.5 131.5
t82.5 85.5t123 30t122.5 -30.5t82 -85.5t29.5 -131zM280 401q-62 0 -100 -44t-38 -124q0 -79 37.5 -123.5t100.5 -44.5t100.5 44t37.5 124q0 79 -37.5 123.5t-100.5 44.5z" />
    <glyph glyph-name="ugrave" unicode="&#xf9;" horiz-adv-x="556" 
d="M70 174v86h98v-83q0 -59 31.5 -85t86.5 -26q37 0 62.5 7.5t39.5 15.5v171h98v-174q0 -21 -6.5 -35t-27.5 -26q-25 -15 -67.5 -27t-99.5 -12q-67 0 -115.5 20t-74 61.5t-25.5 106.5zM486 210h-98v255q6 2 18.5 4.5t26.5 2.5q27 0 40 -10t13 -35v-217zM168 210h-98v255
q7 2 19.5 4.5t26.5 2.5q27 0 39.5 -10t12.5 -35v-217zM234 538l-95 98q-1 4 -1.5 8.5t-0.5 6.5q0 21 13 33t32 12q13 0 23.5 -5.5t19.5 -15.5l89 -113q-1 -20 -12.5 -31t-27.5 -11q-13 0 -22 5t-18 13z" />
    <glyph glyph-name="uacute" unicode="&#xfa;" horiz-adv-x="556" 
d="M70 174v86h98v-83q0 -59 31.5 -85t86.5 -26q37 0 62.5 7.5t39.5 15.5v171h98v-174q0 -21 -6.5 -35t-27.5 -26q-25 -15 -67.5 -27t-99.5 -12q-67 0 -115.5 20t-74 61.5t-25.5 106.5zM486 210h-98v255q6 2 18.5 4.5t26.5 2.5q27 0 40 -10t13 -35v-217zM168 210h-98v255
q7 2 19.5 4.5t26.5 2.5q27 0 39.5 -10t12.5 -35v-217zM258 591l98 109q28 -1 44 -14.5t16 -30.5q0 -15 -7 -25t-23 -25l-91 -87q-24 0 -38.5 13t-14.5 28q0 9 4.5 16.5t11.5 15.5z" />
    <glyph glyph-name="ucircumflex" unicode="&#xfb;" horiz-adv-x="556" 
d="M70 174v86h98v-83q0 -59 31.5 -85t86.5 -26q37 0 62.5 7.5t39.5 15.5v171h98v-174q0 -21 -6.5 -35t-27.5 -26q-25 -15 -67.5 -27t-99.5 -12q-67 0 -115.5 20t-74 61.5t-25.5 106.5zM486 210h-98v255q6 2 18.5 4.5t26.5 2.5q27 0 40 -10t13 -35v-217zM168 210h-98v255
q7 2 19.5 4.5t26.5 2.5q27 0 39.5 -10t12.5 -35v-217zM340 548l-60 72q-24 -29 -45 -51.5t-42 -45.5q-22 1 -36 12t-14 27q0 13 7.5 22.5t18.5 22.5l56 59q14 13 26.5 20t29.5 7q18 0 30.5 -7t26.5 -23l81 -98q0 -16 -9 -28t-29 -12q-13 0 -22 6.5t-19 16.5z" />
    <glyph glyph-name="udieresis" unicode="&#xfc;" horiz-adv-x="556" 
d="M70 174v86h98v-83q0 -59 31.5 -85t86.5 -26q37 0 62.5 7.5t39.5 15.5v171h98v-174q0 -21 -6.5 -35t-27.5 -26q-25 -15 -67.5 -27t-99.5 -12q-67 0 -115.5 20t-74 61.5t-25.5 106.5zM486 210h-98v255q6 2 18.5 4.5t26.5 2.5q27 0 40 -10t13 -35v-217zM168 210h-98v255
q7 2 19.5 4.5t26.5 2.5q27 0 39.5 -10t12.5 -35v-217zM242 607q0 -22 -16 -38.5t-41 -16.5q-24 0 -39.5 16.5t-15.5 38.5q0 23 15.5 39t39.5 16q25 0 41 -16t16 -39zM423 607q0 -22 -16 -38.5t-41 -16.5q-23 0 -39.5 16.5t-16.5 38.5q0 23 16.5 39t39.5 16q25 0 41 -16
t16 -39z" />
    <glyph glyph-name="yacute" unicode="&#xfd;" horiz-adv-x="501" 
d="M161 107q-17 33 -39.5 85.5t-46.5 119t-47 139.5q8 11 22 18t30 7q21 0 34.5 -10t20.5 -35q28 -81 58.5 -161t66.5 -165h4q20 43 41.5 104t41 128.5t32.5 128.5q9 4 19.5 7t22.5 3q20 0 34 -10t14 -31q0 -19 -8.5 -57.5t-24 -87.5t-35.5 -102.5t-42.5 -105t-45.5 -93.5
q-48 -87 -88 -133t-76 -46q-26 0 -41.5 14.5t-18.5 35.5q21 19 47.5 48.5t51 63.5t40.5 65q-17 5 -32.5 19t-34.5 51zM226 591l98 109q28 -1 44 -14.5t16 -30.5q0 -15 -7 -25t-23 -25l-91 -87q-24 0 -38.5 13t-14.5 28q0 9 4.5 16.5t11.5 15.5z" />
    <glyph glyph-name="thorn" unicode="&#xfe;" horiz-adv-x="560" 
d="M280 -13q-41 0 -76.5 11.5t-54.5 25.5v88q20 -18 48.5 -32t68.5 -14q66 0 105.5 40.5t39.5 128.5q0 61 -19.5 97t-52.5 52.5t-72 16.5q-32 0 -58.5 -8.5t-48.5 -22.5l-21 73q20 12 56.5 24.5t82.5 12.5q64 0 116.5 -25.5t84 -79.5t31.5 -140q0 -83 -29 -138t-81.5 -82.5
t-119.5 -27.5zM126 -185q-27 0 -40.5 10.5t-13.5 35.5v220l98 -2v-256q-6 -3 -18 -5.5t-26 -2.5zM72 53v597q7 2 19.5 4t25.5 2q28 0 40.5 -11t12.5 -34v-558h-98z" />
    <glyph glyph-name="ydieresis" unicode="&#xff;" horiz-adv-x="501" 
d="M161 107q-17 33 -39.5 85.5t-46.5 119t-47 139.5q8 11 22 18t30 7q21 0 34.5 -10t20.5 -35q28 -81 58.5 -161t66.5 -165h4q20 43 41.5 104t41 128.5t32.5 128.5q9 4 19.5 7t22.5 3q20 0 34 -10t14 -31q0 -19 -8.5 -57.5t-24 -87.5t-35.5 -102.5t-42.5 -105t-45.5 -93.5
q-48 -87 -88 -133t-76 -46q-26 0 -41.5 14.5t-18.5 35.5q21 19 47.5 48.5t51 63.5t40.5 65q-17 5 -32.5 19t-34.5 51zM216 607q0 -22 -16 -38.5t-41 -16.5q-24 0 -39.5 16.5t-15.5 38.5q0 23 15.5 39t39.5 16q25 0 41 -16t16 -39zM397 607q0 -22 -16 -38.5t-41 -16.5
q-23 0 -39.5 16.5t-16.5 38.5q0 23 16.5 39t39.5 16q25 0 41 -16t16 -39z" />
    <glyph glyph-name="Amacron" unicode="&#x100;" horiz-adv-x="599" 
d="M399 691h-235q-4 7 -8 16.5t-4 21.5q0 21 10 30t26 9h236q5 -7 8 -17t3 -21q0 -21 -9.5 -30t-26.5 -9zM302 528h-4q-14 -39 -32.5 -92t-38 -109.5t-37.5 -107.5l-8 -34q-6 -19 -14 -44t-17 -52l-17 -51l-13 -39q-8 -4 -17 -6t-23 -2q-22 0 -37 10.5t-15 31.5q0 10 3 20.5
t7 23.5q11 33 28.5 82.5t38 107.5t43 118t43 115.5t37.5 97.5q10 6 30 11t40 5q26 0 48.5 -8t28.5 -25q23 -57 49 -129.5t53 -151t51 -152.5t43 -134q-8 -10 -22 -16t-31 -6q-25 0 -37 10t-19 33l-49 149l-11 43q-18 57 -37 113.5t-35.5 105.5t-28.5 82zM136 155l34 80h268
l17 -80h-319z" />
    <glyph glyph-name="amacron" unicode="&#x101;" horiz-adv-x="508" 
d="M244 -14q-96 0 -150 37.5t-54 109.5q0 66 43 101t122 43l140 14v23q0 46 -29.5 67t-79.5 21q-40 0 -77.5 -11t-66.5 -26q-9 8 -16 19t-7 23q0 31 34 46q27 13 63.5 20t75.5 7q91 0 145 -40t54 -126v-234q0 -23 -10 -35.5t-27 -23.5q-26 -14 -67 -24.5t-93 -10.5zM244 63
q37 0 63 7.5t38 15.5v132l-114 -12q-47 -3 -70.5 -20.5t-23.5 -50.5t26.5 -52.5t80.5 -19.5zM361 569h-235q-4 7 -8 16.5t-4 21.5q0 21 10 30t27 9h235q5 -6 8 -16.5t3 -21.5q0 -21 -9.5 -30t-26.5 -9z" />
    <glyph glyph-name="Abreve" unicode="&#x102;" horiz-adv-x="599" 
d="M302 528h-4q-14 -39 -32.5 -92t-38 -109.5t-37.5 -107.5l-8 -34q-6 -19 -14 -44t-17 -52l-17 -51l-13 -39q-8 -4 -17 -6t-23 -2q-22 0 -37 10.5t-15 31.5q0 10 3 20.5t7 23.5q11 33 28.5 82.5t38 107.5t43 118t43 115.5t37.5 97.5q10 6 30 11t40 5q26 0 48.5 -8t28.5 -25
q23 -57 49 -129.5t53 -151t51 -152.5t43 -134q-8 -10 -22 -16t-31 -6q-25 0 -37 10t-19 33l-49 149l-11 43q-18 57 -37 113.5t-35.5 105.5t-28.5 82zM136 155l34 80h268l17 -80h-319zM300 737q32 0 51.5 16.5t24.5 46.5q4 1 8.5 1.5t8.5 0.5q21 0 32.5 -12t11.5 -33
q0 -34 -34.5 -63t-102.5 -29q-69 0 -103 29t-34 63q0 21 11.5 33t32.5 12q5 0 9.5 -0.5t7.5 -1.5q5 -30 25 -46.5t51 -16.5z" />
    <glyph glyph-name="abreve" unicode="&#x103;" horiz-adv-x="508" 
d="M244 -14q-96 0 -150 37.5t-54 109.5q0 66 43 101t122 43l140 14v23q0 46 -29.5 67t-79.5 21q-40 0 -77.5 -11t-66.5 -26q-9 8 -16 19t-7 23q0 31 34 46q27 13 63.5 20t75.5 7q91 0 145 -40t54 -126v-234q0 -23 -10 -35.5t-27 -23.5q-26 -14 -67 -24.5t-93 -10.5zM244 63
q37 0 63 7.5t38 15.5v132l-114 -12q-47 -3 -70.5 -20.5t-23.5 -50.5t26.5 -52.5t80.5 -19.5zM256 615q32 0 51.5 16.5t24.5 46.5q4 1 8.5 1.5t8.5 0.5q21 0 32.5 -12t11.5 -33q0 -34 -34.5 -63t-102.5 -29q-69 0 -103 29t-34 63q0 21 11.5 33t32.5 12q5 0 9.5 -0.5t7.5 -1.5
q5 -30 25 -46.5t51 -16.5z" />
    <glyph glyph-name="Aogonek" unicode="&#x104;" horiz-adv-x="599" 
d="M495 15l68 -9q-19 -13 -34 -29.5t-15 -43.5q0 -25 17 -38t45 -13h12q3 -7 5 -13.5t2 -13.5q0 -18 -13 -30.5t-45 -12.5q-46 0 -78.5 26t-32.5 72q0 29 11.5 50.5t28 35t29.5 19.5zM302 528h-4q-14 -39 -32.5 -92t-38 -109.5t-37.5 -107.5l-8 -34q-6 -19 -14 -44t-17 -52
l-17 -51l-13 -39q-8 -4 -17 -6t-23 -2q-22 0 -37 10.5t-15 31.5q0 10 3 20.5t7 23.5q11 33 28.5 82.5t38 107.5t43 118t43 115.5t37.5 97.5q10 6 30 11t40 5q26 0 48.5 -8t28.5 -25q23 -57 49 -129.5t53 -151t51 -152.5t43 -134q-8 -10 -22 -16t-31 -6q-25 0 -37 10t-19 33
l-49 149l-11 43q-18 57 -37 113.5t-35.5 105.5t-28.5 82zM136 155l34 80h268l17 -80h-319z" />
    <glyph glyph-name="aogonek" unicode="&#x105;" horiz-adv-x="508" 
d="M335 13l85 21q-29 -23 -48 -44.5t-19 -56.5q0 -25 16.5 -38t45.5 -13h13q3 -7 4.5 -13.5t1.5 -13.5q0 -18 -13 -30.5t-45 -12.5q-46 0 -78.5 26t-32.5 72q0 43 23.5 68t46.5 35zM244 -14q-96 0 -150 37.5t-54 109.5q0 66 43 101t122 43l140 14v23q0 46 -29.5 67t-79.5 21
q-40 0 -77.5 -11t-66.5 -26q-9 8 -16 19t-7 23q0 31 34 46q27 13 63.5 20t75.5 7q91 0 145 -40t54 -126v-234q0 -23 -10 -35.5t-27 -23.5q-26 -14 -67 -24.5t-93 -10.5zM244 63q37 0 63 7.5t38 15.5v132l-114 -12q-47 -3 -70.5 -20.5t-23.5 -50.5t26.5 -52.5t80.5 -19.5z
" />
    <glyph glyph-name="Cacute" unicode="&#x106;" horiz-adv-x="585" 
d="M535 536q0 -15 -9.5 -27.5t-21.5 -18.5q-25 18 -59.5 33t-87.5 15q-59 0 -105 -26.5t-72.5 -79t-26.5 -129.5q0 -116 57.5 -175t150.5 -59q50 0 87 14.5t62 32.5q12 -6 21 -18.5t9 -28.5q0 -13 -7 -24.5t-23 -20.5q-22 -15 -60.5 -26.5t-97.5 -11.5q-85 0 -153.5 35
t-108.5 105.5t-40 176.5q0 105 41 176t108.5 107t147.5 36q56 0 98.5 -12.5t66 -32t23.5 -41.5zM309 730l96 95q26 -1 40 -13.5t14 -29.5q0 -15 -6.5 -25.5t-23.5 -23.5l-88 -72q-23 1 -35.5 11t-12.5 25q0 10 4 18t12 15z" />
    <glyph glyph-name="cacute" unicode="&#x107;" horiz-adv-x="480" 
d="M296 400q-64 0 -107.5 -43.5t-43.5 -124.5q0 -80 42 -123t109 -43q40 0 67 11t48 24q12 -7 19.5 -17.5t7.5 -25.5q0 -31 -41 -51t-105 -20q-72 0 -128 27t-87.5 81.5t-31.5 136.5q0 83 33 138t89 82.5t122 27.5q64 0 104.5 -22t40.5 -52q0 -13 -7.5 -23.5t-18.5 -16.5
q-21 13 -47 23.5t-65 10.5zM253 591l98 109q28 -1 44 -14.5t16 -30.5q0 -15 -7 -25t-23 -25l-91 -87q-24 0 -38.5 13t-14.5 28q0 9 4.5 16.5t11.5 15.5z" />
    <glyph glyph-name="Ccircumflex" unicode="&#x108;" horiz-adv-x="585" 
d="M535 536q0 -15 -9.5 -27.5t-21.5 -18.5q-25 18 -59.5 33t-87.5 15q-59 0 -105 -26.5t-72.5 -79t-26.5 -129.5q0 -116 57.5 -175t150.5 -59q50 0 87 14.5t62 32.5q12 -6 21 -18.5t9 -28.5q0 -13 -7 -24.5t-23 -20.5q-22 -15 -60.5 -26.5t-97.5 -11.5q-85 0 -153.5 35
t-108.5 105.5t-40 176.5q0 105 41 176t108.5 107t147.5 36q56 0 98.5 -12.5t66 -32t23.5 -41.5zM341 748q-18 -18 -41.5 -42.5t-51.5 -48.5q-19 2 -32 12t-13 27q0 14 8 24t22 23l53 52q28 26 56 26q18 0 31 -7.5t27 -22.5l82 -90q0 -19 -11.5 -30.5t-29.5 -11.5
q-13 0 -24.5 7.5t-27.5 25.5z" />
    <glyph glyph-name="ccircumflex" unicode="&#x109;" horiz-adv-x="480" 
d="M296 400q-64 0 -107.5 -43.5t-43.5 -124.5q0 -80 42 -123t109 -43q40 0 67 11t48 24q12 -7 19.5 -17.5t7.5 -25.5q0 -31 -41 -51t-105 -20q-72 0 -128 27t-87.5 81.5t-31.5 136.5q0 83 33 138t89 82.5t122 27.5q64 0 104.5 -22t40.5 -52q0 -13 -7.5 -23.5t-18.5 -16.5
q-21 13 -47 23.5t-65 10.5zM336 548l-60 72q-24 -29 -45 -51.5t-42 -45.5q-22 1 -36 12t-14 27q0 13 7.5 22.5t18.5 22.5l56 59q14 13 26.5 20t29.5 7q18 0 30.5 -7t26.5 -23l81 -98q0 -16 -9 -28t-29 -12q-13 0 -22 6.5t-19 16.5z" />
    <glyph glyph-name="Cdotaccent" unicode="&#x10a;" horiz-adv-x="585" 
d="M535 536q0 -15 -9.5 -27.5t-21.5 -18.5q-25 18 -59.5 33t-87.5 15q-59 0 -105 -26.5t-72.5 -79t-26.5 -129.5q0 -116 57.5 -175t150.5 -59q50 0 87 14.5t62 32.5q12 -6 21 -18.5t9 -28.5q0 -13 -7 -24.5t-23 -20.5q-22 -15 -60.5 -26.5t-97.5 -11.5q-85 0 -153.5 35
t-108.5 105.5t-40 176.5q0 105 41 176t108.5 107t147.5 36q56 0 98.5 -12.5t66 -32t23.5 -41.5zM395 736q0 -25 -16 -41t-43 -16q-25 0 -41.5 16t-16.5 41q0 26 16.5 41.5t41.5 15.5q27 0 43 -15.5t16 -41.5z" />
    <glyph glyph-name="cdotaccent" unicode="&#x10b;" horiz-adv-x="480" 
d="M296 400q-64 0 -107.5 -43.5t-43.5 -124.5q0 -80 42 -123t109 -43q40 0 67 11t48 24q12 -7 19.5 -17.5t7.5 -25.5q0 -31 -41 -51t-105 -20q-72 0 -128 27t-87.5 81.5t-31.5 136.5q0 83 33 138t89 82.5t122 27.5q64 0 104.5 -22t40.5 -52q0 -13 -7.5 -23.5t-18.5 -16.5
q-21 13 -47 23.5t-65 10.5zM330 612q0 -25 -16 -41t-43 -16q-25 0 -41.5 16t-16.5 41q0 26 16.5 41.5t41.5 15.5q27 0 43 -15.5t16 -41.5z" />
    <glyph glyph-name="Ccaron" unicode="&#x10c;" horiz-adv-x="585" 
d="M535 536q0 -15 -9.5 -27.5t-21.5 -18.5q-25 18 -59.5 33t-87.5 15q-59 0 -105 -26.5t-72.5 -79t-26.5 -129.5q0 -116 57.5 -175t150.5 -59q50 0 87 14.5t62 32.5q12 -6 21 -18.5t9 -28.5q0 -13 -7 -24.5t-23 -20.5q-22 -15 -60.5 -26.5t-97.5 -11.5q-85 0 -153.5 35
t-108.5 105.5t-40 176.5q0 105 41 176t108.5 107t147.5 36q56 0 98.5 -12.5t66 -32t23.5 -41.5zM346 729q19 19 42 42.5t48 49.5q20 -1 35 -12t15 -28q0 -13 -8 -23.5t-23 -23.5l-53 -52q-15 -13 -27.5 -18.5t-28.5 -5.5q-18 0 -31.5 7t-26.5 21l-83 86q0 22 11 34t29 12
q13 0 25 -6.5t28 -25.5z" />
    <glyph glyph-name="ccaron" unicode="&#x10d;" horiz-adv-x="480" 
d="M296 400q-64 0 -107.5 -43.5t-43.5 -124.5q0 -80 42 -123t109 -43q40 0 67 11t48 24q12 -7 19.5 -17.5t7.5 -25.5q0 -31 -41 -51t-105 -20q-72 0 -128 27t-87.5 81.5t-31.5 136.5q0 83 33 138t89 82.5t122 27.5q64 0 104.5 -22t40.5 -52q0 -13 -7.5 -23.5t-18.5 -16.5
q-21 13 -47 23.5t-65 10.5zM217 661l56 -63l88 94q24 -1 38 -12t14 -28q0 -14 -8 -24t-22 -23l-59 -59q-12 -11 -24 -16.5t-27 -5.5q-11 0 -21 3t-19 10t-21 18l-83 87q0 12 4 23t13 18t22 7q15 0 25 -6t24 -23z" />
    <glyph glyph-name="Dcaron" unicode="&#x10e;" horiz-adv-x="655" 
d="M502 309q0 -118 -56.5 -178t-163.5 -60q-26 0 -51.5 1.5t-46.5 7.5v450q19 4 41 5.5t50 1.5q63 0 114.5 -23.5t82 -73.5t30.5 -131zM605 310q0 104 -42 172.5t-116.5 103t-173.5 34.5q-39 0 -79.5 -3.5t-74.5 -14.5q-16 -5 -25.5 -14t-9.5 -26v-505q0 -37 45 -51
q37 -12 79.5 -15t73.5 -3q98 0 170.5 35t112.5 106.5t40 180.5zM320 729q19 19 42 42.5t48 49.5q20 -1 35 -12t15 -28q0 -13 -8 -23.5t-23 -23.5l-53 -52q-15 -13 -27.5 -18.5t-28.5 -5.5q-18 0 -31.5 7t-26.5 21l-83 86q0 22 11 34t29 12q13 0 25 -6.5t28 -25.5z" />
    <glyph glyph-name="dcaron" unicode="&#x10f;" horiz-adv-x="654" 
d="M385 89v327l97 1v-335q0 -20 -8.5 -33t-27.5 -24q-22 -14 -61 -26.5t-89 -12.5q-75 0 -131.5 26t-88 80.5t-31.5 138.5q0 88 31.5 142.5t84.5 80.5t117 26q39 0 72 -10t52 -25v-87q-17 18 -45.5 30.5t-66.5 12.5q-40 0 -73 -17t-52.5 -54.5t-19.5 -99.5q0 -86 41 -125
t109 -39q32 0 53 7t37 16zM482 395l-98 -1v255q7 2 19.5 4.5t25.5 2.5q28 0 40.5 -10t12.5 -35v-216zM614 511q-9 -11 -20.5 -16t-25.5 -5q-24 0 -37 15q15 37 26.5 74.5t15.5 67.5q10 5 21 7.5t24 2.5q19 0 31.5 -8.5t12.5 -26.5q0 -16 -7.5 -37.5t-18.5 -41t-22 -32.5z
" />
    <glyph glyph-name="Dcroat" unicode="&#x110;" horiz-adv-x="693" 
d="M167 345v-81h163q18 0 28 11t10 31q0 13 -4 23.5t-8 15.5h-189zM220 264v81h-176q-17 0 -27 -11t-10 -32q0 -12 3.5 -22t8.5 -16h201zM540 309q0 -118 -56.5 -178t-163.5 -60q-26 0 -51.5 1.5t-46.5 7.5v450q19 4 41 5.5t50 1.5q63 0 114.5 -23.5t82 -73.5t30.5 -131z
M643 310q0 104 -42 172.5t-116.5 103t-173.5 34.5q-39 0 -79.5 -3.5t-74.5 -14.5q-16 -5 -25.5 -14t-9.5 -26v-505q0 -37 45 -51q37 -12 79.5 -15t73.5 -3q98 0 170.5 35t112.5 106.5t40 180.5z" />
    <glyph glyph-name="dcroat" unicode="&#x111;" horiz-adv-x="558" 
d="M524 528h-236q-3 5 -6 13.5t-3 19.5q0 33 30 33h237q2 -4 5.5 -12.5t3.5 -18.5q0 -35 -31 -35zM385 89v327l97 1v-335q0 -20 -8.5 -33t-27.5 -24q-22 -14 -61 -26.5t-89 -12.5q-75 0 -131.5 26t-88 80.5t-31.5 138.5q0 88 31.5 142.5t84.5 80.5t117 26q39 0 72 -10
t52 -25v-87q-17 18 -45.5 30.5t-66.5 12.5q-40 0 -73 -17t-52.5 -54.5t-19.5 -99.5q0 -86 41 -125t109 -39q32 0 53 7t37 16zM482 395l-98 -1v262q7 2 19.5 4.5t25.5 2.5q28 0 40.5 -10t12.5 -35v-223z" />
    <glyph glyph-name="Emacron" unicode="&#x112;" horiz-adv-x="543" 
d="M94 381h99v-373q-5 -2 -18 -5.5t-27 -3.5q-25 0 -39.5 15t-14.5 39v328zM193 231h-99v323q0 24 14.5 39t39.5 15q14 0 27 -3t18 -6v-368zM148 270v82h301q4 -5 7.5 -16t3.5 -23q0 -20 -9.5 -31.5t-27.5 -11.5h-275zM148 -1v82h336q4 -5 7.5 -15.5t3.5 -23.5
q0 -20 -9.5 -31.5t-27.5 -11.5h-310zM148 525v83h332q3 -6 6.5 -16.5t3.5 -22.5q0 -20 -9.5 -32t-26.5 -12h-306zM394 691h-235q-4 7 -8 16.5t-4 21.5q0 21 10 30t27 9h235q5 -6 8 -16.5t3 -21.5q0 -21 -9.5 -30t-26.5 -9z" />
    <glyph glyph-name="emacron" unicode="&#x113;" horiz-adv-x="525" 
d="M110 177l-4 73l287 41q-3 48 -34 80t-86 32q-58 0 -95.5 -40.5t-38.5 -116.5l1 -35q8 -73 51.5 -109.5t115.5 -36.5q42 0 77 13t55 29q12 -8 19.5 -19t7.5 -25q0 -22 -22 -39.5t-59 -27.5t-84 -10q-77 0 -134.5 28.5t-89.5 84.5t-32 138q0 59 17.5 104t48.5 76t72.5 47
t89.5 16q63 0 111 -26t75 -73t27 -107q0 -25 -11.5 -36t-33.5 -14zM377 569h-235q-4 7 -8 16.5t-4 21.5q0 21 10 30t27 9h235q5 -6 8 -16.5t3 -21.5q0 -21 -9.5 -30t-26.5 -9z" />
    <glyph glyph-name="Ebreve" unicode="&#x114;" horiz-adv-x="543" 
d="M94 381h99v-373q-5 -2 -18 -5.5t-27 -3.5q-25 0 -39.5 15t-14.5 39v328zM193 231h-99v323q0 24 14.5 39t39.5 15q14 0 27 -3t18 -6v-368zM148 270v82h301q4 -5 7.5 -16t3.5 -23q0 -20 -9.5 -31.5t-27.5 -11.5h-275zM148 -1v82h336q4 -5 7.5 -15.5t3.5 -23.5
q0 -20 -9.5 -31.5t-27.5 -11.5h-310zM148 525v83h332q3 -6 6.5 -16.5t3.5 -22.5q0 -20 -9.5 -32t-26.5 -12h-306zM301 740q32 0 51.5 16.5t24.5 46.5q4 1 8.5 1.5t8.5 0.5q21 0 32.5 -12t11.5 -33q0 -34 -34.5 -63t-102.5 -29q-69 0 -103 29t-34 63q0 21 11.5 33t32.5 12
q5 0 9.5 -0.5t7.5 -1.5q5 -30 25 -46.5t51 -16.5z" />
    <glyph glyph-name="ebreve" unicode="&#x115;" horiz-adv-x="525" 
d="M110 177l-4 73l287 41q-3 48 -34 80t-86 32q-58 0 -95.5 -40.5t-38.5 -116.5l1 -35q8 -73 51.5 -109.5t115.5 -36.5q42 0 77 13t55 29q12 -8 19.5 -19t7.5 -25q0 -22 -22 -39.5t-59 -27.5t-84 -10q-77 0 -134.5 28.5t-89.5 84.5t-32 138q0 59 17.5 104t48.5 76t72.5 47
t89.5 16q63 0 111 -26t75 -73t27 -107q0 -25 -11.5 -36t-33.5 -14zM275 615q32 0 51.5 16.5t24.5 46.5q4 1 8.5 1.5t8.5 0.5q21 0 32.5 -12t11.5 -33q0 -34 -34.5 -63t-102.5 -29q-69 0 -103 29t-34 63q0 21 11.5 33t32.5 12q5 0 9.5 -0.5t7.5 -1.5q5 -30 25 -46.5t51 -16.5
z" />
    <glyph glyph-name="Edotaccent" unicode="&#x116;" horiz-adv-x="543" 
d="M94 381h99v-373q-5 -2 -18 -5.5t-27 -3.5q-25 0 -39.5 15t-14.5 39v328zM193 231h-99v323q0 24 14.5 39t39.5 15q14 0 27 -3t18 -6v-368zM148 270v82h301q4 -5 7.5 -16t3.5 -23q0 -20 -9.5 -31.5t-27.5 -11.5h-275zM148 -1v82h336q4 -5 7.5 -15.5t3.5 -23.5
q0 -20 -9.5 -31.5t-27.5 -11.5h-310zM148 525v83h332q3 -6 6.5 -16.5t3.5 -22.5q0 -20 -9.5 -32t-26.5 -12h-306zM368 736q0 -25 -16 -41t-43 -16q-25 0 -41.5 16t-16.5 41q0 26 16.5 41.5t41.5 15.5q27 0 43 -15.5t16 -41.5z" />
    <glyph glyph-name="edotaccent" unicode="&#x117;" horiz-adv-x="525" 
d="M110 177l-4 73l287 41q-3 48 -34 80t-86 32q-58 0 -95.5 -40.5t-38.5 -116.5l1 -35q8 -73 51.5 -109.5t115.5 -36.5q42 0 77 13t55 29q12 -8 19.5 -19t7.5 -25q0 -22 -22 -39.5t-59 -27.5t-84 -10q-77 0 -134.5 28.5t-89.5 84.5t-32 138q0 59 17.5 104t48.5 76t72.5 47
t89.5 16q63 0 111 -26t75 -73t27 -107q0 -25 -11.5 -36t-33.5 -14zM331 612q0 -25 -16 -41t-43 -16q-25 0 -41.5 16t-16.5 41q0 26 16.5 41.5t41.5 15.5q27 0 43 -15.5t16 -41.5z" />
    <glyph glyph-name="Eogonek" unicode="&#x118;" horiz-adv-x="543" 
d="M94 381h99v-373q-5 -2 -18 -5.5t-27 -3.5q-25 0 -39.5 15t-14.5 39v328zM193 231h-99v323q0 24 14.5 39t39.5 15q14 0 27 -3t18 -6v-368zM148 270v82h301q4 -5 7.5 -16t3.5 -23q0 -20 -9.5 -31.5t-27.5 -11.5h-275zM148 -1v82h336q4 -5 7.5 -15.5t3.5 -23.5
q0 -20 -9.5 -31.5t-27.5 -11.5h-310zM148 525v83h332q3 -6 6.5 -16.5t3.5 -22.5q0 -20 -9.5 -32t-26.5 -12h-306zM400 15l68 -9q-20 -13 -34.5 -29.5t-14.5 -43.5q0 -25 16.5 -38t44.5 -13h13q3 -7 4.5 -13.5t1.5 -13.5q0 -18 -12.5 -30.5t-45.5 -12.5q-45 0 -78 26t-33 72
q0 29 11.5 49.5t28 34.5t30.5 21z" />
    <glyph glyph-name="eogonek" unicode="&#x119;" horiz-adv-x="525" 
d="M110 177l-4 73l287 41q-3 48 -34 80t-86 32q-58 0 -95.5 -40.5t-38.5 -116.5l1 -35q8 -73 51.5 -109.5t115.5 -36.5q42 0 77 13t55 29q12 -8 19.5 -19t7.5 -25q0 -22 -22 -39.5t-59 -27.5t-84 -10q-77 0 -134.5 28.5t-89.5 84.5t-32 138q0 59 17.5 104t48.5 76t72.5 47
t89.5 16q63 0 111 -26t75 -73t27 -107q0 -25 -11.5 -36t-33.5 -14zM341 15l68 -9q-20 -13 -34.5 -29.5t-14.5 -43.5q0 -25 16.5 -38t44.5 -13h13q3 -7 4.5 -13.5t1.5 -13.5q0 -18 -12.5 -30.5t-45.5 -12.5q-45 0 -78 26t-33 72q0 29 11.5 49.5t28 34.5t30.5 21z" />
    <glyph glyph-name="Ecaron" unicode="&#x11a;" horiz-adv-x="543" 
d="M94 381h99v-373q-5 -2 -18 -5.5t-27 -3.5q-25 0 -39.5 15t-14.5 39v328zM193 231h-99v323q0 24 14.5 39t39.5 15q14 0 27 -3t18 -6v-368zM148 270v82h301q4 -5 7.5 -16t3.5 -23q0 -20 -9.5 -31.5t-27.5 -11.5h-275zM148 -1v82h336q4 -5 7.5 -15.5t3.5 -23.5
q0 -20 -9.5 -31.5t-27.5 -11.5h-310zM148 525v83h332q3 -6 6.5 -16.5t3.5 -22.5q0 -20 -9.5 -32t-26.5 -12h-306zM304 729q19 19 42 42.5t48 49.5q20 -1 35 -12t15 -28q0 -13 -8 -23.5t-23 -23.5l-53 -52q-15 -13 -27.5 -18.5t-28.5 -5.5q-18 0 -31.5 7t-26.5 21l-83 86
q0 22 11 34t29 12q13 0 25 -6.5t28 -25.5z" />
    <glyph glyph-name="ecaron" unicode="&#x11b;" horiz-adv-x="525" 
d="M110 177l-4 73l287 41q-3 48 -34 80t-86 32q-58 0 -95.5 -40.5t-38.5 -116.5l1 -35q8 -73 51.5 -109.5t115.5 -36.5q42 0 77 13t55 29q12 -8 19.5 -19t7.5 -25q0 -22 -22 -39.5t-59 -27.5t-84 -10q-77 0 -134.5 28.5t-89.5 84.5t-32 138q0 59 17.5 104t48.5 76t72.5 47
t89.5 16q63 0 111 -26t75 -73t27 -107q0 -25 -11.5 -36t-33.5 -14zM221 661l56 -63l88 94q24 -1 38 -12t14 -28q0 -14 -8 -24t-22 -23l-59 -59q-12 -11 -24 -16.5t-27 -5.5q-11 0 -21 3t-19 10t-21 18l-83 87q0 12 4 23t13 18t22 7q15 0 25 -6t24 -23z" />
    <glyph glyph-name="Gcircumflex" unicode="&#x11c;" horiz-adv-x="644" 
d="M579 290v-215q0 -20 -10.5 -33t-32.5 -24q-26 -14 -71.5 -23t-92.5 -9q-94 0 -166.5 34t-114 104t-41.5 179q0 106 42.5 177t113.5 106.5t156 35.5q58 0 102 -12.5t68 -31.5t24 -41q0 -16 -9 -28t-21 -18q-27 17 -64 32t-93 15q-61 0 -110 -26.5t-77.5 -79t-28.5 -129.5
q0 -81 29 -132.5t79 -76.5t112 -25q34 0 62.5 6t45.5 14v166h-143q-3 6 -6.5 16.5t-3.5 22.5q0 21 9.5 31.5t26.5 10.5h168q20 0 33.5 -12.5t13.5 -33.5zM347 748q-18 -18 -41.5 -42.5t-51.5 -48.5q-19 2 -32 12t-13 27q0 14 8 24t22 23l53 52q28 26 56 26q18 0 31 -7.5
t27 -22.5l82 -90q0 -19 -11.5 -30.5t-29.5 -11.5q-13 0 -24.5 7.5t-27.5 25.5z" />
    <glyph glyph-name="gcircumflex" unicode="&#x11d;" horiz-adv-x="543" 
d="M264 15q-58 0 -107.5 22.5t-79.5 74t-30 135.5q0 77 30 129t83 78t123 26q48 0 88.5 -12t66.5 -29q16 -11 26 -24.5t10 -33.5v-310h-97v305q-16 10 -38.5 17.5t-54.5 7.5q-62 0 -100.5 -38t-38.5 -115q0 -85 38.5 -120t94.5 -35q41 0 66.5 14.5t41.5 31.5l4 -84
q-16 -15 -48 -27.5t-78 -12.5zM378 -10v102h96v-107q0 -66 -30 -107.5t-81 -60t-115 -18.5q-50 0 -87 10.5t-53 19.5q-31 18 -31 48q0 15 7 26.5t18 17.5q22 -16 60.5 -29t81.5 -13q64 0 99 27t35 84zM340 548l-60 72q-24 -29 -45 -51.5t-42 -45.5q-22 1 -36 12t-14 27
q0 13 7.5 22.5t18.5 22.5l56 59q14 13 26.5 20t29.5 7q18 0 30.5 -7t26.5 -23l81 -98q0 -16 -9 -28t-29 -12q-13 0 -22 6.5t-19 16.5z" />
    <glyph glyph-name="Gbreve" unicode="&#x11e;" horiz-adv-x="644" 
d="M579 290v-215q0 -20 -10.5 -33t-32.5 -24q-26 -14 -71.5 -23t-92.5 -9q-94 0 -166.5 34t-114 104t-41.5 179q0 106 42.5 177t113.5 106.5t156 35.5q58 0 102 -12.5t68 -31.5t24 -41q0 -16 -9 -28t-21 -18q-27 17 -64 32t-93 15q-61 0 -110 -26.5t-77.5 -79t-28.5 -129.5
q0 -81 29 -132.5t79 -76.5t112 -25q34 0 62.5 6t45.5 14v166h-143q-3 6 -6.5 16.5t-3.5 22.5q0 21 9.5 31.5t26.5 10.5h168q20 0 33.5 -12.5t13.5 -33.5zM342 740q32 0 51.5 16.5t24.5 46.5q4 1 8.5 1.5t8.5 0.5q21 0 32.5 -12t11.5 -33q0 -34 -34.5 -63t-102.5 -29
q-69 0 -103 29t-34 63q0 21 11.5 33t32.5 12q5 0 9.5 -0.5t7.5 -1.5q5 -30 25 -46.5t51 -16.5z" />
    <glyph glyph-name="gbreve" unicode="&#x11f;" horiz-adv-x="543" 
d="M264 15q-58 0 -107.5 22.5t-79.5 74t-30 135.5q0 77 30 129t83 78t123 26q48 0 88.5 -12t66.5 -29q16 -11 26 -24.5t10 -33.5v-310h-97v305q-16 10 -38.5 17.5t-54.5 7.5q-62 0 -100.5 -38t-38.5 -115q0 -85 38.5 -120t94.5 -35q41 0 66.5 14.5t41.5 31.5l4 -84
q-16 -15 -48 -27.5t-78 -12.5zM378 -10v102h96v-107q0 -66 -30 -107.5t-81 -60t-115 -18.5q-50 0 -87 10.5t-53 19.5q-31 18 -31 48q0 15 7 26.5t18 17.5q22 -16 60.5 -29t81.5 -13q64 0 99 27t35 84zM276 615q32 0 51.5 16.5t24.5 46.5q4 1 8.5 1.5t8.5 0.5q21 0 32.5 -12
t11.5 -33q0 -34 -34.5 -63t-102.5 -29q-69 0 -103 29t-34 63q0 21 11.5 33t32.5 12q5 0 9.5 -0.5t7.5 -1.5q5 -30 25 -46.5t51 -16.5z" />
    <glyph glyph-name="Gdotaccent" unicode="&#x120;" horiz-adv-x="644" 
d="M579 290v-215q0 -20 -10.5 -33t-32.5 -24q-26 -14 -71.5 -23t-92.5 -9q-94 0 -166.5 34t-114 104t-41.5 179q0 106 42.5 177t113.5 106.5t156 35.5q58 0 102 -12.5t68 -31.5t24 -41q0 -16 -9 -28t-21 -18q-27 17 -64 32t-93 15q-61 0 -110 -26.5t-77.5 -79t-28.5 -129.5
q0 -81 29 -132.5t79 -76.5t112 -25q34 0 62.5 6t45.5 14v166h-143q-3 6 -6.5 16.5t-3.5 22.5q0 21 9.5 31.5t26.5 10.5h168q20 0 33.5 -12.5t13.5 -33.5zM417 736q0 -25 -16 -41t-43 -16q-25 0 -41.5 16t-16.5 41q0 26 16.5 41.5t41.5 15.5q27 0 43 -15.5t16 -41.5z" />
    <glyph glyph-name="gdotaccent" unicode="&#x121;" horiz-adv-x="543" 
d="M264 15q-58 0 -107.5 22.5t-79.5 74t-30 135.5q0 77 30 129t83 78t123 26q48 0 88.5 -12t66.5 -29q16 -11 26 -24.5t10 -33.5v-310h-97v305q-16 10 -38.5 17.5t-54.5 7.5q-62 0 -100.5 -38t-38.5 -115q0 -85 38.5 -120t94.5 -35q41 0 66.5 14.5t41.5 31.5l4 -84
q-16 -15 -48 -27.5t-78 -12.5zM378 -10v102h96v-107q0 -66 -30 -107.5t-81 -60t-115 -18.5q-50 0 -87 10.5t-53 19.5q-31 18 -31 48q0 15 7 26.5t18 17.5q22 -16 60.5 -29t81.5 -13q64 0 99 27t35 84zM337 612q0 -25 -16 -41t-43 -16q-25 0 -41.5 16t-16.5 41
q0 26 16.5 41.5t41.5 15.5q27 0 43 -15.5t16 -41.5z" />
    <glyph glyph-name="uni0122" unicode="&#x122;" horiz-adv-x="644" 
d="M579 290v-215q0 -20 -10.5 -33t-32.5 -24q-26 -14 -71.5 -23t-92.5 -9q-94 0 -166.5 34t-114 104t-41.5 179q0 106 42.5 177t113.5 106.5t156 35.5q58 0 102 -12.5t68 -31.5t24 -41q0 -16 -9 -28t-21 -18q-27 17 -64 32t-93 15q-61 0 -110 -26.5t-77.5 -79t-28.5 -129.5
q0 -81 29 -132.5t79 -76.5t112 -25q34 0 62.5 6t45.5 14v166h-143q-3 6 -6.5 16.5t-3.5 22.5q0 21 9.5 31.5t26.5 10.5h168q20 0 33.5 -12.5t13.5 -33.5zM352 -205q-9 -12 -20.5 -16.5t-25.5 -4.5q-24 0 -37 15q15 36 26.5 73.5t15.5 67.5q10 5 21 7.5t24 2.5
q19 0 31.5 -8.5t12.5 -25.5q0 -16 -7.5 -38t-18.5 -41.5t-22 -31.5z" />
    <glyph glyph-name="uni0123" unicode="&#x123;" horiz-adv-x="543" 
d="M276 675q10 12 21 16.5t24 4.5q11 0 22.5 -4.5t18.5 -10.5q-17 -35 -28 -71.5t-16 -69.5q-8 -4 -19.5 -7t-22.5 -3q-20 0 -33 7.5t-13 21.5q0 18 7 40.5t17.5 43t21.5 32.5zM265 15q-59 0 -108.5 22.5t-79.5 74t-30 135.5q0 77 30 129t83.5 78t122.5 26q48 0 88.5 -12
t66.5 -29q16 -11 26 -24.5t10 -33.5v-310h-97v305q-15 10 -38 17.5t-55 7.5q-62 0 -100 -38t-38 -115q0 -85 38 -120t94 -35q41 0 67 14.5t42 31.5l4 -84q-17 -15 -49 -27.5t-77 -12.5zM378 -10v102h96v-107q0 -66 -29.5 -107.5t-80.5 -60t-115 -18.5q-51 0 -88 10.5
t-52 19.5q-31 18 -31 48q0 15 7 26.5t17 17.5q23 -16 61 -29t81 -13q64 0 99 27t35 84z" />
    <glyph glyph-name="Hcircumflex" unicode="&#x124;" horiz-adv-x="650" 
d="M88 378h101v-376q-7 -2 -19.5 -5t-27.5 -3q-28 0 -41 11t-13 36v337zM189 278h-101v328q7 2 20 5t27 3q27 0 40.5 -10.5t13.5 -35.5v-290zM477 378h100v-376q-7 -2 -19.5 -5t-26.5 -3q-28 0 -41 11t-13 36v337zM577 278h-100v328q6 2 19 5t27 3q28 0 41 -10.5t13 -36.5
v-289zM531 266h-389v82h389v-82zM329 748q-18 -18 -41.5 -42.5t-51.5 -48.5q-19 2 -32 12t-13 27q0 14 8 24t22 23l53 52q28 26 56 26q18 0 31 -7.5t27 -22.5l82 -90q0 -19 -11.5 -30.5t-29.5 -11.5q-13 0 -24.5 7.5t-27.5 25.5z" />
    <glyph glyph-name="hcircumflex" unicode="&#x125;" horiz-adv-x="563" 
d="M475 200h-98v92q0 56 -31 82.5t-79 26.5q-37 0 -68.5 -14.5t-53.5 -33.5l-12 79q24 16 62 32t87 16q86 0 139.5 -46t53.5 -139v-95zM60 264h98v-262q-6 -2 -18 -5t-26 -3q-27 0 -40.5 10.5t-13.5 34.5v225zM377 263l98 -1v-260q-6 -2 -18.5 -5t-26.5 -3q-27 0 -40 10.5
t-13 34.5v224zM158 215h-98v434q7 2 19.5 4.5t26.5 2.5q27 0 39.5 -10t12.5 -35v-396zM105 754q-18 -18 -41.5 -42.5t-51.5 -48.5q-19 2 -32 12t-13 27q0 14 8 24t22 23l53 52q28 26 56 26q18 0 31 -7.5t27 -22.5l82 -90q0 -19 -11.5 -30.5t-29.5 -11.5q-13 0 -24.5 7.5
t-27.5 25.5z" />
    <glyph glyph-name="Hbar" unicode="&#x126;" horiz-adv-x="663" 
d="M609 434h-576q-3 6 -6.5 14.5t-3.5 19.5q0 35 32 35h576q3 -5 6 -14t3 -19q0 -20 -8 -28t-23 -8zM90 378h101v-376q-7 -2 -19.5 -5t-27.5 -3q-28 0 -41 11t-13 36v337zM191 278h-101v328q7 2 20 5t27 3q28 0 41 -10.5t13 -35.5v-290zM479 378h101v-376q-7 -2 -20 -5
t-27 -3q-28 0 -41 11t-13 36v337zM580 278h-101v328q6 2 19.5 5t27.5 3q27 0 40.5 -10.5t13.5 -36.5v-289zM534 266h-389v82h389v-82z" />
    <glyph glyph-name="hbar" unicode="&#x127;" horiz-adv-x="565" 
d="M34 594h236q4 -5 7 -13t3 -19q0 -34 -31 -34h-236q-2 5 -5.5 13t-3.5 19q0 34 30 34zM487 200h-98v92q0 56 -31 82.5t-79 26.5q-37 0 -68.5 -14.5t-53.5 -33.5l-12 79q24 16 62 32t87 16q86 0 139.5 -46t53.5 -139v-95zM72 264h98v-262q-6 -2 -18 -5t-26 -3
q-27 0 -40.5 10.5t-13.5 34.5v225zM389 263l98 -1v-260q-6 -2 -18.5 -5t-26.5 -3q-27 0 -40 10.5t-13 34.5v224zM170 215h-98v441q7 2 19.5 4.5t26.5 2.5q27 0 39.5 -10t12.5 -35v-403z" />
    <glyph glyph-name="Itilde" unicode="&#x128;" horiz-adv-x="271" 
d="M85 379h100v-377q-6 -2 -19 -5t-27 -3q-28 0 -41 11t-13 36v338zM185 279h-100v327q6 2 19.5 5t27.5 3q27 0 40 -10.5t13 -35.5v-289zM58 798q28 0 51 -8.5t43.5 -16.5t36.5 -8q19 0 28 11.5t14 25.5h5q21 0 37 -11t16 -35q0 -31 -22 -49t-56 -18q-29 0 -53.5 8.5
t-44.5 17t-36 8.5q-19 0 -27.5 -11.5t-13.5 -27.5h-5q-21 0 -37 12t-16 35q0 22 11.5 36.5t30 22.5t38.5 8z" />
    <glyph glyph-name="itilde" unicode="&#x129;" horiz-adv-x="249" 
d="M75 326h98v-327q-5 -2 -17 -4.5t-26 -2.5q-27 0 -41 11t-14 35v288zM173 276h-98v187q6 2 18.5 4.5t25.5 2.5q28 0 41 -11t13 -35v-148zM50 664q28 0 51.5 -8.5t43.5 -16.5t36 -8q19 0 28.5 11.5t13.5 25.5h5q21 0 37 -11t16 -35q0 -31 -21.5 -49t-56.5 -18
q-29 0 -53.5 8.5t-44.5 17t-36 8.5q-19 0 -27.5 -11.5t-13.5 -27.5h-5q-21 0 -37 12t-16 35q0 22 11.5 36.5t30 22.5t38.5 8z" />
    <glyph glyph-name="Imacron" unicode="&#x12a;" horiz-adv-x="271" 
d="M85 379h100v-377q-6 -2 -19 -5t-27 -3q-28 0 -41 11t-13 36v338zM185 279h-100v327q6 2 19.5 5t27.5 3q27 0 40 -10.5t13 -35.5v-289zM236 691h-235q-4 7 -8 16.5t-4 21.5q0 21 10 30t27 9h235q5 -6 8 -16.5t3 -21.5q0 -21 -9.5 -30t-26.5 -9z" />
    <glyph glyph-name="imacron" unicode="&#x12b;" horiz-adv-x="249" 
d="M75 326h98v-327q-5 -2 -17 -4.5t-26 -2.5q-27 0 -41 11t-14 35v288zM173 276h-98v187q6 2 18.5 4.5t25.5 2.5q28 0 41 -11t13 -35v-148zM226 569h-235q-4 7 -8 16.5t-4 21.5q0 21 10.5 30t26.5 9h235q5 -6 8.5 -16.5t3.5 -21.5q0 -21 -10 -30t-27 -9z" />
    <glyph glyph-name="Ibreve" unicode="&#x12c;" horiz-adv-x="271" 
d="M85 379h100v-377q-6 -2 -19 -5t-27 -3q-28 0 -41 11t-13 36v338zM185 279h-100v327q6 2 19.5 5t27.5 3q27 0 40 -10.5t13 -35.5v-289zM134 737q32 0 51.5 16.5t24.5 46.5q4 1 8.5 1.5t8.5 0.5q21 0 32.5 -12t11.5 -33q0 -34 -34.5 -63t-102.5 -29q-69 0 -103 29t-34 63
q0 21 11.5 33t32.5 12q5 0 9.5 -0.5t7.5 -1.5q5 -30 25 -46.5t51 -16.5z" />
    <glyph glyph-name="ibreve" unicode="&#x12d;" horiz-adv-x="249" 
d="M75 326h98v-325q-5 -1 -17 -4t-26 -3q-27 0 -41 11t-14 34v287zM173 276h-98v190q6 2 18.5 4t25.5 2q28 0 41 -11t13 -34v-151zM124 615q32 0 51.5 16.5t24.5 46.5q4 1 8.5 1.5t8.5 0.5q21 0 32.5 -12t11.5 -33q0 -34 -34.5 -63t-102.5 -29q-69 0 -103 29t-34 63
q0 21 11.5 33t32.5 12q5 0 9.5 -0.5t7.5 -1.5q5 -30 25 -46.5t51 -16.5z" />
    <glyph glyph-name="Iogonek" unicode="&#x12e;" horiz-adv-x="271" 
d="M120 11l65 -9q-33 -26 -33 -64q0 -28 16.5 -43t43.5 -15h23q6 -12 6 -28q0 -21 -15 -33.5t-47 -12.5q-52 0 -84 31t-32 78q0 33 15 57t42 39zM85 379h100v-377q-6 -2 -19 -5t-27 -3q-28 0 -41 11t-13 36v338zM185 279h-100v327q6 2 19.5 5t27.5 3q27 0 40 -10.5t13 -35.5
v-289z" />
    <glyph glyph-name="iogonek" unicode="&#x12f;" horiz-adv-x="249" 
d="M111 15l62 -13q-16 -12 -29.5 -28.5t-13.5 -40.5q0 -25 16.5 -38t45.5 -13h13q3 -7 4.5 -13.5t1.5 -13.5q0 -18 -13 -30.5t-45 -12.5q-46 0 -78.5 26t-32.5 72q0 29 11.5 49.5t27.5 34.5t30 21zM64 611q0 24 17 41t43 17q27 0 43.5 -17t16.5 -41q0 -25 -16.5 -41.5
t-43.5 -16.5q-26 0 -43 16.5t-17 41.5zM75 264h98v-262q-6 -2 -18 -5t-27 -3q-26 0 -39.5 10.5t-13.5 34.5v225zM173 215h-98v249q6 2 18.5 4.5t27.5 2.5q27 0 39.5 -10t12.5 -35v-211z" />
    <glyph glyph-name="Idotaccent" unicode="&#x130;" horiz-adv-x="271" 
d="M85 379h100v-377q-6 -2 -19 -5t-27 -3q-28 0 -41 11t-13 36v338zM185 279h-100v327q6 2 19.5 5t27.5 3q27 0 40 -10.5t13 -35.5v-289zM191 736q0 -25 -16 -41t-43 -16q-25 0 -41.5 16t-16.5 41q0 26 16.5 41.5t41.5 15.5q27 0 43 -15.5t16 -41.5z" />
    <glyph glyph-name="dotlessi" unicode="&#x131;" horiz-adv-x="249" 
d="M75 326h98v-325q-5 -1 -17 -4t-26 -3q-27 0 -41 11t-14 34v287zM173 276h-98v190q6 2 18.5 4t25.5 2q28 0 41 -11t13 -34v-151z" />
    <glyph glyph-name="IJ" unicode="&#x132;" horiz-adv-x="661" 
d="M85 379h100v-377q-6 -2 -19 -5t-27 -3q-28 0 -41 11t-13 36v338zM185 279h-100v327q6 2 19.5 5t27.5 3q27 0 40 -10.5t13 -35.5v-289zM478 289h100v-135q0 -59 -22.5 -96t-61 -53.5t-86.5 -16.5q-55 0 -84 15t-29 42q0 15 6 26t12 17q15 -6 35 -11t41 -5q44 0 66.5 21.5
t22.5 68.5v127zM578 255h-100v351q6 2 19.5 5t26.5 3q27 0 40.5 -10.5t13.5 -35.5v-313z" />
    <glyph glyph-name="ij" unicode="&#x133;" horiz-adv-x="501" 
d="M64 611q0 24 17 41t43 17q27 0 43.5 -17t16.5 -41q0 -25 -16.5 -41.5t-43.5 -16.5q-26 0 -43 16.5t-17 41.5zM75 264h98v-262q-6 -2 -18 -5t-27 -3q-26 0 -39.5 10.5t-13.5 34.5v225zM173 215h-98v249q6 2 18.5 4.5t27.5 2.5q27 0 39.5 -10t12.5 -35v-211zM252 -137
q24 11 41 23.5t26 33.5t9 57v312h98v-327q0 -59 -20 -93.5t-47.5 -49t-50.5 -14.5q-28 0 -41 17t-15 41zM315 611q0 24 17.5 41t43.5 17t42.5 -17t16.5 -41q0 -25 -16.5 -41.5t-42.5 -16.5t-43.5 16.5t-17.5 41.5zM426 206l-98 9v249q6 2 18.5 4.5t26.5 2.5q27 0 40 -10
t13 -35v-220z" />
    <glyph glyph-name="Jcircumflex" unicode="&#x134;" horiz-adv-x="380" 
d="M200 289h100v-135q0 -59 -22.5 -96t-61 -53.5t-86.5 -16.5q-55 0 -84 15t-29 42q0 15 6 26t12 17q15 -6 35 -11t41 -5q44 0 66.5 21.5t22.5 68.5v127zM300 255h-100v351q6 2 19.5 5t26.5 3q27 0 40.5 -10.5t13.5 -35.5v-313zM245 748q-18 -18 -41.5 -42.5t-51.5 -48.5
q-19 2 -32 12t-13 27q0 14 8 24t22 23l53 52q28 26 56 26q18 0 31 -7.5t27 -22.5l82 -90q0 -19 -11.5 -30.5t-29.5 -11.5q-13 0 -24.5 7.5t-27.5 25.5z" />
    <glyph glyph-name="jcircumflex" unicode="&#x135;" horiz-adv-x="248" 
d="M9 -130l21 11q26 13 35.5 33t9.5 56v333h99v-344q0 -69 -28 -105q-16 -22 -36.5 -32t-42.5 -10q-26 0 -42 15t-16 43zM174 276h-99v187q7 2 19 4.5t25 2.5q28 0 41.5 -11t13.5 -35v-148zM179 548l-60 72q-23 -29 -44.5 -51.5t-41.5 -45.5q-22 1 -36.5 12t-14.5 27
q0 13 7.5 22.5t19.5 22.5l55 59q14 13 27 20t29 7q18 0 31 -7t26 -23l82 -98q0 -16 -9.5 -28t-28.5 -12q-14 0 -23 6.5t-19 16.5z" />
    <glyph glyph-name="uni0136" unicode="&#x136;" horiz-adv-x="569" 
d="M146 313l91 35q100 -99 173.5 -176t123.5 -124q-1 -26 -16 -41t-37 -15t-38 12t-32 28zM246 279l-111 11l304 322q35 -1 51 -15.5t16 -34.5q0 -16 -7.5 -29.5t-24.5 -29.5zM77 382h101v-381q-7 -2 -19.5 -4.5t-27.5 -2.5q-28 0 -41 10.5t-13 35.5v342zM178 282h-101v324
q7 2 20 5t27 3q27 0 40.5 -10.5t13.5 -35.5v-286zM292 -205q-9 -12 -20.5 -16.5t-25.5 -4.5q-24 0 -37 15q15 36 26.5 73.5t15.5 67.5q10 5 21 7.5t24 2.5q19 0 31.5 -8.5t12.5 -25.5q0 -16 -7.5 -38t-18.5 -41.5t-22 -31.5z" />
    <glyph glyph-name="uni0137" unicode="&#x137;" horiz-adv-x="501" 
d="M217 206l-64 47l227 222q30 0 47 -13t17 -34q0 -17 -11 -30.5t-33 -31.5zM153 237l72 39l245 -225q-2 -27 -16 -42.5t-38 -15.5q-18 0 -33 9.5t-31 27.5zM72 267l98 -9v-256q-6 -2 -18 -5t-26 -3q-27 0 -40.5 10.5t-13.5 34.5v228zM170 209l-98 9v431q7 2 19.5 4.5
t26.5 2.5q27 0 39.5 -10t12.5 -35v-402zM274 -205q-9 -12 -20.5 -16.5t-25.5 -4.5q-24 0 -37 15q15 36 26.5 73.5t15.5 67.5q10 5 21 7.5t24 2.5q19 0 31.5 -8.5t12.5 -25.5q0 -16 -7.5 -38t-18.5 -41.5t-22 -31.5z" />
    <glyph glyph-name="kgreenlandic" unicode="&#x138;" horiz-adv-x="501" 
d="M170 265h-98v201q7 2 19 4t25 2q28 0 41 -11t13 -34v-162zM215 202l-62 50l235 223q30 0 47 -13.5t17 -34.5q0 -16 -12 -29.5t-33 -31.5zM153 236l68 41l249 -226q-2 -27 -16 -42.5t-38 -15.5q-18 0 -33 9.5t-31 27.5zM72 298h98v-296q-6 -2 -18 -5t-26 -3
q-27 0 -40.5 10.5t-13.5 34.5v259z" />
    <glyph glyph-name="Lacute" unicode="&#x139;" horiz-adv-x="503" 
d="M84 372h101v-364l-47 -9q-24 0 -39 15t-15 39v319zM138 -1v85h322q6 -6 9.5 -16.5t3.5 -23.5q0 -21 -10.5 -33t-28.5 -12h-296zM185 278h-101v328q7 2 20 5t27 3q27 0 40.5 -10.5t13.5 -35.5v-290zM116 730l96 95q26 -1 40 -13.5t14 -29.5q0 -15 -6.5 -25.5t-23.5 -23.5
l-88 -72q-23 1 -35.5 11t-12.5 25q0 10 4 18t12 15z" />
    <glyph glyph-name="lacute" unicode="&#x13a;" horiz-adv-x="253" 
d="M106 765l96 95q26 -1 40 -13.5t14 -29.5q0 -15 -6.5 -25.5t-23.5 -23.5l-88 -72q-23 1 -35.5 11t-12.5 25q0 10 4 18t12 15zM78 264l98 -10v-252q-6 -2 -18.5 -5t-26.5 -3q-27 0 -40 10.5t-13 34.5v225zM176 206l-98 9v434q6 2 18.5 4.5t26.5 2.5q27 0 40 -10t13 -35
v-405z" />
    <glyph glyph-name="uni013B" unicode="&#x13b;" horiz-adv-x="503" 
d="M84 372h101v-364l-47 -9q-24 0 -39 15t-15 39v319zM138 -1v85h322q6 -6 9.5 -16.5t3.5 -23.5q0 -21 -10.5 -33t-28.5 -12h-296zM185 278h-101v328q7 2 20 5t27 3q27 0 40.5 -10.5t13.5 -35.5v-290zM276 -205q-9 -12 -20.5 -16.5t-25.5 -4.5q-24 0 -37 15q15 36 26.5 73.5
t15.5 67.5q10 5 21 7.5t24 2.5q19 0 31.5 -8.5t12.5 -25.5q0 -16 -7.5 -38t-18.5 -41.5t-22 -31.5z" />
    <glyph glyph-name="uni013C" unicode="&#x13c;" horiz-adv-x="254" 
d="M78 264l98 -10v-252q-6 -2 -18.5 -5t-26.5 -3q-27 0 -40 10.5t-13 34.5v225zM176 206l-98 9v434q6 2 18.5 4.5t26.5 2.5q27 0 40 -10t13 -35v-405zM126 -205q-9 -12 -20.5 -16.5t-25.5 -4.5q-24 0 -37 15q15 36 26.5 73.5t15.5 67.5q10 5 21 7.5t24 2.5q19 0 31.5 -8.5
t12.5 -25.5q0 -16 -7.5 -38t-18.5 -41.5t-22 -31.5z" />
    <glyph glyph-name="Lcaron" unicode="&#x13d;" horiz-adv-x="503" 
d="M84 372h101v-364l-47 -9q-24 0 -39 15t-15 39v319zM138 -1v85h322q6 -6 9.5 -16.5t3.5 -23.5q0 -21 -10.5 -33t-28.5 -12h-296zM185 278h-101v328q7 2 20 5t27 3q27 0 40.5 -10.5t13.5 -35.5v-290zM362 468q-9 -11 -20.5 -16t-25.5 -5q-24 0 -37 15q15 37 26.5 74.5
t15.5 67.5q10 5 21 7.5t24 2.5q19 0 31.5 -8.5t12.5 -26.5q0 -16 -7.5 -37.5t-18.5 -41t-22 -32.5z" />
    <glyph glyph-name="lcaron" unicode="&#x13e;" horiz-adv-x="347" 
d="M78 264l98 -10v-252q-6 -2 -18.5 -5t-26.5 -3q-27 0 -40 10.5t-13 34.5v225zM176 206l-98 9v434q6 2 18.5 4.5t26.5 2.5q27 0 40 -10t13 -35v-405zM307 511q-9 -11 -20.5 -16t-25.5 -5q-24 0 -37 15q15 37 26.5 74.5t15.5 67.5q10 5 21 7.5t24 2.5q19 0 31.5 -8.5
t12.5 -26.5q0 -16 -7.5 -37.5t-18.5 -41t-22 -32.5z" />
    <glyph glyph-name="Ldot" unicode="&#x13f;" horiz-adv-x="503" 
d="M84 372h101v-364l-47 -9q-24 0 -39 15t-15 39v319zM138 -1v85h322q6 -6 9.5 -16.5t3.5 -23.5q0 -21 -10.5 -33t-28.5 -12h-296zM185 278h-101v328q7 2 20 5t27 3q27 0 40.5 -10.5t13.5 -35.5v-290zM316 326q0 27 17 45.5t47 18.5q29 0 45.5 -18.5t16.5 -45.5t-16.5 -45.5
t-45.5 -18.5q-30 0 -47 18.5t-17 45.5z" />
    <glyph glyph-name="ldot" unicode="&#x140;" horiz-adv-x="344" 
d="M78 264l98 -10v-252q-6 -2 -18.5 -5t-26.5 -3q-27 0 -40 10.5t-13 34.5v225zM176 206l-98 9v434q6 2 18.5 4.5t26.5 2.5q27 0 40 -10t13 -35v-405zM236 302q0 27 17 45.5t47 18.5q29 0 45.5 -18.5t16.5 -45.5t-16.5 -45.5t-45.5 -18.5q-30 0 -47 18.5t-17 45.5z" />
    <glyph glyph-name="Lslash" unicode="&#x141;" horiz-adv-x="527" 
d="M362 350l-321 -130q-10 7 -20.5 20.5t-10.5 31.5q0 23 24 33l320 129q10 -7 21 -21t11 -30q0 -12 -6.5 -20t-17.5 -13zM116 372h101v-364l-47 -9q-24 0 -39 15t-15 39v319zM170 -1v85h322q6 -6 9.5 -16.5t3.5 -23.5q0 -21 -10.5 -33t-28.5 -12h-296zM217 278h-101v328
q7 2 20 5t27 3q27 0 40.5 -10.5t13.5 -35.5v-290z" />
    <glyph glyph-name="lslash" unicode="&#x142;" horiz-adv-x="338" 
d="M305 342l-264 -108q-10 7 -20.5 21t-10.5 32q0 23 24 32l264 108q10 -7 20 -21t10 -32q0 -11 -6 -19t-17 -13zM120 264l98 -10v-252q-6 -2 -18.5 -5t-26.5 -3q-27 0 -40 10.5t-13 34.5v225zM218 206l-98 9v434q6 2 18.5 4.5t26.5 2.5q27 0 40 -10t13 -35v-405z" />
    <glyph glyph-name="Nacute" unicode="&#x143;" horiz-adv-x="657" 
d="M82 511l87 5q4 -34 6.5 -76t4 -85t1.5 -82v-271q-6 -2 -19 -5t-27 -3q-27 0 -40 10.5t-13 34.5v472zM578 97l-88 -5q-9 82 -10.5 163.5t-1.5 157.5v194q7 2 19.5 4.5t26.5 2.5q28 0 41 -10.5t13 -34.5v-472zM578 132v28v-147q-10 -8 -26.5 -13.5t-37.5 -5.5
q-27 0 -47 9.5t-36 38.5l-172 296q-14 26 -30 55.5t-30.5 57t-23.5 47.5l-93 -22v116q9 10 26.5 16t37.5 6q27 0 47.5 -10t35.5 -38l173 -296q14 -26 30 -55.5t29.5 -57.5t22.5 -48zM318 730l96 95q26 -1 40 -13.5t14 -29.5q0 -15 -6.5 -25.5t-23.5 -23.5l-88 -72
q-23 1 -35.5 11t-12.5 25q0 10 4 18t12 15z" />
    <glyph glyph-name="nacute" unicode="&#x144;" horiz-adv-x="557" 
d="M486 307v-100h-98v95q0 51 -29 75t-77 24q-36 0 -64.5 -9t-49.5 -21v-164h-98v165q0 22 9.5 36.5t29.5 27.5q28 17 73 30.5t100 13.5q96 0 150 -43t54 -130zM70 259h98v-257q-6 -2 -18 -5t-26 -3q-27 0 -40.5 10.5t-13.5 34.5v220zM388 259h98v-257q-6 -2 -18.5 -5
t-26.5 -3q-27 0 -40 10.5t-13 34.5v220zM260 591l98 109q28 -1 44 -14.5t16 -30.5q0 -15 -7 -25t-23 -25l-91 -87q-24 0 -38.5 13t-14.5 28q0 9 4.5 16.5t11.5 15.5z" />
    <glyph glyph-name="uni0145" unicode="&#x145;" horiz-adv-x="657" 
d="M82 511l87 5q4 -34 6.5 -76t4 -85t1.5 -82v-271q-6 -2 -19 -5t-27 -3q-27 0 -40 10.5t-13 34.5v472zM578 97l-88 -5q-9 82 -10.5 163.5t-1.5 157.5v194q7 2 19.5 4.5t26.5 2.5q28 0 41 -10.5t13 -34.5v-472zM578 132v28v-147q-10 -8 -26.5 -13.5t-37.5 -5.5
q-27 0 -47 9.5t-36 38.5l-172 296q-14 26 -30 55.5t-30.5 57t-23.5 47.5l-93 -22v116q9 10 26.5 16t37.5 6q27 0 47.5 -10t35.5 -38l173 -296q14 -26 30 -55.5t29.5 -57.5t22.5 -48zM339 -205q-9 -12 -20.5 -16.5t-25.5 -4.5q-24 0 -37 15q15 36 26.5 73.5t15.5 67.5
q10 5 21 7.5t24 2.5q19 0 31.5 -8.5t12.5 -25.5q0 -16 -7.5 -38t-18.5 -41.5t-22 -31.5z" />
    <glyph glyph-name="uni0146" unicode="&#x146;" horiz-adv-x="557" 
d="M486 307v-100h-98v95q0 51 -29 75t-77 24q-36 0 -64.5 -9t-49.5 -21v-164h-98v165q0 22 9.5 36.5t29.5 27.5q28 17 73 30.5t100 13.5q96 0 150 -43t54 -130zM70 259h98v-257q-6 -2 -18 -5t-26 -3q-27 0 -40.5 10.5t-13.5 34.5v220zM388 259h98v-257q-6 -2 -18.5 -5
t-26.5 -3q-27 0 -40 10.5t-13 34.5v220zM281 -205q-9 -12 -20.5 -16.5t-25.5 -4.5q-24 0 -37 15q15 36 26.5 73.5t15.5 67.5q10 5 21 7.5t24 2.5q19 0 31.5 -8.5t12.5 -25.5q0 -16 -7.5 -38t-18.5 -41.5t-22 -31.5z" />
    <glyph glyph-name="Ncaron" unicode="&#x147;" horiz-adv-x="657" 
d="M82 511l87 5q4 -34 6.5 -76t4 -85t1.5 -82v-271q-6 -2 -19 -5t-27 -3q-27 0 -40 10.5t-13 34.5v472zM578 97l-88 -5q-9 82 -10.5 163.5t-1.5 157.5v194q7 2 19.5 4.5t26.5 2.5q28 0 41 -10.5t13 -34.5v-472zM578 132v28v-147q-10 -8 -26.5 -13.5t-37.5 -5.5
q-27 0 -47 9.5t-36 38.5l-172 296q-14 26 -30 55.5t-30.5 57t-23.5 47.5l-93 -22v116q9 10 26.5 16t37.5 6q27 0 47.5 -10t35.5 -38l173 -296q14 -26 30 -55.5t29.5 -57.5t22.5 -48zM337 729q19 19 42 42.5t48 49.5q20 -1 35 -12t15 -28q0 -13 -8 -23.5t-23 -23.5l-53 -52
q-15 -13 -27.5 -18.5t-28.5 -5.5q-18 0 -31.5 7t-26.5 21l-83 86q0 22 11 34t29 12q13 0 25 -6.5t28 -25.5z" />
    <glyph glyph-name="ncaron" unicode="&#x148;" horiz-adv-x="557" 
d="M486 307v-100h-98v95q0 51 -29 75t-77 24q-36 0 -64.5 -9t-49.5 -21v-164h-98v165q0 22 9.5 36.5t29.5 27.5q28 17 73 30.5t100 13.5q96 0 150 -43t54 -130zM70 259h98v-257q-6 -2 -18 -5t-26 -3q-27 0 -40.5 10.5t-13.5 34.5v220zM388 259h98v-257q-6 -2 -18.5 -5
t-26.5 -3q-27 0 -40 10.5t-13 34.5v220zM217 661l56 -63l88 94q24 -1 38 -12t14 -28q0 -14 -8 -24t-22 -23l-59 -59q-12 -11 -24 -16.5t-27 -5.5q-11 0 -21 3t-19 10t-21 18l-83 87q0 12 4 23t13 18t22 7q15 0 25 -6t24 -23z" />
    <glyph glyph-name="napostrophe" unicode="&#x149;" horiz-adv-x="650" 
d="M580 307v-100h-98v95q0 51 -29 75t-77 24q-36 0 -64.5 -9t-49.5 -21v-164h-98v165q0 22 9.5 36.5t29.5 27.5q28 17 73 30.5t100 13.5q96 0 150 -43t54 -130zM164 259h98v-257q-6 -2 -18 -5t-26 -3q-27 0 -40.5 10.5t-13.5 34.5v220zM482 259h98v-257q-6 -2 -18.5 -5
t-26.5 -3q-27 0 -40 10.5t-13 34.5v220zM94 428q-8 -15 -17.5 -22t-25.5 -7q-11 0 -21 4t-18 8q5 28 10 64.5t9.5 74t5.5 68.5q10 4 22 6.5t25 2.5q20 0 33.5 -10t13.5 -34q0 -20 -6 -51t-15 -59.5t-16 -44.5z" />
    <glyph glyph-name="Eng" unicode="&#x14a;" horiz-adv-x="664" 
d="M406 -137v0q24 11 41 23.5t26 33.5t9 57v112h98v-127q0 -59 -20 -93.5t-47.5 -49t-50.5 -14.5q-28 0 -41 17t-15 41zM84 511l87 5q4 -34 6.5 -76t4 -85t1.5 -82v-271q-6 -2 -19 -5t-27 -3q-27 0 -40 10.5t-13 34.5v472zM580 97l-88 -5q-9 82 -10.5 163.5t-1.5 157.5v194
q7 2 19.5 4.5t26.5 2.5q28 0 41 -10.5t13 -34.5v-472zM580 132v28v-147q-10 -8 -26.5 -13.5t-37.5 -5.5q-27 0 -47 9.5t-36 38.5l-172 296q-14 26 -30 55.5t-30.5 57t-23.5 47.5l-93 -22v116q9 10 26.5 16t37.5 6q27 0 47.5 -10t35.5 -38l173 -296q14 -26 30 -55.5
t29.5 -57.5t22.5 -48z" />
    <glyph glyph-name="eng" unicode="&#x14b;" horiz-adv-x="557" 
d="M486 307v-100h-98v95q0 51 -29 75t-77 24q-36 0 -64.5 -9t-49.5 -21v-164h-98v165q0 22 9.5 36.5t29.5 27.5q28 17 73 30.5t100 13.5q96 0 150 -43t54 -130zM70 259h98v-257q-6 -2 -18 -5t-26 -3q-27 0 -40.5 10.5t-13.5 34.5v220zM313 -137q24 11 41 23.5t25.5 33.5
t8.5 57v280h98v-295q0 -59 -20 -93.5t-47 -49t-50 -14.5q-29 0 -41.5 17t-14.5 41z" />
    <glyph glyph-name="Omacron" unicode="&#x14c;" horiz-adv-x="692" 
d="M641 304q0 -104 -39 -175t-105.5 -107t-151.5 -36q-83 0 -150.5 36t-106 107t-38.5 175t39.5 174.5t106.5 107t149 36.5q84 0 150.5 -36.5t106 -107t39.5 -174.5zM538 304q0 113 -52.5 173.5t-140.5 60.5q-86 0 -139 -60.5t-53 -173.5t52.5 -174t140.5 -61t140 61t52 174
zM446 691h-235q-4 7 -8 16.5t-4 21.5q0 21 10 30t27 9h235q5 -6 8 -16.5t3 -21.5q0 -21 -9.5 -30t-26.5 -9z" />
    <glyph glyph-name="omacron" unicode="&#x14d;" horiz-adv-x="560" 
d="M514 233q0 -75 -29 -130.5t-81.5 -86t-123.5 -30.5t-124 30.5t-82 86t-29 130.5q0 76 29.5 131.5t82.5 85.5t123 30t122.5 -30.5t82 -85.5t29.5 -131zM280 401q-62 0 -98 -44.5t-36 -123.5t35.5 -123t98.5 -44t98.5 44.5t35.5 122.5q0 79 -35.5 123.5t-98.5 44.5z
M386 569h-235q-4 7 -8 16.5t-4 21.5q0 21 10 30t27 9h235q5 -6 8 -16.5t3 -21.5q0 -21 -9.5 -30t-26.5 -9z" />
    <glyph glyph-name="Obreve" unicode="&#x14e;" horiz-adv-x="692" 
d="M641 304q0 -104 -39 -175t-105.5 -107t-151.5 -36q-83 0 -150.5 36t-106 107t-38.5 175t39.5 174.5t106.5 107t149 36.5q84 0 150.5 -36.5t106 -107t39.5 -174.5zM538 304q0 113 -52.5 173.5t-140.5 60.5q-86 0 -139 -60.5t-53 -173.5t52.5 -174t140.5 -61t140 61t52 174
zM345 737q32 0 51.5 16.5t24.5 46.5q4 1 8.5 1.5t8.5 0.5q21 0 32.5 -12t11.5 -33q0 -34 -34.5 -63t-102.5 -29q-69 0 -103 29t-34 63q0 21 11.5 33t32.5 12q5 0 9.5 -0.5t7.5 -1.5q5 -30 25 -46.5t51 -16.5z" />
    <glyph glyph-name="obreve" unicode="&#x14f;" horiz-adv-x="560" 
d="M514 233q0 -75 -29 -130.5t-81.5 -86t-123.5 -30.5t-124 30.5t-82 86t-29 130.5q0 76 29.5 131.5t82.5 85.5t123 30t122.5 -30.5t82 -85.5t29.5 -131zM280 401q-62 0 -98 -44.5t-36 -123.5t35.5 -123t98.5 -44t98.5 44.5t35.5 122.5q0 79 -35.5 123.5t-98.5 44.5z
M279 615q32 0 51.5 16.5t24.5 46.5q4 1 8.5 1.5t8.5 0.5q21 0 32.5 -12t11.5 -33q0 -34 -34.5 -63t-102.5 -29q-69 0 -103 29t-34 63q0 21 11.5 33t32.5 12q5 0 9.5 -0.5t7.5 -1.5q5 -30 25 -46.5t51 -16.5z" />
    <glyph glyph-name="Ohungarumlaut" unicode="&#x150;" horiz-adv-x="692" 
d="M641 304q0 -104 -39 -175t-105.5 -107t-151.5 -36q-83 0 -150.5 36t-106 107t-38.5 175t39.5 174.5t106.5 107t149 36.5q84 0 150.5 -36.5t106 -107t39.5 -174.5zM538 304q0 113 -52.5 173.5t-140.5 60.5q-86 0 -139 -60.5t-53 -173.5t52.5 -174t140.5 -61t140 61t52 174
zM227 733l67 91q28 -1 43 -13.5t15 -29.5q0 -15 -7 -25.5t-21 -26.5l-58 -68q-24 0 -38 11.5t-14 26.5q0 10 4 18t9 16zM406 733l67 91q28 -1 43 -13.5t15 -29.5q0 -15 -7.5 -25.5t-21.5 -26.5l-58 -68q-24 0 -38 11.5t-14 26.5q0 10 4 18t10 16z" />
    <glyph glyph-name="ohungarumlaut" unicode="&#x151;" horiz-adv-x="560" 
d="M514 233q0 -75 -29 -130.5t-81.5 -86t-123.5 -30.5t-124 30.5t-82 86t-29 130.5q0 76 29.5 131.5t82.5 85.5t123 30t122.5 -30.5t82 -85.5t29.5 -131zM280 401q-62 0 -98 -44.5t-36 -123.5t35.5 -123t98.5 -44t98.5 44.5t35.5 122.5q0 79 -35.5 123.5t-98.5 44.5z
M161 591l80 109q28 -1 43.5 -13.5t15.5 -28.5q0 -15 -7.5 -26t-21.5 -27l-72 -87q-24 0 -38.5 12t-14.5 27q0 10 4 17.5t11 16.5zM340 591l80 109q28 -1 44 -13.5t16 -28.5q0 -15 -7.5 -26t-21.5 -27l-72 -87q-24 0 -38 12t-14 27q0 10 3.5 17.5t9.5 16.5z" />
    <glyph glyph-name="OE" unicode="&#x152;" horiz-adv-x="953" 
d="M336 -14q-82 0 -146.5 36t-102.5 106.5t-38 175.5q0 104 38.5 174.5t103.5 107t146 36.5q53 0 98.5 -17.5t80 -55t53.5 -98t19 -147.5q0 -108 -31.5 -179t-88 -105t-132.5 -34zM338 69q92 0 142.5 61t50.5 174q0 117 -54 175.5t-140 58.5q-81 0 -132.5 -60.5
t-51.5 -173.5t51 -174t134 -61zM559 -1q-25 0 -39.5 15t-14.5 39l-3 44v284h100v-373q-6 -2 -17.5 -5.5t-25.5 -3.5zM559 -1v82h334q3 -5 6.5 -15.5t3.5 -23.5q0 -20 -9.5 -31.5t-26.5 -11.5h-308zM502 231v282l3 41q0 24 14.5 39t39.5 15q14 0 25.5 -3t17.5 -6v-368h-100z
M556 270v82h301q4 -5 8 -16t4 -23q0 -20 -10 -31.5t-27 -11.5h-276zM559 525v83h329q4 -6 7.5 -16.5t3.5 -22.5q0 -20 -10 -32t-27 -12h-303z" />
    <glyph glyph-name="oe" unicode="&#x153;" horiz-adv-x="889" 
d="M499 233q0 -75 -26.5 -130.5t-76.5 -86t-119 -30.5q-71 0 -123 30.5t-80.5 86t-28.5 130.5q0 76 29 131.5t81 85.5t122 30q68 0 118 -30t77 -85.5t27 -131.5zM280 401q-62 0 -98 -44.5t-36 -123.5t35.5 -123t98.5 -44t98.5 44.5t35.5 122.5q0 79 -35.5 123.5t-98.5 44.5z
M474 177l-5 73l289 41q-5 48 -35 80t-86 32q-58 0 -96 -40.5t-38 -116.5l2 -35q7 -73 50.5 -109.5t115.5 -36.5q42 0 76.5 13t55.5 29q12 -8 19.5 -19t7.5 -25q0 -22 -22 -39.5t-59.5 -27.5t-83.5 -10q-111 0 -177 62t-66 189q0 80 28 134t77 81.5t111 27.5t110 -26
t75.5 -73t27.5 -107q0 -25 -12.5 -36t-33.5 -14z" />
    <glyph glyph-name="Racute" unicode="&#x154;" horiz-adv-x="593" 
d="M184 304h102q67 0 106 29.5t39 87.5q0 57 -40 86.5t-116 29.5q-24 0 -48 -2t-43 -6v-225zM289 223h-205v338q0 17 9.5 26t25.5 15q30 9 73 13.5t85 4.5q128 0 191.5 -52.5t63.5 -145.5q0 -60 -28.5 -104.5t-82.5 -69.5t-132 -25zM283 252l80 30q27 -34 55.5 -70t55 -70.5
t47.5 -61.5t33 -44q-5 -20 -21.5 -32t-33.5 -12q-23 0 -36 11t-27 30zM84 254h101v-252q-7 -2 -19.5 -5t-27.5 -3q-28 0 -41 11t-13 36v213zM270 730l96 95q26 -1 40 -13.5t14 -29.5q0 -15 -6.5 -25.5t-23.5 -23.5l-88 -72q-23 1 -35.5 11t-12.5 25q0 10 4 18t12 15z" />
    <glyph glyph-name="racute" unicode="&#x155;" horiz-adv-x="388" 
d="M168 369v-149h-98v150q0 24 10 39t31 29q28 18 73.5 30t99.5 12q86 0 86 -47q0 -12 -3.5 -22t-9.5 -17q-10 2 -25.5 4t-31.5 2q-42 0 -75.5 -9t-56.5 -22zM70 264l98 -10v-252q-6 -2 -18 -5t-26 -3q-27 0 -40.5 10.5t-13.5 34.5v225zM186 591l98 109q28 -1 44 -14.5
t16 -30.5q0 -15 -7 -25t-23 -25l-91 -87q-24 0 -38.5 13t-14.5 28q0 9 4.5 16.5t11.5 15.5z" />
    <glyph glyph-name="uni0156" unicode="&#x156;" horiz-adv-x="593" 
d="M184 304h102q67 0 106 29.5t39 87.5q0 57 -40 86.5t-116 29.5q-24 0 -48 -2t-43 -6v-225zM289 223h-205v338q0 17 9.5 26t25.5 15q30 9 73 13.5t85 4.5q128 0 191.5 -52.5t63.5 -145.5q0 -60 -28.5 -104.5t-82.5 -69.5t-132 -25zM283 252l80 30q27 -34 55.5 -70t55 -70.5
t47.5 -61.5t33 -44q-5 -20 -21.5 -32t-33.5 -12q-23 0 -36 11t-27 30zM84 254h101v-252q-7 -2 -19.5 -5t-27.5 -3q-28 0 -41 11t-13 36v213zM311 -205q-9 -12 -20.5 -16.5t-25.5 -4.5q-24 0 -37 15q15 36 26.5 73.5t15.5 67.5q10 5 21 7.5t24 2.5q19 0 31.5 -8.5t12.5 -25.5
q0 -16 -7.5 -38t-18.5 -41.5t-22 -31.5z" />
    <glyph glyph-name="uni0157" unicode="&#x157;" horiz-adv-x="388" 
d="M168 369v-149h-98v150q0 24 10 39t31 29q28 18 73.5 30t99.5 12q86 0 86 -47q0 -12 -3.5 -22t-9.5 -17q-10 2 -25.5 4t-31.5 2q-42 0 -75.5 -9t-56.5 -22zM70 264l98 -10v-252q-6 -2 -18 -5t-26 -3q-27 0 -40.5 10.5t-13.5 34.5v225zM120 -205q-9 -12 -20.5 -16.5
t-25.5 -4.5q-24 0 -37 15q15 36 26.5 73.5t15.5 67.5q10 5 21 7.5t24 2.5q19 0 31.5 -8.5t12.5 -25.5q0 -16 -7.5 -38t-18.5 -41.5t-22 -31.5z" />
    <glyph glyph-name="Rcaron" unicode="&#x158;" horiz-adv-x="593" 
d="M184 304h102q67 0 106 29.5t39 87.5q0 57 -40 86.5t-116 29.5q-24 0 -48 -2t-43 -6v-225zM289 223h-205v338q0 17 9.5 26t25.5 15q30 9 73 13.5t85 4.5q128 0 191.5 -52.5t63.5 -145.5q0 -60 -28.5 -104.5t-82.5 -69.5t-132 -25zM283 252l80 30q27 -34 55.5 -70t55 -70.5
t47.5 -61.5t33 -44q-5 -20 -21.5 -32t-33.5 -12q-23 0 -36 11t-27 30zM84 254h101v-252q-7 -2 -19.5 -5t-27.5 -3q-28 0 -41 11t-13 36v213zM299 729q19 19 42 42.5t48 49.5q20 -1 35 -12t15 -28q0 -13 -8 -23.5t-23 -23.5l-53 -52q-15 -13 -27.5 -18.5t-28.5 -5.5
q-18 0 -31.5 7t-26.5 21l-83 86q0 22 11 34t29 12q13 0 25 -6.5t28 -25.5z" />
    <glyph glyph-name="rcaron" unicode="&#x159;" horiz-adv-x="388" 
d="M168 369v-149h-98v150q0 24 10 39t31 29q28 18 73.5 30t99.5 12q86 0 86 -47q0 -12 -3.5 -22t-9.5 -17q-10 2 -25.5 4t-31.5 2q-42 0 -75.5 -9t-56.5 -22zM70 264l98 -10v-252q-6 -2 -18 -5t-26 -3q-27 0 -40.5 10.5t-13.5 34.5v225zM165 661l56 -63l88 94q24 -1 38 -12
t14 -28q0 -14 -8 -24t-22 -23l-59 -59q-12 -11 -24 -16.5t-27 -5.5q-11 0 -21 3t-19 10t-21 18l-83 87q0 12 4 23t13 18t22 7q15 0 25 -6t24 -23z" />
    <glyph glyph-name="Sacute" unicode="&#x15a;" horiz-adv-x="529" 
d="M256 69q63 0 94.5 27.5t31.5 69.5q0 37 -24 61t-76 39l-78 23q-45 15 -78.5 36t-52 52.5t-18.5 75.5q0 79 58 124t156 45q55 0 98 -11.5t67.5 -30.5t24.5 -42q0 -15 -8 -27.5t-20 -19.5q-24 19 -65.5 33t-90.5 14q-55 0 -86.5 -23t-31.5 -62q0 -31 22.5 -50.5t71.5 -33.5
l59 -18q82 -24 128.5 -67t46.5 -118q0 -80 -59.5 -130t-168.5 -50q-61 0 -107 13.5t-72.5 35t-26.5 44.5q0 20 12 33t27 20q24 -22 65.5 -42.5t100.5 -20.5zM234 730l96 95q26 -1 40 -13.5t14 -29.5q0 -15 -6.5 -25.5t-23.5 -23.5l-88 -72q-23 1 -35.5 11t-12.5 25
q0 10 4 18t12 15z" />
    <glyph glyph-name="sacute" unicode="&#x15b;" horiz-adv-x="456" 
d="M413 127q0 -66 -49 -103.5t-142 -37.5q-78 0 -127.5 24t-49.5 56q0 15 7.5 27.5t20.5 20.5q27 -19 63.5 -34t83.5 -15q96 0 96 62q0 26 -16.5 42.5t-49.5 23.5l-72 19q-66 16 -97 48.5t-31 83.5q0 57 46.5 96.5t136.5 39.5q47 0 83 -9.5t56.5 -26t20.5 -36.5
q0 -15 -7 -26.5t-18 -17.5q-12 8 -31.5 17t-45 15t-53.5 6q-42 0 -67 -15t-25 -43q0 -20 14.5 -34.5t47.5 -22.5l61 -15q74 -17 109 -52.5t35 -92.5zM200 591l98 109q28 -1 44 -14.5t16 -30.5q0 -15 -7 -25t-23 -25l-91 -87q-24 0 -38.5 13t-14.5 28q0 9 4.5 16.5t11.5 15.5
z" />
    <glyph glyph-name="Scircumflex" unicode="&#x15c;" horiz-adv-x="529" 
d="M256 69q63 0 94.5 27.5t31.5 69.5q0 37 -24 61t-76 39l-78 23q-45 15 -78.5 36t-52 52.5t-18.5 75.5q0 79 58 124t156 45q55 0 98 -11.5t67.5 -30.5t24.5 -42q0 -15 -8 -27.5t-20 -19.5q-24 19 -65.5 33t-90.5 14q-55 0 -86.5 -23t-31.5 -62q0 -31 22.5 -50.5t71.5 -33.5
l59 -18q82 -24 128.5 -67t46.5 -118q0 -80 -59.5 -130t-168.5 -50q-61 0 -107 13.5t-72.5 35t-26.5 44.5q0 20 12 33t27 20q24 -22 65.5 -42.5t100.5 -20.5zM273 748q-18 -18 -41.5 -42.5t-51.5 -48.5q-19 2 -32 12t-13 27q0 14 8 24t22 23l53 52q28 26 56 26q18 0 31 -7.5
t27 -22.5l82 -90q0 -19 -11.5 -30.5t-29.5 -11.5q-13 0 -24.5 7.5t-27.5 25.5z" />
    <glyph glyph-name="scircumflex" unicode="&#x15d;" horiz-adv-x="456" 
d="M413 127q0 -66 -49 -103.5t-142 -37.5q-78 0 -127.5 24t-49.5 56q0 15 7.5 27.5t20.5 20.5q27 -19 63.5 -34t83.5 -15q96 0 96 62q0 26 -16.5 42.5t-49.5 23.5l-72 19q-66 16 -97 48.5t-31 83.5q0 57 46.5 96.5t136.5 39.5q47 0 83 -9.5t56.5 -26t20.5 -36.5
q0 -15 -7 -26.5t-18 -17.5q-12 8 -31.5 17t-45 15t-53.5 6q-42 0 -67 -15t-25 -43q0 -20 14.5 -34.5t47.5 -22.5l61 -15q74 -17 109 -52.5t35 -92.5zM287 548l-60 72q-24 -29 -45 -51.5t-42 -45.5q-22 1 -36 12t-14 27q0 13 7.5 22.5t18.5 22.5l56 59q14 13 26.5 20t29.5 7
q18 0 30.5 -7t26.5 -23l81 -98q0 -16 -9 -28t-29 -12q-13 0 -22 6.5t-19 16.5z" />
    <glyph glyph-name="Scedilla" unicode="&#x15e;" horiz-adv-x="529" 
d="M256 69q63 0 94.5 27.5t31.5 69.5q0 37 -24 61t-76 39l-78 23q-45 15 -78.5 36t-52 52.5t-18.5 75.5q0 79 58 124t156 45q55 0 98 -11.5t67.5 -30.5t24.5 -42q0 -15 -8 -27.5t-20 -19.5q-24 19 -65.5 33t-90.5 14q-55 0 -86.5 -23t-31.5 -62q0 -31 22.5 -50.5t71.5 -33.5
l59 -18q82 -24 128.5 -67t46.5 -118q0 -80 -59.5 -130t-168.5 -50q-61 0 -107 13.5t-72.5 35t-26.5 44.5q0 20 12 33t27 20q24 -22 65.5 -42.5t100.5 -20.5zM220 3l58 18q30 -19 42.5 -46.5t12.5 -59.5q0 -48 -30.5 -77.5t-79.5 -29.5q-29 0 -45 12t-16 33q0 15 6 25h14
q35 0 51 15.5t16 40.5q0 16 -7 34.5t-22 34.5z" />
    <glyph glyph-name="scedilla" unicode="&#x15f;" horiz-adv-x="456" 
d="M413 127q0 -66 -49 -103.5t-142 -37.5q-78 0 -127.5 24t-49.5 56q0 15 7.5 27.5t20.5 20.5q27 -19 63.5 -34t83.5 -15q96 0 96 62q0 26 -16.5 42.5t-49.5 23.5l-72 19q-66 16 -97 48.5t-31 83.5q0 57 46.5 96.5t136.5 39.5q47 0 83 -9.5t56.5 -26t20.5 -36.5
q0 -15 -7 -26.5t-18 -17.5q-12 8 -31.5 17t-45 15t-53.5 6q-42 0 -67 -15t-25 -43q0 -20 14.5 -34.5t47.5 -22.5l61 -15q74 -17 109 -52.5t35 -92.5zM196 3l58 18q30 -19 42.5 -46.5t12.5 -59.5q0 -48 -30.5 -77.5t-79.5 -29.5q-29 0 -45 12t-16 33q0 15 6 25h14
q35 0 51 15.5t16 40.5q0 16 -7 34.5t-22 34.5z" />
    <glyph glyph-name="Scaron" unicode="&#x160;" horiz-adv-x="529" 
d="M256 69q63 0 94.5 27.5t31.5 69.5q0 37 -24 61t-76 39l-78 23q-45 15 -78.5 36t-52 52.5t-18.5 75.5q0 79 58 124t156 45q55 0 98 -11.5t67.5 -30.5t24.5 -42q0 -15 -8 -27.5t-20 -19.5q-24 19 -65.5 33t-90.5 14q-55 0 -86.5 -23t-31.5 -62q0 -31 22.5 -50.5t71.5 -33.5
l59 -18q82 -24 128.5 -67t46.5 -118q0 -80 -59.5 -130t-168.5 -50q-61 0 -107 13.5t-72.5 35t-26.5 44.5q0 20 12 33t27 20q24 -22 65.5 -42.5t100.5 -20.5zM268 729q19 19 42 42.5t48 49.5q20 -1 35 -12t15 -28q0 -13 -8 -23.5t-23 -23.5l-53 -52q-15 -13 -27.5 -18.5
t-28.5 -5.5q-18 0 -31.5 7t-26.5 21l-83 86q0 22 11 34t29 12q13 0 25 -6.5t28 -25.5z" />
    <glyph glyph-name="scaron" unicode="&#x161;" horiz-adv-x="456" 
d="M413 127q0 -66 -49 -103.5t-142 -37.5q-78 0 -127.5 24t-49.5 56q0 15 7.5 27.5t20.5 20.5q27 -19 63.5 -34t83.5 -15q96 0 96 62q0 26 -16.5 42.5t-49.5 23.5l-72 19q-66 16 -97 48.5t-31 83.5q0 57 46.5 96.5t136.5 39.5q47 0 83 -9.5t56.5 -26t20.5 -36.5
q0 -15 -7 -26.5t-18 -17.5q-12 8 -31.5 17t-45 15t-53.5 6q-42 0 -67 -15t-25 -43q0 -20 14.5 -34.5t47.5 -22.5l61 -15q74 -17 109 -52.5t35 -92.5zM171 661l56 -63l88 94q24 -1 38 -12t14 -28q0 -14 -8 -24t-22 -23l-59 -59q-12 -11 -24 -16.5t-27 -5.5q-11 0 -21 3
t-19 10t-21 18l-83 87q0 12 4 23t13 18t22 7q15 0 25 -6t24 -23z" />
    <glyph glyph-name="uni0162" unicode="&#x162;" horiz-adv-x="530" 
d="M246 524l-4 84h253q4 -6 7.5 -16.5t3.5 -23.5q0 -20 -10 -32t-27 -12h-223zM284 608l4 -84h-254q-3 7 -6.5 17.5t-3.5 22.5q0 22 9.5 33t27.5 11h223zM214 551h100v-549q-6 -2 -19 -5t-27 -3q-28 0 -41 11t-13 36v510zM233 3l58 18q30 -19 42.5 -46.5t12.5 -59.5
q0 -48 -30.5 -77.5t-79.5 -29.5q-29 0 -45 12t-16 33q0 15 6 25h14q35 0 51 15.5t16 40.5q0 16 -7 34.5t-22 34.5z" />
    <glyph glyph-name="uni0163" unicode="&#x163;" horiz-adv-x="377" 
d="M72 264h97v-130q0 -37 22 -52.5t60 -15.5q16 0 36 5.5t34 12.5q6 -7 11.5 -17t5.5 -23q0 -25 -26.5 -41t-77.5 -16q-74 0 -118 32.5t-44 108.5v136zM126 378v79h201q3 -6 6.5 -16.5t3.5 -22.5q0 -20 -9.5 -30t-25.5 -10h-176zM169 235h-97v362q6 2 18.5 4.5t26.5 2.5
q27 0 39.5 -10t12.5 -35v-324zM144 3l58 18q30 -19 42.5 -46.5t12.5 -59.5q0 -48 -30.5 -77.5t-79.5 -29.5q-29 0 -45 12t-16 33q0 15 6 25h14q35 0 51 15.5t16 40.5q0 16 -7 34.5t-22 34.5z" />
    <glyph glyph-name="Tcaron" unicode="&#x164;" horiz-adv-x="530" 
d="M246 524l-4 84h253q4 -6 7.5 -16.5t3.5 -23.5q0 -20 -10 -32t-27 -12h-223zM284 608l4 -84h-254q-3 7 -6.5 17.5t-3.5 22.5q0 22 9.5 33t27.5 11h223zM214 551h100v-549q-6 -2 -19 -5t-27 -3q-28 0 -41 11t-13 36v510zM265 729q19 19 42 42.5t48 49.5q20 -1 35 -12
t15 -28q0 -13 -8 -23.5t-23 -23.5l-53 -52q-15 -13 -27.5 -18.5t-28.5 -5.5q-18 0 -31.5 7t-26.5 21l-83 86q0 22 11 34t29 12q13 0 25 -6.5t28 -25.5z" />
    <glyph glyph-name="tcaron" unicode="&#x165;" horiz-adv-x="480" 
d="M72 264h97v-130q0 -37 22 -52.5t60 -15.5q16 0 36 5.5t34 12.5q6 -7 11.5 -17t5.5 -23q0 -25 -26.5 -41t-77.5 -16q-74 0 -118 32.5t-44 108.5v136zM126 378v79h201q3 -6 6.5 -16.5t3.5 -22.5q0 -20 -9.5 -30t-25.5 -10h-176zM169 235h-97v362q6 2 18.5 4.5t26.5 2.5
q27 0 39.5 -10t12.5 -35v-324zM450 511q-9 -11 -20.5 -16t-25.5 -5q-24 0 -37 15q15 37 26.5 74.5t15.5 67.5q10 5 21 7.5t24 2.5q19 0 31.5 -8.5t12.5 -26.5q0 -16 -7.5 -37.5t-18.5 -41t-22 -32.5z" />
    <glyph glyph-name="Tbar" unicode="&#x166;" horiz-adv-x="530" 
d="M407 297h-307q-4 6 -7 14.5t-3 18.5q0 35 31 35h308q3 -4 6 -13t3 -20q0 -19 -8 -27t-23 -8zM246 524l-4 84h253q4 -6 7.5 -16.5t3.5 -23.5q0 -20 -10 -32t-27 -12h-223zM284 608l4 -84h-254q-3 7 -6.5 17.5t-3.5 22.5q0 22 9.5 33t27.5 11h223zM214 551h100v-549
q-6 -2 -19 -5t-27 -3q-28 0 -41 11t-13 36v510z" />
    <glyph glyph-name="tbar" unicode="&#x167;" horiz-adv-x="377" 
d="M107 211l-3 68h223q3 -5 6 -13.5t3 -19.5q0 -19 -8 -27t-23 -8h-198zM72 264h97v-130q0 -37 22 -52.5t60 -15.5q16 0 36 5.5t34 12.5q6 -7 11.5 -17t5.5 -23q0 -25 -26.5 -41t-77.5 -16q-74 0 -118 32.5t-44 108.5v136zM126 378v79h201q3 -6 6.5 -16.5t3.5 -22.5
q0 -20 -9.5 -30t-25.5 -10h-176zM169 235h-97v362q6 2 18.5 4.5t26.5 2.5q27 0 39.5 -10t12.5 -35v-324z" />
    <glyph glyph-name="Utilde" unicode="&#x168;" horiz-adv-x="652" 
d="M326 -14q-77 0 -131.5 28t-83 79t-28.5 119v78h100v-71q0 -74 40.5 -112t102.5 -38q61 0 102 38t41 112v71h100v-78q0 -68 -28.5 -119t-83 -79t-131.5 -28zM183 252h-100v354q6 2 19 5t27 3q28 0 41 -10.5t13 -35.5v-316zM569 252h-100v354q6 2 19 5t27 3q28 0 41 -10.5
t13 -35.5v-316zM252 798q28 0 51 -8.5t43.5 -16.5t36.5 -8q19 0 28 11.5t14 25.5h5q21 0 37 -11t16 -35q0 -31 -22 -49t-56 -18q-29 0 -53.5 8.5t-44.5 17t-36 8.5q-19 0 -27.5 -11.5t-13.5 -27.5h-5q-21 0 -37 12t-16 35q0 22 11.5 36.5t30 22.5t38.5 8z" />
    <glyph glyph-name="utilde" unicode="&#x169;" horiz-adv-x="557" 
d="M70 174v86h98v-83q0 -59 31.5 -85t86.5 -26q37 0 62.5 7.5t39.5 15.5v171h98v-174q0 -21 -6.5 -35t-27.5 -26q-25 -15 -67.5 -27t-99.5 -12q-67 0 -115.5 20t-74 61.5t-25.5 106.5zM486 210h-98v255q6 2 18.5 4.5t26.5 2.5q27 0 40 -10t13 -35v-217zM168 210h-98v255
q7 2 19.5 4.5t26.5 2.5q27 0 39.5 -10t12.5 -35v-217zM202 664q28 0 51 -8.5t43.5 -16.5t36.5 -8q19 0 28 11.5t14 25.5h5q21 0 37 -11t16 -35q0 -31 -22 -49t-56 -18q-29 0 -53.5 8.5t-44.5 17t-36 8.5q-19 0 -27.5 -11.5t-13.5 -27.5h-5q-21 0 -37 12t-16 35
q0 22 11.5 36.5t30 22.5t38.5 8z" />
    <glyph glyph-name="Umacron" unicode="&#x16a;" horiz-adv-x="652" 
d="M326 -14q-77 0 -131.5 28t-83 79t-28.5 119v78h100v-71q0 -74 40.5 -112t102.5 -38q61 0 102 38t41 112v71h100v-78q0 -68 -28.5 -119t-83 -79t-131.5 -28zM183 252h-100v354q6 2 19 5t27 3q28 0 41 -10.5t13 -35.5v-316zM569 252h-100v354q6 2 19 5t27 3q28 0 41 -10.5
t13 -35.5v-316zM427 691h-235q-4 7 -8 16.5t-4 21.5q0 21 10 30t27 9h235q5 -6 8 -16.5t3 -21.5q0 -21 -9.5 -30t-26.5 -9z" />
    <glyph glyph-name="umacron" unicode="&#x16b;" horiz-adv-x="556" 
d="M70 174v86h98v-83q0 -59 31.5 -85t86.5 -26q37 0 62.5 7.5t39.5 15.5v171h98v-174q0 -21 -6.5 -35t-27.5 -26q-25 -15 -67.5 -27t-99.5 -12q-67 0 -115.5 20t-74 61.5t-25.5 106.5zM486 210h-98v255q6 2 18.5 4.5t26.5 2.5q27 0 40 -10t13 -35v-217zM168 210h-98v255
q7 2 19.5 4.5t26.5 2.5q27 0 39.5 -10t12.5 -35v-217zM385 569h-235q-4 7 -8 16.5t-4 21.5q0 21 10 30t27 9h235q5 -6 8 -16.5t3 -21.5q0 -21 -9.5 -30t-26.5 -9z" />
    <glyph glyph-name="Ubreve" unicode="&#x16c;" horiz-adv-x="652" 
d="M326 -14q-77 0 -131.5 28t-83 79t-28.5 119v78h100v-71q0 -74 40.5 -112t102.5 -38q61 0 102 38t41 112v71h100v-78q0 -68 -28.5 -119t-83 -79t-131.5 -28zM183 252h-100v354q6 2 19 5t27 3q28 0 41 -10.5t13 -35.5v-316zM569 252h-100v354q6 2 19 5t27 3q28 0 41 -10.5
t13 -35.5v-316zM326 730q32 0 51.5 16.5t24.5 46.5q4 1 8.5 1.5t8.5 0.5q21 0 32.5 -12t11.5 -33q0 -34 -34.5 -63t-102.5 -29q-69 0 -103 29t-34 63q0 21 11.5 33t32.5 12q5 0 9.5 -0.5t7.5 -1.5q5 -30 25 -46.5t51 -16.5z" />
    <glyph glyph-name="ubreve" unicode="&#x16d;" horiz-adv-x="557" 
d="M70 174v86h98v-83q0 -59 31.5 -85t86.5 -26q37 0 62.5 7.5t39.5 15.5v171h98v-174q0 -21 -6.5 -35t-27.5 -26q-25 -15 -67.5 -27t-99.5 -12q-67 0 -115.5 20t-74 61.5t-25.5 106.5zM486 210h-98v255q6 2 18.5 4.5t26.5 2.5q27 0 40 -10t13 -35v-217zM168 210h-98v255
q7 2 19.5 4.5t26.5 2.5q27 0 39.5 -10t12.5 -35v-217zM278 615q32 0 51.5 16.5t24.5 46.5q4 1 8.5 1.5t8.5 0.5q21 0 32.5 -12t11.5 -33q0 -34 -34.5 -63t-102.5 -29q-69 0 -103 29t-34 63q0 21 11.5 33t32.5 12q5 0 9.5 -0.5t7.5 -1.5q5 -30 25 -46.5t51 -16.5z" />
    <glyph glyph-name="Uring" unicode="&#x16e;" horiz-adv-x="652" 
d="M326 -14q-77 0 -131.5 28t-83 79t-28.5 119v78h100v-71q0 -74 40.5 -112t102.5 -38q61 0 102 38t41 112v71h100v-78q0 -68 -28.5 -119t-83 -79t-131.5 -28zM183 252h-100v354q6 2 19 5t27 3q28 0 41 -10.5t13 -35.5v-316zM569 252h-100v354q6 2 19 5t27 3q28 0 41 -10.5
t13 -35.5v-316zM216 746q0 40 30 67.5t82 27.5q53 0 82.5 -27.5t29.5 -67.5t-29.5 -67t-82.5 -27q-52 0 -82 27t-30 67zM285 746q0 -18 12 -28.5t31 -10.5t31.5 10.5t12.5 28.5q0 19 -12.5 29.5t-31.5 10.5t-31 -10.5t-12 -29.5z" />
    <glyph glyph-name="uring" unicode="&#x16f;" horiz-adv-x="556" 
d="M70 174v86h98v-83q0 -59 31.5 -85t86.5 -26q37 0 62.5 7.5t39.5 15.5v171h98v-174q0 -21 -6.5 -35t-27.5 -26q-25 -15 -67.5 -27t-99.5 -12q-67 0 -115.5 20t-74 61.5t-25.5 106.5zM486 210h-98v255q6 2 18.5 4.5t26.5 2.5q27 0 40 -10t13 -35v-217zM168 210h-98v255
q7 2 19.5 4.5t26.5 2.5q27 0 39.5 -10t12.5 -35v-217zM165 618q0 40 29.5 68.5t80.5 28.5q53 0 82 -28.5t29 -68.5q0 -41 -29 -69t-82 -28q-51 0 -80.5 28t-29.5 69zM232 618q0 -21 12.5 -32.5t30.5 -11.5q19 0 32 11.5t13 32.5t-13 32t-32 11q-18 0 -30.5 -11t-12.5 -32z
" />
    <glyph glyph-name="Uhungarumlaut" unicode="&#x170;" horiz-adv-x="652" 
d="M326 -14q-77 0 -131.5 28t-83 79t-28.5 119v78h100v-71q0 -74 40.5 -112t102.5 -38q61 0 102 38t41 112v71h100v-78q0 -68 -28.5 -119t-83 -79t-131.5 -28zM183 252h-100v354q6 2 19 5t27 3q28 0 41 -10.5t13 -35.5v-316zM569 252h-100v354q6 2 19 5t27 3q28 0 41 -10.5
t13 -35.5v-316zM196 733l67 91q28 -1 43 -13.5t15 -29.5q0 -15 -7 -25.5t-21 -26.5l-58 -68q-24 0 -38 11.5t-14 26.5q0 10 4 18t9 16zM375 733l67 91q28 -1 43 -13.5t15 -29.5q0 -15 -7.5 -25.5t-21.5 -26.5l-58 -68q-24 0 -38 11.5t-14 26.5q0 10 4 18t10 16z" />
    <glyph glyph-name="uhungarumlaut" unicode="&#x171;" horiz-adv-x="556" 
d="M70 174v86h98v-83q0 -59 31.5 -85t86.5 -26q37 0 62.5 7.5t39.5 15.5v171h98v-174q0 -21 -6.5 -35t-27.5 -26q-25 -15 -67.5 -27t-99.5 -12q-67 0 -115.5 20t-74 61.5t-25.5 106.5zM486 210h-98v255q6 2 18.5 4.5t26.5 2.5q27 0 40 -10t13 -35v-217zM168 210h-98v255
q7 2 19.5 4.5t26.5 2.5q27 0 39.5 -10t12.5 -35v-217zM148 591l80 109q28 -1 43.5 -13.5t15.5 -28.5q0 -15 -7.5 -26t-21.5 -27l-72 -87q-24 0 -38.5 12t-14.5 27q0 10 4 17.5t11 16.5zM327 591l80 109q28 -1 44 -13.5t16 -28.5q0 -15 -7.5 -26t-21.5 -27l-72 -87
q-24 0 -38 12t-14 27q0 10 3.5 17.5t9.5 16.5z" />
    <glyph glyph-name="Uogonek" unicode="&#x172;" horiz-adv-x="652" 
d="M326 -14q-77 0 -131.5 28t-83 79t-28.5 119v78h100v-71q0 -74 40.5 -112t102.5 -38q61 0 102 38t41 112v71h100v-78q0 -68 -28.5 -119t-83 -79t-131.5 -28zM183 252h-100v354q6 2 19 5t27 3q28 0 41 -10.5t13 -35.5v-316zM569 252h-100v354q6 2 19 5t27 3q28 0 41 -10.5
t13 -35.5v-316zM329 15l68 -9q-20 -13 -34.5 -29.5t-14.5 -43.5q0 -25 16.5 -38t44.5 -13h13q3 -7 4.5 -13.5t1.5 -13.5q0 -18 -12.5 -30.5t-45.5 -12.5q-45 0 -78 26t-33 72q0 29 11.5 49.5t28 34.5t30.5 21z" />
    <glyph glyph-name="uogonek" unicode="&#x173;" horiz-adv-x="556" 
d="M379 13l88 24q-31 -25 -50.5 -47t-19.5 -57q0 -25 16.5 -38t45.5 -13h13q3 -7 4.5 -13.5t1.5 -13.5q0 -18 -13.5 -30.5t-44.5 -12.5q-47 0 -79.5 26t-32.5 72q0 43 24 68t47 35zM70 174v86h98v-83q0 -59 31.5 -85t86.5 -26q37 0 62.5 7.5t39.5 15.5v171h98v-174
q0 -21 -6.5 -35t-27.5 -26q-11 -7 -26.5 -10.5t-33.5 -9.5q-19 -6 -47 -12.5t-60 -6.5q-67 0 -115.5 20t-74 61.5t-25.5 106.5zM486 210h-98v255q6 2 18.5 4.5t26.5 2.5q27 0 40 -10t13 -35v-217zM168 210h-98v255q7 2 19.5 4.5t26.5 2.5q27 0 39.5 -10t12.5 -35v-217z" />
    <glyph glyph-name="Wcircumflex" unicode="&#x174;" horiz-adv-x="812" 
d="M352 457q9 4 23 8t30 4q24 0 40.5 -8t20.5 -23q23 -68 42 -126.5t36 -113t34 -112.5h5q17 89 33 171.5t31.5 167t28.5 178.5q18 10 43 10q22 0 36.5 -10t14.5 -31q0 -20 -5.5 -58.5t-14.5 -90t-21 -108.5t-25.5 -113t-27 -105t-25.5 -83q-11 -7 -29 -12.5t-39 -5.5
q-27 0 -45.5 8t-24.5 22q-12 34 -30 86.5t-37.5 115t-37.5 125.5q-17 -62 -36.5 -127t-38 -121.5t-32.5 -91.5q-9 -6 -26.5 -11.5t-39.5 -5.5q-26 0 -45 8.5t-25 21.5q-10 25 -24.5 74t-30 112.5t-30.5 132t-27.5 132.5t-20.5 114q9 8 23.5 15t31.5 7q22 0 35 -10t17 -34
q14 -71 25.5 -131.5t22.5 -117t23 -114t26 -120.5h5q13 44 25 83.5t24.5 81.5t27.5 91.5t34 114.5zM469 668l-60 72q-24 -29 -45 -51.5t-42 -45.5q-22 1 -36 12t-14 27q0 13 7.5 22.5t18.5 22.5l56 59q14 13 26.5 20t29.5 7q18 0 30.5 -7t26.5 -23l81 -98q0 -16 -9 -28
t-29 -12q-13 0 -22 6.5t-19 16.5z" />
    <glyph glyph-name="wcircumflex" unicode="&#x175;" horiz-adv-x="728" 
d="M365 330q-16 -60 -35.5 -120.5t-37.5 -113t-32 -89.5q-9 -6 -22 -10t-33 -4q-21 0 -37.5 7t-22.5 20q-10 20 -22.5 58t-25.5 86.5t-26.5 101t-24.5 101.5t-18 87q8 8 21 15t31 7q22 0 34 -11.5t17 -37.5q9 -49 19.5 -101.5t21.5 -100t20 -84t13 -54.5h4q7 23 23 76
t38 120.5t44 137.5q10 6 23 9.5t29 3.5q21 0 35.5 -7.5t19.5 -22.5q22 -67 41.5 -131t34.5 -113.5t22 -73.5h5q20 87 44 185t39 194q18 11 43 11q20 0 33 -9.5t13 -30.5q0 -12 -6.5 -43t-17 -72.5t-23 -88.5t-26 -90.5t-25.5 -79t-20 -55.5q-7 -5 -22 -9.5t-34 -4.5
q-49 0 -58 24q-13 33 -30 84t-34.5 110.5t-34.5 118.5zM426 548l-60 72q-24 -29 -45 -51.5t-42 -45.5q-22 1 -36 12t-14 27q0 13 7.5 22.5t18.5 22.5l56 59q14 13 26.5 20t29.5 7q18 0 30.5 -7t26.5 -23l81 -98q0 -16 -9 -28t-29 -12q-13 0 -22 6.5t-19 16.5z" />
    <glyph glyph-name="Ycircumflex" unicode="&#x176;" horiz-adv-x="555" 
d="M327 212h-89q-27 41 -57.5 88t-60.5 95.5t-56 95.5t-46 87q6 12 19 23.5t34 11.5q23 0 36.5 -11t26.5 -36q10 -19 25 -45t32 -56.5t34 -60.5t31.5 -55.5t23.5 -41.5h5q32 55 58 103.5t50.5 96t48.5 97.5q9 5 20.5 7t21.5 2q22 0 34.5 -11t12.5 -31q0 -10 -14 -40.5
t-40 -76.5t-64 -107.5t-86 -134.5zM233 255h99v-253q-6 -2 -19 -5t-27 -3q-28 0 -40.5 11t-12.5 35v215zM280 748q-18 -18 -41.5 -42.5t-51.5 -48.5q-19 2 -32 12t-13 27q0 14 8 24t22 23l53 52q28 26 56 26q18 0 31 -7.5t27 -22.5l82 -90q0 -19 -11.5 -30.5t-29.5 -11.5
q-13 0 -24.5 7.5t-27.5 25.5z" />
    <glyph glyph-name="ycircumflex" unicode="&#x177;" horiz-adv-x="501" 
d="M161 107q-17 33 -39.5 85.5t-46.5 119t-47 139.5q8 11 22 18t30 7q21 0 34.5 -10t20.5 -35q28 -81 58.5 -161t66.5 -165h4q20 43 41.5 104t41 128.5t32.5 128.5q9 4 19.5 7t22.5 3q20 0 34 -10t14 -31q0 -19 -8.5 -57.5t-24 -87.5t-35.5 -102.5t-42.5 -105t-45.5 -93.5
q-48 -87 -88 -133t-76 -46q-26 0 -41.5 14.5t-18.5 35.5q21 19 47.5 48.5t51 63.5t40.5 65q-17 5 -32.5 19t-34.5 51zM317 548l-60 72q-24 -29 -45 -51.5t-42 -45.5q-22 1 -36 12t-14 27q0 13 7.5 22.5t18.5 22.5l56 59q14 13 26.5 20t29.5 7q18 0 30.5 -7t26.5 -23l81 -98
q0 -16 -9 -28t-29 -12q-13 0 -22 6.5t-19 16.5z" />
    <glyph glyph-name="Ydieresis" unicode="&#x178;" horiz-adv-x="555" 
d="M327 212h-89q-27 41 -57.5 88t-60.5 95.5t-56 95.5t-46 87q6 12 19 23.5t34 11.5q23 0 36.5 -11t26.5 -36q10 -19 25 -45t32 -56.5t34 -60.5t31.5 -55.5t23.5 -41.5h5q32 55 58 103.5t50.5 96t48.5 97.5q9 5 20.5 7t21.5 2q22 0 34.5 -11t12.5 -31q0 -10 -14 -40.5
t-40 -76.5t-64 -107.5t-86 -134.5zM233 255h99v-253q-6 -2 -19 -5t-27 -3q-28 0 -40.5 11t-12.5 35v215zM247 733q0 -22 -16 -38.5t-41 -16.5q-24 0 -39.5 16.5t-15.5 38.5q0 23 15.5 39t39.5 16q25 0 41 -16t16 -39zM428 733q0 -22 -16 -38.5t-41 -16.5q-23 0 -39.5 16.5
t-16.5 38.5q0 23 16.5 39t39.5 16q25 0 41 -16t16 -39z" />
    <glyph glyph-name="Zacute" unicode="&#x179;" horiz-adv-x="558" 
d="M72 109l375 499h35q24 -20 24 -49q0 -17 -6.5 -30.5t-18.5 -29.5l-373 -499h-38q-10 8 -16.5 21t-6.5 28q0 16 7 30.5t18 29.5zM91 0l20 84h390q5 -7 8.5 -17t3.5 -24q0 -20 -10 -31.5t-27 -11.5h-385zM461 608l-17 -84h-378q-4 7 -8 17.5t-4 23.5q0 21 10.5 32t27.5 11
h369zM256 730l96 95q26 -1 40 -13.5t14 -29.5q0 -15 -6.5 -25.5t-23.5 -23.5l-88 -72q-23 1 -35.5 11t-12.5 25q0 10 4 18t12 15z" />
    <glyph glyph-name="zacute" unicode="&#x17a;" horiz-adv-x="471" 
d="M102 0h-39q-9 8 -14.5 19t-5.5 24q0 14 6 26t15 24l302 374h37q9 -9 14.5 -20t5.5 -24t-5.5 -25t-15.5 -24zM387 467v-79h-328q-4 6 -7.5 16.5t-3.5 22.5q0 21 10 30.5t26 9.5h303zM78 0v78h343q3 -5 6.5 -15.5t3.5 -22.5q0 -20 -9.5 -30t-26.5 -10h-317zM218 591l98 109
q28 -1 44 -14.5t16 -30.5q0 -15 -7 -25t-23 -25l-91 -87q-24 0 -38.5 13t-14.5 28q0 9 4.5 16.5t11.5 15.5z" />
    <glyph glyph-name="Zdotaccent" unicode="&#x17b;" horiz-adv-x="558" 
d="M72 109l375 499h35q24 -20 24 -49q0 -17 -6.5 -30.5t-18.5 -29.5l-373 -499h-38q-10 8 -16.5 21t-6.5 28q0 16 7 30.5t18 29.5zM91 0l20 84h390q5 -7 8.5 -17t3.5 -24q0 -20 -10 -31.5t-27 -11.5h-385zM461 608l-17 -84h-378q-4 7 -8 17.5t-4 23.5q0 21 10.5 32t27.5 11
h369zM341 736q0 -25 -16 -41t-43 -16q-25 0 -41.5 16t-16.5 41q0 26 16.5 41.5t41.5 15.5q27 0 43 -15.5t16 -41.5z" />
    <glyph glyph-name="zdotaccent" unicode="&#x17c;" horiz-adv-x="471" 
d="M102 0h-39q-9 8 -14.5 19t-5.5 24q0 14 6 26t15 24l302 374h37q9 -9 14.5 -20t5.5 -24t-5.5 -25t-15.5 -24zM387 467v-79h-328q-4 6 -7.5 16.5t-3.5 22.5q0 21 10 30.5t26 9.5h303zM78 0v78h343q3 -5 6.5 -15.5t3.5 -22.5q0 -20 -9.5 -30t-26.5 -10h-317zM293 612
q0 -25 -16 -41t-43 -16q-25 0 -41.5 16t-16.5 41q0 26 16.5 41.5t41.5 15.5q27 0 43 -15.5t16 -41.5z" />
    <glyph glyph-name="Zcaron" unicode="&#x17d;" horiz-adv-x="558" 
d="M72 109l375 499h35q24 -20 24 -49q0 -17 -6.5 -30.5t-18.5 -29.5l-373 -499h-38q-10 8 -16.5 21t-6.5 28q0 16 7 30.5t18 29.5zM91 0l20 84h390q5 -7 8.5 -17t3.5 -24q0 -20 -10 -31.5t-27 -11.5h-385zM461 608l-17 -84h-378q-4 7 -8 17.5t-4 23.5q0 21 10.5 32t27.5 11
h369zM286 729q19 19 42 42.5t48 49.5q20 -1 35 -12t15 -28q0 -13 -8 -23.5t-23 -23.5l-53 -52q-15 -13 -27.5 -18.5t-28.5 -5.5q-18 0 -31.5 7t-26.5 21l-83 86q0 22 11 34t29 12q13 0 25 -6.5t28 -25.5z" />
    <glyph glyph-name="zcaron" unicode="&#x17e;" horiz-adv-x="471" 
d="M102 0h-39q-9 8 -14.5 19t-5.5 24q0 14 6 26t15 24l302 374h37q9 -9 14.5 -20t5.5 -24t-5.5 -25t-15.5 -24zM387 467v-79h-328q-4 6 -7.5 16.5t-3.5 22.5q0 21 10 30.5t26 9.5h303zM78 0v78h343q3 -5 6.5 -15.5t3.5 -22.5q0 -20 -9.5 -30t-26.5 -10h-317zM182 661l56 -63
l88 94q24 -1 38 -12t14 -28q0 -14 -8 -24t-22 -23l-59 -59q-12 -11 -24 -16.5t-27 -5.5q-11 0 -21 3t-19 10t-21 18l-83 87q0 12 4 23t13 18t22 7q15 0 25 -6t24 -23z" />
    <glyph glyph-name="uni018F" unicode="&#x18f;" horiz-adv-x="653" 
d="M515 370l18 -79l-387 -62q3 -44 24 -81t58.5 -58.5t90.5 -21.5q89 0 136.5 54t47.5 161l-3 38q-6 73 -34.5 120t-73.5 70.5t-100 23.5q-58 0 -104 -21.5t-74 -48.5q-16 8 -26.5 19.5t-10.5 28.5q0 20 12.5 34t25.5 23q28 19 76 33.5t105 14.5q60 0 114.5 -18.5t97.5 -58
t68.5 -101t25.5 -146.5q0 -98 -34.5 -167t-98 -105.5t-150.5 -36.5q-89 0 -150 35.5t-92.5 94.5t-31.5 128q0 30 16 44t41 18z" />
    <glyph glyph-name="florin" unicode="&#x192;" horiz-adv-x="512" 
d="M248 345v78h203q5 -5 8.5 -15t3.5 -23q0 -20 -10 -30t-27 -10h-178zM279 378l2 -7l-31 -291q-8 -83 -47.5 -119t-107.5 -36q-47 0 -73.5 15t-26.5 42q0 13 4.5 23.5t12.5 15.5q16 -6 31.5 -11t38.5 -5q33 0 49.5 19t21.5 63l43 405q9 88 60 129.5t129 41.5q57 0 88 -16
t31 -43q0 -13 -5 -23.5t-12 -16.5q-19 8 -41.5 13.5t-51.5 5.5q-47 0 -71.5 -24t-30.5 -74z" />
    <glyph glyph-name="Ohorn" unicode="&#x1a0;" horiz-adv-x="710" 
d="M641 304q0 -104 -39 -175t-105.5 -107t-151.5 -36q-83 0 -150.5 36t-106 107t-38.5 175t39.5 174.5t106.5 107t149 36.5q84 0 150.5 -36.5t106 -107t39.5 -174.5zM538 304q0 113 -52.5 173.5t-140.5 60.5q-86 0 -139 -60.5t-53 -173.5t52.5 -174t140.5 -61t140 61t52 174
zM559 464h-18q-4 7 -6.5 27t-2.5 37q33 0 57.5 18.5t24.5 69.5v34q9 5 18.5 7.5t21.5 2.5q18 0 31 -10t13 -33v-11q0 -49 -20 -81t-51.5 -46.5t-67.5 -14.5z" />
    <glyph glyph-name="ohorn" unicode="&#x1a1;" horiz-adv-x="595" 
d="M520 233q0 -75 -29 -130.5t-81.5 -86t-123.5 -30.5t-124 30.5t-82 86t-29 130.5q0 76 29.5 131.5t82.5 85.5t123 30t122.5 -30.5t82 -85.5t29.5 -131zM286 401q-62 0 -98 -44.5t-36 -123.5t35.5 -123t98.5 -44t98.5 44.5t35.5 122.5q0 79 -35.5 123.5t-98.5 44.5z
M438 332h-18q-4 7 -6.5 27t-2.5 37q33 0 57.5 18.5t24.5 69.5v34q9 5 18.5 7.5t21.5 2.5q18 0 31 -10t13 -33v-11q0 -49 -20 -81t-51.5 -46.5t-67.5 -14.5z" />
    <glyph glyph-name="Uhorn" unicode="&#x1af;" horiz-adv-x="699" 
d="M325 -14q-77 0 -131.5 28t-83 79t-28.5 119v78h100v-71q0 -74 40.5 -112t102.5 -38q61 0 102 38t41 112v71h100v-78q0 -68 -28.5 -119t-83 -79t-131.5 -28zM182 252h-100v354q6 2 19 5t27 3q28 0 41 -10.5t13 -35.5v-316zM568 252h-100v354q6 2 19 5t27 3q28 0 41 -10.5
t13 -35.5v-316zM577 464h-18q-4 7 -6.5 27t-2.5 37q33 0 57.5 18.5t24.5 69.5v34q9 5 18.5 7.5t21.5 2.5q18 0 31 -10t13 -33v-11q0 -49 -20 -81t-51.5 -46.5t-67.5 -14.5z" />
    <glyph glyph-name="uhorn" unicode="&#x1b0;" horiz-adv-x="619" 
d="M70 174v86h98v-83q0 -59 31.5 -85t86.5 -26q37 0 62.5 7.5t39.5 15.5v171h98v-174q0 -21 -6.5 -35t-27.5 -26q-25 -15 -67.5 -27t-99.5 -12q-67 0 -115.5 20t-74 61.5t-25.5 106.5zM486 210h-98v255q6 2 18.5 4.5t26.5 2.5q27 0 40 -10t13 -35v-217zM168 210h-98v255
q7 2 19.5 4.5t26.5 2.5q27 0 39.5 -10t12.5 -35v-217zM485 332h-18q-4 7 -6.5 27t-2.5 37q33 0 57.5 18.5t24.5 69.5v34q9 5 18.5 7.5t21.5 2.5q18 0 31 -10t13 -33v-11q0 -49 -20 -81t-51.5 -46.5t-67.5 -14.5z" />
    <glyph glyph-name="uni01C4" unicode="&#x1c4;" horiz-adv-x="1198" 
d="M502 309q0 -118 -56.5 -178t-163.5 -60q-26 0 -51.5 1.5t-46.5 7.5v450q19 4 41 5.5t50 1.5q63 0 114.5 -23.5t82 -73.5t30.5 -131zM605 310q0 104 -42 172.5t-116.5 103t-173.5 34.5q-39 0 -79.5 -3.5t-74.5 -14.5q-16 -5 -25.5 -14t-9.5 -26v-505q0 -37 45 -51
q37 -12 79.5 -15t73.5 -3q98 0 170.5 35t112.5 106.5t40 180.5zM713 109l375 499h35q24 -20 24 -49q0 -17 -6.5 -30.5t-18.5 -29.5l-373 -499h-38q-10 8 -16.5 21t-6.5 28q0 16 7 30.5t18 29.5zM732 0l20 84h390q5 -7 8.5 -17t3.5 -24q0 -20 -10 -31.5t-27 -11.5h-385z
M1102 608l-17 -84h-378q-4 7 -8 17.5t-4 23.5q0 21 10.5 32t27.5 11h369zM927 729q19 19 42 42.5t48 49.5q20 -1 35 -12t15 -28q0 -13 -8 -23.5t-23 -23.5l-53 -52q-15 -13 -27.5 -18.5t-28.5 -5.5q-18 0 -31.5 7t-26.5 21l-83 86q0 22 11 34t29 12q13 0 25 -6.5t28 -25.5z
" />
    <glyph glyph-name="uni01C5" unicode="&#x1c5;" horiz-adv-x="1126" 
d="M502 309q0 -118 -56.5 -178t-163.5 -60q-26 0 -51.5 1.5t-46.5 7.5v450q19 4 41 5.5t50 1.5q63 0 114.5 -23.5t82 -73.5t30.5 -131zM605 310q0 104 -42 172.5t-116.5 103t-173.5 34.5q-39 0 -79.5 -3.5t-74.5 -14.5q-16 -5 -25.5 -14t-9.5 -26v-505q0 -37 45 -51
q37 -12 79.5 -15t73.5 -3q98 0 170.5 35t112.5 106.5t40 180.5zM757 0h-39q-9 8 -14.5 19t-5.5 24q0 14 6 26t15 24l302 374h37q9 -9 14.5 -20t5.5 -24t-5.5 -25t-15.5 -24zM1042 467v-79h-328q-4 6 -7.5 16.5t-3.5 22.5q0 21 10 30.5t26 9.5h303zM733 0v78h343
q3 -5 6.5 -15.5t3.5 -22.5q0 -20 -9.5 -30t-26.5 -10h-317zM836 661l56 -63l88 94q24 -1 38 -12t14 -28q0 -14 -8 -24t-22 -23l-59 -59q-12 -11 -24 -16.5t-27 -5.5q-11 0 -21 3t-19 10t-21 18l-83 87q0 12 4 23t13 18t22 7q15 0 25 -6t24 -23z" />
    <glyph glyph-name="uni01C6" unicode="&#x1c6;" horiz-adv-x="1026" 
d="M385 89v327l97 1v-335q0 -20 -8.5 -33t-27.5 -24q-22 -14 -61 -26.5t-89 -12.5q-75 0 -131.5 26t-88 80.5t-31.5 138.5q0 88 31.5 142.5t84.5 80.5t117 26q39 0 72 -10t52 -25v-87q-17 18 -45.5 30.5t-66.5 12.5q-40 0 -73 -17t-52.5 -54.5t-19.5 -99.5q0 -86 41 -125
t109 -39q32 0 53 7t37 16zM482 395l-98 -1v255q7 2 19.5 4.5t25.5 2.5q28 0 40.5 -10t12.5 -35v-216zM657 0h-39q-9 8 -14.5 19t-5.5 24q0 14 6 26t15 24l302 374h37q9 -9 14.5 -20t5.5 -24t-5.5 -25t-15.5 -24zM942 467v-79h-328q-4 6 -7.5 16.5t-3.5 22.5q0 21 10 30.5
t26 9.5h303zM633 0v78h343q3 -5 6.5 -15.5t3.5 -22.5q0 -20 -9.5 -30t-26.5 -10h-317zM736 661l56 -63l88 94q24 -1 38 -12t14 -28q0 -14 -8 -24t-22 -23l-59 -59q-12 -11 -24 -16.5t-27 -5.5q-11 0 -21 3t-19 10t-21 18l-83 87q0 12 4 23t13 18t22 7q15 0 25 -6t24 -23z
" />
    <glyph glyph-name="uni01C7" unicode="&#x1c7;" horiz-adv-x="907" 
d="M84 372h101v-364l-47 -9q-24 0 -39 15t-15 39v319zM138 -1v85h322q6 -6 9.5 -16.5t3.5 -23.5q0 -21 -10.5 -33t-28.5 -12h-296zM185 278h-101v328q7 2 20 5t27 3q27 0 40.5 -10.5t13.5 -35.5v-290zM724 289h100v-135q0 -59 -22.5 -96t-61 -53.5t-86.5 -16.5q-55 0 -84 15
t-29 42q0 15 6 26t12 17q15 -6 35 -11t41 -5q44 0 66.5 21.5t22.5 68.5v127zM824 255h-100v351q6 2 19.5 5t26.5 3q27 0 40.5 -10.5t13.5 -35.5v-313z" />
    <glyph glyph-name="uni01C8" unicode="&#x1c8;" horiz-adv-x="755" 
d="M84 372h101v-364l-47 -9q-24 0 -39 15t-15 39v319zM138 -1v85h322q6 -6 9.5 -16.5t3.5 -23.5q0 -21 -10.5 -33t-28.5 -12h-296zM185 278h-101v328q7 2 20 5t27 3q27 0 40.5 -10.5t13.5 -35.5v-290zM506 -137q24 11 41 23.5t26 33.5t9 57v312h98v-327q0 -59 -20 -93.5
t-47.5 -49t-50.5 -14.5q-28 0 -41 17t-15 41zM569 611q0 24 17.5 41t43.5 17t42.5 -17t16.5 -41q0 -25 -16.5 -41.5t-42.5 -16.5t-43.5 16.5t-17.5 41.5zM680 206l-98 9v249q6 2 18.5 4.5t26.5 2.5q27 0 40 -10t13 -35v-220z" />
    <glyph glyph-name="uni01C9" unicode="&#x1c9;" horiz-adv-x="505" 
d="M78 264l98 -10v-252q-6 -2 -18.5 -5t-26.5 -3q-27 0 -40 10.5t-13 34.5v225zM176 206l-98 9v434q6 2 18.5 4.5t26.5 2.5q27 0 40 -10t13 -35v-405zM257 -137q24 11 41 23.5t26 33.5t9 57v312h98v-327q0 -59 -20 -93.5t-47.5 -49t-50.5 -14.5q-28 0 -41 17t-15 41z
M320 611q0 24 17.5 41t43.5 17t42.5 -17t16.5 -41q0 -25 -16.5 -41.5t-42.5 -16.5t-43.5 16.5t-17.5 41.5zM431 206l-98 9v249q6 2 18.5 4.5t26.5 2.5q27 0 40 -10t13 -35v-220z" />
    <glyph glyph-name="uni01CA" unicode="&#x1ca;" horiz-adv-x="1054" 
d="M84 511l87 5q4 -34 6.5 -76t4 -85t1.5 -82v-271q-6 -2 -19 -5t-27 -3q-27 0 -40 10.5t-13 34.5v472zM580 97l-88 -5q-9 82 -10.5 163.5t-1.5 157.5v194q7 2 19.5 4.5t26.5 2.5q28 0 41 -10.5t13 -34.5v-472zM580 132v28v-147q-10 -8 -26.5 -13.5t-37.5 -5.5
q-27 0 -47 9.5t-36 38.5l-172 296q-14 26 -30 55.5t-30.5 57t-23.5 47.5l-93 -22v116q9 10 26.5 16t37.5 6q27 0 47.5 -10t35.5 -38l173 -296q14 -26 30 -55.5t29.5 -57.5t22.5 -48zM871 289h100v-135q0 -59 -22.5 -96t-61 -53.5t-86.5 -16.5q-55 0 -84 15t-29 42q0 15 6 26
t12 17q15 -6 35 -11t41 -5q44 0 66.5 21.5t22.5 68.5v127zM971 255h-100v351q6 2 19.5 5t26.5 3q27 0 40.5 -10.5t13.5 -35.5v-313z" />
    <glyph glyph-name="uni01CB" unicode="&#x1cb;" horiz-adv-x="916" 
d="M84 511l87 5q4 -34 6.5 -76t4 -85t1.5 -82v-271q-6 -2 -19 -5t-27 -3q-27 0 -40 10.5t-13 34.5v472zM580 97l-88 -5q-9 82 -10.5 163.5t-1.5 157.5v194q7 2 19.5 4.5t26.5 2.5q28 0 41 -10.5t13 -34.5v-472zM580 132v28v-147q-10 -8 -26.5 -13.5t-37.5 -5.5
q-27 0 -47 9.5t-36 38.5l-172 296q-14 26 -30 55.5t-30.5 57t-23.5 47.5l-93 -22v116q9 10 26.5 16t37.5 6q27 0 47.5 -10t35.5 -38l173 -296q14 -26 30 -55.5t29.5 -57.5t22.5 -48zM667 -137q24 11 41 23.5t26 33.5t9 57v312h98v-327q0 -59 -20 -93.5t-47.5 -49
t-50.5 -14.5q-28 0 -41 17t-15 41zM730 611q0 24 17.5 41t43.5 17t42.5 -17t16.5 -41q0 -25 -16.5 -41.5t-42.5 -16.5t-43.5 16.5t-17.5 41.5zM841 206l-98 9v249q6 2 18.5 4.5t26.5 2.5q27 0 40 -10t13 -35v-220z" />
    <glyph glyph-name="uni01CC" unicode="&#x1cc;" horiz-adv-x="808" 
d="M486 307v-100h-98v95q0 51 -29 75t-77 24q-36 0 -64.5 -9t-49.5 -21v-164h-98v165q0 22 9.5 36.5t29.5 27.5q28 17 73 30.5t100 13.5q96 0 150 -43t54 -130zM70 259h98v-257q-6 -2 -18 -5t-26 -3q-27 0 -40.5 10.5t-13.5 34.5v220zM388 259h98v-257q-6 -2 -18.5 -5
t-26.5 -3q-27 0 -40 10.5t-13 34.5v220zM560 -137q24 11 41 23.5t26 33.5t9 57v312h98v-327q0 -59 -20 -93.5t-47.5 -49t-50.5 -14.5q-28 0 -41 17t-15 41zM623 611q0 24 17.5 41t43.5 17t42.5 -17t16.5 -41q0 -25 -16.5 -41.5t-42.5 -16.5t-43.5 16.5t-17.5 41.5zM734 206
l-98 9v249q6 2 18.5 4.5t26.5 2.5q27 0 40 -10t13 -35v-220z" />
    <glyph glyph-name="uni01CD" unicode="&#x1cd;" horiz-adv-x="599" 
d="M302 528h-4q-14 -39 -32.5 -92t-38 -109.5t-37.5 -107.5l-8 -34q-6 -19 -14 -44t-17 -52l-17 -51l-13 -39q-8 -4 -17 -6t-23 -2q-22 0 -37 10.5t-15 31.5q0 10 3 20.5t7 23.5q11 33 28.5 82.5t38 107.5t43 118t43 115.5t37.5 97.5q10 6 30 11t40 5q26 0 48.5 -8t28.5 -25
q23 -57 49 -129.5t53 -151t51 -152.5t43 -134q-8 -10 -22 -16t-31 -6q-25 0 -37 10t-19 33l-49 149l-11 43q-18 57 -37 113.5t-35.5 105.5t-28.5 82zM136 155l34 80h268l17 -80h-319zM300 729q19 19 42 42.5t48 49.5q20 -1 35 -12t15 -28q0 -13 -8 -23.5t-23 -23.5l-53 -52
q-15 -13 -27.5 -18.5t-28.5 -5.5q-18 0 -31.5 7t-26.5 21l-83 86q0 22 11 34t29 12q13 0 25 -6.5t28 -25.5z" />
    <glyph glyph-name="uni01CE" unicode="&#x1ce;" horiz-adv-x="508" 
d="M244 -14q-96 0 -150 37.5t-54 109.5q0 66 43 101t122 43l140 14v23q0 46 -29.5 67t-79.5 21q-40 0 -77.5 -11t-66.5 -26q-9 8 -16 19t-7 23q0 31 34 46q27 13 63.5 20t75.5 7q91 0 145 -40t54 -126v-234q0 -23 -10 -35.5t-27 -23.5q-26 -14 -67 -24.5t-93 -10.5zM244 63
q37 0 63 7.5t38 15.5v132l-114 -12q-47 -3 -70.5 -20.5t-23.5 -50.5t26.5 -52.5t80.5 -19.5zM203 661l56 -63l88 94q24 -1 38 -12t14 -28q0 -14 -8 -24t-22 -23l-59 -59q-12 -11 -24 -16.5t-27 -5.5q-11 0 -21 3t-19 10t-21 18l-83 87q0 12 4 23t13 18t22 7q15 0 25 -6
t24 -23z" />
    <glyph glyph-name="uni01CF" unicode="&#x1cf;" horiz-adv-x="271" 
d="M85 379h100v-377q-6 -2 -19 -5t-27 -3q-28 0 -41 11t-13 36v338zM185 279h-100v327q6 2 19.5 5t27.5 3q27 0 40 -10.5t13 -35.5v-289zM135 729q19 19 42 42.5t48 49.5q20 -1 35 -12t15 -28q0 -13 -8 -23.5t-23 -23.5l-53 -52q-15 -13 -27.5 -18.5t-28.5 -5.5
q-18 0 -31.5 7t-26.5 21l-83 86q0 22 11 34t29 12q13 0 25 -6.5t28 -25.5z" />
    <glyph glyph-name="uni01D0" unicode="&#x1d0;" horiz-adv-x="249" 
d="M75 326h98v-327q-5 -2 -17 -4.5t-26 -2.5q-27 0 -41 11t-14 35v288zM173 276h-98v187q6 2 18.5 4.5t25.5 2.5q28 0 41 -11t13 -35v-148zM70 661l56 -63l88 94q24 -1 38 -12t14 -28q0 -14 -8 -24t-22 -23l-59 -59q-12 -11 -24 -16.5t-27 -5.5q-11 0 -20.5 3t-19 10
t-21.5 18l-82 87q-1 12 3 23t13 18t22 7q15 0 25 -6t24 -23z" />
    <glyph glyph-name="uni01D1" unicode="&#x1d1;" horiz-adv-x="692" 
d="M641 304q0 -104 -39 -175t-105.5 -107t-151.5 -36q-83 0 -150.5 36t-106 107t-38.5 175t39.5 174.5t106.5 107t149 36.5q84 0 150.5 -36.5t106 -107t39.5 -174.5zM538 304q0 113 -52.5 173.5t-140.5 60.5q-86 0 -139 -60.5t-53 -173.5t52.5 -174t140.5 -61t140 61t52 174
zM345 729q19 19 42 42.5t48 49.5q20 -1 35 -12t15 -28q0 -13 -8 -23.5t-23 -23.5l-53 -52q-15 -13 -27.5 -18.5t-28.5 -5.5q-18 0 -31.5 7t-26.5 21l-83 86q0 22 11 34t29 12q13 0 25 -6.5t28 -25.5z" />
    <glyph glyph-name="uni01D2" unicode="&#x1d2;" horiz-adv-x="560" 
d="M514 233q0 -75 -29 -130.5t-81.5 -86t-123.5 -30.5t-124 30.5t-82 86t-29 130.5q0 76 29.5 131.5t82.5 85.5t123 30t122.5 -30.5t82 -85.5t29.5 -131zM280 401q-62 0 -98 -44.5t-36 -123.5t35.5 -123t98.5 -44t98.5 44.5t35.5 122.5q0 79 -35.5 123.5t-98.5 44.5z
M231 661l56 -63l88 94q24 -1 38 -12t14 -28q0 -14 -8 -24t-22 -23l-59 -59q-12 -11 -24 -16.5t-27 -5.5q-11 0 -21 3t-19 10t-21 18l-83 87q0 12 4 23t13 18t22 7q15 0 25 -6t24 -23z" />
    <glyph glyph-name="uni01D3" unicode="&#x1d3;" horiz-adv-x="652" 
d="M326 -14q-77 0 -131.5 28t-83 79t-28.5 119v78h100v-71q0 -74 40.5 -112t102.5 -38q61 0 102 38t41 112v71h100v-78q0 -68 -28.5 -119t-83 -79t-131.5 -28zM183 252h-100v354q6 2 19 5t27 3q28 0 41 -10.5t13 -35.5v-316zM569 252h-100v354q6 2 19 5t27 3q28 0 41 -10.5
t13 -35.5v-316zM328 729q19 19 42 42.5t48 49.5q20 -1 35 -12t15 -28q0 -13 -8 -23.5t-23 -23.5l-53 -52q-15 -13 -27.5 -18.5t-28.5 -5.5q-18 0 -31.5 7t-26.5 21l-83 86q0 22 11 34t29 12q13 0 25 -6.5t28 -25.5z" />
    <glyph glyph-name="uni01D4" unicode="&#x1d4;" horiz-adv-x="556" 
d="M70 174v86h98v-83q0 -59 31.5 -85t86.5 -26q37 0 62.5 7.5t39.5 15.5v171h98v-174q0 -21 -6.5 -35t-27.5 -26q-25 -15 -67.5 -27t-99.5 -12q-67 0 -115.5 20t-74 61.5t-25.5 106.5zM486 210h-98v255q6 2 18.5 4.5t26.5 2.5q27 0 40 -10t13 -35v-217zM168 210h-98v255
q7 2 19.5 4.5t26.5 2.5q27 0 39.5 -10t12.5 -35v-217zM223 661l56 -63l88 94q24 -1 38 -12t14 -28q0 -14 -8 -24t-22 -23l-59 -59q-12 -11 -24 -16.5t-27 -5.5q-11 0 -21 3t-19 10t-21 18l-83 87q0 12 4 23t13 18t22 7q15 0 25 -6t24 -23z" />
    <glyph glyph-name="uni01D5" unicode="&#x1d5;" horiz-adv-x="652" 
d="M434 864h-245q-4 7 -7 16.5t-3 19.5q0 20 9.5 28.5t23.5 8.5h246q4 -6 7 -16t3 -19q0 -20 -9 -29t-25 -9zM326 -14q-77 0 -131.5 28t-83 79t-28.5 119v78h100v-71q0 -74 40.5 -112t102.5 -38q61 0 102 38t41 112v71h100v-78q0 -68 -28.5 -119t-83 -79t-131.5 -28z
M183 252h-100v354q6 2 19 5t27 3q28 0 41 -10.5t13 -35.5v-316zM569 252h-100v354q6 2 19 5t27 3q28 0 41 -10.5t13 -35.5v-316zM290 740q0 -22 -16 -38.5t-41 -16.5q-24 0 -39.5 16.5t-15.5 38.5q0 23 15.5 39t39.5 16q25 0 41 -16t16 -39zM472 740q0 -22 -16.5 -38.5
t-40.5 -16.5t-40 16.5t-16 38.5q0 23 16 39t40 16t40.5 -16t16.5 -39z" />
    <glyph glyph-name="uni01D6" unicode="&#x1d6;" horiz-adv-x="556" 
d="M383 746h-245q-4 7 -7 16t-3 20q0 20 9.5 28.5t23.5 8.5h246q4 -6 7 -16t3 -20q0 -19 -9 -28t-25 -9zM70 174v86h98v-83q0 -59 31.5 -85t86.5 -26q37 0 62.5 7.5t39.5 15.5v171h98v-174q0 -21 -6.5 -35t-27.5 -26q-25 -15 -67.5 -27t-99.5 -12q-67 0 -115.5 20t-74 61.5
t-25.5 106.5zM486 210h-98v255q6 2 18.5 4.5t26.5 2.5q27 0 40 -10t13 -35v-217zM168 210h-98v255q7 2 19.5 4.5t26.5 2.5q27 0 39.5 -10t12.5 -35v-217zM242 607q0 -22 -16 -38.5t-41 -16.5q-24 0 -39.5 16.5t-15.5 38.5q0 23 15.5 39t39.5 16q25 0 41 -16t16 -39zM423 607
q0 -22 -16 -38.5t-41 -16.5q-23 0 -39.5 16.5t-16.5 38.5q0 23 16.5 39t39.5 16q25 0 41 -16t16 -39z" />
    <glyph glyph-name="uni01D7" unicode="&#x1d7;" horiz-adv-x="652" 
d="M326 -14q-77 0 -131.5 28t-83 79t-28.5 119v78h100v-71q0 -74 40.5 -112t102.5 -38q61 0 102 38t41 112v71h100v-78q0 -68 -28.5 -119t-83 -79t-131.5 -28zM183 252h-100v354q6 2 19 5t27 3q28 0 41 -10.5t13 -35.5v-316zM569 252h-100v354q6 2 19 5t27 3q28 0 41 -10.5
t13 -35.5v-316zM290 740q0 -22 -16 -38.5t-41 -16.5q-24 0 -39.5 16.5t-15.5 38.5q0 23 15.5 39t39.5 16q25 0 41 -16t16 -39zM471 740q0 -22 -16 -38.5t-41 -16.5q-23 0 -39.5 16.5t-16.5 38.5q0 23 16.5 39t39.5 16q25 0 41 -16t16 -39zM307 895l74 89q24 -1 37 -12.5
t13 -24.5q0 -14 -7 -23.5t-18 -22.5l-65 -70q-22 0 -34.5 10.5t-12.5 23.5q0 8 3 14.5t10 15.5z" />
    <glyph glyph-name="uni01D8" unicode="&#x1d8;" horiz-adv-x="556" 
d="M70 174v86h98v-83q0 -59 31.5 -85t86.5 -26q37 0 62.5 7.5t39.5 15.5v171h98v-174q0 -21 -6.5 -35t-27.5 -26q-25 -15 -67.5 -27t-99.5 -12q-67 0 -115.5 20t-74 61.5t-25.5 106.5zM486 210h-98v255q6 2 18.5 4.5t26.5 2.5q27 0 40 -10t13 -35v-217zM168 210h-98v255
q7 2 19.5 4.5t26.5 2.5q27 0 39.5 -10t12.5 -35v-217zM242 607q0 -22 -16 -38.5t-41 -16.5q-24 0 -39.5 16.5t-15.5 38.5q0 23 15.5 39t39.5 16q25 0 41 -16t16 -39zM423 607q0 -22 -16 -38.5t-41 -16.5q-23 0 -39.5 16.5t-16.5 38.5q0 23 16.5 39t39.5 16q25 0 41 -16
t16 -39zM257 770l74 89q24 -1 37 -12.5t13 -24.5q0 -14 -7 -23.5t-18 -22.5l-65 -70q-22 0 -34.5 10.5t-12.5 23.5q0 8 3 14.5t10 15.5z" />
    <glyph glyph-name="uni01D9" unicode="&#x1d9;" horiz-adv-x="652" 
d="M326 -14q-77 0 -131.5 28t-83 79t-28.5 119v78h100v-71q0 -74 40.5 -112t102.5 -38q61 0 102 38t41 112v71h100v-78q0 -68 -28.5 -119t-83 -79t-131.5 -28zM183 252h-100v354q6 2 19 5t27 3q28 0 41 -10.5t13 -35.5v-316zM569 252h-100v354q6 2 19 5t27 3q28 0 41 -10.5
t13 -35.5v-316zM290 740q0 -22 -16 -38.5t-41 -16.5q-24 0 -39.5 16.5t-15.5 38.5q0 23 15.5 39t39.5 16q25 0 41 -16t16 -39zM471 740q0 -22 -16 -38.5t-41 -16.5q-23 0 -39.5 16.5t-16.5 38.5q0 23 16.5 39t39.5 16q25 0 41 -16t16 -39zM286 845l-91 94q0 19 10.5 29.5
t25.5 10.5q13 0 21 -6t17 -17l53 -61l78 84q22 -1 33 -11.5t11 -22.5q0 -13 -5 -21t-17 -19l-63 -62q-8 -8 -17 -12t-18 -4q-12 0 -20.5 5t-17.5 13z" />
    <glyph glyph-name="uni01DA" unicode="&#x1da;" horiz-adv-x="556" 
d="M70 174v86h98v-83q0 -59 31.5 -85t86.5 -26q37 0 62.5 7.5t39.5 15.5v171h98v-174q0 -21 -6.5 -35t-27.5 -26q-25 -15 -67.5 -27t-99.5 -12q-67 0 -115.5 20t-74 61.5t-25.5 106.5zM486 210h-98v255q6 2 18.5 4.5t26.5 2.5q27 0 40 -10t13 -35v-217zM168 210h-98v255
q7 2 19.5 4.5t26.5 2.5q27 0 39.5 -10t12.5 -35v-217zM242 607q0 -22 -16 -38.5t-41 -16.5q-24 0 -39.5 16.5t-15.5 38.5q0 23 15.5 39t39.5 16q25 0 41 -16t16 -39zM423 607q0 -22 -16 -38.5t-41 -16.5q-23 0 -39.5 16.5t-16.5 38.5q0 23 16.5 39t39.5 16q25 0 41 -16
t16 -39zM243 719l-91 94q0 19 10.5 29.5t25.5 10.5q13 0 21 -6t17 -17l53 -61l78 84q22 -1 33 -11.5t11 -22.5q0 -13 -5 -21t-17 -19l-63 -62q-8 -8 -17 -12t-18 -4q-12 0 -20.5 5t-17.5 13z" />
    <glyph glyph-name="uni01DB" unicode="&#x1db;" horiz-adv-x="652" 
d="M326 -14q-77 0 -131.5 28t-83 79t-28.5 119v78h100v-71q0 -74 40.5 -112t102.5 -38q61 0 102 38t41 112v71h100v-78q0 -68 -28.5 -119t-83 -79t-131.5 -28zM183 252h-100v354q6 2 19 5t27 3q28 0 41 -10.5t13 -35.5v-316zM569 252h-100v354q6 2 19 5t27 3q28 0 41 -10.5
t13 -35.5v-316zM290 740q0 -22 -16 -38.5t-41 -16.5q-24 0 -39.5 16.5t-15.5 38.5q0 23 15.5 39t39.5 16q25 0 41 -16t16 -39zM471 740q0 -22 -16 -38.5t-41 -16.5q-23 0 -39.5 16.5t-16.5 38.5q0 23 16.5 39t39.5 16q25 0 41 -16t16 -39zM288 849l-80 92q1 20 12.5 31.5
t26.5 11.5q14 0 23 -7.5t19 -19.5l68 -89q-2 -19 -12 -28t-23 -9q-10 0 -17.5 4.5t-16.5 13.5z" />
    <glyph glyph-name="uni01DC" unicode="&#x1dc;" horiz-adv-x="556" 
d="M70 174v86h98v-83q0 -59 31.5 -85t86.5 -26q37 0 62.5 7.5t39.5 15.5v171h98v-174q0 -21 -6.5 -35t-27.5 -26q-25 -15 -67.5 -27t-99.5 -12q-67 0 -115.5 20t-74 61.5t-25.5 106.5zM486 210h-98v255q6 2 18.5 4.5t26.5 2.5q27 0 40 -10t13 -35v-217zM168 210h-98v255
q7 2 19.5 4.5t26.5 2.5q27 0 39.5 -10t12.5 -35v-217zM242 607q0 -22 -16 -38.5t-41 -16.5q-24 0 -39.5 16.5t-15.5 38.5q0 23 15.5 39t39.5 16q25 0 41 -16t16 -39zM423 607q0 -22 -16 -38.5t-41 -16.5q-23 0 -39.5 16.5t-16.5 38.5q0 23 16.5 39t39.5 16q25 0 41 -16
t16 -39zM238 724l-80 92q1 20 12.5 31.5t26.5 11.5q14 0 23 -7.5t19 -19.5l68 -89q-2 -19 -12 -28t-23 -9q-10 0 -17.5 4.5t-16.5 13.5z" />
    <glyph glyph-name="Gcaron" unicode="&#x1e6;" horiz-adv-x="644" 
d="M579 290v-215q0 -20 -10.5 -33t-32.5 -24q-26 -14 -71.5 -23t-92.5 -9q-94 0 -166.5 34t-114 104t-41.5 179q0 106 42.5 177t113.5 106.5t156 35.5q58 0 102 -12.5t68 -31.5t24 -41q0 -16 -9 -28t-21 -18q-27 17 -64 32t-93 15q-61 0 -110 -26.5t-77.5 -79t-28.5 -129.5
q0 -81 29 -132.5t79 -76.5t112 -25q34 0 62.5 6t45.5 14v166h-143q-3 6 -6.5 16.5t-3.5 22.5q0 21 9.5 31.5t26.5 10.5h168q20 0 33.5 -12.5t13.5 -33.5zM351 729q19 19 42 42.5t48 49.5q20 -1 35 -12t15 -28q0 -13 -8 -23.5t-23 -23.5l-53 -52q-15 -13 -27.5 -18.5
t-28.5 -5.5q-18 0 -31.5 7t-26.5 21l-83 86q0 22 11 34t29 12q13 0 25 -6.5t28 -25.5z" />
    <glyph glyph-name="gcaron" unicode="&#x1e7;" horiz-adv-x="543" 
d="M264 15q-58 0 -107.5 22.5t-79.5 74t-30 135.5q0 77 30 129t83 78t123 26q48 0 88.5 -12t66.5 -29q16 -11 26 -24.5t10 -33.5v-310h-97v305q-16 10 -38.5 17.5t-54.5 7.5q-62 0 -100.5 -38t-38.5 -115q0 -85 38.5 -120t94.5 -35q41 0 66.5 14.5t41.5 31.5l4 -84
q-16 -15 -48 -27.5t-78 -12.5zM378 -10v102h96v-107q0 -66 -30 -107.5t-81 -60t-115 -18.5q-50 0 -87 10.5t-53 19.5q-31 18 -31 48q0 15 7 26.5t18 17.5q22 -16 60.5 -29t81.5 -13q64 0 99 27t35 84zM224 661l56 -63l88 94q24 -1 38 -12t14 -28q0 -14 -8 -24t-22 -23
l-59 -59q-12 -11 -24 -16.5t-27 -5.5q-11 0 -21 3t-19 10t-21 18l-83 87q0 12 4 23t13 18t22 7q15 0 25 -6t24 -23z" />
    <glyph glyph-name="uni01EA" unicode="&#x1ea;" horiz-adv-x="692" 
d="M641 304q0 -104 -39 -175t-105.5 -107t-151.5 -36q-83 0 -150.5 36t-106 107t-38.5 175t39.5 174.5t106.5 107t149 36.5q84 0 150.5 -36.5t106 -107t39.5 -174.5zM538 304q0 113 -52.5 173.5t-140.5 60.5q-86 0 -139 -60.5t-53 -173.5t52.5 -174t140.5 -61t140 61t52 174
zM345 15l68 -9q-20 -13 -34.5 -29.5t-14.5 -43.5q0 -25 16.5 -38t44.5 -13h13q3 -7 4.5 -13.5t1.5 -13.5q0 -18 -12.5 -30.5t-45.5 -12.5q-45 0 -78 26t-33 72q0 29 11.5 49.5t28 34.5t30.5 21z" />
    <glyph glyph-name="uni01EB" unicode="&#x1eb;" horiz-adv-x="560" 
d="M514 233q0 -75 -29 -130.5t-81.5 -86t-123.5 -30.5t-124 30.5t-82 86t-29 130.5q0 76 29.5 131.5t82.5 85.5t123 30t122.5 -30.5t82 -85.5t29.5 -131zM280 401q-62 0 -98 -44.5t-36 -123.5t35.5 -123t98.5 -44t98.5 44.5t35.5 122.5q0 79 -35.5 123.5t-98.5 44.5zM288 15
l68 -9q-20 -13 -34.5 -29.5t-14.5 -43.5q0 -25 16.5 -38t44.5 -13h13q3 -7 4.5 -13.5t1.5 -13.5q0 -18 -12.5 -30.5t-45.5 -12.5q-45 0 -78 26t-33 72q0 29 11.5 49.5t28 34.5t30.5 21z" />
    <glyph glyph-name="Aringacute" unicode="&#x1fa;" horiz-adv-x="599" 
d="M302 528h-4q-14 -39 -32.5 -92t-38 -109.5t-37.5 -107.5l-8 -34q-6 -19 -14 -44t-17 -52l-17 -51l-13 -39q-8 -4 -17 -6t-23 -2q-22 0 -37 10.5t-15 31.5q0 10 3 20.5t7 23.5q11 33 28.5 82.5t38 107.5t43 118t43 115.5t37.5 97.5q10 6 30 11t40 5q26 0 48.5 -8t28.5 -25
q23 -57 49 -129.5t53 -151t51 -152.5t43 -134q-8 -10 -22 -16t-31 -6q-25 0 -37 10t-19 33l-49 149l-11 43q-18 57 -37 113.5t-35.5 105.5t-28.5 82zM136 155l34 80h268l17 -80h-319zM280 941l74 89q24 -1 37 -12.5t13 -24.5q0 -14 -7 -23.5t-18 -22.5l-65 -70
q-22 0 -34.5 10.5t-12.5 23.5q0 8 3 14.5t10 15.5zM190 746q0 40 30 67.5t82 27.5q53 0 82.5 -27.5t29.5 -67.5t-29.5 -67t-82.5 -27q-52 0 -82 27t-30 67zM259 746q0 -18 12 -28.5t31 -10.5t31.5 10.5t12.5 28.5q0 19 -12.5 29.5t-31.5 10.5t-31 -10.5t-12 -29.5z" />
    <glyph glyph-name="aringacute" unicode="&#x1fb;" horiz-adv-x="508" 
d="M244 -14q-96 0 -150 37.5t-54 109.5q0 66 43 101t122 43l140 14v23q0 46 -29.5 67t-79.5 21q-40 0 -77.5 -11t-66.5 -26q-9 8 -16 19t-7 23q0 31 34 46q27 13 63.5 20t75.5 7q91 0 145 -40t54 -126v-234q0 -23 -10 -35.5t-27 -23.5q-26 -14 -67 -24.5t-93 -10.5zM244 63
q37 0 63 7.5t38 15.5v132l-114 -12q-47 -3 -70.5 -20.5t-23.5 -50.5t26.5 -52.5t80.5 -19.5zM144 618q0 40 29.5 68.5t80.5 28.5q53 0 82 -28.5t29 -68.5q0 -41 -29 -69t-82 -28q-51 0 -80.5 28t-29.5 69zM211 618q0 -21 12.5 -32.5t30.5 -11.5q19 0 32 11.5t13 32.5t-13 32
t-32 11q-18 0 -30.5 -11t-12.5 -32zM238 817l74 89q24 -1 37 -12.5t13 -24.5q0 -14 -7 -23.5t-18 -22.5l-65 -70q-22 0 -34.5 10.5t-12.5 23.5q0 8 3 14.5t10 15.5z" />
    <glyph glyph-name="AEacute" unicode="&#x1fc;" horiz-adv-x="850" 
d="M468 525h-72l-163 -311l-22 -41l-88 -175q-8 -2 -15.5 -4t-20.5 -2q-25 0 -37.5 10t-12.5 28q0 10 4 21.5t11 25.5q12 23 35.5 68t54 103t64.5 120.5t66.5 122t58.5 106.5q9 6 25.5 11t36.5 5q16 0 31 -3.5t27 -10.5t16 -18zM141 155l35 80h258l17 -80h-310zM402 542h98
v-534q-6 -2 -19.5 -5.5t-26.5 -3.5q-24 0 -38 15t-14 39v489zM454 270v82h301q5 -5 8.5 -16t3.5 -23q0 -20 -10 -31.5t-27 -11.5h-276zM454 -1v82h336q4 -5 8 -15.5t4 -23.5q0 -20 -10 -31.5t-27 -11.5h-311zM436 525v45q4 17 18.5 27.5t36.5 10.5h294q5 -6 8.5 -16.5
t3.5 -22.5q0 -20 -10 -32t-27 -12h-324zM413 730l96 95q26 -1 40 -13.5t14 -29.5q0 -15 -6.5 -25.5t-23.5 -23.5l-88 -72q-23 1 -35.5 11t-12.5 25q0 10 4 18t12 15z" />
    <glyph glyph-name="aeacute" unicode="&#x1fd;" horiz-adv-x="815" 
d="M591 -14q-109 0 -169 60.5t-62 160.5q0 5 -4.5 14.5t-4.5 15.5q0 79 27.5 132.5t75.5 82t109 28.5q63 0 111 -26t75 -73t27 -107q0 -25 -11.5 -36t-33.5 -14l-331 -47l-4 73l287 41q-4 48 -34.5 80t-85.5 32q-59 0 -96 -40.5t-38 -116.5l1 -35q7 -73 50.5 -109.5
t115.5 -36.5q42 0 77 13t56 29q12 -8 19.5 -19t7.5 -25q0 -22 -22 -39.5t-59 -27.5t-84 -10zM244 63q37 0 63 7.5t38 15.5v132l-114 -12q-47 -3 -70.5 -20.5t-23.5 -50.5t26.5 -52.5t80.5 -19.5zM243 -14q-96 0 -149.5 37.5t-53.5 109.5q0 66 43 101t122 43l140 14v23
q0 46 -29.5 67t-79.5 21q-40 0 -77.5 -11t-66.5 -26q-9 8 -16 19t-7 23q0 31 34 46q27 13 63.5 20t75.5 7q85 0 132.5 -41t47.5 -125v-239q0 -23 -10.5 -37.5t-27.5 -22.5q-24 -12 -56.5 -20.5t-84.5 -8.5zM374 593l98 109q28 -1 44 -14.5t16 -30.5q0 -15 -7 -25t-23 -25
l-91 -87q-24 0 -38.5 13t-14.5 28q0 9 4.5 16.5t11.5 15.5z" />
    <glyph glyph-name="Oslashacute" unicode="&#x1fe;" horiz-adv-x="692" 
d="M184 74l-85 -90q-27 5 -40 18.5t-13 27.5t7.5 25t21.5 25l46 46zM606 530l-49 -53l-52 64l78 85q23 -5 37.5 -17.5t14.5 -27.5q0 -11 -7 -22.5t-22 -28.5zM531 452l-346 -379l-38 75l331 365zM641 304q0 -104 -39 -175t-105.5 -107t-151.5 -36q-83 0 -150 37.5
t-106 108.5t-39 172q0 104 39.5 174.5t106.5 107t149 36.5q83 0 150 -37.5t106.5 -108.5t39.5 -172zM540 304q0 111 -53.5 172.5t-141.5 61.5q-86 0 -139.5 -60.5t-53.5 -173.5q0 -110 53 -172.5t141 -62.5t141 61t53 174zM323 731l96 95q26 -1 40 -13.5t14 -29.5
q0 -15 -6.5 -25.5t-23.5 -23.5l-88 -72q-23 1 -35.5 11t-12.5 25q0 10 4 18t12 15z" />
    <glyph glyph-name="oslashacute" unicode="&#x1ff;" horiz-adv-x="560" 
d="M428 396l-49 49l54 83q14 0 26 -4.5t19.5 -13t7.5 -21.5q0 -7 -6 -17zM187 31l-62 -92q-15 0 -27 5t-19 13.5t-7 19.5q0 9 6 18l46 67zM204 55l-41 61l183 280l60 -27zM514 233q0 -75 -29 -130.5t-81.5 -86t-123.5 -30.5t-124 30.5t-82 86t-29 130.5q0 76 29.5 131.5
t82.5 85.5t123 30t122.5 -30.5t82 -85.5t29.5 -131zM280 401q-62 0 -100 -44t-38 -124q0 -79 37.5 -123.5t100.5 -44.5t100.5 44t37.5 124q0 79 -37.5 123.5t-100.5 44.5zM243 593l98 109q28 -1 44 -14.5t16 -30.5q0 -15 -7 -25t-23 -25l-91 -87q-24 0 -38.5 13t-14.5 28
q0 9 4.5 16.5t11.5 15.5z" />
    <glyph glyph-name="uni0200" unicode="&#x200;" horiz-adv-x="599" 
d="M302 528h-4q-14 -39 -32.5 -92t-38 -109.5t-37.5 -107.5l-8 -34q-6 -19 -14 -44t-17 -52l-17 -51l-13 -39q-8 -4 -17 -6t-23 -2q-22 0 -37 10.5t-15 31.5q0 10 3 20.5t7 23.5q11 33 28.5 82.5t38 107.5t43 118t43 115.5t37.5 97.5q10 6 30 11t40 5q26 0 48.5 -8t28.5 -25
q23 -57 49 -129.5t53 -151t51 -152.5t43 -134q-8 -10 -22 -16t-31 -6q-25 0 -37 10t-19 33l-49 149l-11 43q-18 57 -37 113.5t-35.5 105.5t-28.5 82zM136 155l34 80h268l17 -80h-319zM168 687l-67 83v4q0 24 12 35.5t30 11.5q13 0 23.5 -7.5t17.5 -18.5l67 -94
q-4 -19 -15.5 -28t-26.5 -9q-12 0 -23 6.5t-18 16.5zM351 687l-68 83v4q0 24 12 35.5t30 11.5q14 0 24 -7.5t18 -18.5l66 -94q-4 -19 -15 -28t-26 -9q-13 0 -23 7t-18 16z" />
    <glyph glyph-name="uni0201" unicode="&#x201;" horiz-adv-x="508" 
d="M144 542l-84 102v6q0 23 12.5 34t30.5 11q14 0 24 -6.5t18 -19.5l80 -113q-4 -19 -14 -28t-25 -9q-13 0 -23 6.5t-19 16.5zM325 542l-85 102v6q0 23 12.5 34t30.5 11q14 0 24 -6.5t19 -19.5l80 -113q-4 -19 -14 -28t-26 -9q-12 0 -22 6.5t-19 16.5zM244 -14
q-96 0 -150 37.5t-54 109.5q0 66 43 101t122 43l140 14v23q0 46 -29.5 67t-79.5 21q-40 0 -77.5 -11t-66.5 -26q-9 8 -16 19t-7 23q0 31 34 46q27 13 63.5 20t75.5 7q91 0 145 -40t54 -126v-234q0 -23 -10 -35.5t-27 -23.5q-26 -14 -67 -24.5t-93 -10.5zM244 63q37 0 63 7.5
t38 15.5v132l-114 -12q-47 -3 -70.5 -20.5t-23.5 -50.5t26.5 -52.5t80.5 -19.5z" />
    <glyph glyph-name="uni0202" unicode="&#x202;" horiz-adv-x="599" 
d="M300 745q-31 0 -51 -16.5t-25 -46.5q-4 -1 -8 -1.5t-9 -0.5q-21 0 -32.5 12.5t-11.5 32.5q0 35 34.5 63.5t102.5 28.5q69 0 103 -29t34 -63q0 -20 -11 -32.5t-33 -12.5q-5 0 -9.5 0.5t-7.5 1.5q-5 30 -24.5 46.5t-51.5 16.5zM302 528h-4q-14 -39 -32.5 -92t-38 -109.5
t-37.5 -107.5l-8 -34q-6 -19 -14 -44t-17 -52l-17 -51l-13 -39q-8 -4 -17 -6t-23 -2q-22 0 -37 10.5t-15 31.5q0 10 3 20.5t7 23.5q11 33 28.5 82.5t38 107.5t43 118t43 115.5t37.5 97.5q10 6 30 11t40 5q26 0 48.5 -8t28.5 -25q23 -57 49 -129.5t53 -151t51 -152.5t43 -134
q-8 -10 -22 -16t-31 -6q-25 0 -37 10t-19 33l-49 149l-11 43q-18 57 -37 113.5t-35.5 105.5t-28.5 82zM136 155l34 80h268l17 -80h-319z" />
    <glyph glyph-name="uni0203" unicode="&#x203;" horiz-adv-x="508" 
d="M244 -14q-96 0 -150 37.5t-54 109.5q0 66 43 101t122 43l140 14v23q0 46 -29.5 67t-79.5 21q-40 0 -77.5 -11t-66.5 -26q-9 8 -16 19t-7 23q0 31 34 46q27 13 63.5 20t75.5 7q91 0 145 -40t54 -126v-234q0 -23 -10 -35.5t-27 -23.5q-26 -14 -67 -24.5t-93 -10.5zM244 63
q37 0 63 7.5t38 15.5v132l-114 -12q-47 -3 -70.5 -20.5t-23.5 -50.5t26.5 -52.5t80.5 -19.5zM240 613q-31 0 -51 -16.5t-25 -46.5q-4 -1 -8 -1.5t-9 -0.5q-21 0 -32.5 12.5t-11.5 32.5q0 35 34.5 63.5t102.5 28.5q70 0 103.5 -29t33.5 -63q0 -20 -11 -32.5t-33 -12.5
q-4 0 -8.5 0.5t-8.5 1.5q-5 30 -24.5 46.5t-51.5 16.5z" />
    <glyph glyph-name="uni0204" unicode="&#x204;" horiz-adv-x="534" 
d="M84 381h99v-373q-5 -2 -18 -5.5t-27 -3.5q-25 0 -39.5 15t-14.5 39v328zM183 231h-99v323q0 24 14.5 39t39.5 15q14 0 27 -3t18 -6v-368zM138 270v82h301q4 -5 7.5 -16t3.5 -23q0 -20 -9.5 -31.5t-27.5 -11.5h-275zM138 -1v82h336q4 -5 7.5 -15.5t3.5 -23.5
q0 -20 -9.5 -31.5t-27.5 -11.5h-310zM138 525v83h332q3 -6 6.5 -16.5t3.5 -22.5q0 -20 -9.5 -32t-26.5 -12h-306zM160 687l-67 83v4q0 24 12 35.5t30 11.5q13 0 23.5 -7.5t17.5 -18.5l67 -94q-4 -19 -15.5 -28t-26.5 -9q-12 0 -23 6.5t-18 16.5zM343 687l-68 83v4
q0 24 12 35.5t30 11.5q14 0 24 -7.5t18 -18.5l66 -94q-4 -19 -15 -28t-26 -9q-13 0 -23 7t-18 16z" />
    <glyph glyph-name="uni0205" unicode="&#x205;" horiz-adv-x="525" 
d="M110 177l-4 73l287 41q-3 48 -34 80t-86 32q-58 0 -95.5 -40.5t-38.5 -116.5l1 -35q8 -73 51.5 -109.5t115.5 -36.5q42 0 77 13t55 29q12 -8 19.5 -19t7.5 -25q0 -22 -22 -39.5t-59 -27.5t-84 -10q-77 0 -134.5 28.5t-89.5 84.5t-32 138q0 59 17.5 104t48.5 76t72.5 47
t89.5 16q63 0 111 -26t75 -73t27 -107q0 -25 -11.5 -36t-33.5 -14zM144 542l-84 102v6q0 23 12.5 34t30.5 11q14 0 24 -6.5t18 -19.5l80 -113q-4 -19 -14 -28t-25 -9q-13 0 -23 6.5t-19 16.5zM325 542l-85 102v6q0 23 12.5 34t30.5 11q14 0 24 -6.5t19 -19.5l80 -113
q-4 -19 -14 -28t-26 -9q-12 0 -22 6.5t-19 16.5z" />
    <glyph glyph-name="uni0206" unicode="&#x206;" horiz-adv-x="534" 
d="M306 726q-31 0 -50.5 -16.5t-25.5 -46.5q-4 -1 -8 -1.5t-9 -0.5q-21 0 -32.5 12t-11.5 33q0 34 35 62.5t102 28.5q70 0 104 -29t34 -62q0 -21 -11.5 -33t-32.5 -12q-5 0 -9.5 0.5t-8.5 1.5q-5 30 -24.5 46.5t-51.5 16.5zM84 381h99v-373q-5 -2 -18 -5.5t-27 -3.5
q-25 0 -39.5 15t-14.5 39v328zM183 231h-99v323q0 24 14.5 39t39.5 15q14 0 27 -3t18 -6v-368zM138 270v82h301q4 -5 7.5 -16t3.5 -23q0 -20 -9.5 -31.5t-27.5 -11.5h-275zM138 -1v82h336q4 -5 7.5 -15.5t3.5 -23.5q0 -20 -9.5 -31.5t-27.5 -11.5h-310zM138 525v83h332
q3 -6 6.5 -16.5t3.5 -22.5q0 -20 -9.5 -32t-26.5 -12h-306z" />
    <glyph glyph-name="uni0207" unicode="&#x207;" horiz-adv-x="525" 
d="M110 177l-4 73l287 41q-3 48 -34 80t-86 32q-58 0 -95.5 -40.5t-38.5 -116.5l1 -35q8 -73 51.5 -109.5t115.5 -36.5q42 0 77 13t55 29q12 -8 19.5 -19t7.5 -25q0 -22 -22 -39.5t-59 -27.5t-84 -10q-77 0 -134.5 28.5t-89.5 84.5t-32 138q0 59 17.5 104t48.5 76t72.5 47
t89.5 16q63 0 111 -26t75 -73t27 -107q0 -25 -11.5 -36t-33.5 -14zM267 613q-31 0 -51 -16.5t-25 -46.5q-4 -1 -8 -1.5t-9 -0.5q-21 0 -32.5 12.5t-11.5 32.5q0 35 34.5 63.5t102.5 28.5q70 0 103.5 -29t33.5 -63q0 -20 -11 -32.5t-33 -12.5q-4 0 -8.5 0.5t-8.5 1.5
q-5 30 -24.5 46.5t-51.5 16.5z" />
    <glyph glyph-name="uni0208" unicode="&#x208;" horiz-adv-x="271" 
d="M85 379h100v-377q-6 -2 -19 -5t-27 -3q-28 0 -41 11t-13 36v338zM185 279h-100v327q6 2 19.5 5t27.5 3q27 0 40 -10.5t13 -35.5v-289zM-11 687l-67 83v4q0 24 12 35.5t30 11.5q13 0 23.5 -7.5t17.5 -18.5l67 -94q-4 -19 -15.5 -28t-26.5 -9q-12 0 -23 6.5t-18 16.5z
M172 687l-68 83v4q0 24 12 35.5t30 11.5q14 0 24 -7.5t18 -18.5l66 -94q-4 -19 -15 -28t-26 -9q-13 0 -23 7t-18 16z" />
    <glyph glyph-name="uni0209" unicode="&#x209;" horiz-adv-x="267" 
d="M75 264h98v-262q-6 -2 -18 -5t-27 -3q-26 0 -39.5 10.5t-13.5 34.5v225zM173 215h-98v249q6 2 18.5 4.5t27.5 2.5q27 0 39.5 -10t12.5 -35v-211zM12 545l-85 103v6q0 22 13 33.5t30 11.5q14 0 24 -7t19 -19l79 -113q-4 -20 -14 -29t-25 -9q-13 0 -23 7t-18 16zM192 545
l-84 103v5q0 23 12 34.5t30 11.5q14 0 24.5 -7t19.5 -19l79 -113q-4 -20 -14 -29t-25 -9q-13 0 -22.5 6.5t-19.5 16.5z" />
    <glyph glyph-name="uni020A" unicode="&#x20a;" horiz-adv-x="271" 
d="M135 745q-31 0 -51 -16.5t-25 -46.5q-5 -1 -9 -1.5t-9 -0.5q-20 0 -32 12.5t-12 32.5q0 35 35 63.5t103 28.5q69 0 103 -29t34 -63q0 -20 -11 -32.5t-33 -12.5q-5 0 -9.5 0.5t-7.5 1.5q-5 30 -25 46.5t-51 16.5zM85 379h100v-377q-6 -2 -19 -5t-27 -3q-28 0 -41 11
t-13 36v338zM185 279h-100v327q6 2 19.5 5t27.5 3q27 0 40 -10.5t13 -35.5v-289z" />
    <glyph glyph-name="uni020B" unicode="&#x20b;" horiz-adv-x="249" 
d="M75 264h98v-262q-6 -2 -18 -5t-27 -3q-26 0 -39.5 10.5t-13.5 34.5v225zM173 215h-98v249q6 2 18.5 4.5t27.5 2.5q27 0 39.5 -10t12.5 -35v-211zM121 613q-31 0 -51 -16.5t-25 -46.5q-4 -1 -8 -1.5t-9 -0.5q-21 0 -32.5 12.5t-11.5 32.5q0 35 34.5 63.5t102.5 28.5
q69 0 103 -29t34 -63q0 -20 -11 -32.5t-33 -12.5q-5 0 -9.5 0.5t-7.5 1.5q-5 30 -24.5 46.5t-51.5 16.5z" />
    <glyph glyph-name="uni020C" unicode="&#x20c;" horiz-adv-x="692" 
d="M641 304q0 -104 -39 -175t-105.5 -107t-151.5 -36q-83 0 -150.5 36t-106 107t-38.5 175t39.5 174.5t106.5 107t149 36.5q84 0 150.5 -36.5t106 -107t39.5 -174.5zM538 304q0 113 -52.5 173.5t-140.5 60.5q-86 0 -139 -60.5t-53 -173.5t52.5 -174t140.5 -61t140 61t52 174
zM205 687l-67 83v4q0 24 12 35.5t30 11.5q13 0 23.5 -7.5t17.5 -18.5l67 -94q-4 -19 -15.5 -28t-26.5 -9q-12 0 -23 6.5t-18 16.5zM388 687l-68 83v4q0 24 12 35.5t30 11.5q14 0 24 -7.5t18 -18.5l66 -94q-4 -19 -15 -28t-26 -9q-13 0 -23 7t-18 16z" />
    <glyph glyph-name="uni020D" unicode="&#x20d;" horiz-adv-x="560" 
d="M514 233q0 -75 -29 -130.5t-81.5 -86t-123.5 -30.5t-124 30.5t-82 86t-29 130.5q0 76 29.5 131.5t82.5 85.5t123 30t122.5 -30.5t82 -85.5t29.5 -131zM280 401q-62 0 -98 -44.5t-36 -123.5t35.5 -123t98.5 -44t98.5 44.5t35.5 122.5q0 79 -35.5 123.5t-98.5 44.5z
M154 542l-84 102v6q0 23 12.5 34t30.5 11q14 0 24 -6.5t18 -19.5l80 -113q-4 -19 -14 -28t-25 -9q-13 0 -23 6.5t-19 16.5zM335 542l-85 102v6q0 23 12.5 34t30.5 11q14 0 24 -6.5t19 -19.5l80 -113q-4 -19 -14 -28t-26 -9q-12 0 -22 6.5t-19 16.5z" />
    <glyph glyph-name="uni020E" unicode="&#x20e;" horiz-adv-x="692" 
d="M345 745q-31 0 -50.5 -16.5t-25.5 -46.5q-4 -1 -8 -1.5t-9 -0.5q-21 0 -32.5 12.5t-11.5 32.5q0 35 35 63.5t102 28.5q70 0 104 -29t34 -63q0 -20 -11.5 -32.5t-32.5 -12.5q-5 0 -9.5 0.5t-8.5 1.5q-5 30 -24.5 46.5t-51.5 16.5zM641 304q0 -104 -39 -175t-105.5 -107
t-151.5 -36q-83 0 -150.5 36t-106 107t-38.5 175t39.5 174.5t106.5 107t149 36.5q84 0 150.5 -36.5t106 -107t39.5 -174.5zM538 304q0 113 -52.5 173.5t-140.5 60.5q-86 0 -139 -60.5t-53 -173.5t52.5 -174t140.5 -61t140 61t52 174z" />
    <glyph glyph-name="uni020F" unicode="&#x20f;" horiz-adv-x="560" 
d="M514 233q0 -75 -29 -130.5t-81.5 -86t-123.5 -30.5t-124 30.5t-82 86t-29 130.5q0 76 29.5 131.5t82.5 85.5t123 30t122.5 -30.5t82 -85.5t29.5 -131zM280 401q-62 0 -98 -44.5t-36 -123.5t35.5 -123t98.5 -44t98.5 44.5t35.5 122.5q0 79 -35.5 123.5t-98.5 44.5z
M279 613q-31 0 -51 -16.5t-25 -46.5q-4 -1 -8 -1.5t-9 -0.5q-21 0 -32.5 12.5t-11.5 32.5q0 35 34.5 63.5t102.5 28.5q70 0 103.5 -29t33.5 -63q0 -20 -11 -32.5t-33 -12.5q-4 0 -8.5 0.5t-8.5 1.5q-5 30 -24.5 46.5t-51.5 16.5z" />
    <glyph glyph-name="uni0210" unicode="&#x210;" horiz-adv-x="593" 
d="M184 304h102q67 0 106 29.5t39 87.5q0 57 -40 86.5t-116 29.5q-24 0 -48 -2t-43 -6v-225zM289 223h-205v338q0 17 9.5 26t25.5 15q30 9 73 13.5t85 4.5q128 0 191.5 -52.5t63.5 -145.5q0 -60 -28.5 -104.5t-82.5 -69.5t-132 -25zM283 252l80 30q27 -34 55.5 -70t55 -70.5
t47.5 -61.5t33 -44q-5 -20 -21.5 -32t-33.5 -12q-23 0 -36 11t-27 30zM84 254h101v-252q-7 -2 -19.5 -5t-27.5 -3q-28 0 -41 11t-13 36v213zM165 687l-67 83v4q0 24 12 35.5t30 11.5q13 0 23.5 -7.5t17.5 -18.5l67 -94q-4 -19 -15.5 -28t-26.5 -9q-12 0 -23 6.5t-18 16.5z
M348 687l-68 83v4q0 24 12 35.5t30 11.5q14 0 24 -7.5t18 -18.5l66 -94q-4 -19 -15 -28t-26 -9q-13 0 -23 7t-18 16z" />
    <glyph glyph-name="uni0211" unicode="&#x211;" horiz-adv-x="388" 
d="M168 369v-149h-98v150q0 24 10 39t31 29q28 18 73.5 30t99.5 12q86 0 86 -47q0 -12 -3.5 -22t-9.5 -17q-10 2 -25.5 4t-31.5 2q-42 0 -75.5 -9t-56.5 -22zM70 264l98 -10v-252q-6 -2 -18 -5t-26 -3q-27 0 -40.5 10.5t-13.5 34.5v225zM100 542l-84 102v6q0 23 12.5 34
t30.5 11q14 0 24 -6.5t18 -19.5l80 -113q-4 -19 -14 -28t-25 -9q-13 0 -23 6.5t-19 16.5zM281 542l-85 102v6q0 23 12.5 34t30.5 11q14 0 24 -6.5t19 -19.5l80 -113q-4 -19 -14 -28t-26 -9q-12 0 -22 6.5t-19 16.5z" />
    <glyph glyph-name="uni0212" unicode="&#x212;" horiz-adv-x="593" 
d="M184 304h102q67 0 106 29.5t39 87.5q0 57 -40 86.5t-116 29.5q-24 0 -48 -2t-43 -6v-225zM289 223h-205v338q0 17 9.5 26t25.5 15q30 9 73 13.5t85 4.5q128 0 191.5 -52.5t63.5 -145.5q0 -60 -28.5 -104.5t-82.5 -69.5t-132 -25zM283 252l80 30q27 -34 55.5 -70t55 -70.5
t47.5 -61.5t33 -44q-5 -20 -21.5 -32t-33.5 -12q-23 0 -36 11t-27 30zM84 254h101v-252q-7 -2 -19.5 -5t-27.5 -3q-28 0 -41 11t-13 36v213zM290 745q-31 0 -51 -16.5t-25 -46.5q-4 -1 -8 -1.5t-9 -0.5q-21 0 -32.5 12.5t-11.5 32.5q0 35 34.5 63.5t102.5 28.5
q70 0 103.5 -29t33.5 -63q0 -20 -11 -32.5t-33 -12.5q-4 0 -8.5 0.5t-8.5 1.5q-5 30 -24.5 46.5t-51.5 16.5z" />
    <glyph glyph-name="uni0213" unicode="&#x213;" horiz-adv-x="388" 
d="M168 369v-149h-98v150q0 24 10 39t31 29q28 18 73.5 30t99.5 12q86 0 86 -47q0 -12 -3.5 -22t-9.5 -17q-10 2 -25.5 4t-31.5 2q-42 0 -75.5 -9t-56.5 -22zM70 264l98 -10v-252q-6 -2 -18 -5t-26 -3q-27 0 -40.5 10.5t-13.5 34.5v225zM216 613q-31 0 -51 -16.5t-25 -46.5
q-4 -1 -8 -1.5t-9 -0.5q-21 0 -32.5 12.5t-11.5 32.5q0 35 34.5 63.5t102.5 28.5q70 0 103.5 -29t33.5 -63q0 -20 -11 -32.5t-33 -12.5q-4 0 -8.5 0.5t-8.5 1.5q-5 30 -24.5 46.5t-51.5 16.5z" />
    <glyph glyph-name="uni0214" unicode="&#x214;" horiz-adv-x="652" 
d="M326 -14q-77 0 -131.5 28t-83 79t-28.5 119v78h100v-71q0 -74 40.5 -112t102.5 -38q61 0 102 38t41 112v71h100v-78q0 -68 -28.5 -119t-83 -79t-131.5 -28zM183 252h-100v354q6 2 19 5t27 3q28 0 41 -10.5t13 -35.5v-316zM569 252h-100v354q6 2 19 5t27 3q28 0 41 -10.5
t13 -35.5v-316zM192 687l-67 83v4q0 24 12 35.5t30 11.5q13 0 23.5 -7.5t17.5 -18.5l67 -94q-4 -19 -15.5 -28t-26.5 -9q-12 0 -23 6.5t-18 16.5zM375 687l-68 83v4q0 24 12 35.5t30 11.5q14 0 24 -7.5t18 -18.5l66 -94q-4 -19 -15 -28t-26 -9q-13 0 -23 7t-18 16z" />
    <glyph glyph-name="uni0215" unicode="&#x215;" horiz-adv-x="556" 
d="M70 174v86h98v-83q0 -59 31.5 -85t86.5 -26q37 0 62.5 7.5t39.5 15.5v171h98v-174q0 -21 -6.5 -35t-27.5 -26q-25 -15 -67.5 -27t-99.5 -12q-67 0 -115.5 20t-74 61.5t-25.5 106.5zM486 210h-98v255q6 2 18.5 4.5t26.5 2.5q27 0 40 -10t13 -35v-217zM168 210h-98v255
q7 2 19.5 4.5t26.5 2.5q27 0 39.5 -10t12.5 -35v-217zM158 542l-84 102v6q0 23 12.5 34t30.5 11q14 0 24 -6.5t18 -19.5l80 -113q-4 -19 -14 -28t-25 -9q-13 0 -23 6.5t-19 16.5zM339 542l-85 102v6q0 23 12.5 34t30.5 11q14 0 24 -6.5t19 -19.5l80 -113q-4 -19 -14 -28
t-26 -9q-12 0 -22 6.5t-19 16.5z" />
    <glyph glyph-name="uni0216" unicode="&#x216;" horiz-adv-x="652" 
d="M326 -14q-77 0 -131.5 28t-83 79t-28.5 119v78h100v-71q0 -74 40.5 -112t102.5 -38q61 0 102 38t41 112v71h100v-78q0 -68 -28.5 -119t-83 -79t-131.5 -28zM183 252h-100v354q6 2 19 5t27 3q28 0 41 -10.5t13 -35.5v-316zM569 252h-100v354q6 2 19 5t27 3q28 0 41 -10.5
t13 -35.5v-316zM325 745q-31 0 -51 -16.5t-25 -46.5q-4 -1 -8 -1.5t-9 -0.5q-21 0 -32.5 12.5t-11.5 32.5q0 35 34.5 63.5t102.5 28.5q70 0 103.5 -29t33.5 -63q0 -20 -11 -32.5t-33 -12.5q-4 0 -8.5 0.5t-8.5 1.5q-5 30 -24.5 46.5t-51.5 16.5z" />
    <glyph glyph-name="uni0217" unicode="&#x217;" horiz-adv-x="556" 
d="M70 174v86h98v-83q0 -59 31.5 -85t86.5 -26q37 0 62.5 7.5t39.5 15.5v171h98v-174q0 -21 -6.5 -35t-27.5 -26q-25 -15 -67.5 -27t-99.5 -12q-67 0 -115.5 20t-74 61.5t-25.5 106.5zM486 210h-98v255q6 2 18.5 4.5t26.5 2.5q27 0 40 -10t13 -35v-217zM168 210h-98v255
q7 2 19.5 4.5t26.5 2.5q27 0 39.5 -10t12.5 -35v-217zM278 613q-31 0 -51 -16.5t-25 -46.5q-4 -1 -8 -1.5t-9 -0.5q-21 0 -32.5 12.5t-11.5 32.5q0 35 34.5 63.5t102.5 28.5q70 0 103.5 -29t33.5 -63q0 -20 -11 -32.5t-33 -12.5q-4 0 -8.5 0.5t-8.5 1.5q-5 30 -24.5 46.5
t-51.5 16.5z" />
    <glyph glyph-name="uni0218" unicode="&#x218;" horiz-adv-x="529" 
d="M256 69q63 0 94.5 27.5t31.5 69.5q0 37 -24 61t-76 39l-78 23q-45 15 -78.5 36t-52 52.5t-18.5 75.5q0 79 58 124t156 45q55 0 98 -11.5t67.5 -30.5t24.5 -42q0 -15 -8 -27.5t-20 -19.5q-24 19 -65.5 33t-90.5 14q-55 0 -86.5 -23t-31.5 -62q0 -31 22.5 -50.5t71.5 -33.5
l59 -18q82 -24 128.5 -67t46.5 -118q0 -80 -59.5 -130t-168.5 -50q-61 0 -107 13.5t-72.5 35t-26.5 44.5q0 20 12 33t27 20q24 -22 65.5 -42.5t100.5 -20.5zM266 -205q-9 -12 -20.5 -16.5t-25.5 -4.5q-24 0 -37 15q15 36 26.5 73.5t15.5 67.5q10 5 21 7.5t24 2.5
q19 0 31.5 -8.5t12.5 -25.5q0 -16 -7.5 -38t-18.5 -41.5t-22 -31.5z" />
    <glyph glyph-name="uni0219" unicode="&#x219;" horiz-adv-x="456" 
d="M413 127q0 -66 -49 -103.5t-142 -37.5q-78 0 -127.5 24t-49.5 56q0 15 7.5 27.5t20.5 20.5q27 -19 63.5 -34t83.5 -15q96 0 96 62q0 26 -16.5 42.5t-49.5 23.5l-72 19q-66 16 -97 48.5t-31 83.5q0 57 46.5 96.5t136.5 39.5q47 0 83 -9.5t56.5 -26t20.5 -36.5
q0 -15 -7 -26.5t-18 -17.5q-12 8 -31.5 17t-45 15t-53.5 6q-42 0 -67 -15t-25 -43q0 -20 14.5 -34.5t47.5 -22.5l61 -15q74 -17 109 -52.5t35 -92.5zM239 -205q-9 -12 -20.5 -16.5t-25.5 -4.5q-24 0 -37 15q15 36 26.5 73.5t15.5 67.5q10 5 21 7.5t24 2.5q19 0 31.5 -8.5
t12.5 -25.5q0 -16 -7.5 -38t-18.5 -41.5t-22 -31.5z" />
    <glyph glyph-name="uni021A" unicode="&#x21a;" horiz-adv-x="530" 
d="M246 524l-4 84h253q4 -6 7.5 -16.5t3.5 -23.5q0 -20 -10 -32t-27 -12h-223zM284 608l4 -84h-254q-3 7 -6.5 17.5t-3.5 22.5q0 22 9.5 33t27.5 11h223zM214 551h100v-549q-6 -2 -19 -5t-27 -3q-28 0 -41 11t-13 36v510zM264 -205q-9 -12 -20.5 -16.5t-25.5 -4.5
q-24 0 -37 15q15 36 26.5 73.5t15.5 67.5q10 5 21 7.5t24 2.5q19 0 31.5 -8.5t12.5 -25.5q0 -16 -7.5 -38t-18.5 -41.5t-22 -31.5z" />
    <glyph glyph-name="uni021B" unicode="&#x21b;" horiz-adv-x="377" 
d="M72 264h97v-130q0 -37 22 -52.5t60 -15.5q16 0 36 5.5t34 12.5q6 -7 11.5 -17t5.5 -23q0 -25 -26.5 -41t-77.5 -16q-74 0 -118 32.5t-44 108.5v136zM126 378v79h201q3 -6 6.5 -16.5t3.5 -22.5q0 -20 -9.5 -30t-25.5 -10h-176zM169 235h-97v362q6 2 18.5 4.5t26.5 2.5
q27 0 39.5 -10t12.5 -35v-324zM207 -205q-9 -12 -20.5 -16.5t-25.5 -4.5q-24 0 -37 15q15 36 26.5 73.5t15.5 67.5q10 5 21 7.5t24 2.5q19 0 31.5 -8.5t12.5 -25.5q0 -16 -7.5 -38t-18.5 -41.5t-22 -31.5z" />
    <glyph glyph-name="uni022A" unicode="&#x22a;" horiz-adv-x="692" 
d="M453 866h-244q-4 7 -7.5 16.5t-3.5 19.5q0 20 9.5 28.5t24.5 8.5h245q4 -6 7 -16t3 -19q0 -20 -9 -29t-25 -9zM641 304q0 -104 -39 -175t-105.5 -107t-151.5 -36q-83 0 -150.5 36t-106 107t-38.5 175t39.5 174.5t106.5 107t149 36.5q84 0 150.5 -36.5t106 -107
t39.5 -174.5zM538 304q0 113 -52.5 173.5t-140.5 60.5q-86 0 -139 -60.5t-53 -173.5t52.5 -174t140.5 -61t140 61t52 174zM310 740q0 -22 -16 -38.5t-41 -16.5q-24 0 -39.5 16.5t-15.5 38.5q0 23 15.5 39t39.5 16q25 0 41 -16t16 -39zM492 740q0 -22 -16.5 -38.5
t-40.5 -16.5t-40 16.5t-16 38.5q0 23 16 39t40 16t40.5 -16t16.5 -39z" />
    <glyph glyph-name="uni022B" unicode="&#x22b;" horiz-adv-x="560" 
d="M388 746h-244q-4 7 -7.5 16t-3.5 20q0 20 9.5 28.5t24.5 8.5h245q4 -6 7 -16t3 -20q0 -19 -9 -28t-25 -9zM514 233q0 -75 -29 -130.5t-81.5 -86t-123.5 -30.5t-124 30.5t-82 86t-29 130.5q0 76 29.5 131.5t82.5 85.5t123 30t122.5 -30.5t82 -85.5t29.5 -131zM280 401
q-62 0 -98 -44.5t-36 -123.5t35.5 -123t98.5 -44t98.5 44.5t35.5 122.5q0 79 -35.5 123.5t-98.5 44.5zM246 607q0 -22 -16 -38.5t-41 -16.5q-24 0 -39.5 16.5t-15.5 38.5q0 23 15.5 39t39.5 16q25 0 41 -16t16 -39zM427 607q0 -22 -16 -38.5t-41 -16.5q-23 0 -39.5 16.5
t-16.5 38.5q0 23 16.5 39t39.5 16q25 0 41 -16t16 -39z" />
    <glyph glyph-name="uni022C" unicode="&#x22c;" horiz-adv-x="692" 
d="M453 866h-244q-4 7 -7.5 16.5t-3.5 19.5q0 20 9.5 28.5t24.5 8.5h245q4 -6 7 -16t3 -19q0 -20 -9 -29t-25 -9zM271 797q28 0 51 -8t43 -16.5t37 -8.5q19 0 28 11.5t13 26.5h6q21 0 36.5 -11.5t15.5 -35.5q0 -31 -21.5 -49t-56.5 -18q-28 0 -52.5 9t-44.5 17t-36 8
q-19 0 -28 -11t-13 -27h-5q-21 0 -37 11.5t-16 34.5q0 22 11.5 37t30 22.5t38.5 7.5zM641 304q0 -104 -39 -175t-105.5 -107t-151.5 -36q-83 0 -150.5 36t-106 107t-38.5 175t39.5 174.5t106.5 107t149 36.5q84 0 150.5 -36.5t106 -107t39.5 -174.5zM538 304
q0 113 -52.5 173.5t-140.5 60.5q-86 0 -139 -60.5t-53 -173.5t52.5 -174t140.5 -61t140 61t52 174z" />
    <glyph glyph-name="uni022D" unicode="&#x22d;" horiz-adv-x="560" 
d="M395 746h-245q-4 7 -7.5 16t-3.5 20q0 20 9.5 28.5t24.5 8.5h245q4 -6 7 -16t3 -20q0 -19 -9 -28t-24 -9zM514 233q0 -75 -29 -130.5t-81.5 -86t-123.5 -30.5t-124 30.5t-82 86t-29 130.5q0 76 29.5 131.5t82.5 85.5t123 30t122.5 -30.5t82 -85.5t29.5 -131zM280 401
q-62 0 -98 -44.5t-36 -123.5t35.5 -123t98.5 -44t98.5 44.5t35.5 122.5q0 79 -35.5 123.5t-98.5 44.5zM206 664q28 0 51.5 -8.5t43.5 -16.5t37 -8q18 0 27.5 11.5t13.5 25.5h6q20 0 36 -11t16 -35q0 -31 -21.5 -49t-56.5 -18q-29 0 -53 8.5t-44.5 17t-36.5 8.5
q-19 0 -27.5 -11.5t-12.5 -27.5h-6q-21 0 -36.5 12t-15.5 35q0 22 11 36.5t29.5 22.5t38.5 8z" />
    <glyph glyph-name="uni0230" unicode="&#x230;" horiz-adv-x="692" 
d="M453 866h-244q-4 7 -7.5 16.5t-3.5 19.5q0 20 9.5 28.5t24.5 8.5h245q4 -6 7 -16t3 -19q0 -20 -9 -29t-25 -9zM641 304q0 -104 -39 -175t-105.5 -107t-151.5 -36q-83 0 -150.5 36t-106 107t-38.5 175t39.5 174.5t106.5 107t149 36.5q84 0 150.5 -36.5t106 -107
t39.5 -174.5zM538 304q0 113 -52.5 173.5t-140.5 60.5q-86 0 -139 -60.5t-53 -173.5t52.5 -174t140.5 -61t140 61t52 174zM404 736q0 -25 -16 -41t-43 -16q-25 0 -41.5 16t-16.5 41q0 26 16.5 41.5t41.5 15.5q27 0 43 -15.5t16 -41.5z" />
    <glyph glyph-name="uni0231" unicode="&#x231;" horiz-adv-x="560" 
d="M388 746h-244q-4 7 -7.5 16t-3.5 20q0 20 9.5 28.5t24.5 8.5h245q4 -6 7 -16t3 -20q0 -19 -9 -28t-25 -9zM514 233q0 -75 -29 -130.5t-81.5 -86t-123.5 -30.5t-124 30.5t-82 86t-29 130.5q0 76 29.5 131.5t82.5 85.5t123 30t122.5 -30.5t82 -85.5t29.5 -131zM280 401
q-62 0 -98 -44.5t-36 -123.5t35.5 -123t98.5 -44t98.5 44.5t35.5 122.5q0 79 -35.5 123.5t-98.5 44.5zM338 612q0 -25 -16 -40.5t-43 -15.5q-25 0 -41.5 15.5t-16.5 40.5q0 26 16.5 42t41.5 16q27 0 43 -16t16 -42z" />
    <glyph glyph-name="uni0232" unicode="&#x232;" horiz-adv-x="555" 
d="M327 212h-89q-27 41 -57.5 88t-60.5 95.5t-56 95.5t-46 87q6 12 19 23.5t34 11.5q23 0 36.5 -11t26.5 -36q10 -19 25 -45t32 -56.5t34 -60.5t31.5 -55.5t23.5 -41.5h5q32 55 58 103.5t50.5 96t48.5 97.5q9 5 20.5 7t21.5 2q22 0 34.5 -11t12.5 -31q0 -10 -14 -40.5
t-40 -76.5t-64 -107.5t-86 -134.5zM233 255h99v-253q-6 -2 -19 -5t-27 -3q-28 0 -40.5 11t-12.5 35v215zM388 691h-235q-4 7 -8 16.5t-4 21.5q0 21 10 30t27 9h235q5 -6 8 -16.5t3 -21.5q0 -21 -9.5 -30t-26.5 -9z" />
    <glyph glyph-name="uni0233" unicode="&#x233;" horiz-adv-x="501" 
d="M161 107q-17 33 -39.5 85.5t-46.5 119t-47 139.5q8 11 22 18t30 7q21 0 34.5 -10t20.5 -35q28 -81 58.5 -161t66.5 -165h4q20 43 41.5 104t41 128.5t32.5 128.5q9 4 19.5 7t22.5 3q20 0 34 -10t14 -31q0 -19 -8.5 -57.5t-24 -87.5t-35.5 -102.5t-42.5 -105t-45.5 -93.5
q-48 -87 -88 -133t-76 -46q-26 0 -41.5 14.5t-18.5 35.5q21 19 47.5 48.5t51 63.5t40.5 65q-17 5 -32.5 19t-34.5 51zM366 569h-235q-4 7 -8 16.5t-4 21.5q0 21 10 30t27 9h235q5 -6 8 -16.5t3 -21.5q0 -21 -9.5 -30t-26.5 -9z" />
    <glyph glyph-name="uni0237" unicode="&#x237;" horiz-adv-x="252" 
d="M3 -136q24 11 41 23.5t26 33.5t9 57v311h98v-324q0 -61 -20 -95.5t-47.5 -49t-50.5 -14.5q-28 0 -41 17t-15 41zM177 206l-98 9v250q6 2 18.5 4.5t26.5 2.5q27 0 40 -10t13 -35v-221z" />
    <glyph glyph-name="uni0251" unicode="&#x251;" horiz-adv-x="559" 
d="M483 68l-98 -31v339q-13 9 -37 17t-55 8q-39 0 -73 -17t-54.5 -54t-20.5 -99q0 -86 37.5 -125.5t96.5 -39.5q40 0 70.5 16t39.5 35l24 -73q-19 -24 -58.5 -41t-90.5 -17q-58 0 -108 25t-80.5 78.5t-30.5 140.5q0 85 33 140.5t88.5 82.5t124.5 27q50 0 90.5 -12.5
t66.5 -28.5q15 -9 25 -22.5t10 -33.5v-315zM395 62l88 68q0 -40 9 -61.5t24 -37.5q-2 -18 -16.5 -31.5t-37.5 -13.5q-25 0 -43.5 19.5t-23.5 56.5z" />
    </font>
</defs>
</svg>
