<?xml version="1.0" standalone="no"?>
<!DOCTYPE svg PUBLIC "-//W3C//DTD SVG 1.1//EN" "http://www.w3.org/Graphics/SVG/1.1/DTD/svg11.dtd" >
<svg xmlns="http://www.w3.org/2000/svg" xmlns:xlink="http://www.w3.org/1999/xlink" version="1.1">
<metadata>
Created by FontForge 20201107 at Thu Oct 28 18:08:48 2021
 By 
Copyright 2019 The Baloo 2 Project Authors (https://github.com/EkType/Baloo2)
</metadata>
<defs>
<font id="BalooTammudu2-Bold" horiz-adv-x="0" >
  <font-face 
    font-family="Baloo Tammudu 2"
    font-weight="700"
    font-stretch="normal"
    units-per-em="1000"
    panose-1="0 0 0 0 0 0 0 0 0 0"
    ascent="800"
    descent="-200"
    x-height="477"
    cap-height="616"
    bbox="-1074 -1101 2217 1106"
    underline-thickness="50"
    underline-position="-125"
    unicode-range="U+000D-FB04"
  />
<missing-glyph horiz-adv-x="671" 
d="M159 0q-34 0 -53.5 19.5t-19.5 53.5v503q0 34 19.5 53.5t53.5 19.5h353q34 0 53 -19.5t19 -53.5v-503q0 -34 -19 -53.5t-53 -19.5h-353zM212 110h247v429h-247v-429z" />
    <glyph glyph-name="f_f" unicode="ff" horiz-adv-x="824" 
d="M174 336v108h196q5 -8 10 -22t5 -31q0 -29 -13 -42t-35 -13h-163zM195 486v-133h-133v139q0 65 27 105.5t74 59.5t107 19q68 0 102 -18t34 -56q0 -17 -7 -31t-17 -22q-18 7 -41 11.5t-49 4.5q-49 0 -73 -18t-24 -61zM62 384h139v-383q-9 -2 -26 -5t-37 -3q-39 0 -57.5 14
t-18.5 51v326zM579 336v108h196q5 -8 10 -22t5 -31q0 -29 -13 -42t-35 -13h-163zM600 486v-133h-133v139q0 65 27 105.5t74 59.5t107 19q68 0 102 -18t34 -56q0 -17 -7 -31t-17 -22q-18 7 -41 11.5t-49 4.5q-49 0 -73 -18t-24 -61zM467 384h139v-383q-9 -2 -26 -5t-37 -3
q-39 0 -57.5 14t-18.5 51v326z" />
    <glyph glyph-name="fi" unicode="fi" horiz-adv-x="686" 
d="M174 336v108h196q5 -8 10 -22t5 -31q0 -29 -13 -42t-35 -13h-163zM195 486v-133h-133v139q0 65 27 105.5t74 59.5t107 19q68 0 102 -18t34 -56q0 -17 -7 -31t-17 -22q-18 7 -41 11.5t-49 4.5q-49 0 -73 -18t-24 -61zM62 384h139v-383q-9 -2 -26 -5t-37 -3q-39 0 -57.5 14
t-18.5 51v326zM472 617q0 32 22 54t57 22t57 -22t22 -54t-22 -54.5t-57 -22.5t-57 22.5t-22 54.5zM481 264h140v-263q-9 -2 -26 -5t-37 -3q-40 0 -58.5 14t-18.5 51v206zM621 192h-140v281q9 2 26 5t37 3q40 0 58.5 -14t18.5 -52v-223z" />
    <glyph glyph-name="fl" unicode="fl" horiz-adv-x="689" 
d="M174 336v108h196q5 -8 10 -22t5 -31q0 -29 -13 -42t-35 -13h-163zM195 486v-133h-133v139q0 65 27 105.5t74 59.5t107 19q68 0 102 -18t34 -56q0 -17 -7 -31t-17 -22q-18 7 -41 11.5t-49 4.5q-49 0 -73 -18t-24 -61zM62 384h139v-383q-9 -2 -26 -5t-37 -3q-39 0 -57.5 14
t-18.5 51v326zM484 264l139 -4v-259q-9 -2 -26 -5t-37 -3q-39 0 -57.5 14t-18.5 51v206zM623 188l-139 4v459q9 2 26 5t37 3q40 0 58 -14t18 -51v-406z" />
    <glyph glyph-name="f_f_i" unicode="ffi" horiz-adv-x="1072" 
d="M174 336v108h196q5 -8 10 -22t5 -31q0 -29 -13 -42t-35 -13h-163zM195 486v-133h-133v139q0 65 27 105.5t74 59.5t107 19q68 0 102 -18t34 -56q0 -17 -7 -31t-17 -22q-18 7 -41 11.5t-49 4.5q-49 0 -73 -18t-24 -61zM62 384h139v-383q-9 -2 -26 -5t-37 -3q-39 0 -57.5 14
t-18.5 51v326zM561 336v108h196q5 -8 10 -22t5 -31q0 -29 -13 -42t-35 -13h-163zM582 486v-133h-133v139q0 65 27 105.5t74 59.5t107 19q68 0 102 -18t34 -56q0 -17 -7 -31t-17 -22q-18 7 -41 11.5t-49 4.5q-49 0 -73 -18t-24 -61zM449 384h139v-383q-9 -2 -26 -5t-37 -3
q-39 0 -57.5 14t-18.5 51v326zM859 617q0 32 22 54t57 22t57 -22t22 -54t-22 -54.5t-57 -22.5t-57 22.5t-22 54.5zM868 264h140v-263q-9 -2 -26 -5t-37 -3q-40 0 -58.5 14t-18.5 51v206zM1008 192h-140v281q9 2 26 5t37 3q40 0 58.5 -14t18.5 -52v-223z" />
    <glyph glyph-name="f_f_l" unicode="ffl" horiz-adv-x="1095" 
d="M174 336v108h196q5 -8 10 -22t5 -31q0 -29 -13 -42t-35 -13h-163zM195 486v-133h-133v139q0 65 27 105.5t74 59.5t107 19q68 0 102 -18t34 -56q0 -17 -7 -31t-17 -22q-18 7 -41 11.5t-49 4.5q-49 0 -73 -18t-24 -61zM62 384h139v-383q-9 -2 -26 -5t-37 -3q-39 0 -57.5 14
t-18.5 51v326zM561 336v108h196q5 -8 10 -22t5 -31q0 -29 -13 -42t-35 -13h-163zM582 486v-133h-133v139q0 65 27 105.5t74 59.5t107 19q68 0 102 -18t34 -56q0 -17 -7 -31t-17 -22q-18 7 -41 11.5t-49 4.5q-49 0 -73 -18t-24 -61zM449 384h139v-383q-9 -2 -26 -5t-37 -3
q-39 0 -57.5 14t-18.5 51v326zM873 264l139 -4v-259q-9 -2 -26 -5t-37 -3q-39 0 -57.5 14t-18.5 51v206zM1012 188l-139 4v459q9 2 26 5t37 3q40 0 58 -14t18 -51v-406z" />
    <glyph glyph-name=".notdef" horiz-adv-x="671" 
d="M159 0q-34 0 -53.5 19.5t-19.5 53.5v503q0 34 19.5 53.5t53.5 19.5h353q34 0 53 -19.5t19 -53.5v-503q0 -34 -19 -53.5t-53 -19.5h-353zM212 110h247v429h-247v-429z" />
    <glyph glyph-name=".null" 
 />
    <glyph glyph-name="uni000D" unicode="&#xd;" horiz-adv-x="223" 
 />
    <glyph glyph-name="space" unicode=" " horiz-adv-x="200" 
 />
    <glyph glyph-name="exclam" unicode="!" horiz-adv-x="282" 
d="M212 566q0 -25 -1 -67.5t-3 -93t-6 -100.5t-10 -89q-7 -6 -23.5 -9.5t-29.5 -3.5q-23 0 -39 8t-20 29q-3 25 -6.5 71t-6 101t-3.5 107.5t-1 91.5q36 21 79 21q33 0 51.5 -16.5t18.5 -49.5zM57 65q0 36 22.5 59t60.5 23t60 -23t22 -59q0 -35 -22 -58t-60 -23t-60.5 23
t-22.5 58z" />
    <glyph glyph-name="quotedbl" unicode="&#x22;" horiz-adv-x="362" 
d="M139 392q-10 -5 -22 -7t-27 -2q-22 0 -36.5 8.5t-15.5 30.5l-11 190q26 20 66 20q31 0 47 -12.5t16 -40.5q0 -18 -2.5 -53t-6.5 -71.5t-8 -62.5zM316 392q-9 -5 -21 -7t-28 -2q-22 0 -36 8.5t-15 30.5l-11 190q12 9 28.5 14.5t37.5 5.5q31 0 46.5 -12.5t15.5 -41.5
q0 -17 -2.5 -52t-6 -71.5t-8.5 -62.5z" />
    <glyph glyph-name="numbersign" unicode="#" horiz-adv-x="698" 
d="M588 140h-540q-5 9 -9.5 22.5t-4.5 28.5q0 29 13.5 41.5t35.5 12.5h541q4 -9 9 -22t5 -29q0 -28 -13.5 -41t-36.5 -13zM616 370h-540q-5 9 -9.5 22t-4.5 29q0 29 13.5 41.5t35.5 12.5h541q4 -8 9 -21.5t5 -29.5q0 -28 -13.5 -41t-36.5 -13zM331 476l-104 -478
q-10 -1 -20 -1.5t-20 -0.5q-30 0 -48 12t-18 44q0 20 5.5 43.5t8.5 40.5l103 478q11 1 21.5 1.5t19.5 0.5q30 0 48.5 -11.5t18.5 -43.5q0 -20 -5.5 -43t-9.5 -42zM563 476l-104 -478q-10 -1 -20 -1.5t-20 -0.5q-30 0 -48 12t-18 44q0 20 5.5 43.5t8.5 40.5l103 478
q11 1 21.5 1.5t19.5 0.5q30 0 48.5 -11.5t18.5 -43.5q0 -20 -5.5 -43t-9.5 -42z" />
    <glyph glyph-name="dollar" unicode="$" horiz-adv-x="550" 
d="M211 54h124v-141q-8 -2 -23 -4.5t-32 -2.5q-35 0 -52 13t-17 45v90zM335 534h-124v162q8 2 23 4.5t33 2.5q35 0 51.5 -13t16.5 -45v-111zM256 101q55 0 80 20.5t25 50.5q0 27 -19.5 44t-58.5 29l-57 18q-53 17 -93 39t-62 56t-22 86q0 83 62.5 131.5t171.5 48.5
q57 0 101 -11.5t69.5 -32.5t25.5 -51q0 -20 -10.5 -36.5t-25.5 -26.5q-23 16 -61.5 28t-84.5 12q-50 0 -75.5 -17t-25.5 -45q0 -21 17.5 -35t52.5 -25l56 -17q89 -27 137.5 -72.5t48.5 -123.5q0 -83 -64 -135t-184 -52q-61 0 -109 13t-76 37t-28 56q0 24 15 41.5t33 26.5
q26 -22 67 -39.5t94 -17.5z" />
    <glyph glyph-name="percent" unicode="%" horiz-adv-x="790" 
d="M346 463q0 -70 -44 -111.5t-111 -41.5t-110.5 41.5t-43.5 111.5q0 71 43.5 112t110.5 41t111 -41t44 -112zM141 463q0 -33 14.5 -49.5t35.5 -16.5q22 0 36.5 16.5t14.5 49.5t-14.5 49.5t-36.5 16.5q-21 0 -35.5 -16.5t-14.5 -49.5zM193 98l353 519q30 -5 53 -16.5
t23 -31.5q0 -14 -6.5 -28.5t-18.5 -30.5l-353 -517q-32 3 -54 16t-22 32q0 13 7 27t18 30zM753 146q0 -72 -44 -113t-111 -41q-66 0 -110 41t-44 113q0 70 44 111t110 41q67 0 111 -41t44 -111zM548 146q0 -34 14.5 -51t35.5 -17q22 0 36.5 17t14.5 51q0 32 -14.5 48.5
t-36.5 16.5q-21 0 -35.5 -16.5t-14.5 -48.5z" />
    <glyph glyph-name="ampersand" unicode="&#x26;" horiz-adv-x="661" 
d="M539 111l-53 -48q-39 -41 -94 -60t-113 -19q-75 0 -128 26t-81.5 71.5t-28.5 104.5q0 50 20 87t53 62.5t72 37.5l64 -86q-21 -5 -38 -18t-27.5 -32t-10.5 -44q0 -43 29 -71.5t83 -28.5q23 0 58 10.5t67 42.5l41 63q14 33 19 76.5t5 83.5q16 7 30.5 10t27.5 3
q38 0 51.5 -21t13.5 -55q0 -46 -14.5 -98t-45.5 -97zM566 -14q-34 0 -65 33l-290 294l-26 38q-36 39 -47 68t-11 56q0 42 21 75.5t60.5 52.5t96.5 19q59 0 85.5 -20t26.5 -50q0 -15 -6.5 -29t-17.5 -25q-13 7 -30 11t-35 4q-30 0 -48.5 -14t-18.5 -40q0 -21 12.5 -38
t37.5 -42l324 -322q-2 -31 -21.5 -51t-47.5 -20z" />
    <glyph glyph-name="quotesingle" unicode="'" horiz-adv-x="192" 
d="M146 394q-9 -4 -23 -7.5t-30 -3.5q-23 0 -38.5 10t-16.5 32l-11 185q12 9 29.5 15.5t40.5 6.5q31 0 48.5 -13.5t17.5 -42.5q0 -18 -2.5 -51.5t-6 -69t-8.5 -61.5z" />
    <glyph glyph-name="parenleft" unicode="(" horiz-adv-x="288" 
d="M217 -129q-32 0 -55 20.5t-40 50.5q-34 56 -55 138t-21 189q0 106 22.5 188.5t53.5 136.5q17 30 40 50t55 20q22 0 39.5 -12.5t26.5 -27.5q-50 -72 -77 -157t-27 -198t26 -197t78 -160q-9 -16 -26.5 -28.5t-39.5 -12.5z" />
    <glyph glyph-name="parenright" unicode=")" horiz-adv-x="288" 
d="M72 -129q-23 0 -40.5 12.5t-26.5 28.5q52 76 78 160t26 197t-27 198t-77 157q9 15 26.5 27.5t40.5 12.5q32 0 55 -20t40 -50q31 -54 53 -136.5t22 -188.5q0 -107 -20.5 -189t-54.5 -138q-17 -30 -40 -50.5t-55 -20.5z" />
    <glyph glyph-name="asterisk" unicode="*" horiz-adv-x="333" 
d="M151 544l30 -94l-156 46q-5 15 -5 31q0 21 12.5 33.5t33.5 12.5q7 0 14 -2t15 -5zM219 501l-93 -137q-5 -1 -10 -1.5t-9 -0.5q-28 0 -42.5 11.5t-14.5 30.5q0 10 5 20t13 21l39 47zM142 471l50 67l98 -133q-5 -19 -19 -31t-33 -12q-20 0 -31 11.5t-21 27.5zM135 518
l139 65q15 -6 25.5 -19.5t10.5 -30.5q0 -20 -10.5 -28t-29.5 -16l-69 -30zM208 515l-84 -41l-2 159q7 5 19 10.5t27 5.5q20 0 32 -10t12 -31q0 -5 -1 -24t-2 -39t-1 -30z" />
    <glyph glyph-name="plus" unicode="+" horiz-adv-x="546" 
d="M457 237h-406q-6 10 -10 23t-4 30q0 30 14.5 44t37.5 14h406q5 -9 9.5 -24t4.5 -31q0 -30 -14.5 -43t-37.5 -13zM338 471v-414q-9 -2 -25.5 -4.5t-33.5 -2.5q-33 0 -50.5 11.5t-17.5 48.5v414q10 2 26 5t33 3q33 0 50.5 -12.5t17.5 -48.5z" />
    <glyph glyph-name="comma" unicode="," horiz-adv-x="210" 
d="M121 -80q-26 -37 -68 -37q-37 0 -62 22q13 36 24.5 77t21 81t14.5 72q14 7 33 12t39 5q27 0 45.5 -12t18.5 -42q0 -26 -10.5 -60.5t-25.5 -66.5t-30 -51z" />
    <glyph glyph-name="hyphen" unicode="-" horiz-adv-x="366" 
d="M276 200h-223q-6 10 -10.5 24.5t-4.5 30.5q0 31 14.5 44.5t37.5 13.5h223q4 -9 9.5 -23.5t5.5 -31.5q0 -29 -14.5 -43.5t-37.5 -14.5z" />
    <glyph glyph-name="period" unicode="." horiz-adv-x="205" 
d="M20 68q0 35 22.5 59t60.5 24t60 -24t22 -59t-22 -59.5t-60 -24.5t-60.5 24.5t-22.5 59.5z" />
    <glyph glyph-name="slash" unicode="/" horiz-adv-x="330" 
d="M302 560l-179 -666q-11 -1 -21.5 -1.5t-20.5 -0.5q-34 0 -52.5 15t-18.5 47q0 22 6.5 45t11.5 40l179 666q12 2 23 2.5t20 0.5q32 0 51.5 -14.5t19.5 -45.5q0 -22 -6.5 -44t-12.5 -44z" />
    <glyph glyph-name="zero" unicode="0" horiz-adv-x="598" 
d="M299 -15q-76 0 -134 35.5t-91 106.5t-33 177q0 107 34 177.5t92.5 105.5t131.5 35q72 0 130.5 -35.5t93 -106t34.5 -176.5t-33 -177t-91 -106.5t-134 -35.5zM298 97q56 0 87 52t31 155q0 69 -15 114.5t-41.5 68.5t-61.5 23q-34 0 -60.5 -23t-41 -68.5t-14.5 -114.5
q0 -103 30.5 -155t85.5 -52z" />
    <glyph glyph-name="one" unicode="1" horiz-adv-x="381" 
d="M301 163h-140v312l-109 -41q-15 8 -27.5 23.5t-12.5 41.5q0 49 60 70l122 46h31q35 0 55.5 -20.5t20.5 -55.5v-376zM161 264h140v-264q-9 -2 -26 -5t-37 -3q-40 0 -58.5 14.5t-18.5 50.5v207z" />
    <glyph glyph-name="two" unicode="2" horiz-adv-x="517" 
d="M59 529q0 29 22.5 49.5t62.5 32t92 11.5q74 0 124.5 -23.5t77 -64.5t26.5 -94q0 -54 -30 -104.5t-94 -105.5l-142 -120h259q5 -8 10 -22.5t5 -31.5q0 -29 -13.5 -42.5t-35.5 -13.5h-349q-18 12 -28 31.5t-10 44.5q0 28 11.5 47.5t26.5 32.5l152 137q56 48 76 79.5
t20 60.5q0 35 -25.5 55.5t-74.5 20.5q-41 0 -73.5 -13.5t-54.5 -28.5q-14 10 -24.5 25.5t-10.5 36.5z" />
    <glyph glyph-name="three" unicode="3" horiz-adv-x="514" 
d="M228 622q107 0 167 -45.5t60 -126.5q0 -34 -13.5 -60.5t-34 -44.5t-42.5 -27q28 -10 51.5 -28.5t39 -48t15.5 -72.5q0 -58 -31 -99t-85 -62.5t-125 -21.5q-64 0 -109.5 12.5t-69.5 34t-24 48.5q0 22 11.5 38.5t27.5 25.5q22 -15 57 -31t91 -16t86 22t30 60
q0 36 -25.5 56.5t-81.5 20.5h-91q-6 9 -10 23t-4 32q0 19 4 33t10 23h88q50 0 72 18.5t22 51.5q0 34 -27 53t-79 19q-43 0 -76 -11t-54 -26q-14 9 -24.5 24.5t-10.5 35.5q0 29 23.5 48.5t65 30t96.5 10.5z" />
    <glyph glyph-name="four" unicode="4" horiz-adv-x="584" 
d="M46 270l250 334q16 4 36 7.5t36 3.5q25 0 47 -7t36.5 -23.5t14.5 -47.5v-295h86q5 -8 10 -23t5 -32q0 -30 -14 -44t-36 -14h-51v-129q-8 -2 -26.5 -5t-35.5 -3q-35 0 -54.5 10.5t-19.5 48.5v78h-255q-18 9 -31.5 29t-13.5 48q0 16 3.5 33.5t12.5 30.5zM336 242l1 231h-3
l-157 -231h159z" />
    <glyph glyph-name="five" unicode="5" horiz-adv-x="527" 
d="M230 608l-25 -86l-13 -151q19 7 42 12.5t54 5.5q67 0 112.5 -25.5t70 -70t24.5 -102.5q0 -56 -26 -103t-79.5 -75t-136.5 -28q-60 0 -105 12.5t-70.5 35.5t-25.5 52q0 24 14.5 41t31.5 25q26 -20 60.5 -37t86.5 -17q54 0 81.5 27t27.5 67t-26 64t-76 24q-30 0 -51.5 -8
t-45.5 -20q-41 2 -65.5 23.5t-24.5 62.5v10t1 19l14 165q3 36 22.5 56.5t54.5 20.5h73zM170 494v114h281q6 -9 10.5 -23t4.5 -31q0 -30 -13 -45t-37 -15h-246z" />
    <glyph glyph-name="six" unicode="6" horiz-adv-x="555" 
d="M473 543q0 -18 -8 -34.5t-20 -24.5q-26 12 -54.5 19t-56.5 7q-65 0 -105 -40t-48 -119q20 16 55.5 31.5t79.5 15.5q91 0 146 -52.5t55 -150.5q0 -59 -26.5 -106.5t-77.5 -75.5t-125 -28t-130 34t-86.5 101t-30.5 167q0 87 21.5 150.5t59.5 104t88 60.5t109 20
q47 0 81.5 -9t53.5 -26.5t19 -43.5zM289 97q41 0 64.5 26.5t23.5 71.5t-24 69.5t-65 24.5q-31 0 -59 -13.5t-44 -33.5l1 -14q0 -64 28.5 -97.5t74.5 -33.5z" />
    <glyph glyph-name="seven" unicode="7" horiz-adv-x="474" 
d="M71 608h353q15 -9 25.5 -25.5t10.5 -40.5q0 -14 -2.5 -28t-9.5 -29l-223 -491q-11 -1 -21 -1h-19q-36 0 -59.5 15t-23.5 47q0 18 8.5 38.5t21.5 47.5l173 353h-269q-5 9 -10 24t-5 32q0 30 14 44t36 14z" />
    <glyph glyph-name="eight" unicode="8" horiz-adv-x="563" 
d="M282 -16q-72 0 -126.5 21.5t-84.5 62.5t-30 98q0 51 23.5 86.5t60.5 56.5t76 28l64 18q53 12 81 33t28 57q0 34 -24 53t-68 19q-40 0 -64 -20t-24 -52q0 -27 14 -44.5t39 -27t55 -13.5l82 -31q35 -10 67.5 -29.5t53.5 -52t21 -83.5q0 -56 -30 -96.5t-85 -62t-129 -21.5z
M282 91q48 0 76.5 20.5t28.5 61.5q0 43 -40.5 70.5t-111.5 31.5l-45 27q-62 16 -98 53.5t-36 95.5q0 54 28.5 92t79.5 59t118 21q107 0 168 -46t61 -126q0 -60 -35 -94.5t-87 -49.5l-85 -29q-62 -9 -93 -37.5t-31 -67.5t27.5 -60.5t74.5 -21.5z" />
    <glyph glyph-name="nine" unicode="9" horiz-adv-x="556" 
d="M73 65q0 18 8.5 34.5t20.5 24.5q25 -11 54.5 -19t60.5 -8q47 0 82.5 17.5t55.5 53.5t20 89q-12 -10 -31 -20t-43.5 -16.5t-54.5 -6.5q-58 0 -105 21.5t-75 65.5t-28 110q0 60 27.5 107.5t79 75.5t122.5 28q76 0 131 -34t85.5 -101.5t30.5 -166.5q0 -114 -35 -188.5
t-97.5 -110.5t-145.5 -36q-73 0 -118 20.5t-45 59.5zM276 321q30 0 56 14t39 34v5q0 65 -26.5 100.5t-77.5 35.5q-41 0 -65 -25.5t-24 -69.5q0 -47 28 -70.5t70 -23.5z" />
    <glyph glyph-name="colon" unicode=":" horiz-adv-x="235" 
d="M39 394q0 35 22.5 59.5t59.5 24.5q38 0 60.5 -24.5t22.5 -59.5t-22.5 -59t-60.5 -24q-37 0 -59.5 24t-22.5 59zM35 68q0 35 22 59t60 24t60.5 -24t22.5 -59t-22.5 -59.5t-60.5 -24.5t-60 24.5t-22 59.5z" />
    <glyph glyph-name="semicolon" unicode=";" horiz-adv-x="244" 
d="M41 394q0 35 22 59.5t60 24.5t60.5 -24.5t22.5 -59.5t-22.5 -59t-60.5 -24t-60 24t-22 59zM137 -80q-26 -37 -69 -37q-36 0 -61 22q13 36 24.5 77t20.5 81t15 72q14 7 33 12t39 5q26 0 45 -12t19 -42q0 -26 -10.5 -60.5t-26 -66.5t-29.5 -51z" />
    <glyph glyph-name="less" unicode="&#x3c;" horiz-adv-x="484" 
d="M171 284l280 -134q2 -6 2.5 -12.5t0.5 -13.5q0 -28 -14.5 -49t-49.5 -21q-16 0 -32.5 6.5t-39.5 19.5l-259 135q-21 27 -21 70q0 33 10 51.5t27 28.5l311 157q38 -10 52.5 -28.5t14.5 -39.5q0 -29 -15 -45t-43 -31z" />
    <glyph glyph-name="equal" unicode="=" horiz-adv-x="512" 
d="M421 343h-369q-6 10 -10 23.5t-4 29.5q0 30 14.5 44t38.5 14h369q5 -9 9 -23.5t4 -31.5q0 -30 -14 -43t-38 -13zM421 137h-369q-6 9 -10 22.5t-4 29.5q0 31 14.5 44.5t38.5 13.5h369q5 -9 9 -23.5t4 -31.5q0 -29 -14 -42t-38 -13z" />
    <glyph glyph-name="greater" unicode="&#x3e;" horiz-adv-x="480" 
d="M310 293l-277 131q-1 6 -1.5 12.5t-0.5 12.5q0 28 14.5 49.5t48.5 21.5q16 0 34 -7.5t38 -17.5l256 -134q21 -27 21 -71q0 -33 -9.5 -51t-27.5 -28l-305 -157q-38 10 -52.5 28.5t-14.5 39.5q0 29 15 45.5t43 29.5z" />
    <glyph glyph-name="question" unicode="?" horiz-adv-x="485" 
d="M229 228l-100 -21q-14 10 -26 29t-12 44t13.5 38t41.5 20l75 19q40 11 60 30.5t20 52.5q0 29 -24 51.5t-79 22.5q-40 0 -77.5 -11t-60.5 -28q-14 12 -24.5 28t-10.5 37q0 45 53.5 68.5t136.5 23.5q75 0 127 -24.5t79 -68t27 -99.5q0 -86 -54.5 -137t-164.5 -75zM103 66
q0 35 22.5 58.5t60.5 23.5t60 -23.5t22 -58.5t-22 -58t-60 -23t-60.5 23t-22.5 58z" />
    <glyph glyph-name="at" unicode="@" horiz-adv-x="1046" 
d="M446 199q0 -48 24 -70t60 -22q33 0 56.5 16.5t42.5 45.5l31 -113q-23 -24 -62 -40t-91 -16q-89 0 -144.5 52t-55.5 146q0 73 31 126.5t85.5 83.5t128.5 30q50 0 87.5 -12t63.5 -29q40 -25 40 -61v-12t-1 -11l-29 -258l-128 -1l26 260q-11 6 -26 9.5t-36 3.5
q-44 0 -73.5 -33t-29.5 -95zM629 32q2 21 12.5 40.5t29.5 31t43 11.5q7 -4 18.5 -8t23.5 -4q52 0 80.5 47.5t28.5 123.5q0 83 -40.5 145.5t-112 98t-166.5 35.5q-108 0 -189.5 -45t-127 -123.5t-45.5 -180.5q0 -98 41 -169.5t112.5 -110.5t163.5 -39q42 0 71 4t50 8
q7 -9 12 -22.5t5 -25.5q0 -23 -13.5 -39.5t-45 -25.5t-89.5 -9q-66 0 -130 16.5t-120.5 50t-99 85t-66.5 120.5t-24 157q0 105 37 189t103.5 143.5t156.5 91t197 31.5q102 0 185 -27t143 -78t92 -122t32 -159q0 -132 -62.5 -205t-178.5 -73q-30 0 -65 9.5t-62 27.5z" />
    <glyph glyph-name="A" unicode="A" horiz-adv-x="615" 
d="M313 488h-6q-11 -33 -25 -74.5t-29.5 -86.5t-28.5 -88l-17 -80q-6 -19 -12 -41t-12.5 -43t-12 -40.5t-9.5 -34.5q-11 -4 -24 -7t-32 -3q-38 0 -59 14.5t-21 41.5q0 12 4 24.5t8 28.5q10 33 26.5 83t36.5 108.5t40.5 116t38.5 106.5t30 79q14 8 42.5 15.5t56.5 7.5
q40 0 72 -11.5t40 -37.5q20 -53 43 -123.5t47 -146.5t45.5 -148t38.5 -130q-10 -12 -30 -19.5t-46 -7.5q-39 0 -55 13.5t-24 42.5l-36 119l-15 78q-14 46 -28 91t-26 84.5t-21 68.5zM145 138l54 112h240l19 -112h-313z" />
    <glyph glyph-name="B" unicode="B" horiz-adv-x="612" 
d="M393 362v-103h-230v103h230zM313 259l14 79q81 0 134.5 -20t81 -56.5t27.5 -86.5q0 -96 -71.5 -142.5t-202.5 -46.5q-24 0 -54.5 1.5t-61 6.5t-56.5 14q-51 18 -51 64v482q0 19 11 30t29 17q34 11 81 16t97 5q122 0 189.5 -42.5t67.5 -129.5q0 -48 -27.5 -82t-79.5 -52
t-129 -18l-7 64q51 0 75.5 20t24.5 57q0 35 -28.5 54t-84.5 19q-21 0 -43 -1.5t-36 -4.5v-401q17 -4 42.5 -6t48.5 -2q55 0 87 20.5t32 63.5q0 39 -28 58.5t-82 19.5z" />
    <glyph glyph-name="C" unicode="C" horiz-adv-x="577" 
d="M538 526q0 -21 -11.5 -37.5t-26.5 -25.5q-25 17 -56.5 30.5t-76.5 13.5q-55 0 -94.5 -23.5t-61.5 -69t-22 -111.5q0 -100 50 -151.5t135 -51.5q45 0 77 12.5t57 28.5q15 -10 24.5 -27t9.5 -39q0 -18 -10 -34t-33 -28q-20 -10 -55.5 -19.5t-87.5 -9.5q-88 0 -159.5 34.5
t-113.5 105t-42 179.5q0 104 41.5 175.5t111.5 108.5t154 37q59 0 101.5 -13.5t65.5 -35.5t23 -49z" />
    <glyph glyph-name="D" unicode="D" horiz-adv-x="661" 
d="M473 304q0 -100 -49 -151t-134 -51q-19 0 -39 1.5t-35 5.5v391q16 3 34 4t37 1q55 0 96.5 -21.5t65.5 -66t24 -113.5zM620 306q0 107 -43 177t-119 104.5t-178 34.5q-38 0 -83 -4t-84 -17q-18 -6 -29 -16.5t-11 -30.5v-483q0 -45 51 -63q38 -14 85.5 -18t80.5 -4
q99 0 173 35t115.5 106.5t41.5 178.5z" />
    <glyph glyph-name="E" unicode="E" horiz-adv-x="542" 
d="M73 416h140v-409q-9 -3 -26.5 -6t-37.5 -3q-35 0 -55.5 21t-20.5 55v342zM213 191h-140v339q0 36 20.5 56.5t55.5 20.5q20 0 37.5 -3t26.5 -6v-407zM149 253v113h302q6 -9 10.5 -23t4.5 -32q0 -29 -13 -43.5t-37 -14.5h-267zM149 -2v114h336q5 -8 9.5 -23t4.5 -33
q0 -29 -13 -43.5t-37 -14.5h-300zM149 493v114h331q6 -9 10.5 -23t4.5 -32q0 -30 -13 -44.5t-37 -14.5h-296z" />
    <glyph glyph-name="F" unicode="F" horiz-adv-x="526" 
d="M215 249h-142v281q0 36 20.5 56.5t55.5 20.5q20 0 38.5 -3t27.5 -6v-349zM148 231v115h300q5 -9 10 -23.5t5 -32.5q0 -29 -13.5 -44t-36.5 -15h-265zM149 491v116h333q6 -9 10.5 -24t4.5 -32q0 -30 -13.5 -45t-37.5 -15h-297zM73 314h144v-313q-9 -2 -28 -5t-39 -3
q-41 0 -59 15.5t-18 51.5v254z" />
    <glyph glyph-name="G" unicode="G" horiz-adv-x="655" 
d="M599 298v-210q0 -27 -11 -41t-34 -27q-27 -15 -77 -25.5t-100 -10.5q-95 0 -171.5 33t-120.5 104t-44 181q0 106 45 177.5t120.5 108t166.5 36.5q61 0 106.5 -13t70 -35.5t24.5 -50.5q0 -21 -11 -37.5t-26 -25.5q-26 16 -63.5 30.5t-89.5 14.5q-57 0 -101 -24.5t-69 -70
t-25 -109.5q0 -69 24.5 -114t67.5 -67t98 -22q27 0 48.5 5t33.5 10v126h-122q-5 9 -9.5 24t-4.5 31q0 30 13.5 43.5t36.5 13.5h168q26 0 41 -14.5t15 -40.5z" />
    <glyph glyph-name="H" unicode="H" horiz-adv-x="666" 
d="M73 415h144v-414q-10 -2 -28.5 -5t-38.5 -3q-42 0 -59.5 15.5t-17.5 51.5v355zM217 240h-144v367q10 2 29 5.5t38 3.5q40 0 58.5 -14.5t18.5 -53.5v-308zM449 415h144v-414q-10 -2 -28.5 -5t-38.5 -3q-41 0 -59 15.5t-18 51.5v355zM593 240h-144v367q10 2 29 5.5t38 3.5
q40 0 58.5 -15t18.5 -54v-307zM531 248h-392v114h392v-114z" />
    <glyph glyph-name="I" unicode="I" horiz-adv-x="290" 
d="M74 415h143v-414q-9 -2 -28 -5t-39 -3q-41 0 -58.5 15.5t-17.5 51.5v355zM217 240h-143v367q9 2 28 5.5t38 3.5q40 0 58.5 -14.5t18.5 -53.5v-308z" />
    <glyph glyph-name="J" unicode="J" horiz-adv-x="403" 
d="M189 290h143v-121q0 -59 -23 -100t-65 -62t-100 -21q-54 0 -88 17.5t-34 58.5q0 18 6 31t13 21q17 -5 33.5 -8t34.5 -3q41 0 60.5 20.5t19.5 62.5v104zM332 231h-143v376q9 2 28 5.5t38 3.5q40 0 58.5 -14.5t18.5 -53.5v-317z" />
    <glyph glyph-name="K" unicode="K" horiz-adv-x="598" 
d="M154 321l156 22q87 -90 154 -161.5t110 -114.5q0 -36 -23.5 -56.5t-54.5 -20.5q-33 0 -54.5 17t-42.5 40zM314 271l-178 -5l311 346q54 0 78 -21t24 -50q0 -21 -11 -40t-35 -43zM73 416h144v-415q-10 -3 -28.5 -5.5t-38.5 -2.5q-42 0 -59.5 15t-17.5 52v356zM217 241
h-144v366q10 2 29 5.5t38 3.5q40 0 58.5 -14.5t18.5 -53.5v-307z" />
    <glyph glyph-name="L" unicode="L" horiz-adv-x="509" 
d="M73 412h144v-405l-68 -9q-34 0 -55 21t-21 55v338zM149 -2v117h316q7 -9 12 -24t5 -32q0 -30 -14 -45.5t-37 -15.5h-282zM217 240h-144v367q10 2 29 5.5t38 3.5q40 0 58.5 -14.5t18.5 -53.5v-308z" />
    <glyph glyph-name="M" unicode="M" horiz-adv-x="791" 
d="M467 152q-11 -8 -28.5 -14t-39.5 -6q-29 0 -49 7.5t-26 25.5q-37 97 -62 164.5t-40 114.5h-5q-3 -64 -5 -118t-3.5 -104.5t-4 -103.5t-5.5 -115q-11 -4 -28 -7t-35 -3q-36 0 -55.5 12.5t-19.5 41.5q0 21 2.5 64.5t6 101t7.5 121.5t8.5 126.5t7.5 115.5q8 10 31 22t62 12
q43 0 68.5 -14t36.5 -44q17 -39 35 -88t36 -99t33 -91h5q30 91 61 177t54 143q13 7 33.5 11.5t43.5 4.5q40 0 65 -12t30 -35q4 -19 8.5 -60t9.5 -95t10 -113t9 -114.5t7.5 -100.5t4.5 -71q-15 -8 -30.5 -12t-38.5 -4q-30 0 -51.5 11t-23.5 43q-4 81 -7.5 154.5t-5.5 135
t-4 104.5h-5q-14 -45 -39.5 -113.5t-63.5 -175.5z" />
    <glyph glyph-name="N" unicode="N" horiz-adv-x="673" 
d="M73 447l130 2q4 -41 6 -83t2.5 -81.5t0.5 -77.5v-206q-9 -2 -27.5 -5t-36.5 -3q-41 0 -58 14.5t-17 50.5v389zM599 162l-129 -2q-8 75 -8.5 143.5t-0.5 131.5v173q9 2 27 5t37 3q40 0 57 -14.5t17 -50.5v-389zM599 208v84v-274q-12 -11 -34 -18t-53 -7q-32 0 -59.5 10.5
t-46.5 46.5l-130 242q-12 23 -23.5 46.5t-22 46.5t-20.5 45l-137 -31v183q12 16 36 24.5t52 8.5q32 0 60 -11t46 -47l131 -242q12 -22 23.5 -45.5t22.5 -47t20 -45.5z" />
    <glyph glyph-name="O" unicode="O" horiz-adv-x="698" 
d="M656 304q0 -104 -40 -175.5t-109.5 -108t-157.5 -36.5t-158 36.5t-110 108t-40 175.5t41 175t110.5 108t156.5 37q86 0 156 -37t110.5 -108t40.5 -175zM509 304q0 99 -43.5 151t-116.5 52q-72 0 -116 -51.5t-44 -151.5q0 -101 43.5 -152.5t116.5 -51.5q74 0 117 51.5
t43 152.5z" />
    <glyph glyph-name="P" unicode="P" horiz-adv-x="576" 
d="M73 198v356q0 19 11 29.5t29 17.5q32 11 77 16t83 5q134 0 202 -57.5t68 -154.5q0 -64 -30 -111.5t-86.5 -74t-137.5 -26.5h-216zM150 -7q-42 0 -59.5 15.5t-17.5 51.5v201h144v-260q-10 -2 -28.5 -5t-38.5 -3zM216 311h64q54 0 86 25t32 73q0 49 -30 73t-86 24
q-20 0 -36 -1t-30 -4v-190z" />
    <glyph glyph-name="Q" unicode="Q" horiz-adv-x="700" 
d="M333 4l146 29q40 -21 76 -36.5t69 -27t64 -21.5q2 -7 2 -11.5v-8.5q0 -44 -23.5 -65t-62.5 -21q-41 0 -91 26t-106 73zM656 305q0 -104 -40 -175.5t-109.5 -108t-157.5 -36.5t-158 36.5t-110 108t-40 175.5t41 175t110.5 107.5t156.5 36.5q86 0 156 -36.5t110.5 -107.5
t40.5 -175zM509 305q0 99 -43.5 150.5t-116.5 51.5q-72 0 -116 -51t-44 -151q0 -101 43.5 -152t116.5 -51q74 0 117 51t43 152z" />
    <glyph glyph-name="R" unicode="R" horiz-adv-x="602" 
d="M215 318h72q53 0 85 24t32 70q0 47 -31 70.5t-94 23.5q-18 0 -34 -1.5t-30 -4.5v-182zM299 208h-226v346q0 19 11 29.5t29 17.5q32 11 76 16t92 5q133 0 200.5 -56t67.5 -152q0 -61 -32 -107.5t-88 -72.5t-130 -26zM275 242l125 31q24 -31 49.5 -63t48.5 -62t42 -55
t29 -42q-8 -28 -30 -44t-48 -16q-34 0 -53 15.5t-35 41.5zM73 260h144v-259q-10 -2 -28.5 -5t-38.5 -3q-42 0 -59.5 15.5t-17.5 51.5v200z" />
    <glyph glyph-name="S" unicode="S" horiz-adv-x="541" 
d="M253 101q55 0 80 20.5t25 50.5q0 27 -19.5 44t-58.5 29l-57 18q-53 17 -92.5 39t-62 56t-22.5 86q0 83 62.5 131.5t171.5 48.5q57 0 101 -11.5t69.5 -32.5t25.5 -51q0 -20 -10 -36.5t-25 -26.5q-23 16 -62 28t-85 12q-49 0 -74.5 -17t-25.5 -45q0 -21 17 -35t52 -25
l56 -17q90 -27 138.5 -72.5t48.5 -123.5q0 -83 -64.5 -135t-184.5 -52q-61 0 -109 13t-75.5 37t-27.5 56q0 24 14.5 41.5t32.5 26.5q27 -22 68 -39.5t93 -17.5z" />
    <glyph glyph-name="T" unicode="T" horiz-adv-x="545" 
d="M211 491l-2 116h299q6 -9 10.5 -24t4.5 -32q0 -30 -13.5 -45t-37.5 -15h-261zM333 607l2 -116h-300q-5 9 -10 24t-5 32q0 31 14 45.5t37 14.5h262zM199 518h143v-517q-9 -2 -28 -5t-38 -3q-42 0 -59.5 15.5t-17.5 51.5v458z" />
    <glyph glyph-name="U" unicode="U" horiz-adv-x="659" 
d="M329 -16q-81 0 -139 29t-88.5 82t-30.5 123v68h143v-64q0 -58 32.5 -90t82.5 -32t83 32t33 90v64h143v-68q0 -70 -31 -123t-88.5 -82t-139.5 -29zM214 254h-143v353q9 2 28.5 5.5t37.5 3.5q41 0 59 -14.5t18 -53.5v-294zM588 253h-143v354q9 2 28 5.5t38 3.5
q41 0 59 -14.5t18 -53.5v-295z" />
    <glyph glyph-name="V" unicode="V" horiz-adv-x="617" 
d="M400 16q-10 -9 -34.5 -16.5t-53.5 -7.5q-33 0 -58.5 10t-34.5 28q-14 29 -34 77t-43 108.5t-45.5 124t-42 126t-32.5 113.5q11 12 32.5 22t46.5 10q31 0 49.5 -14t27.5 -47q33 -109 65.5 -209.5t68.5 -207.5h5q22 67 45 144t45.5 158t41.5 159q15 8 31.5 12.5t36.5 4.5
q30 0 51 -14t21 -45q0 -19 -10 -61t-27.5 -96t-38.5 -112.5t-42.5 -112.5t-40 -95t-30.5 -59z" />
    <glyph glyph-name="W" unicode="W" horiz-adv-x="843" 
d="M350 458q10 4 29.5 9.5t39.5 5.5q35 0 58 -10.5t28 -30.5q19 -61 33.5 -111.5t28.5 -98t28 -99.5h4q15 85 26.5 162t22.5 153t21 157q30 16 64 16q31 0 52.5 -13.5t21.5 -43.5q0 -21 -5 -60.5t-13 -91t-19 -106.5t-23 -108t-24 -97t-23 -71q-13 -11 -40.5 -18.5
t-57.5 -7.5q-37 0 -64 11t-33 29q-11 30 -24 71.5t-27.5 90.5t-28.5 101q-12 -51 -26 -103t-27.5 -97.5t-24.5 -77.5q-12 -10 -36.5 -17.5t-54.5 -7.5q-37 0 -66 11t-38 29q-10 23 -23.5 70t-28.5 108.5t-28.5 127.5t-24.5 129t-17 113q11 11 32 20t44 9q32 0 51.5 -13.5
t24.5 -46.5q16 -88 26.5 -153t19 -114t15.5 -87.5t14 -73.5h5q11 42 20.5 78.5t20 73.5t22 81.5t25.5 101.5z" />
    <glyph glyph-name="X" unicode="X" horiz-adv-x="598" 
d="M253 272l-29 7l-192 267q8 25 30 46t57 21q25 0 43.5 -13t37.5 -42l133 -199l37 -24l198 -277q-6 -30 -28 -48t-58 -18q-24 0 -41.5 12.5t-36.5 41.5zM362 274l-41 -27l-172 -253q-6 -1 -13 -1.5t-13 -0.5q-44 0 -66.5 18.5t-22.5 46.5q0 24 11 42t29 42l150 193l61 49
l153 222q7 2 18 4t23 2q36 0 57 -18t21 -44q0 -22 -11.5 -40t-30.5 -43q-37 -48 -75 -96t-78 -96z" />
    <glyph glyph-name="Y" unicode="Y" horiz-adv-x="566" 
d="M356 198h-128q-26 39 -57 87t-61 98.5t-56.5 98t-43.5 86.5q10 16 29 29.5t46 13.5q33 0 52.5 -14t37.5 -50q5 -8 16.5 -29.5t26 -49.5t29.5 -56t26 -49t15 -28h6q24 48 43.5 88.5t38 82.5t40.5 90q14 7 31.5 11t32.5 4q30 0 49.5 -15.5t19.5 -45.5q0 -11 -10 -35.5
t-32.5 -66t-59.5 -103t-91 -147.5zM221 251h140v-250q-9 -2 -27.5 -5t-36.5 -3q-42 0 -59 15t-17 51v192z" />
    <glyph glyph-name="Z" unicode="Z" horiz-adv-x="559" 
d="M76 157l360 452h44q36 -30 36 -77q0 -21 -9.5 -41t-24.5 -39l-359 -452h-51q-14 12 -23.5 31t-9.5 43q0 22 10.5 43t26.5 40zM92 0l62 118h353q6 -10 11 -24.5t5 -33.5q0 -30 -14 -45t-38 -15h-379zM453 609l-49 -118h-340q-6 9 -11 24t-5 33q0 30 14 45.5t38 15.5h353z
" />
    <glyph glyph-name="bracketleft" unicode="[" horiz-adv-x="291" 
d="M54 -43v611h129v-611h-129zM54 -19h217q5 -9 9 -22t4 -29q0 -28 -13 -41t-35 -13h-118q-33 0 -48.5 19t-15.5 45v41zM118 656h153q5 -9 9 -22.5t4 -28.5q0 -28 -13 -41t-35 -13h-182v41q0 26 15.5 45t48.5 19z" />
    <glyph glyph-name="backslash" unicode="\" horiz-adv-x="354" 
d="M151 624l179 -653q-11 -12 -31.5 -21t-39.5 -9q-23 0 -39 9.5t-23 34.5l-179 653q12 12 32.5 21t39.5 9q22 0 38 -9.5t23 -34.5z" />
    <glyph glyph-name="bracketright" unicode="]" horiz-adv-x="301" 
d="M237 578v-614h-129v614h129zM237 551h-217q-5 9 -9 22.5t-4 28.5q0 28 13 41t36 13h117q33 0 48.5 -19t15.5 -45v-41zM173 -124h-153q-5 9 -9 22.5t-4 28.5q0 28 13 41t36 13h181v-41q0 -26 -15.5 -45t-48.5 -19z" />
    <glyph glyph-name="asciicircum" unicode="^" horiz-adv-x="479" 
d="M167 643q10 8 29 13.5t43 5.5q57 0 74 -30q12 -19 29.5 -54t36 -78t34.5 -84.5t25 -72.5q-10 -10 -27 -19t-37 -9q-26 0 -40.5 11t-26.5 40l-70 177h-5q-7 -18 -16.5 -43.5t-20 -55t-20 -59.5t-16.5 -56q-13 -8 -28.5 -11.5t-30.5 -3.5q-24 0 -41.5 11.5t-17.5 38.5
q0 13 10 39.5t24.5 61t32 69t33.5 64t26 45.5z" />
    <glyph glyph-name="underscore" unicode="_" horiz-adv-x="494" 
d="M442 -166h-429q-5 9 -9 22.5t-4 30.5q0 30 14.5 44t37.5 14h428q5 -9 9.5 -24t4.5 -31q0 -30 -14.5 -43t-37.5 -13z" />
    <glyph glyph-name="grave" unicode="`" horiz-adv-x="302" 
d="M129 549l-97 93q-1 4 -1.5 10t-0.5 10q0 29 17.5 46t43.5 17q17 0 32 -6.5t29 -23.5l89 -112q-3 -28 -20 -42.5t-38 -14.5q-18 0 -30 6t-24 17z" />
    <glyph glyph-name="a" unicode="a" horiz-adv-x="529" 
d="M253 -15q-101 0 -160.5 39t-59.5 117q0 68 42 104t125 44l134 14v15q0 36 -27 52t-76 16q-38 0 -75 -9.5t-66 -22.5q-11 8 -19 23.5t-8 32.5q0 40 43 58q29 12 67 18t75 6q101 0 161.5 -42.5t60.5 -133.5v-228q0 -25 -12.5 -39.5t-31.5 -26.5q-29 -17 -73 -27t-100 -10z
M253 89q26 0 48.5 5t33.5 12v102l-90 -8q-36 -3 -56 -16t-20 -38q0 -26 20 -41.5t64 -15.5z" />
    <glyph glyph-name="b" unicode="b" horiz-adv-x="576" 
d="M308 492q65 0 117.5 -28t83 -84t30.5 -140q0 -83 -32.5 -140t-90.5 -86t-135 -29q-60 0 -104 14.5t-74 34.5q-21 14 -31 31.5t-10 40.5v320h139v-310q12 -7 32 -13.5t47 -6.5q52 0 84 36t32 108q0 74 -31 108t-82 34q-34 0 -59.5 -12.5t-43.5 -27.5l-5 112q23 14 56.5 26
t76.5 12zM201 393h-139v258q9 2 26 5t37 3q40 0 58 -14t18 -51v-201z" />
    <glyph glyph-name="c" unicode="c" horiz-adv-x="485" 
d="M313 381q-56 0 -95 -37t-39 -107t37.5 -105t96.5 -35q34 0 59 8.5t43 19.5q16 -12 25 -25.5t9 -32.5q0 -36 -40.5 -58.5t-109.5 -22.5q-78 0 -137.5 28t-92 84.5t-32.5 138.5q0 86 35.5 142.5t94 84.5t128.5 28q68 0 108 -24t40 -61q0 -16 -8.5 -30t-20.5 -24
q-18 11 -43 19.5t-58 8.5z" />
    <glyph glyph-name="d" unicode="d" horiz-adv-x="573" 
d="M372 113v306h139v-323q0 -23 -10 -38.5t-31 -28.5q-26 -17 -69 -30.5t-98 -13.5q-82 0 -141.5 27.5t-92 84t-32.5 140.5q0 88 33 144t89 83.5t125 27.5q36 0 65 -8.5t47 -19.5v-116q-15 13 -38.5 23.5t-55.5 10.5q-36 0 -64 -15t-43.5 -47.5t-15.5 -83.5q0 -72 33 -106
t90 -34q24 0 41.5 5.5t28.5 11.5zM511 391h-139v260q8 2 25.5 5t36.5 3q41 0 59 -14t18 -51v-203z" />
    <glyph glyph-name="e" unicode="e" horiz-adv-x="539" 
d="M124 171l-6 96l256 39q-3 32 -26.5 57t-68.5 25q-48 0 -79 -32t-33 -92l4 -63q9 -58 48 -84t95 -26q42 0 78.5 12t58.5 26q14 -9 23.5 -24t9.5 -32q0 -28 -23.5 -48t-63.5 -30t-92 -10q-78 0 -138.5 29t-95 87t-34.5 144q0 62 20 109t53.5 77.5t77 45.5t90.5 15
q68 0 118.5 -27t79.5 -74t29 -108q0 -30 -16 -45.5t-44 -19.5z" />
    <glyph glyph-name="f" unicode="f" horiz-adv-x="419" 
d="M174 336v108h196q5 -8 10 -22t5 -31q0 -29 -13 -42t-35 -13h-163zM195 486v-133h-133v139q0 65 27 105.5t74 59.5t107 19q68 0 102 -18t34 -56q0 -17 -7 -31t-17 -22q-18 7 -41 11.5t-49 4.5q-49 0 -73 -18t-24 -61zM62 384h139v-383q-9 -2 -26 -5t-37 -3q-39 0 -57.5 14
t-18.5 51v326z" />
    <glyph glyph-name="g" unicode="g" horiz-adv-x="555" 
d="M258 18q-60 0 -110 23t-80.5 75t-30.5 137q0 79 31 132t87.5 80t130.5 27q54 0 99 -13.5t71 -30.5q18 -12 29 -28.5t11 -40.5v-313h-135v299q-12 7 -29 12t-41 5q-51 0 -83 -31.5t-32 -97.5q0 -73 30.5 -101t75.5 -28q35 0 57 12t38 27l5 -112q-20 -13 -50.5 -23
t-73.5 -10zM363 2v95h133v-99q0 -69 -32.5 -112.5t-87 -64t-122.5 -20.5q-52 0 -91.5 9t-60.5 22q-34 22 -34 60q0 20 8.5 35.5t20.5 23.5q26 -16 63 -28t79 -12q58 0 91 22t33 69z" />
    <glyph glyph-name="h" unicode="h" horiz-adv-x="573" 
d="M513 203h-139v90q0 47 -25 68t-63 21q-33 0 -59.5 -12.5t-45.5 -27.5l-5 112q23 14 57.5 26t77.5 12q93 0 147.5 -48t54.5 -144v-97zM62 264h139v-263q-9 -2 -26 -5t-37 -3q-39 0 -57.5 14t-18.5 51v206zM374 264l139 -1v-262q-9 -2 -26 -5t-37 -3q-40 0 -58 14t-18 51
v206zM201 192h-139v459q9 2 26 5t37 3q40 0 58 -14t18 -51v-402z" />
    <glyph glyph-name="i" unicode="i" horiz-adv-x="268" 
d="M55 617q0 32 22 54t57 22t57 -22t22 -54t-22 -54.5t-57 -22.5t-57 22.5t-22 54.5zM64 264h140v-263q-9 -2 -26 -5t-37 -3q-40 0 -58.5 14t-18.5 51v206zM204 192h-140v281q9 2 26 5t37 3q40 0 58.5 -14t18.5 -52v-223z" />
    <glyph glyph-name="j" unicode="j" horiz-adv-x="272" 
d="M-3 -117q24 12 40 26t23.5 34t7.5 51v262h140v-277q0 -63 -19.5 -101t-50 -55.5t-62.5 -17.5q-37 0 -57 22.5t-22 55.5zM56 617q0 32 22 54t57 22t57 -22t22 -54t-22 -54.5t-57 -22.5t-57 22.5t-22 54.5zM208 188l-140 4v281q9 2 26.5 5t37.5 3q40 0 58 -14t18 -52v-227z
" />
    <glyph glyph-name="k" unicode="k" horiz-adv-x="532" 
d="M262 195l-99 64l226 227q43 -1 68 -19.5t25 -47.5q0 -25 -16.5 -44t-51.5 -48zM168 238l109 50l226 -216q-3 -37 -22.5 -58.5t-53.5 -21.5q-26 0 -47 13t-45 42zM62 265l139 -4v-260q-9 -2 -26 -5t-37 -3q-39 0 -57.5 14t-18.5 51v207zM201 189l-139 4v458q9 2 26 5t37 3
q40 0 58 -14t18 -51v-405z" />
    <glyph glyph-name="l" unicode="l" horiz-adv-x="271" 
d="M66 264l139 -4v-259q-9 -2 -26 -5t-37 -3q-39 0 -57.5 14t-18.5 51v206zM205 188l-139 4v459q9 2 26 5t37 3q40 0 58 -14t18 -51v-406z" />
    <glyph glyph-name="m" unicode="m" horiz-adv-x="836" 
d="M488 329v-113h-140v96q0 36 -21 53t-54 17q-23 0 -42 -7t-32 -15v-144h-139v157q0 24 10.5 40t30.5 30q32 22 79.5 35.5t97.5 13.5q49 0 90.5 -15t70.5 -45q8 -6 15 -12.5t11 -14.5q9 -15 16 -35t7 -41zM776 317v-101h-139v96q0 36 -20.5 53t-53.5 17q-24 0 -46.5 -10
t-38.5 -25l-72 82q32 26 74.5 44.5t101.5 18.5q52 0 96.5 -17.5t71 -56t26.5 -101.5zM60 262h139v-261q-9 -2 -26 -5t-37 -3q-39 0 -57.5 14t-18.5 51v204zM348 262h140v-261q-9 -2 -26.5 -5t-36.5 -3q-40 0 -58.5 14t-18.5 51v204zM637 262h139v-261q-9 -2 -26 -5t-37 -3
q-40 0 -58 14t-18 51v204z" />
    <glyph glyph-name="n" unicode="n" horiz-adv-x="572" 
d="M511 310v-95h-139v91q0 39 -23 57.5t-61 18.5q-27 0 -49 -6.5t-40 -16.5v-144h-139v158q0 25 10.5 40.5t30.5 29.5q31 21 80 35t109 14q105 0 163 -46.5t58 -135.5zM60 262h139v-261q-9 -2 -26 -5t-37 -3q-39 0 -57.5 14t-18.5 51v204zM372 262h139v-261q-9 -2 -26 -5
t-36 -3q-40 0 -58.5 14t-18.5 51v204z" />
    <glyph glyph-name="o" unicode="o" horiz-adv-x="575" 
d="M538 239q0 -78 -31 -135t-87 -88t-132 -31t-132.5 30.5t-87.5 87.5t-31 136q0 78 31.5 134.5t88 87.5t131.5 31t131 -31t87.5 -88t31.5 -134zM287 382q-49 0 -78 -37.5t-29 -105.5q0 -70 28.5 -107t79.5 -37q50 0 78.5 37.5t28.5 106.5q0 67 -28.5 105t-79.5 38z" />
    <glyph glyph-name="p" unicode="p" horiz-adv-x="572" 
d="M292 -14q-38 0 -69 9.5t-52 21.5v119q18 -15 42.5 -27t58.5 -12q56 0 88 35.5t32 108.5q0 51 -14.5 81.5t-40.5 45t-61 14.5q-25 0 -44 -6t-33 -14v-309h-139v326q0 25 10 41t30 29q30 18 75 30.5t101 12.5q75 0 133.5 -26t92 -81.5t33.5 -143.5q0 -84 -31.5 -140.5
t-86.5 -85.5t-125 -29zM136 -187q-39 0 -57.5 14.5t-18.5 50.5v212l139 -1v-268q-9 -2 -26 -5t-37 -3z" />
    <glyph glyph-name="q" unicode="q" horiz-adv-x="573" 
d="M512 72h-139v293q-11 7 -28.5 12t-40.5 5q-37 0 -65.5 -15.5t-44 -47.5t-15.5 -82q0 -73 32.5 -107t88.5 -34q29 0 51 9t36 22v-117q-18 -11 -45.5 -18t-61.5 -7q-71 0 -125.5 27.5t-86 84t-31.5 140.5q0 85 33.5 141.5t92.5 85t138 28.5q53 0 99 -13t72 -30
q19 -12 29.5 -28t10.5 -40v-309zM373 90l139 1v-273q-9 -2 -26 -5t-37 -3q-40 0 -58 14.5t-18 50.5v215z" />
    <glyph glyph-name="r" unicode="r" horiz-adv-x="401" 
d="M199 354v-129h-139v144q0 27 13 46t36 34q32 19 78.5 30.5t98.5 11.5q99 0 99 -64q0 -15 -4.5 -28t-10.5 -23q-10 2 -25 3.5t-31 1.5q-32 0 -62.5 -7t-52.5 -20zM60 264l139 -4v-259q-9 -2 -26 -5t-37 -3q-39 0 -57.5 14t-18.5 51v206z" />
    <glyph glyph-name="s" unicode="s" horiz-adv-x="477" 
d="M441 138q0 -72 -54 -113t-156 -41q-82 0 -134.5 24.5t-52.5 68.5q0 19 9 34.5t22 24.5q29 -17 66 -31t85 -14q77 0 77 46q0 19 -14 30.5t-44 17.5l-48 12q-77 16 -115 51t-38 95q0 68 55 109t149 41q49 0 87.5 -9.5t61 -28.5t22.5 -46q0 -19 -8 -33.5t-20 -23.5
q-11 7 -33 15t-48.5 13.5t-50.5 5.5q-36 0 -57.5 -11t-21.5 -32q0 -14 12 -24.5t42 -17.5l44 -10q87 -20 125 -57t38 -96z" />
    <glyph glyph-name="t" unicode="t" horiz-adv-x="388" 
d="M61 264h139v-111q0 -30 18.5 -43t51.5 -13q16 0 33.5 3.5t30.5 8.5q8 -8 14 -20.5t6 -29.5q0 -31 -27.5 -52t-90.5 -21q-82 0 -128.5 37t-46.5 120v121zM148 359v108h194q5 -8 9.5 -22t4.5 -31q0 -28 -13 -41.5t-35 -13.5h-160zM200 238h-139v360q9 3 26.5 6t36.5 3
q39 0 57.5 -14t18.5 -51v-304z" />
    <glyph glyph-name="u" unicode="u" horiz-adv-x="571" 
d="M60 185v74h139v-73q0 -48 25 -69.5t70 -21.5q29 0 48.5 5.5t29.5 11.5v147h139v-162q0 -24 -8.5 -40.5t-29.5 -29.5q-31 -19 -77 -30.5t-103 -11.5q-70 0 -122.5 21t-81.5 65t-29 114zM511 213h-139v263q9 2 26 5t37 3q40 0 58 -13.5t18 -51.5v-206zM199 213h-139v263
q9 2 26 5t37 3q40 0 58 -13.5t18 -51.5v-206z" />
    <glyph glyph-name="v" unicode="v" horiz-adv-x="528" 
d="M432 487q29 0 48.5 -12.5t19.5 -43.5q0 -17 -10.5 -55t-27 -87.5t-36.5 -102t-40.5 -98.5t-36.5 -77q-11 -8 -33 -14t-50 -6q-31 0 -54 8.5t-32 26.5q-11 21 -27.5 59t-34.5 87t-36.5 100.5t-34 100t-24.5 84.5q12 13 31.5 21.5t42.5 8.5q29 0 47.5 -12.5t27.5 -45.5
l47 -162q8 -27 17 -56t17 -54.5t13 -42.5h4q27 83 52.5 176.5t45.5 181.5q28 15 64 15z" />
    <glyph glyph-name="w" unicode="w" horiz-adv-x="770" 
d="M388 297q-12 -52 -28.5 -106t-31.5 -101.5t-25 -76.5q-11 -10 -30.5 -16t-47.5 -6q-32 0 -56.5 9.5t-32.5 27.5q-10 20 -21.5 57t-23.5 85t-24 100t-22 100.5t-17 87.5q12 12 31 20.5t43 8.5q29 0 47.5 -13.5t22.5 -46.5q10 -64 18.5 -115t15.5 -89t12.5 -63.5t8.5 -38.5
h4q6 23 19 71.5t31 111t35 126.5q16 9 33 14t40 5q29 0 49.5 -9.5t26.5 -29.5q19 -62 35.5 -120t28.5 -102.5t17 -67.5h5q15 82 31.5 171.5t27.5 179.5q29 16 63 16q29 0 47.5 -12.5t18.5 -42.5q0 -14 -5.5 -45.5t-14.5 -72t-20.5 -86t-23 -87.5t-22 -75.5t-18.5 -52.5
q-10 -9 -33.5 -15.5t-50.5 -6.5q-69 0 -81 35q-10 28 -25 72t-29.5 96.5t-27.5 102.5z" />
    <glyph glyph-name="x" unicode="x" horiz-adv-x="509" 
d="M212 293l26 3q36 49 70.5 94t69.5 94q5 1 8 1h7q38 0 60.5 -16.5t22.5 -43.5q0 -20 -10 -37t-35 -46q-28 -32 -56.5 -65t-56.5 -65l-42 -22q-35 -49 -70.5 -98.5t-70.5 -98.5q-3 0 -9 -0.5t-9 -0.5q-41 0 -63 17.5t-22 42.5q0 19 9 34.5t32 41.5q34 41 69.5 82.5
t69.5 82.5zM294 283l32 -18q39 -52 79 -103.5t79 -102.5q-4 -32 -24.5 -50t-49.5 -18q-30 0 -49 17t-37 43q-26 36 -53 74.5t-53 75.5l-25 17q-42 50 -82 98.5t-80 97.5q6 32 26 51.5t47 19.5q28 0 43.5 -13.5t32.5 -37.5q28 -36 56.5 -74.5t57.5 -76.5z" />
    <glyph glyph-name="y" unicode="y" horiz-adv-x="530" 
d="M142 117q-16 33 -35 81t-40 112t-44 147q12 13 31.5 21.5t42.5 8.5q29 0 47.5 -12.5t28.5 -45.5q24 -75 48 -148.5t50 -148.5h4q18 45 36 102.5t34 119.5t27 118q14 7 28.5 11t31.5 4q29 0 50 -12.5t21 -42.5q0 -27 -8.5 -67.5t-23 -88t-33.5 -98t-40 -97.5t-43 -84
q-52 -93 -96.5 -139.5t-88.5 -46.5q-34 0 -56 20.5t-26 52.5q21 18 44.5 42.5t45.5 52.5t38 54q-17 5 -35 22t-39 62z" />
    <glyph glyph-name="z" unicode="z" horiz-adv-x="477" 
d="M121 0h-55q-13 11 -20.5 27t-7.5 35q0 17 8 33.5t20 31.5l291 350h50q13 -11 21 -27t8 -35q0 -17 -8 -33.5t-20 -31.5zM379 477v-109h-322q-5 9 -10 23.5t-5 30.5q0 29 13.5 42t34.5 13h289zM103 0v109h329q5 -8 9.5 -22.5t4.5 -31.5q0 -29 -13 -42t-35 -13h-295z" />
    <glyph glyph-name="braceleft" unicode="{" horiz-adv-x="318" 
d="M173 269q29 -14 44 -44t15 -76v-118q0 -34 15.5 -48.5t40.5 -18.5q2 -7 2 -13.5v-12.5q0 -34 -19 -50t-51 -16q-50 0 -83 33.5t-33 100.5v110q0 47 -16.5 72t-52.5 33q-3 10 -5 22.5t-2 25.5t2 25.5t5 22.5q36 8 52.5 33.5t16.5 71.5v106q0 67 34 100t84 33
q33 0 50.5 -15t17.5 -51v-12t-2 -14q-25 -4 -40.5 -18.5t-15.5 -48.5v-113q0 -46 -15 -76t-44 -44z" />
    <glyph glyph-name="bar" unicode="|" horiz-adv-x="271" 
d="M198 622v-795q-9 -2 -24.5 -4.5t-31.5 -2.5q-33 0 -51 12t-18 48v795q9 3 24.5 5t31.5 2q33 0 51 -12t18 -48z" />
    <glyph glyph-name="braceright" unicode="}" horiz-adv-x="318" 
d="M145 269q-29 14 -44 44t-15 76v113q0 34 -15.5 48.5t-40.5 18.5q-1 8 -1.5 14t-0.5 12q0 36 17.5 51t50.5 15q50 0 84 -33t34 -100v-106q0 -46 16.5 -71.5t52.5 -33.5q3 -10 5 -22.5t2 -25.5t-2 -25.5t-5 -22.5q-36 -8 -52.5 -33t-16.5 -72v-110q0 -67 -33 -100.5
t-83 -33.5q-32 0 -51 16t-19 50q0 6 0.5 12.5t1.5 13.5q25 4 40.5 18.5t15.5 48.5v118q0 46 15 76t44 44z" />
    <glyph glyph-name="asciitilde" unicode="~" horiz-adv-x="484" 
d="M321 302q25 0 37.5 13.5t21.5 29.5q34 0 59.5 -21.5t25.5 -55.5q0 -45 -32.5 -68t-79.5 -23q-34 0 -66 8.5t-62 17.5t-61 9q-25 0 -38 -14.5t-21 -26.5q-34 0 -59.5 21t-25.5 56q0 31 16.5 51t42.5 30t53 10q36 0 68 -9t62 -18.5t59 -9.5z" />
    <glyph glyph-name="DEL" 
 />
    <glyph glyph-name="uni00A0" unicode="&#xa0;" horiz-adv-x="200" 
 />
    <glyph glyph-name="exclamdown" unicode="&#xa1;" horiz-adv-x="282" 
d="M70 -101q0 25 1 68t3 93.5t6 100t9 88.5q8 7 24.5 10.5t28.5 3.5q24 0 40 -8t20 -30q4 -25 7 -71t5 -100.5t3.5 -107.5t1.5 -92q-36 -20 -79 -20q-33 0 -51.5 16t-18.5 49zM224 400q0 -35 -22 -58t-60 -23t-60.5 23t-22.5 58t22.5 58t60.5 23t60 -23t22 -58z" />
    <glyph glyph-name="cent" unicode="&#xa2;" horiz-adv-x="487" 
d="M202 55h124v-148q-8 -3 -23 -5t-32 -2q-35 0 -52 12.5t-17 45.5v97zM326 405h-124v168q8 3 23 5t32 2q36 0 52.5 -13t16.5 -45v-117zM312 381q-56 0 -95.5 -37t-39.5 -107t38 -105t96 -35q35 0 60 8.5t43 19.5q16 -12 24.5 -25.5t8.5 -32.5q0 -36 -40 -58.5t-110 -22.5
q-78 0 -137 28t-91.5 84.5t-32.5 138.5q0 86 35 142.5t94 84.5t129 28q68 0 107.5 -24t39.5 -61q0 -16 -8.5 -30t-19.5 -24q-19 11 -43.5 19.5t-57.5 8.5z" />
    <glyph glyph-name="sterling" unicode="&#xa3;" horiz-adv-x="504" 
d="M369 248h-277q-21 0 -34.5 12.5t-13.5 43.5q0 16 5 29.5t9 22.5h344q5 -9 9.5 -22.5t4.5 -29.5q0 -31 -13 -43.5t-34 -12.5zM126 226q0 23 -3.5 57t-7.5 69t-4 61q0 74 30 120.5t80.5 68.5t110.5 22q67 0 101 -22.5t34 -58.5q0 -15 -8 -31.5t-19 -24.5q-19 11 -39 17.5
t-49 6.5q-50 0 -77 -25t-27 -80q0 -26 3.5 -61t6.5 -67.5t3 -53.5q0 -36 -9.5 -64.5t-28.5 -49.5h245q6 -9 10 -23.5t4 -31.5q0 -29 -13 -42t-35 -13h-334q-24 0 -41.5 18t-17.5 49q0 9 1 15q42 20 63 51t21 93z" />
    <glyph glyph-name="currency" unicode="&#xa4;" horiz-adv-x="551" 
d="M274 98q-56 0 -103 22.5t-74.5 66t-27.5 106.5t27.5 106.5t74 66.5t102.5 23t102.5 -23t74 -66.5t27.5 -106.5t-27.5 -106.5t-73.5 -66t-102 -22.5zM133 51q-25 5 -44 17.5t-19 33.5q0 13 8 27.5t20 29.5l47 61l69 -63zM434 57q-15 0 -28.5 13t-26.5 28l-47 59l75 48
l85 -103q-10 -23 -25 -34t-33 -11zM273 193q38 0 62 26t24 74q0 49 -24 75t-62 26t-62 -26t-24 -75q0 -48 24 -74t62 -26zM142 377l-85 103q10 23 25 34t32 11t30.5 -13t25.5 -28l47 -59zM406 362l-69 63l81 105q25 -4 43.5 -16t18.5 -34q0 -13 -7.5 -27.5t-20.5 -29.5z" />
    <glyph glyph-name="yen" unicode="&#xa5;" horiz-adv-x="580" 
d="M402 297l-202 -11q-31 47 -63 98.5t-59 100.5t-44 87q11 15 29 27.5t44 12.5q31 0 50 -13t37 -49l101 -185h5q24 45 40 79t32 70t38 83q15 7 32 11t33 4q28 0 46 -15t18 -43q0 -9 -7.5 -28.5t-24 -50t-42.5 -75t-63 -103.5zM224 179h141v-178q-9 -2 -27.5 -5t-37.5 -3
q-42 0 -59 15t-17 51v120zM264 263l18 90h239q4 -9 8 -20t4 -25q0 -23 -11.5 -34t-28.5 -11h-229zM317 353l14 -90h-262q-5 7 -9 19t-4 25q0 25 11.5 35.5t27.5 10.5h222zM493 118h-424q-5 7 -9 19t-4 25q0 25 11.5 35.5t27.5 10.5h425q4 -8 8 -20t4 -25q0 -23 -11.5 -34
t-27.5 -11z" />
    <glyph glyph-name="brokenbar" unicode="&#xa6;" horiz-adv-x="293" 
d="M198 622v-310q-9 -2 -24.5 -4.5t-31.5 -2.5q-33 0 -51 11.5t-18 48.5v311q9 2 24.5 4.5t31.5 2.5q33 0 51 -12t18 -49zM198 137v-310q-9 -2 -24.5 -4.5t-31.5 -2.5q-33 0 -51 12t-18 48v311q9 2 24.5 4.5t31.5 2.5q33 0 51 -12t18 -49z" />
    <glyph glyph-name="section" unicode="&#xa7;" horiz-adv-x="532" 
d="M478 88q0 -69 -58 -108.5t-170 -39.5q-56 0 -100 10.5t-69.5 31t-25.5 50.5q0 21 9 35.5t22 23.5q31 -18 70 -31.5t89 -13.5t73 11.5t23 32.5q0 19 -14.5 27.5t-48.5 15.5l-70 12q-76 13 -115 47t-39 97q0 62 48 94t125 36l1 -67q-20 -7 -31.5 -23t-11.5 -36
q0 -17 13.5 -31t42.5 -19l84 -18q75 -15 114 -46t39 -91zM478 280q0 -30 -12.5 -55.5t-33 -42.5t-43.5 -25l-82 53q19 14 29.5 28.5t10.5 34.5q0 19 -15 32t-48 20l-77 15q-46 9 -80 26t-51.5 44.5t-17.5 69.5q0 68 56 106t149 38q51 0 92 -9.5t65.5 -28t24.5 -46.5
q0 -18 -8 -32.5t-19 -23.5q-13 7 -37.5 15t-52.5 13t-54 5q-37 0 -58.5 -10t-21.5 -31q0 -17 13.5 -25t40.5 -13l67 -12q81 -14 122 -50t41 -96z" />
    <glyph glyph-name="dieresis" unicode="&#xa8;" horiz-adv-x="374" 
d="M160 622q0 -30 -20.5 -50.5t-52.5 -20.5t-52 20.5t-20 50.5q0 29 20 50t52 21t52.5 -21t20.5 -50zM361 622q0 -30 -20.5 -50.5t-52.5 -20.5q-31 0 -52 20.5t-21 50.5q0 29 21 50t52 21q32 0 52.5 -21t20.5 -50z" />
    <glyph glyph-name="copyright" unicode="&#xa9;" horiz-adv-x="713" 
d="M41 305q0 87 39.5 157.5t110 112t164.5 41.5t165 -41.5t111.5 -112t40.5 -157.5q0 -86 -40.5 -156t-111.5 -110.5t-165 -40.5t-164.5 40.5t-110 110.5t-39.5 156zM355 538q-69 0 -118.5 -30.5t-76.5 -82.5t-27 -120q0 -67 27 -118.5t76.5 -80.5t118.5 -29q70 0 119.5 29
t76 80.5t26.5 118.5q0 68 -26.5 120t-76 82.5t-119.5 30.5zM388 389q-32 0 -55.5 -20t-23.5 -60t22.5 -61t57.5 -21q22 0 36 5.5t25 11.5q22 -17 22 -44q0 -20 -26.5 -37t-73.5 -17q-45 0 -82 19t-59 55.5t-22 89.5q0 55 25 90.5t62.5 53t75.5 17.5q42 0 69 -16.5t27 -40.5
q0 -12 -6 -23t-15 -19q-10 6 -25 11.5t-34 5.5z" />
    <glyph glyph-name="ordfeminine" unicode="&#xaa;" horiz-adv-x="354" 
d="M167 293q-65 0 -104 25.5t-39 76.5q0 45 27.5 68.5t83.5 29.5l84 9v5q0 23 -17 33t-50 10q-25 0 -49.5 -6.5t-42.5 -15.5q-8 5 -13.5 16t-5.5 23q0 15 7 23.5t21 15.5q18 8 44 12t50 4q66 0 106.5 -27t40.5 -89v-149q0 -14 -8.5 -23.5t-20.5 -16.5q-41 -24 -114 -24z
M167 364q15 0 30 3t23 7v62l-55 -5q-24 -2 -37 -9.5t-13 -22.5q0 -16 12.5 -25.5t39.5 -9.5z" />
    <glyph glyph-name="guillemotleft" unicode="&#xab;" horiz-adv-x="538" 
d="M146 222l129 -132q0 -24 -16 -43.5t-49 -19.5q-19 0 -34 10.5t-30 25.5l-102 107q-5 9 -9 22.5t-4 27.5q0 27 6.5 42.5t17.5 24.5l146 145q32 -7 48 -24.5t16 -37.5q0 -18 -8 -32.5t-32 -37.5zM375 222l129 -132q0 -24 -16 -43.5t-48 -19.5q-19 0 -34.5 10.5t-30.5 25.5
l-102 107q-5 9 -9 22.5t-4 27.5q0 27 6.5 42.5t17.5 24.5l146 145q32 -7 48 -24.5t16 -37.5q0 -18 -8 -32.5t-32 -37.5z" />
    <glyph glyph-name="logicalnot" unicode="&#xac;" horiz-adv-x="533" 
d="M87 426h346q29 0 45.5 -16.5t16.5 -45.5v-182q-9 -3 -26 -5.5t-34 -2.5q-35 0 -52 13t-17 50v81h-315q-5 9 -9.5 23t-4.5 30q0 29 14 42t36 13z" />
    <glyph glyph-name="uni00AD" unicode="&#xad;" horiz-adv-x="366" 
d="M276 200h-223q-6 10 -10.5 24.5t-4.5 30.5q0 31 14.5 44.5t37.5 13.5h223q4 -9 9.5 -23.5t5.5 -31.5q0 -29 -14.5 -43.5t-37.5 -14.5z" />
    <glyph glyph-name="registered" unicode="&#xae;" horiz-adv-x="619" 
d="M44 374q0 72 33 130t93 93t139 35q78 0 138 -35t94 -93t34 -130t-34 -130.5t-94 -93t-138 -34.5q-79 0 -139 34.5t-93 93t-33 130.5zM122 374q0 -55 23 -98t65 -67t99 -24t98.5 24t64 67t22.5 98t-22.5 98t-64 68t-98.5 25t-99 -25t-65 -68t-23 -98zM302 341h-16v-78
q-5 -1 -13.5 -1.5t-20.5 -0.5q-15 0 -23.5 5t-8.5 24v186q0 13 18 19q14 4 30 5.5t34 1.5q52 0 79.5 -21.5t27.5 -59.5q0 -25 -13 -42.5t-32 -25.5l52 -69q-3 -11 -13.5 -18t-22.5 -7q-16 0 -25 7.5t-18 19.5zM286 390h21q35 0 35 31q0 15 -10 22.5t-28 7.5q-5 0 -9.5 -0.5
t-8.5 -1.5v-59z" />
    <glyph glyph-name="macron" unicode="&#xaf;" horiz-adv-x="352" 
d="M286 566h-253q-4 9 -9 23t-5 29q0 30 13 42.5t34 12.5h253q6 -9 10 -23t4 -29q0 -30 -12.5 -42.5t-34.5 -12.5z" />
    <glyph glyph-name="degree" unicode="&#xb0;" horiz-adv-x="361" 
d="M337 480q0 -45 -20.5 -77t-56 -49t-79.5 -17q-68 0 -112.5 38.5t-44.5 104.5q0 44 20.5 76t56.5 49t80 17t79 -17t56 -48.5t21 -76.5zM181 539q-22 0 -39 -14.5t-17 -44.5q0 -31 17 -46t39 -15t38 15t16 46q0 30 -16.5 44.5t-37.5 14.5z" />
    <glyph glyph-name="plusminus" unicode="&#xb1;" horiz-adv-x="546" 
d="M438 315h-369q-6 10 -10 23.5t-4 29.5q0 30 14.5 44t38.5 14h369q5 -9 9 -23.5t4 -31.5q0 -30 -14 -43t-38 -13zM438 0h-369q-6 9 -10 23t-4 30q0 30 14.5 44t38.5 14h369q5 -9 9 -24t4 -31q0 -30 -14 -43t-38 -13zM338 507v-330q-9 -2 -25.5 -5t-33.5 -3
q-33 0 -50.5 12.5t-17.5 48.5v330q10 3 26 6t33 3q33 0 50.5 -12.5t17.5 -49.5z" />
    <glyph glyph-name="uni00B2" unicode="&#xb2;" horiz-adv-x="279" 
d="M124 699q58 0 90.5 -27.5t32.5 -75.5q0 -31 -18.5 -59t-53.5 -57l-49 -39h119q3 -7 5.5 -15.5t2.5 -18.5q0 -18 -8 -26.5t-24 -8.5h-178q-9 7 -15 17.5t-6 24.5q0 16 4 27t11 17l78 69q28 24 37.5 38.5t9.5 28.5q0 17 -12.5 26.5t-32.5 9.5q-21 0 -37 -6.5t-28 -14.5
q-7 5 -13 15t-6 24q0 24 25.5 37.5t65.5 13.5z" />
    <glyph glyph-name="uni00B3" unicode="&#xb3;" horiz-adv-x="281" 
d="M77 569h49q18 0 28 7.5t10 21.5q0 16 -13.5 24.5t-37.5 8.5q-20 0 -37.5 -5.5t-29.5 -13.5q-10 7 -16 16.5t-6 22.5q0 24 28.5 37t73.5 13q58 0 90.5 -26t32.5 -68q0 -22 -13 -40.5t-32 -26.5q22 -9 36.5 -28.5t14.5 -49.5q0 -47 -36.5 -72t-93.5 -25q-51 0 -80.5 15.5
t-29.5 39.5q0 13 7 24t18 15q14 -9 32.5 -17t44.5 -8q25 0 38.5 9.5t13.5 26.5q0 16 -10.5 24.5t-31.5 8.5h-50q-4 6 -6.5 14.5t-2.5 18.5q0 22 9 33z" />
    <glyph glyph-name="acute" unicode="&#xb4;" horiz-adv-x="298" 
d="M81 621l99 109q42 0 64 -18.5t22 -42.5q0 -19 -9 -32.5t-29 -30.5l-94 -82q-35 0 -54.5 17.5t-19.5 37.5q0 11 5 20.5t16 21.5z" />
    <glyph glyph-name="uni03BC" unicode="&#xb5;" horiz-adv-x="572" 
d="M61 287h126l-4 -223q7 -47 12 -92t5 -94v-46q-10 -5 -26.5 -9t-36.5 -4q-39 0 -57.5 14.5t-18.5 50.5v403zM141 160v84l59 15v-73q0 -48 25.5 -69.5t69.5 -21.5q29 0 48.5 5.5t29.5 11.5v147h139v-162q0 -24 -9 -40t-30 -30q-25 -16 -64 -29t-95 -13q-63 0 -101 22.5
t-55 61.5t-17 91zM512 213h-139v263q9 2 25.5 5t36.5 3q40 0 58.5 -13.5t18.5 -51.5v-206zM200 213h-139v263q8 2 25.5 5t36.5 3q41 0 59 -13.5t18 -51.5v-206z" />
    <glyph glyph-name="paragraph" unicode="&#xb6;" horiz-adv-x="513" 
d="M239 613h137q36 0 56.5 -12.5t20.5 -53.5v-616q-8 -2 -26 -5t-37 -3q-36 0 -56.5 13t-20.5 52v507h-68v-251q0 -13 -14 -21.5t-46 -8.5q-41 0 -80 21t-64 63.5t-25 108.5q0 70 31 115t82 68t110 23z" />
    <glyph glyph-name="periodcentered" unicode="&#xb7;" horiz-adv-x="205" 
d="M20 265q0 35 22.5 59t60.5 24t60 -24t22 -59t-22 -59.5t-60 -24.5t-60.5 24.5t-22.5 59.5z" />
    <glyph glyph-name="cedilla" unicode="&#xb8;" horiz-adv-x="195" 
d="M44 4l77 27q34 -20 48 -50t14 -65q0 -50 -31 -82t-85 -32q-36 0 -57.5 17t-21.5 48q0 16 5 28h11q33 0 47.5 15t14.5 38q0 13 -5 28.5t-17 27.5z" />
    <glyph glyph-name="uni00B9" unicode="&#xb9;" horiz-adv-x="218" 
d="M88 408v194l-48 -18q-10 6 -20 17.5t-10 28.5q0 15 8 24.5t21 14.5l73 29h15q21 0 33 -13t12 -34v-277q-6 -2 -16.5 -4t-22.5 -2q-21 0 -33 8t-12 32z" />
    <glyph glyph-name="ordmasculine" unicode="&#xba;" horiz-adv-x="390" 
d="M354 458q0 -79 -44.5 -121.5t-116.5 -42.5t-117 43t-45 121q0 77 45.5 120.5t116.5 43.5q72 0 116.5 -44t44.5 -120zM193 547q-30 0 -48 -23t-18 -66t18 -66t48 -23t47.5 23.5t17.5 65.5t-17.5 65.5t-47.5 23.5z" />
    <glyph glyph-name="guillemotright" unicode="&#xbb;" horiz-adv-x="538" 
d="M392 237l-128 132q0 25 15.5 44t48.5 19q19 0 34.5 -10t29.5 -26l102 -106q6 -9 9.5 -22.5t3.5 -28.5q0 -26 -6.5 -42t-16.5 -25l-147 -145q-31 9 -47.5 25.5t-16.5 36.5q0 19 8 33.5t32 37.5zM163 237l-128 132q0 25 15.5 44t48.5 19q19 0 34.5 -10t29.5 -26l102 -106
q6 -9 9.5 -22.5t3.5 -28.5q0 -26 -6.5 -42t-17.5 -25l-146 -145q-31 9 -47.5 25.5t-16.5 36.5q0 19 8 33.5t32 37.5z" />
    <glyph glyph-name="onequarter" unicode="&#xbc;" horiz-adv-x="620" 
d="M85 328v194l-48 -18q-10 6 -20 17.5t-10 28.5q0 15 8 24.5t21 14.5l73 29h15q21 0 33 -13t12 -34v-277q-6 -2 -16.5 -4t-22.5 -2q-21 0 -33 8t-12 32zM560 278v-145h45q3 -6 5.5 -14.5t2.5 -19.5q0 -18 -9 -26t-21 -8h-233q-11 5 -18.5 16t-7.5 27q0 12 3 22t10 19
l121 167q9 2 20.5 4t24.5 2q21 0 39 -9.5t18 -34.5zM483 133v46v27.5t1 32.5l-69 -106h68zM480 34v67h80v-100q-6 -2 -16 -3.5t-21 -1.5q-21 0 -32 7.5t-11 30.5zM92 92l357 522q27 -3 43.5 -14t17.5 -29q0 -14 -6.5 -26.5t-16.5 -28.5l-357 -522q-27 3 -43 14t-18 29
q0 13 6.5 26t16.5 29z" />
    <glyph glyph-name="onehalf" unicode="&#xbd;" horiz-adv-x="631" 
d="M85 328v194l-48 -18q-10 6 -20 17.5t-10 28.5q0 15 8 24.5t21 14.5l73 29h15q21 0 33 -13t12 -34v-277q-6 -2 -16.5 -4t-22.5 -2q-21 0 -33 8t-12 32zM478 328q58 0 90.5 -27.5t32.5 -75.5q0 -31 -18.5 -59t-53.5 -57l-49 -39h119q3 -7 5.5 -15.5t2.5 -18.5
q0 -18 -8 -26.5t-24 -8.5h-178q-9 7 -15 17.5t-6 24.5q0 16 4 27t11 17l78 69q28 24 37.5 38.5t9.5 28.5q0 17 -12.5 26.5t-32.5 9.5q-21 0 -37 -6.5t-28 -14.5q-7 5 -13 15t-6 24q0 24 25.5 37.5t65.5 13.5zM92 92l357 522q27 -3 43.5 -14t17.5 -29q0 -14 -6.5 -26.5
t-16.5 -28.5l-357 -522q-27 3 -43 14t-18 29q0 13 6.5 26t16.5 29z" />
    <glyph glyph-name="threequarters" unicode="&#xbe;" horiz-adv-x="673" 
d="M77 491h49q18 0 28 7.5t10 21.5q0 16 -13.5 24.5t-37.5 8.5q-20 0 -37.5 -5.5t-29.5 -13.5q-10 7 -16 16.5t-6 22.5q0 24 28.5 37t73.5 13q58 0 90.5 -26t32.5 -68q0 -22 -13 -40.5t-32 -26.5q22 -9 36.5 -28.5t14.5 -49.5q0 -47 -36.5 -72t-93.5 -25q-51 0 -80.5 15.5
t-29.5 39.5q0 13 7 24t18 15q14 -9 32.5 -17t44.5 -8q25 0 38.5 9.5t13.5 26.5q0 16 -10.5 24.5t-31.5 8.5h-50q-4 6 -6.5 14.5t-2.5 18.5q0 22 9 33zM612 278v-145h45q3 -6 5.5 -14.5t2.5 -19.5q0 -18 -9 -26t-21 -8h-233q-11 5 -18.5 16t-7.5 27q0 12 3 22t10 19l121 167
q9 2 20.5 4t24.5 2q21 0 39 -9.5t18 -34.5zM535 133v46v27.5t1 32.5l-69 -106h68zM532 34v67h80v-100q-6 -2 -16 -3.5t-21 -1.5q-21 0 -32 7.5t-11 30.5zM145 92l357 522q27 -3 43.5 -14t17.5 -29q0 -14 -6.5 -26.5t-16.5 -28.5l-357 -522q-27 3 -43 14t-18 29q0 13 6.5 26
t16.5 29z" />
    <glyph glyph-name="questiondown" unicode="&#xbf;" horiz-adv-x="485" 
d="M249 238l100 21q14 -9 25.5 -28t11.5 -45q0 -25 -13.5 -38.5t-41.5 -20.5l-75 -18q-39 -11 -59 -30t-20 -53q0 -29 24 -51.5t78 -22.5q41 0 78.5 11t60.5 28q15 -12 24.5 -28t9.5 -37q0 -44 -53.5 -68t-136.5 -24q-74 0 -126 24.5t-79.5 68.5t-27.5 99q0 86 55.5 137
t164.5 75zM374 400q0 -35 -22 -58.5t-60 -23.5t-60.5 23.5t-22.5 58.5t22.5 58t60.5 23t60 -23t22 -58z" />
    <glyph glyph-name="Agrave" unicode="&#xc0;" horiz-adv-x="615" 
d="M313 488h-6q-11 -33 -25 -74.5t-29.5 -86.5t-28.5 -88l-17 -80q-6 -19 -12 -41t-12.5 -43t-12 -40.5t-9.5 -34.5q-11 -4 -24 -7t-32 -3q-38 0 -59 14.5t-21 41.5q0 12 4 24.5t8 28.5q10 33 26.5 83t36.5 108.5t40.5 116t38.5 106.5t30 79q14 8 42.5 15.5t56.5 7.5
q40 0 72 -11.5t40 -37.5q20 -53 43 -123.5t47 -146.5t45.5 -148t38.5 -130q-10 -12 -30 -19.5t-46 -7.5q-39 0 -55 13.5t-24 42.5l-36 119l-15 78q-14 46 -28 91t-26 84.5t-21 68.5zM145 138l54 112h240l19 -112h-313zM250 677l-91 72q-1 4 -1 10v9q0 30 17 47t42 17
q32 0 61 -30l86 -91q-3 -28 -20 -42.5t-38 -14.5q-17 0 -29.5 6.5t-26.5 16.5z" />
    <glyph glyph-name="Aacute" unicode="&#xc1;" horiz-adv-x="615" 
d="M313 488h-6q-11 -33 -25 -74.5t-29.5 -86.5t-28.5 -88l-17 -80q-6 -19 -12 -41t-12.5 -43t-12 -40.5t-9.5 -34.5q-11 -4 -24 -7t-32 -3q-38 0 -59 14.5t-21 41.5q0 12 4 24.5t8 28.5q10 33 26.5 83t36.5 108.5t40.5 116t38.5 106.5t30 79q14 8 42.5 15.5t56.5 7.5
q40 0 72 -11.5t40 -37.5q20 -53 43 -123.5t47 -146.5t45.5 -148t38.5 -130q-10 -12 -30 -19.5t-46 -7.5q-39 0 -55 13.5t-24 42.5l-36 119l-15 78q-14 46 -28 91t-26 84.5t-21 68.5zM145 138l54 112h240l19 -112h-313zM276 745l108 92q35 0 54.5 -17t19.5 -42
q0 -17 -8.5 -31t-31.5 -29l-95 -65q-33 1 -50 15.5t-17 34.5q0 12 4 21.5t16 20.5z" />
    <glyph glyph-name="Acircumflex" unicode="&#xc2;" horiz-adv-x="615" 
d="M315 740q-21 -21 -45 -44t-48 -44q-26 1 -44 16t-18 37q0 18 9.5 31t30.5 31l39 34q44 35 78 35q22 0 40 -8.5t37 -28.5l81 -85q0 -29 -15.5 -44t-41.5 -15q-17 0 -31.5 10.5t-35.5 33.5zM313 488h-6q-11 -33 -25 -74.5t-29.5 -86.5t-28.5 -88l-17 -80q-6 -19 -12 -41
t-12.5 -43t-12 -40.5t-9.5 -34.5q-11 -4 -24 -7t-32 -3q-38 0 -59 14.5t-21 41.5q0 12 4 24.5t8 28.5q10 33 26.5 83t36.5 108.5t40.5 116t38.5 106.5t30 79q14 8 42.5 15.5t56.5 7.5q40 0 72 -11.5t40 -37.5q20 -53 43 -123.5t47 -146.5t45.5 -148t38.5 -130
q-10 -12 -30 -19.5t-46 -7.5q-39 0 -55 13.5t-24 42.5l-36 119l-15 78q-14 46 -28 91t-26 84.5t-21 68.5zM145 138l54 112h240l19 -112h-313z" />
    <glyph glyph-name="Atilde" unicode="&#xc3;" horiz-adv-x="615" 
d="M313 488h-6q-11 -33 -25 -74.5t-29.5 -86.5t-28.5 -88l-17 -80q-6 -19 -12 -41t-12.5 -43t-12 -40.5t-9.5 -34.5q-11 -4 -24 -7t-32 -3q-38 0 -59 14.5t-21 41.5q0 12 4 24.5t8 28.5q10 33 26.5 83t36.5 108.5t40.5 116t38.5 106.5t30 79q14 8 42.5 15.5t56.5 7.5
q40 0 72 -11.5t40 -37.5q20 -53 43 -123.5t47 -146.5t45.5 -148t38.5 -130q-10 -12 -30 -19.5t-46 -7.5q-39 0 -55 13.5t-24 42.5l-36 119l-15 78q-14 46 -28 91t-26 84.5t-21 68.5zM145 138l54 112h240l19 -112h-313zM230 823q28 0 53.5 -7.5t47 -15t36.5 -7.5q21 0 32 12
t15 24h5q27 0 47 -18t20 -48q0 -39 -25 -59t-64 -20q-31 0 -56 8t-45.5 15.5t-36.5 7.5q-21 0 -31.5 -12t-15.5 -24h-4q-27 0 -47.5 17.5t-20.5 48.5q0 26 13.5 43.5t34.5 26t42 8.5z" />
    <glyph glyph-name="Adieresis" unicode="&#xc4;" horiz-adv-x="615" 
d="M313 488h-6q-11 -33 -25 -74.5t-29.5 -86.5t-28.5 -88l-17 -80q-6 -19 -12 -41t-12.5 -43t-12 -40.5t-9.5 -34.5q-11 -4 -24 -7t-32 -3q-38 0 -59 14.5t-21 41.5q0 12 4 24.5t8 28.5q10 33 26.5 83t36.5 108.5t40.5 116t38.5 106.5t30 79q14 8 42.5 15.5t56.5 7.5
q40 0 72 -11.5t40 -37.5q20 -53 43 -123.5t47 -146.5t45.5 -148t38.5 -130q-10 -12 -30 -19.5t-46 -7.5q-39 0 -55 13.5t-24 42.5l-36 119l-15 78q-14 46 -28 91t-26 84.5t-21 68.5zM145 138l54 112h240l19 -112h-313zM282 745q0 -30 -20.5 -50.5t-52.5 -20.5t-52 20.5
t-20 50.5q0 29 20 50t52 21t52.5 -21t20.5 -50zM483 745q0 -30 -20.5 -50.5t-52.5 -20.5q-31 0 -52 20.5t-21 50.5q0 29 21 50t52 21q32 0 52.5 -21t20.5 -50z" />
    <glyph glyph-name="Aring" unicode="&#xc5;" horiz-adv-x="615" 
d="M313 488h-6q-11 -33 -25 -74.5t-29.5 -86.5t-28.5 -88l-17 -80q-6 -19 -12 -41t-12.5 -43t-12 -40.5t-9.5 -34.5q-11 -4 -24 -7t-32 -3q-38 0 -59 14.5t-21 41.5q0 12 4 24.5t8 28.5q10 33 26.5 83t36.5 108.5t40.5 116t38.5 106.5t30 79q14 8 42.5 15.5t56.5 7.5
q40 0 72 -11.5t40 -37.5q20 -53 43 -123.5t47 -146.5t45.5 -148t38.5 -130q-10 -12 -30 -19.5t-46 -7.5q-39 0 -55 13.5t-24 42.5l-36 119l-15 78q-14 46 -28 91t-26 84.5t-21 68.5zM145 138l54 112h240l19 -112h-313zM190 751q0 43 33 72.5t90 29.5q60 0 93 -29.5t33 -72.5
t-33 -72.5t-93 -29.5q-57 0 -90 29.5t-33 72.5zM277 750q0 -15 10.5 -24.5t26.5 -9.5t27 9.5t11 25.5t-11 25t-27 9t-26.5 -9t-10.5 -26z" />
    <glyph glyph-name="AE" unicode="&#xc6;" horiz-adv-x="864" 
d="M493 487h-103l-131 -272l-19 -38l-83 -177q-11 -3 -22.5 -6t-29.5 -3q-37 0 -55 14.5t-18 39.5q0 12 3.5 25.5t11.5 29.5q13 29 36.5 76.5t52.5 104.5t59 114.5t56.5 108t45.5 84.5q12 9 35.5 16.5t51.5 7.5q20 0 42.5 -4.5t41 -14.5t24.5 -27zM147 138l54 112h237
l19 -112h-310zM396 527h139v-520q-8 -3 -26 -6t-37 -3q-35 0 -55.5 21t-20.5 55v453zM472 253v113h301q6 -9 11 -23t5 -32q0 -29 -13.5 -43.5t-36.5 -14.5h-267zM472 -2v114h335q5 -8 10 -23t5 -33q0 -29 -13.5 -43.5t-36.5 -14.5h-300zM438 493v75q12 17 30 28t42 11h292
q6 -9 11 -23t5 -32q0 -30 -13.5 -44.5t-36.5 -14.5h-330z" />
    <glyph glyph-name="Ccedilla" unicode="&#xc7;" horiz-adv-x="577" 
d="M538 526q0 -21 -11.5 -37.5t-26.5 -25.5q-25 17 -56.5 30.5t-76.5 13.5q-55 0 -94.5 -23.5t-61.5 -69t-22 -111.5q0 -100 50 -151.5t135 -51.5q45 0 77 12.5t57 28.5q15 -10 24.5 -27t9.5 -39q0 -18 -10 -34t-33 -28q-20 -10 -55.5 -19.5t-87.5 -9.5q-88 0 -159.5 34.5
t-113.5 105t-42 179.5q0 104 41.5 175.5t111.5 108.5t154 37q59 0 101.5 -13.5t65.5 -35.5t23 -49zM291 4l77 27q34 -20 48 -50t14 -65q0 -50 -31 -82t-85 -32q-36 0 -57.5 17t-21.5 48q0 16 5 28h11q33 0 47.5 15t14.5 38q0 13 -5 28.5t-17 27.5z" />
    <glyph glyph-name="Egrave" unicode="&#xc8;" horiz-adv-x="546" 
d="M77 416h140v-409q-9 -3 -26.5 -6t-37.5 -3q-35 0 -55.5 21t-20.5 55v342zM217 191h-140v339q0 36 20.5 56.5t55.5 20.5q20 0 37.5 -3t26.5 -6v-407zM153 253v113h302q6 -9 10.5 -23t4.5 -32q0 -29 -13 -43.5t-37 -14.5h-267zM153 -2v114h336q5 -8 9.5 -23t4.5 -33
q0 -29 -13 -43.5t-37 -14.5h-300zM153 493v114h331q6 -9 10.5 -23t4.5 -32q0 -30 -13 -44.5t-37 -14.5h-296zM252 677l-91 72q-1 4 -1 10v9q0 30 17 47t42 17q32 0 61 -30l86 -91q-3 -28 -20 -42.5t-38 -14.5q-17 0 -29.5 6.5t-26.5 16.5z" />
    <glyph glyph-name="Eacute" unicode="&#xc9;" horiz-adv-x="546" 
d="M77 416h140v-409q-9 -3 -26.5 -6t-37.5 -3q-35 0 -55.5 21t-20.5 55v342zM217 191h-140v339q0 36 20.5 56.5t55.5 20.5q20 0 37.5 -3t26.5 -6v-407zM153 253v113h302q6 -9 10.5 -23t4.5 -32q0 -29 -13 -43.5t-37 -14.5h-267zM153 -2v114h336q5 -8 9.5 -23t4.5 -33
q0 -29 -13 -43.5t-37 -14.5h-300zM153 493v114h331q6 -9 10.5 -23t4.5 -32q0 -30 -13 -44.5t-37 -14.5h-296zM266 745l108 92q35 0 54.5 -17t19.5 -42q0 -17 -8.5 -31t-31.5 -29l-95 -65q-33 1 -50 15.5t-17 34.5q0 12 4 21.5t16 20.5z" />
    <glyph glyph-name="Ecircumflex" unicode="&#xca;" horiz-adv-x="546" 
d="M77 416h140v-409q-9 -3 -26.5 -6t-37.5 -3q-35 0 -55.5 21t-20.5 55v342zM217 191h-140v339q0 36 20.5 56.5t55.5 20.5q20 0 37.5 -3t26.5 -6v-407zM153 253v113h302q6 -9 10.5 -23t4.5 -32q0 -29 -13 -43.5t-37 -14.5h-267zM153 -2v114h336q5 -8 9.5 -23t4.5 -33
q0 -29 -13 -43.5t-37 -14.5h-300zM153 493v114h331q6 -9 10.5 -23t4.5 -32q0 -30 -13 -44.5t-37 -14.5h-296zM294 740q-22 -21 -45.5 -44t-48.5 -44q-26 1 -43.5 16t-17.5 37q0 18 9 31t31 31l39 34q44 35 77 35q23 0 41 -8.5t36 -28.5l82 -85q0 -29 -15.5 -44t-41.5 -15
q-17 0 -32 10.5t-35 33.5z" />
    <glyph glyph-name="Edieresis" unicode="&#xcb;" horiz-adv-x="546" 
d="M77 416h140v-409q-9 -3 -26.5 -6t-37.5 -3q-35 0 -55.5 21t-20.5 55v342zM217 191h-140v339q0 36 20.5 56.5t55.5 20.5q20 0 37.5 -3t26.5 -6v-407zM153 253v113h302q6 -9 10.5 -23t4.5 -32q0 -29 -13 -43.5t-37 -14.5h-267zM153 -2v114h336q5 -8 9.5 -23t4.5 -33
q0 -29 -13 -43.5t-37 -14.5h-300zM153 493v114h331q6 -9 10.5 -23t4.5 -32q0 -30 -13 -44.5t-37 -14.5h-296zM265 742q0 -30 -20.5 -50.5t-52.5 -20.5t-52 20.5t-20 50.5q0 29 20 50t52 21t52.5 -21t20.5 -50zM466 742q0 -30 -20.5 -50.5t-52.5 -20.5q-31 0 -52 20.5
t-21 50.5q0 29 21 50t52 21q32 0 52.5 -21t20.5 -50z" />
    <glyph glyph-name="Igrave" unicode="&#xcc;" horiz-adv-x="290" 
d="M74 415h143v-414q-9 -2 -28 -5t-39 -3q-41 0 -58.5 15.5t-17.5 51.5v355zM217 240h-143v367q9 2 28 5.5t38 3.5q40 0 58.5 -14.5t18.5 -53.5v-308zM79 677l-91 72q-1 4 -1 10v9q0 30 17 47t42 17q32 0 61 -30l86 -91q-3 -28 -20 -42.5t-38 -14.5q-17 0 -29.5 6.5
t-26.5 16.5z" />
    <glyph glyph-name="Iacute" unicode="&#xcd;" horiz-adv-x="290" 
d="M74 415h143v-414q-9 -2 -28 -5t-39 -3q-41 0 -58.5 15.5t-17.5 51.5v355zM217 240h-143v367q9 2 28 5.5t38 3.5q40 0 58.5 -14.5t18.5 -53.5v-308zM105 745l108 92q35 0 54.5 -17t19.5 -42q0 -17 -8.5 -31t-31.5 -29l-95 -65q-33 1 -50 15.5t-17 34.5q0 12 4 21.5
t16 20.5z" />
    <glyph glyph-name="Icircumflex" unicode="&#xce;" horiz-adv-x="290" 
d="M74 415h143v-414q-9 -2 -28 -5t-39 -3q-41 0 -58.5 15.5t-17.5 51.5v355zM217 240h-143v367q9 2 28 5.5t38 3.5q40 0 58.5 -14.5t18.5 -53.5v-308zM146 740q-22 -21 -45.5 -44t-48.5 -44q-26 1 -43.5 16t-17.5 37q0 18 9 31t31 31l39 34q44 35 77 35q23 0 41 -8.5
t36 -28.5l82 -85q0 -29 -15.5 -44t-41.5 -15q-17 0 -32 10.5t-35 33.5z" />
    <glyph glyph-name="Idieresis" unicode="&#xcf;" horiz-adv-x="290" 
d="M74 415h143v-414q-9 -2 -28 -5t-39 -3q-41 0 -58.5 15.5t-17.5 51.5v355zM217 240h-143v367q9 2 28 5.5t38 3.5q40 0 58.5 -14.5t18.5 -53.5v-308zM114 742q0 -30 -20.5 -50.5t-52.5 -20.5t-52 20.5t-20 50.5q0 29 20 50t52 21t52.5 -21t20.5 -50zM315 742
q0 -30 -20.5 -50.5t-52.5 -20.5q-31 0 -52 20.5t-21 50.5q0 29 21 50t52 21q32 0 52.5 -21t20.5 -50z" />
    <glyph glyph-name="Eth" unicode="&#xd0;" horiz-adv-x="694" 
d="M181 362v-113h147q23 0 36.5 14t13.5 44q0 18 -4.5 32t-10.5 23h-182zM210 249v113h-143q-24 0 -37 -14t-13 -45q0 -17 4.5 -31t10.5 -23h178zM505 304q0 -100 -49 -151t-134 -51q-18 0 -38.5 1.5t-35.5 5.5v391q17 3 34.5 4t37.5 1q54 0 95.5 -21.5t65.5 -66t24 -113.5z
M652 306q0 107 -43 177t-119 104.5t-178 34.5q-38 0 -83 -4t-84 -17q-18 -6 -29 -16.5t-11 -30.5v-483q0 -45 51 -63q39 -14 86 -18t80 -4q99 0 173.5 35t115.5 106.5t41 178.5z" />
    <glyph glyph-name="Ntilde" unicode="&#xd1;" horiz-adv-x="673" 
d="M73 447l130 2q4 -41 6 -83t2.5 -81.5t0.5 -77.5v-206q-9 -2 -27.5 -5t-36.5 -3q-41 0 -58 14.5t-17 50.5v389zM599 162l-129 -2q-8 75 -8.5 143.5t-0.5 131.5v173q9 2 27 5t37 3q40 0 57 -14.5t17 -50.5v-389zM599 208v84v-274q-12 -11 -34 -18t-53 -7q-32 0 -59.5 10.5
t-46.5 46.5l-130 242q-12 23 -23.5 46.5t-22 46.5t-20.5 45l-137 -31v183q12 16 36 24.5t52 8.5q32 0 60 -11t46 -47l131 -242q12 -22 23.5 -45.5t22.5 -47t20 -45.5zM248 823q28 0 53.5 -7.5t47 -15t36.5 -7.5q21 0 32 12t15 24h5q27 0 47 -18t20 -48q0 -39 -25 -59
t-64 -20q-31 0 -56 8t-45.5 15.5t-36.5 7.5q-21 0 -31.5 -12t-15.5 -24h-4q-27 0 -47.5 17.5t-20.5 48.5q0 26 13.5 43.5t34.5 26t42 8.5z" />
    <glyph glyph-name="Ograve" unicode="&#xd2;" horiz-adv-x="698" 
d="M656 304q0 -104 -40 -175.5t-109.5 -108t-157.5 -36.5t-158 36.5t-110 108t-40 175.5t41 175t110.5 108t156.5 37q86 0 156 -37t110.5 -108t40.5 -175zM509 304q0 99 -43.5 151t-116.5 52q-72 0 -116 -51.5t-44 -151.5q0 -101 43.5 -152.5t116.5 -51.5q74 0 117 51.5
t43 152.5zM294 677l-91 72q-1 4 -1 10v9q0 30 17 47t42 17q32 0 61 -30l86 -91q-3 -28 -20 -42.5t-38 -14.5q-17 0 -29.5 6.5t-26.5 16.5z" />
    <glyph glyph-name="Oacute" unicode="&#xd3;" horiz-adv-x="698" 
d="M656 304q0 -104 -40 -175.5t-109.5 -108t-157.5 -36.5t-158 36.5t-110 108t-40 175.5t41 175t110.5 108t156.5 37q86 0 156 -37t110.5 -108t40.5 -175zM509 304q0 99 -43.5 151t-116.5 52q-72 0 -116 -51.5t-44 -151.5q0 -101 43.5 -152.5t116.5 -51.5q74 0 117 51.5
t43 152.5zM321 745l108 92q35 0 54.5 -17t19.5 -42q0 -17 -8.5 -31t-31.5 -29l-95 -65q-33 1 -50 15.5t-17 34.5q0 12 4 21.5t16 20.5z" />
    <glyph glyph-name="Ocircumflex" unicode="&#xd4;" horiz-adv-x="698" 
d="M656 304q0 -104 -40 -175.5t-109.5 -108t-157.5 -36.5t-158 36.5t-110 108t-40 175.5t41 175t110.5 108t156.5 37q86 0 156 -37t110.5 -108t40.5 -175zM509 304q0 99 -43.5 151t-116.5 52q-72 0 -116 -51.5t-44 -151.5q0 -101 43.5 -152.5t116.5 -51.5q74 0 117 51.5
t43 152.5zM351 740q-22 -21 -45.5 -44t-48.5 -44q-26 1 -43.5 16t-17.5 37q0 18 9 31t31 31l39 34q44 35 77 35q23 0 41 -8.5t36 -28.5l82 -85q0 -29 -15.5 -44t-41.5 -15q-17 0 -32 10.5t-35 33.5z" />
    <glyph glyph-name="Otilde" unicode="&#xd5;" horiz-adv-x="698" 
d="M656 304q0 -104 -40 -175.5t-109.5 -108t-157.5 -36.5t-158 36.5t-110 108t-40 175.5t41 175t110.5 108t156.5 37q86 0 156 -37t110.5 -108t40.5 -175zM509 304q0 99 -43.5 151t-116.5 52q-72 0 -116 -51.5t-44 -151.5q0 -101 43.5 -152.5t116.5 -51.5q74 0 117 51.5
t43 152.5zM267 823q28 0 53.5 -7.5t47 -15t36.5 -7.5q21 0 32 12t15 24h5q27 0 47 -18t20 -48q0 -39 -25 -59t-64 -20q-31 0 -56 8t-45.5 15.5t-36.5 7.5q-21 0 -31.5 -12t-15.5 -24h-4q-27 0 -47.5 17.5t-20.5 48.5q0 26 13.5 43.5t34.5 26t42 8.5z" />
    <glyph glyph-name="Odieresis" unicode="&#xd6;" horiz-adv-x="698" 
d="M656 304q0 -104 -40 -175.5t-109.5 -108t-157.5 -36.5t-158 36.5t-110 108t-40 175.5t41 175t110.5 108t156.5 37q86 0 156 -37t110.5 -108t40.5 -175zM509 304q0 99 -43.5 151t-116.5 52q-72 0 -116 -51.5t-44 -151.5q0 -101 43.5 -152.5t116.5 -51.5q74 0 117 51.5
t43 152.5zM320 742q0 -30 -20.5 -50.5t-52.5 -20.5t-52 20.5t-20 50.5q0 29 20 50t52 21t52.5 -21t20.5 -50zM521 742q0 -30 -20.5 -50.5t-52.5 -20.5q-31 0 -52 20.5t-21 50.5q0 29 21 50t52 21q32 0 52.5 -21t20.5 -50z" />
    <glyph glyph-name="multiply" unicode="&#xd7;" horiz-adv-x="501" 
d="M315 308l147 -166q-8 -27 -27 -44.5t-46 -17.5q-10 0 -23 6t-22 17l-107 126l-43 37l-154 161q6 25 26.5 46t44.5 21q13 0 23 -5.5t18 -15.5l124 -134zM425 381l-114 -118l-52 -41l-142 -148q-30 6 -52.5 26t-22.5 42q0 11 6.5 21.5t17.5 21.5l119 123l48 31l150 157
q25 -8 44.5 -27t19.5 -44q0 -10 -5.5 -21t-16.5 -23z" />
    <glyph glyph-name="Oslash" unicode="&#xd8;" horiz-adv-x="698" 
d="M190 71l-85 -88q-30 7 -47.5 22.5t-17.5 37.5q0 15 8.5 28.5t27.5 32.5l36 33zM614 505l-34 -34l-64 79l71 75q29 -7 47 -23t18 -36q0 -15 -10.5 -30t-27.5 -31zM525 418l-304 -320l-46 95l284 302zM656 304q0 -104 -40 -175.5t-109.5 -108t-157.5 -36.5q-87 0 -157 38
t-110.5 110t-40.5 172q0 104 41 175t110.5 108t156.5 37q85 0 154.5 -38t111 -109.5t41.5 -172.5zM513 304q0 98 -45.5 150.5t-118.5 52.5q-72 0 -118 -51.5t-46 -151.5q0 -99 45.5 -151.5t118.5 -52.5q74 0 119 51.5t45 152.5z" />
    <glyph glyph-name="Ugrave" unicode="&#xd9;" horiz-adv-x="659" 
d="M329 -16q-81 0 -139 29t-88.5 82t-30.5 123v68h143v-64q0 -58 32.5 -90t82.5 -32t83 32t33 90v64h143v-68q0 -70 -31 -123t-88.5 -82t-139.5 -29zM214 254h-143v353q9 2 28.5 5.5t37.5 3.5q41 0 59 -14.5t18 -53.5v-294zM588 253h-143v354q9 2 28 5.5t38 3.5
q41 0 59 -14.5t18 -53.5v-295zM261 677l-91 72q-1 4 -1 10v9q0 30 17 47t42 17q32 0 61 -30l86 -91q-3 -28 -20 -42.5t-38 -14.5q-17 0 -29.5 6.5t-26.5 16.5z" />
    <glyph glyph-name="Uacute" unicode="&#xda;" horiz-adv-x="659" 
d="M329 -16q-81 0 -139 29t-88.5 82t-30.5 123v68h143v-64q0 -58 32.5 -90t82.5 -32t83 32t33 90v64h143v-68q0 -70 -31 -123t-88.5 -82t-139.5 -29zM214 254h-143v353q9 2 28.5 5.5t37.5 3.5q41 0 59 -14.5t18 -53.5v-294zM588 253h-143v354q9 2 28 5.5t38 3.5
q41 0 59 -14.5t18 -53.5v-295zM297 745l108 92q35 0 54.5 -17t19.5 -42q0 -17 -8.5 -31t-31.5 -29l-95 -65q-33 1 -50 15.5t-17 34.5q0 12 4 21.5t16 20.5z" />
    <glyph glyph-name="Ucircumflex" unicode="&#xdb;" horiz-adv-x="659" 
d="M329 -16q-81 0 -139 29t-88.5 82t-30.5 123v68h143v-64q0 -58 32.5 -90t82.5 -32t83 32t33 90v64h143v-68q0 -70 -31 -123t-88.5 -82t-139.5 -29zM214 254h-143v353q9 2 28.5 5.5t37.5 3.5q41 0 59 -14.5t18 -53.5v-294zM588 253h-143v354q9 2 28 5.5t38 3.5
q41 0 59 -14.5t18 -53.5v-295zM335 740q-22 -21 -45.5 -44t-48.5 -44q-26 1 -43.5 16t-17.5 37q0 18 9 31t31 31l39 34q44 35 77 35q23 0 41 -8.5t36 -28.5l82 -85q0 -29 -15.5 -44t-41.5 -15q-17 0 -32 10.5t-35 33.5z" />
    <glyph glyph-name="Udieresis" unicode="&#xdc;" horiz-adv-x="659" 
d="M329 -16q-81 0 -139 29t-88.5 82t-30.5 123v68h143v-64q0 -58 32.5 -90t82.5 -32t83 32t33 90v64h143v-68q0 -70 -31 -123t-88.5 -82t-139.5 -29zM214 254h-143v353q9 2 28.5 5.5t37.5 3.5q41 0 59 -14.5t18 -53.5v-294zM588 253h-143v354q9 2 28 5.5t38 3.5
q41 0 59 -14.5t18 -53.5v-295zM299 742q0 -30 -20.5 -50.5t-52.5 -20.5t-52 20.5t-20 50.5q0 29 20 50t52 21t52.5 -21t20.5 -50zM500 742q0 -30 -20.5 -50.5t-52.5 -20.5q-31 0 -52 20.5t-21 50.5q0 29 21 50t52 21q32 0 52.5 -21t20.5 -50z" />
    <glyph glyph-name="Yacute" unicode="&#xdd;" horiz-adv-x="566" 
d="M356 198h-128q-26 39 -57 87t-61 98.5t-56.5 98t-43.5 86.5q10 16 29 29.5t46 13.5q33 0 52.5 -14t37.5 -50q5 -8 16.5 -29.5t26 -49.5t29.5 -56t26 -49t15 -28h6q24 48 43.5 88.5t38 82.5t40.5 90q14 7 31.5 11t32.5 4q30 0 49.5 -15.5t19.5 -45.5q0 -11 -10 -35.5
t-32.5 -66t-59.5 -103t-91 -147.5zM221 251h140v-250q-9 -2 -27.5 -5t-36.5 -3q-42 0 -59 15t-17 51v192zM242 745l108 92q35 0 54.5 -17t19.5 -42q0 -17 -8.5 -31t-31.5 -29l-95 -65q-33 1 -50 15.5t-17 34.5q0 12 4 21.5t16 20.5z" />
    <glyph glyph-name="Thorn" unicode="&#xde;" horiz-adv-x="576" 
d="M212 212v188h72q53 0 83 -23t30 -71t-30 -71t-83 -23h-72zM70 514v-416h233q120 0 179.5 57.5t59.5 150.5q0 95 -59.5 151.5t-179.5 56.5h-233zM213 166h-143v-106q0 -36 17.5 -51.5t59.5 -15.5q20 0 38.5 3t27.5 5v165zM70 424h143v125q0 38 -18.5 52.5t-58.5 14.5
q-18 0 -37.5 -3t-28.5 -5v-184z" />
    <glyph glyph-name="germandbls" unicode="&#xdf;" horiz-adv-x="608" 
d="M202 284h-139v177q0 72 30.5 120t82.5 71.5t116 23.5q68 0 120 -26t81.5 -74t29.5 -116q0 -44 -35 -60l-38 -18q-17 -9 -25.5 -18.5t-8.5 -23.5q0 -13 9 -23t28 -21q41 -21 68 -43t40 -49.5t13 -65.5q0 -76 -51 -115.5t-129 -39.5q-59 0 -94.5 18.5t-35.5 52.5
q0 19 8.5 34t22.5 23q15 -10 34 -17t43 -7q27 0 43.5 13.5t16.5 36.5q0 21 -12.5 35t-42.5 30q-51 27 -77.5 58.5t-26.5 81.5q0 40 24 69.5t67 45.5l20 8q0 42 -25.5 69.5t-66.5 27.5q-38 0 -64 -25t-26 -76v-177zM63 323h139v-323q-8 -2 -25 -5t-37 -3q-40 0 -58.5 14.5
t-18.5 50.5v266z" />
    <glyph glyph-name="agrave" unicode="&#xe0;" horiz-adv-x="529" 
d="M253 -15q-101 0 -160.5 39t-59.5 117q0 68 42 104t125 44l134 14v15q0 36 -27 52t-76 16q-38 0 -75 -9.5t-66 -22.5q-11 8 -19 23.5t-8 32.5q0 40 43 58q29 12 67 18t75 6q101 0 161.5 -42.5t60.5 -133.5v-228q0 -25 -12.5 -39.5t-31.5 -26.5q-29 -17 -73 -27t-100 -10z
M253 89q26 0 48.5 5t33.5 12v102l-90 -8q-36 -3 -56 -16t-20 -38q0 -26 20 -41.5t64 -15.5zM212 549l-97 93q-1 4 -1.5 10t-0.5 10q0 29 17.5 46t43.5 17q17 0 32 -6.5t29 -23.5l89 -112q-3 -28 -20 -42.5t-38 -14.5q-18 0 -30 6t-24 17z" />
    <glyph glyph-name="aacute" unicode="&#xe1;" horiz-adv-x="529" 
d="M253 -15q-101 0 -160.5 39t-59.5 117q0 68 42 104t125 44l134 14v15q0 36 -27 52t-76 16q-38 0 -75 -9.5t-66 -22.5q-11 8 -19 23.5t-8 32.5q0 40 43 58q29 12 67 18t75 6q101 0 161.5 -42.5t60.5 -133.5v-228q0 -25 -12.5 -39.5t-31.5 -26.5q-29 -17 -73 -27t-100 -10z
M253 89q26 0 48.5 5t33.5 12v102l-90 -8q-36 -3 -56 -16t-20 -38q0 -26 20 -41.5t64 -15.5zM219 621l99 109q42 0 64 -18.5t22 -42.5q0 -19 -9 -32.5t-29 -30.5l-94 -82q-35 0 -54.5 17.5t-19.5 37.5q0 11 5 20.5t16 21.5z" />
    <glyph glyph-name="acircumflex" unicode="&#xe2;" horiz-adv-x="529" 
d="M253 -15q-101 0 -160.5 39t-59.5 117q0 68 42 104t125 44l134 14v15q0 36 -27 52t-76 16q-38 0 -75 -9.5t-66 -22.5q-11 8 -19 23.5t-8 32.5q0 40 43 58q29 12 67 18t75 6q101 0 161.5 -42.5t60.5 -133.5v-228q0 -25 -12.5 -39.5t-31.5 -26.5q-29 -17 -73 -27t-100 -10z
M253 89q26 0 48.5 5t33.5 12v102l-90 -8q-36 -3 -56 -16t-20 -38q0 -26 20 -41.5t64 -15.5zM309 565l-48 58q-25 -28 -43.5 -48.5t-40.5 -45.5q-32 1 -51 16t-19 38q0 17 9.5 29.5t26.5 29.5l44 45q17 17 34.5 26.5t41.5 9.5q22 0 40.5 -8.5t40.5 -36.5l75 -91
q0 -23 -13 -39.5t-41 -16.5q-17 0 -30 9t-26 25z" />
    <glyph glyph-name="atilde" unicode="&#xe3;" horiz-adv-x="529" 
d="M253 -15q-101 0 -160.5 39t-59.5 117q0 68 42 104t125 44l134 14v15q0 36 -27 52t-76 16q-38 0 -75 -9.5t-66 -22.5q-11 8 -19 23.5t-8 32.5q0 40 43 58q29 12 67 18t75 6q101 0 161.5 -42.5t60.5 -133.5v-228q0 -25 -12.5 -39.5t-31.5 -26.5q-29 -17 -73 -27t-100 -10z
M253 89q26 0 48.5 5t33.5 12v102l-90 -8q-36 -3 -56 -16t-20 -38q0 -26 20 -41.5t64 -15.5zM177 693q28 0 53.5 -7.5t47 -15t36.5 -7.5q21 0 32 12t15 24h5q27 0 47 -18t20 -48q0 -39 -25 -59t-64 -20q-31 0 -56 8t-45.5 15.5t-36.5 7.5q-21 0 -31.5 -12t-15.5 -24h-4
q-27 0 -47.5 17.5t-20.5 48.5q0 26 13.5 43.5t34.5 26t42 8.5z" />
    <glyph glyph-name="adieresis" unicode="&#xe4;" horiz-adv-x="529" 
d="M253 -15q-101 0 -160.5 39t-59.5 117q0 68 42 104t125 44l134 14v15q0 36 -27 52t-76 16q-38 0 -75 -9.5t-66 -22.5q-11 8 -19 23.5t-8 32.5q0 40 43 58q29 12 67 18t75 6q101 0 161.5 -42.5t60.5 -133.5v-228q0 -25 -12.5 -39.5t-31.5 -26.5q-29 -17 -73 -27t-100 -10z
M253 89q26 0 48.5 5t33.5 12v102l-90 -8q-36 -3 -56 -16t-20 -38q0 -26 20 -41.5t64 -15.5zM238 620q0 -30 -20.5 -50.5t-52.5 -20.5t-52 20.5t-20 50.5q0 29 20 50t52 21t52.5 -21t20.5 -50zM439 620q0 -30 -20.5 -50.5t-52.5 -20.5q-31 0 -52 20.5t-21 50.5q0 29 21 50
t52 21q32 0 52.5 -21t20.5 -50z" />
    <glyph glyph-name="aring" unicode="&#xe5;" horiz-adv-x="529" 
d="M253 -15q-101 0 -160.5 39t-59.5 117q0 68 42 104t125 44l134 14v15q0 36 -27 52t-76 16q-38 0 -75 -9.5t-66 -22.5q-11 8 -19 23.5t-8 32.5q0 40 43 58q29 12 67 18t75 6q101 0 161.5 -42.5t60.5 -133.5v-228q0 -25 -12.5 -39.5t-31.5 -26.5q-29 -17 -73 -27t-100 -10z
M253 89q26 0 48.5 5t33.5 12v102l-90 -8q-36 -3 -56 -16t-20 -38q0 -26 20 -41.5t64 -15.5zM140 631q0 44 32.5 75t89.5 31q60 0 93 -31t33 -75t-33 -74.5t-93 -30.5q-57 0 -89.5 30.5t-32.5 74.5zM226 631q0 -18 10.5 -28t26.5 -10t27 10t11 28t-11 28t-27 10t-26.5 -10
t-10.5 -28z" />
    <glyph glyph-name="ae" unicode="&#xe6;" horiz-adv-x="824" 
d="M590 -15q-111 0 -175.5 62.5t-69.5 170.5q0 6 -2 13.5t-2 13.5q0 84 31 138.5t81.5 81.5t110.5 27q67 0 118 -27t79.5 -74t28.5 -108q0 -30 -15.5 -45.5t-44.5 -19.5l-321 -47l-5 96l255 39q-3 32 -26.5 57t-68.5 25q-48 0 -79 -32t-32 -92l4 -63q8 -58 47 -84t95 -26
q42 0 78.5 12t59.5 26q14 -9 23.5 -24t9.5 -32q0 -28 -23.5 -48t-64 -30t-92.5 -10zM253 89q26 0 48.5 5t33.5 12v102l-90 -8q-36 -3 -56 -16t-20 -38q0 -26 20 -41.5t64 -15.5zM251 -15q-101 0 -159.5 39t-58.5 117q0 68 42 104t125 44l134 14v15q0 36 -27 52t-76 16
q-38 0 -75 -9.5t-66 -22.5q-11 8 -19 23.5t-8 32.5q0 40 43 58q29 12 67 18t75 6q94 0 144.5 -44t50.5 -132v-230q0 -25 -11 -41t-26 -24q-29 -16 -64 -26t-91 -10z" />
    <glyph glyph-name="ccedilla" unicode="&#xe7;" horiz-adv-x="485" 
d="M313 381q-56 0 -95 -37t-39 -107t37.5 -105t96.5 -35q34 0 59 8.5t43 19.5q16 -12 25 -25.5t9 -32.5q0 -36 -40.5 -58.5t-109.5 -22.5q-78 0 -137.5 28t-92 84.5t-32.5 138.5q0 86 35.5 142.5t94 84.5t128.5 28q68 0 108 -24t40 -61q0 -16 -8.5 -30t-20.5 -24
q-18 11 -43 19.5t-58 8.5zM232 4l77 27q34 -20 48 -50t14 -65q0 -50 -31 -82t-85 -32q-36 0 -57.5 17t-21.5 48q0 16 5 28h11q33 0 47.5 15t14.5 38q0 13 -5 28.5t-17 27.5z" />
    <glyph glyph-name="egrave" unicode="&#xe8;" horiz-adv-x="539" 
d="M124 171l-6 96l256 39q-3 32 -26.5 57t-68.5 25q-48 0 -79 -32t-33 -92l4 -63q9 -58 48 -84t95 -26q42 0 78.5 12t58.5 26q14 -9 23.5 -24t9.5 -32q0 -28 -23.5 -48t-63.5 -30t-92 -10q-78 0 -138.5 29t-95 87t-34.5 144q0 62 20 109t53.5 77.5t77 45.5t90.5 15
q68 0 118.5 -27t79.5 -74t29 -108q0 -30 -16 -45.5t-44 -19.5zM221 549l-97 93q-1 4 -1.5 10t-0.5 10q0 29 17.5 46t43.5 17q17 0 32 -6.5t29 -23.5l89 -112q-3 -28 -20 -42.5t-38 -14.5q-18 0 -30 6t-24 17z" />
    <glyph glyph-name="eacute" unicode="&#xe9;" horiz-adv-x="539" 
d="M124 171l-6 96l256 39q-3 32 -26.5 57t-68.5 25q-48 0 -79 -32t-33 -92l4 -63q9 -58 48 -84t95 -26q42 0 78.5 12t58.5 26q14 -9 23.5 -24t9.5 -32q0 -28 -23.5 -48t-63.5 -30t-92 -10q-78 0 -138.5 29t-95 87t-34.5 144q0 62 20 109t53.5 77.5t77 45.5t90.5 15
q68 0 118.5 -27t79.5 -74t29 -108q0 -30 -16 -45.5t-44 -19.5zM240 621l99 109q42 0 64 -18.5t22 -42.5q0 -19 -9 -32.5t-29 -30.5l-94 -82q-35 0 -54.5 17.5t-19.5 37.5q0 11 5 20.5t16 21.5z" />
    <glyph glyph-name="ecircumflex" unicode="&#xea;" horiz-adv-x="539" 
d="M124 171l-6 96l256 39q-3 32 -26.5 57t-68.5 25q-48 0 -79 -32t-33 -92l4 -63q9 -58 48 -84t95 -26q42 0 78.5 12t58.5 26q14 -9 23.5 -24t9.5 -32q0 -28 -23.5 -48t-63.5 -30t-92 -10q-78 0 -138.5 29t-95 87t-34.5 144q0 62 20 109t53.5 77.5t77 45.5t90.5 15
q68 0 118.5 -27t79.5 -74t29 -108q0 -30 -16 -45.5t-44 -19.5zM328 565l-48 58q-25 -28 -43.5 -48.5t-40.5 -45.5q-32 1 -51 16t-19 38q0 17 9.5 29.5t26.5 29.5l44 45q17 17 34.5 26.5t41.5 9.5q22 0 40.5 -8.5t40.5 -36.5l75 -91q0 -23 -13 -39.5t-41 -16.5q-17 0 -30 9
t-26 25z" />
    <glyph glyph-name="edieresis" unicode="&#xeb;" horiz-adv-x="539" 
d="M124 171l-6 96l256 39q-3 32 -26.5 57t-68.5 25q-48 0 -79 -32t-33 -92l4 -63q9 -58 48 -84t95 -26q42 0 78.5 12t58.5 26q14 -9 23.5 -24t9.5 -32q0 -28 -23.5 -48t-63.5 -30t-92 -10q-78 0 -138.5 29t-95 87t-34.5 144q0 62 20 109t53.5 77.5t77 45.5t90.5 15
q68 0 118.5 -27t79.5 -74t29 -108q0 -30 -16 -45.5t-44 -19.5zM243 620q0 -30 -20.5 -50.5t-52.5 -20.5t-52 20.5t-20 50.5q0 29 20 50t52 21t52.5 -21t20.5 -50zM444 620q0 -30 -20.5 -50.5t-52.5 -20.5q-31 0 -52 20.5t-21 50.5q0 29 21 50t52 21q32 0 52.5 -21t20.5 -50z
" />
    <glyph glyph-name="igrave" unicode="&#xec;" horiz-adv-x="268" 
d="M64 286h140v-286q-9 -2 -26 -5t-37 -3q-39 0 -58 14.5t-19 50.5v229zM204 239h-140v233q9 3 26 5.5t37 2.5q40 0 58.5 -14t18.5 -51v-176zM79 549l-97 93q-1 4 -1.5 10t-0.5 10q0 29 17.5 46t43.5 17q17 0 32 -6.5t29 -23.5l89 -112q-3 -28 -20 -42.5t-38 -14.5
q-17 0 -29.5 6t-24.5 17z" />
    <glyph glyph-name="iacute" unicode="&#xed;" horiz-adv-x="268" 
d="M64 286h140v-286q-9 -2 -26 -5t-37 -3q-39 0 -58 14.5t-19 50.5v229zM204 239h-140v233q9 3 26 5.5t37 2.5q40 0 58.5 -14t18.5 -51v-176zM97 621l99 109q42 0 64 -18.5t22 -42.5q0 -19 -9 -32.5t-29 -30.5l-94 -82q-35 0 -54.5 17.5t-19.5 37.5q0 11 5 20.5t16 21.5z
" />
    <glyph glyph-name="icircumflex" unicode="&#xee;" horiz-adv-x="268" 
d="M64 286h140v-286q-9 -2 -26 -5t-37 -3q-39 0 -58 14.5t-19 50.5v229zM204 239h-140v233q9 3 26 5.5t37 2.5q40 0 58.5 -14t18.5 -51v-176zM183 565l-49 58q-25 -28 -43.5 -48.5t-39.5 -45.5q-32 1 -51.5 16t-19.5 38q0 17 9.5 29.5t27.5 29.5l43 45q17 17 35 26.5t41 9.5
t41.5 -8.5t40.5 -36.5l75 -91q0 -23 -13.5 -39.5t-41.5 -16.5q-16 0 -29 9t-26 25z" />
    <glyph glyph-name="idieresis" unicode="&#xef;" horiz-adv-x="268" 
d="M64 286h140v-286q-9 -2 -26 -5t-37 -3q-39 0 -58 14.5t-19 50.5v229zM204 239h-140v233q9 3 26 5.5t37 2.5q40 0 58.5 -14t18.5 -51v-176zM105 620q0 -29 -20 -49.5t-53 -20.5q-31 0 -51 20.5t-20 49.5q0 30 20 50.5t51 20.5q33 0 53 -20.5t20 -50.5zM306 620
q0 -29 -20 -49.5t-52 -20.5t-52.5 20.5t-20.5 49.5q0 30 20.5 50.5t52.5 20.5t52 -20.5t20 -50.5z" />
    <glyph glyph-name="eth" unicode="&#xf0;" horiz-adv-x="569" 
d="M375 551l-47 -18l-178 -66q-13 9 -23 25t-10 33q0 28 31 41l74 30l80 31l137 55q12 -9 22.5 -24.5t10.5 -33.5q0 -20 -8.5 -29.5t-23.5 -16.5zM412 388l-17 -106q-17 29 -44.5 45.5t-61.5 16.5q-53 0 -81 -33.5t-28 -88.5q0 -58 27.5 -92t79.5 -34q51 0 76 35t25 94
q0 31 -3.5 56t-10.5 51q-2 14 -1 25t1.5 21t-4.5 21q-19 41 -41.5 74t-58.5 62q-8 7 -19.5 16.5t-20.5 16.5q-26 17 -54.5 28t-60.5 22q2 37 21 56t48 19q40 0 83 -18.5t84 -50.5q8 -7 14 -12t14 -13q42 -40 76.5 -94t55 -118t20.5 -134q0 -81 -27 -141t-81 -93.5
t-137 -33.5q-115 0 -182 63.5t-67 173.5q0 77 32.5 127.5t84.5 75.5t109 25q51 0 88.5 -18t60.5 -44z" />
    <glyph glyph-name="ntilde" unicode="&#xf1;" horiz-adv-x="575" 
d="M514 310v-95h-139v91q0 39 -23 57.5t-61 18.5q-27 0 -49 -6.5t-40 -16.5v-144h-139v158q0 25 10.5 40.5t30.5 29.5q31 21 80 35t109 14q105 0 163 -46.5t58 -135.5zM63 262h139v-261q-9 -2 -26 -5t-37 -3q-39 0 -57.5 14t-18.5 51v204zM375 262h139v-261q-9 -2 -26 -5
t-36 -3q-40 0 -58.5 14t-18.5 51v204zM204 693q28 0 53.5 -7.5t47 -15t36.5 -7.5q21 0 32 12t15 24h5q27 0 47 -18t20 -48q0 -39 -25 -59t-64 -20q-31 0 -56 8t-45.5 15.5t-36.5 7.5q-21 0 -31.5 -12t-15.5 -24h-4q-27 0 -47.5 17.5t-20.5 48.5q0 26 13.5 43.5t34.5 26
t42 8.5z" />
    <glyph glyph-name="ograve" unicode="&#xf2;" horiz-adv-x="575" 
d="M538 239q0 -78 -31 -135t-87 -88t-132 -31t-132.5 30.5t-87.5 87.5t-31 136q0 78 31.5 134.5t88 87.5t131.5 31t131 -31t87.5 -88t31.5 -134zM287 382q-49 0 -78 -37.5t-29 -105.5q0 -70 28.5 -107t79.5 -37q50 0 78.5 37.5t28.5 106.5q0 67 -28.5 105t-79.5 38zM253 549
l-97 93q-1 4 -1.5 10t-0.5 10q0 29 17.5 46t43.5 17q17 0 32 -6.5t29 -23.5l89 -112q-3 -28 -20 -42.5t-38 -14.5q-18 0 -30 6t-24 17z" />
    <glyph glyph-name="oacute" unicode="&#xf3;" horiz-adv-x="575" 
d="M538 239q0 -78 -31 -135t-87 -88t-132 -31t-132.5 30.5t-87.5 87.5t-31 136q0 78 31.5 134.5t88 87.5t131.5 31t131 -31t87.5 -88t31.5 -134zM287 382q-49 0 -78 -37.5t-29 -105.5q0 -70 28.5 -107t79.5 -37q50 0 78.5 37.5t28.5 106.5q0 67 -28.5 105t-79.5 38zM235 621
l99 109q42 0 64 -18.5t22 -42.5q0 -19 -9 -32.5t-29 -30.5l-94 -82q-35 0 -54.5 17.5t-19.5 37.5q0 11 5 20.5t16 21.5z" />
    <glyph glyph-name="ocircumflex" unicode="&#xf4;" horiz-adv-x="575" 
d="M538 239q0 -78 -31 -135t-87 -88t-132 -31t-132.5 30.5t-87.5 87.5t-31 136q0 78 31.5 134.5t88 87.5t131.5 31t131 -31t87.5 -88t31.5 -134zM287 382q-49 0 -78 -37.5t-29 -105.5q0 -70 28.5 -107t79.5 -37q50 0 78.5 37.5t28.5 106.5q0 67 -28.5 105t-79.5 38zM334 565
l-48 58q-25 -28 -43.5 -48.5t-40.5 -45.5q-32 1 -51 16t-19 38q0 17 9.5 29.5t26.5 29.5l44 45q17 17 34.5 26.5t41.5 9.5q22 0 40.5 -8.5t40.5 -36.5l75 -91q0 -23 -13 -39.5t-41 -16.5q-17 0 -30 9t-26 25z" />
    <glyph glyph-name="otilde" unicode="&#xf5;" horiz-adv-x="575" 
d="M538 239q0 -78 -31 -135t-87 -88t-132 -31t-132.5 30.5t-87.5 87.5t-31 136q0 78 31.5 134.5t88 87.5t131.5 31t131 -31t87.5 -88t31.5 -134zM287 382q-49 0 -78 -37.5t-29 -105.5q0 -70 28.5 -107t79.5 -37q50 0 78.5 37.5t28.5 106.5q0 67 -28.5 105t-79.5 38zM206 693
q28 0 53.5 -7.5t47 -15t36.5 -7.5q21 0 32 12t15 24h5q27 0 47 -18t20 -48q0 -39 -25 -59t-64 -20q-31 0 -56 8t-45.5 15.5t-36.5 7.5q-21 0 -31.5 -12t-15.5 -24h-4q-27 0 -47.5 17.5t-20.5 48.5q0 26 13.5 43.5t34.5 26t42 8.5z" />
    <glyph glyph-name="odieresis" unicode="&#xf6;" horiz-adv-x="575" 
d="M538 239q0 -78 -31 -135t-87 -88t-132 -31t-132.5 30.5t-87.5 87.5t-31 136q0 78 31.5 134.5t88 87.5t131.5 31t131 -31t87.5 -88t31.5 -134zM287 382q-49 0 -78 -37.5t-29 -105.5q0 -70 28.5 -107t79.5 -37q50 0 78.5 37.5t28.5 106.5q0 67 -28.5 105t-79.5 38zM259 620
q0 -30 -20.5 -50.5t-52.5 -20.5t-52 20.5t-20 50.5q0 29 20 50t52 21t52.5 -21t20.5 -50zM460 620q0 -30 -20.5 -50.5t-52.5 -20.5q-31 0 -52 20.5t-21 50.5q0 29 21 50t52 21q32 0 52.5 -21t20.5 -50z" />
    <glyph glyph-name="divide" unicode="&#xf7;" horiz-adv-x="524" 
d="M435 237h-384q-6 10 -10 23t-4 30q0 30 14.5 44t37.5 14h384q5 -9 9.5 -23.5t4.5 -31.5q0 -30 -14.5 -43t-37.5 -13zM194 125q0 30 19.5 50.5t50.5 20.5q32 0 51 -20.5t19 -50.5t-19 -50t-51 -20q-31 0 -50.5 20t-19.5 50zM194 458q0 31 19.5 51t50.5 20q32 0 51 -20
t19 -51q0 -30 -19 -50t-51 -20q-31 0 -50.5 20t-19.5 50z" />
    <glyph glyph-name="oslash" unicode="&#xf8;" horiz-adv-x="575" 
d="M435 388l-53 62l59 89q13 0 27 -5.5t23.5 -15.5t9.5 -23q0 -9 -6 -19zM206 44l-72 -105q-13 0 -27.5 6t-23.5 16t-9 22q0 10 7 20l52 76zM224 74l-46 69l164 247l70 -32zM538 239q0 -78 -31 -135t-87 -88t-132 -31t-132.5 30.5t-87.5 87.5t-31 136q0 78 31.5 134.5
t88 87.5t131.5 31t131 -31t87.5 -88t31.5 -134zM288 383q-50 0 -83.5 -37t-33.5 -107t32.5 -107.5t84.5 -37.5q50 0 83 36.5t33 108.5q0 70 -33 107t-83 37z" />
    <glyph glyph-name="ugrave" unicode="&#xf9;" horiz-adv-x="571" 
d="M60 185v74h139v-73q0 -48 25 -69.5t70 -21.5q29 0 48.5 5.5t29.5 11.5v147h139v-162q0 -24 -8.5 -40.5t-29.5 -29.5q-31 -19 -77 -30.5t-103 -11.5q-70 0 -122.5 21t-81.5 65t-29 114zM511 213h-139v263q9 2 26 5t37 3q40 0 58 -13.5t18 -51.5v-206zM199 213h-139v263
q9 2 26 5t37 3q40 0 58 -13.5t18 -51.5v-206zM223 549l-97 93q-1 4 -1.5 10t-0.5 10q0 29 17.5 46t43.5 17q17 0 32 -6.5t29 -23.5l89 -112q-3 -28 -20 -42.5t-38 -14.5q-18 0 -30 6t-24 17z" />
    <glyph glyph-name="uacute" unicode="&#xfa;" horiz-adv-x="571" 
d="M60 185v74h139v-73q0 -48 25 -69.5t70 -21.5q29 0 48.5 5.5t29.5 11.5v147h139v-162q0 -24 -8.5 -40.5t-29.5 -29.5q-31 -19 -77 -30.5t-103 -11.5q-70 0 -122.5 21t-81.5 65t-29 114zM511 213h-139v263q9 2 26 5t37 3q40 0 58 -13.5t18 -51.5v-206zM199 213h-139v263
q9 2 26 5t37 3q40 0 58 -13.5t18 -51.5v-206zM256 621l99 109q42 0 64 -18.5t22 -42.5q0 -19 -9 -32.5t-29 -30.5l-94 -82q-35 0 -54.5 17.5t-19.5 37.5q0 11 5 20.5t16 21.5z" />
    <glyph glyph-name="ucircumflex" unicode="&#xfb;" horiz-adv-x="571" 
d="M60 185v74h139v-73q0 -48 25 -69.5t70 -21.5q29 0 48.5 5.5t29.5 11.5v147h139v-162q0 -24 -8.5 -40.5t-29.5 -29.5q-31 -19 -77 -30.5t-103 -11.5q-70 0 -122.5 21t-81.5 65t-29 114zM511 213h-139v263q9 2 26 5t37 3q40 0 58 -13.5t18 -51.5v-206zM199 213h-139v263
q9 2 26 5t37 3q40 0 58 -13.5t18 -51.5v-206zM333 565l-48 58q-25 -28 -43.5 -48.5t-40.5 -45.5q-32 1 -51 16t-19 38q0 17 9.5 29.5t26.5 29.5l44 45q17 17 34.5 26.5t41.5 9.5q22 0 40.5 -8.5t40.5 -36.5l75 -91q0 -23 -13 -39.5t-41 -16.5q-17 0 -30 9t-26 25z" />
    <glyph glyph-name="udieresis" unicode="&#xfc;" horiz-adv-x="571" 
d="M60 185v74h139v-73q0 -48 25 -69.5t70 -21.5q29 0 48.5 5.5t29.5 11.5v147h139v-162q0 -24 -8.5 -40.5t-29.5 -29.5q-31 -19 -77 -30.5t-103 -11.5q-70 0 -122.5 21t-81.5 65t-29 114zM511 213h-139v263q9 2 26 5t37 3q40 0 58 -13.5t18 -51.5v-206zM199 213h-139v263
q9 2 26 5t37 3q40 0 58 -13.5t18 -51.5v-206zM255 620q0 -30 -20.5 -50.5t-52.5 -20.5t-52 20.5t-20 50.5q0 29 20 50t52 21t52.5 -21t20.5 -50zM456 620q0 -30 -20.5 -50.5t-52.5 -20.5q-31 0 -52 20.5t-21 50.5q0 29 21 50t52 21q32 0 52.5 -21t20.5 -50z" />
    <glyph glyph-name="yacute" unicode="&#xfd;" horiz-adv-x="530" 
d="M142 117q-16 33 -35 81t-40 112t-44 147q12 13 31.5 21.5t42.5 8.5q29 0 47.5 -12.5t28.5 -45.5q24 -75 48 -148.5t50 -148.5h4q18 45 36 102.5t34 119.5t27 118q14 7 28.5 11t31.5 4q29 0 50 -12.5t21 -42.5q0 -27 -8.5 -67.5t-23 -88t-33.5 -98t-40 -97.5t-43 -84
q-52 -93 -96.5 -139.5t-88.5 -46.5q-34 0 -56 20.5t-26 52.5q21 18 44.5 42.5t45.5 52.5t38 54q-17 5 -35 22t-39 62zM214 621l99 109q42 0 64 -18.5t22 -42.5q0 -19 -9 -32.5t-29 -30.5l-94 -82q-35 0 -54.5 17.5t-19.5 37.5q0 11 5 20.5t16 21.5z" />
    <glyph glyph-name="thorn" unicode="&#xfe;" horiz-adv-x="575" 
d="M294 -14q-38 0 -69 9.5t-52 21.5v119q18 -15 42.5 -27t58.5 -12q56 0 88 35.5t32 108.5q0 51 -15 81.5t-41.5 45t-59.5 14.5q-25 0 -50.5 -7.5t-50.5 -26.5l-9 113q20 9 53.5 20t75.5 11q66 0 120 -26t87 -81.5t33 -143.5q0 -84 -31.5 -140.5t-86.5 -85.5t-125 -29z
M138 -180q-39 0 -57.5 14.5t-18.5 51.5v204l139 -1v-260q-9 -3 -26 -6t-37 -3zM62 54v597q9 3 26 5.5t37 2.5q40 0 58 -14t18 -51v-540h-139z" />
    <glyph glyph-name="ydieresis" unicode="&#xff;" horiz-adv-x="530" 
d="M142 117q-16 33 -35 81t-40 112t-44 147q12 13 31.5 21.5t42.5 8.5q29 0 47.5 -12.5t28.5 -45.5q24 -75 48 -148.5t50 -148.5h4q18 45 36 102.5t34 119.5t27 118q14 7 28.5 11t31.5 4q29 0 50 -12.5t21 -42.5q0 -27 -8.5 -67.5t-23 -88t-33.5 -98t-40 -97.5t-43 -84
q-52 -93 -96.5 -139.5t-88.5 -46.5q-34 0 -56 20.5t-26 52.5q21 18 44.5 42.5t45.5 52.5t38 54q-17 5 -35 22t-39 62zM234 620q0 -30 -20.5 -50.5t-52.5 -20.5t-52 20.5t-20 50.5q0 29 20 50t52 21t52.5 -21t20.5 -50zM435 620q0 -30 -20.5 -50.5t-52.5 -20.5
q-31 0 -52 20.5t-21 50.5q0 29 21 50t52 21q32 0 52.5 -21t20.5 -50z" />
    <glyph glyph-name="Amacron" unicode="&#x100;" horiz-adv-x="615" 
d="M414 692h-253q-4 9 -9 22.5t-5 29.5q0 30 13 42.5t34 12.5h252q7 -9 10.5 -23t3.5 -29q0 -30 -12.5 -42.5t-33.5 -12.5zM313 488h-6q-11 -33 -25 -74.5t-29.5 -86.5t-28.5 -88l-17 -80q-6 -19 -12 -41t-12.5 -43t-12 -40.5t-9.5 -34.5q-11 -4 -24 -7t-32 -3
q-38 0 -59 14.5t-21 41.5q0 12 4 24.5t8 28.5q10 33 26.5 83t36.5 108.5t40.5 116t38.5 106.5t30 79q14 8 42.5 15.5t56.5 7.5q40 0 72 -11.5t40 -37.5q20 -53 43 -123.5t47 -146.5t45.5 -148t38.5 -130q-10 -12 -30 -19.5t-46 -7.5q-39 0 -55 13.5t-24 42.5l-36 119l-15 78
q-14 46 -28 91t-26 84.5t-21 68.5zM145 138l54 112h240l19 -112h-313z" />
    <glyph glyph-name="amacron" unicode="&#x101;" horiz-adv-x="529" 
d="M253 -15q-101 0 -160.5 39t-59.5 117q0 68 42 104t125 44l134 14v15q0 36 -27 52t-76 16q-38 0 -75 -9.5t-66 -22.5q-11 8 -19 23.5t-8 32.5q0 40 43 58q29 12 67 18t75 6q101 0 161.5 -42.5t60.5 -133.5v-228q0 -25 -12.5 -39.5t-31.5 -26.5q-29 -17 -73 -27t-100 -10z
M253 89q26 0 48.5 5t33.5 12v102l-90 -8q-36 -3 -56 -16t-20 -38q0 -26 20 -41.5t64 -15.5zM380 566h-253q-4 9 -9 23t-5 29q0 30 13 42.5t34 12.5h253q6 -9 10 -23t4 -29q0 -30 -12.5 -42.5t-34.5 -12.5z" />
    <glyph glyph-name="Abreve" unicode="&#x102;" horiz-adv-x="615" 
d="M313 488h-6q-11 -33 -25 -74.5t-29.5 -86.5t-28.5 -88l-17 -80q-6 -19 -12 -41t-12.5 -43t-12 -40.5t-9.5 -34.5q-11 -4 -24 -7t-32 -3q-38 0 -59 14.5t-21 41.5q0 12 4 24.5t8 28.5q10 33 26.5 83t36.5 108.5t40.5 116t38.5 106.5t30 79q14 8 42.5 15.5t56.5 7.5
q40 0 72 -11.5t40 -37.5q20 -53 43 -123.5t47 -146.5t45.5 -148t38.5 -130q-10 -12 -30 -19.5t-46 -7.5q-39 0 -55 13.5t-24 42.5l-36 119l-15 78q-14 46 -28 91t-26 84.5t-21 68.5zM145 138l54 112h240l19 -112h-313zM310 765q31 0 50.5 15.5t25.5 41.5q4 1 8.5 1h8.5
q33 0 49 -18t16 -42q0 -40 -41 -70t-117 -30q-78 0 -118.5 30t-40.5 70q0 24 16.5 42t48.5 18h9t9 -1q5 -26 25 -41.5t51 -15.5z" />
    <glyph glyph-name="abreve" unicode="&#x103;" horiz-adv-x="529" 
d="M253 -15q-101 0 -160.5 39t-59.5 117q0 68 42 104t125 44l134 14v15q0 36 -27 52t-76 16q-38 0 -75 -9.5t-66 -22.5q-11 8 -19 23.5t-8 32.5q0 40 43 58q29 12 67 18t75 6q101 0 161.5 -42.5t60.5 -133.5v-228q0 -25 -12.5 -39.5t-31.5 -26.5q-29 -17 -73 -27t-100 -10z
M253 89q26 0 48.5 5t33.5 12v102l-90 -8q-36 -3 -56 -16t-20 -38q0 -26 20 -41.5t64 -15.5zM265 651q31 0 50.5 15.5t25.5 41.5q4 1 8.5 1h8.5q33 0 49 -18t16 -42q0 -40 -41 -70t-117 -30q-78 0 -118.5 30t-40.5 70q0 24 16.5 42t48.5 18h9t9 -1q5 -26 25 -41.5t51 -15.5z
" />
    <glyph glyph-name="Aogonek" unicode="&#x104;" horiz-adv-x="615" 
d="M474 11l105 -2q-17 -10 -29 -24.5t-12 -37.5q0 -22 15 -34.5t42 -12.5h8q3 -8 5 -16.5t2 -18.5q0 -24 -17.5 -42.5t-61.5 -18.5q-51 0 -85.5 27t-34.5 75q0 28 10.5 49.5t25 36t27.5 19.5zM313 488h-6q-11 -33 -25 -74.5t-29.5 -86.5t-28.5 -88l-17 -80q-6 -19 -12 -41
t-12.5 -43t-12 -40.5t-9.5 -34.5q-11 -4 -24 -7t-32 -3q-38 0 -59 14.5t-21 41.5q0 12 4 24.5t8 28.5q10 33 26.5 83t36.5 108.5t40.5 116t38.5 106.5t30 79q14 8 42.5 15.5t56.5 7.5q40 0 72 -11.5t40 -37.5q20 -53 43 -123.5t47 -146.5t45.5 -148t38.5 -130
q-10 -12 -30 -19.5t-46 -7.5q-39 0 -55 13.5t-24 42.5l-36 119l-15 78q-14 46 -28 91t-26 84.5t-21 68.5zM145 138l54 112h240l19 -112h-313z" />
    <glyph glyph-name="aogonek" unicode="&#x105;" horiz-adv-x="529" 
d="M324 7l117 26q-24 -19 -39 -37.5t-15 -48.5q0 -22 15 -34.5t42 -12.5h8q3 -8 5 -16.5t2 -18.5q0 -24 -17.5 -42.5t-62.5 -18.5q-51 0 -85 27t-34 75q0 41 22 66t42 35zM253 -15q-101 0 -160.5 39t-59.5 117q0 68 42 104t125 44l134 14v15q0 36 -27 52t-76 16
q-38 0 -75 -9.5t-66 -22.5q-11 8 -19 23.5t-8 32.5q0 40 43 58q29 12 67 18t75 6q101 0 161.5 -42.5t60.5 -133.5v-228q0 -25 -12.5 -39.5t-31.5 -26.5q-29 -17 -73 -27t-100 -10zM253 89q26 0 48.5 5t33.5 12v102l-90 -8q-36 -3 -56 -16t-20 -38q0 -26 20 -41.5t64 -15.5z
" />
    <glyph glyph-name="Cacute" unicode="&#x106;" horiz-adv-x="577" 
d="M538 526q0 -21 -11.5 -37.5t-26.5 -25.5q-25 17 -56.5 30.5t-76.5 13.5q-55 0 -94.5 -23.5t-61.5 -69t-22 -111.5q0 -100 50 -151.5t135 -51.5q45 0 77 12.5t57 28.5q15 -10 24.5 -27t9.5 -39q0 -18 -10 -34t-33 -28q-20 -10 -55.5 -19.5t-87.5 -9.5q-88 0 -159.5 34.5
t-113.5 105t-42 179.5q0 104 41.5 175.5t111.5 108.5t154 37q59 0 101.5 -13.5t65.5 -35.5t23 -49zM289 745l108 92q35 0 54.5 -17t19.5 -42q0 -17 -8.5 -31t-31.5 -29l-95 -65q-33 1 -50 15.5t-17 34.5q0 12 4 21.5t16 20.5z" />
    <glyph glyph-name="cacute" unicode="&#x107;" horiz-adv-x="485" 
d="M313 381q-56 0 -95 -37t-39 -107t37.5 -105t96.5 -35q34 0 59 8.5t43 19.5q16 -12 25 -25.5t9 -32.5q0 -36 -40.5 -58.5t-109.5 -22.5q-78 0 -137.5 28t-92 84.5t-32.5 138.5q0 86 35.5 142.5t94 84.5t128.5 28q68 0 108 -24t40 -61q0 -16 -8.5 -30t-20.5 -24
q-18 11 -43 19.5t-58 8.5zM237 621l99 109q42 0 64 -18.5t22 -42.5q0 -19 -9 -32.5t-29 -30.5l-94 -82q-35 0 -54.5 17.5t-19.5 37.5q0 11 5 20.5t16 21.5z" />
    <glyph glyph-name="Ccircumflex" unicode="&#x108;" horiz-adv-x="577" 
d="M538 526q0 -21 -11.5 -37.5t-26.5 -25.5q-25 17 -56.5 30.5t-76.5 13.5q-55 0 -94.5 -23.5t-61.5 -69t-22 -111.5q0 -100 50 -151.5t135 -51.5q45 0 77 12.5t57 28.5q15 -10 24.5 -27t9.5 -39q0 -18 -10 -34t-33 -28q-20 -10 -55.5 -19.5t-87.5 -9.5q-88 0 -159.5 34.5
t-113.5 105t-42 179.5q0 104 41.5 175.5t111.5 108.5t154 37q59 0 101.5 -13.5t65.5 -35.5t23 -49zM338 740q-22 -21 -45.5 -44t-48.5 -44q-26 1 -43.5 16t-17.5 37q0 18 9 31t31 31l39 34q44 35 77 35q23 0 41 -8.5t36 -28.5l82 -85q0 -29 -15.5 -44t-41.5 -15
q-17 0 -32 10.5t-35 33.5z" />
    <glyph glyph-name="ccircumflex" unicode="&#x109;" horiz-adv-x="485" 
d="M313 381q-56 0 -95 -37t-39 -107t37.5 -105t96.5 -35q34 0 59 8.5t43 19.5q16 -12 25 -25.5t9 -32.5q0 -36 -40.5 -58.5t-109.5 -22.5q-78 0 -137.5 28t-92 84.5t-32.5 138.5q0 86 35.5 142.5t94 84.5t128.5 28q68 0 108 -24t40 -61q0 -16 -8.5 -30t-20.5 -24
q-18 11 -43 19.5t-58 8.5zM323 565l-48 58q-25 -28 -43.5 -48.5t-40.5 -45.5q-32 1 -51 16t-19 38q0 17 9.5 29.5t26.5 29.5l44 45q17 17 34.5 26.5t41.5 9.5q22 0 40.5 -8.5t40.5 -36.5l75 -91q0 -23 -13 -39.5t-41 -16.5q-17 0 -30 9t-26 25z" />
    <glyph glyph-name="Cdotaccent" unicode="&#x10a;" horiz-adv-x="577" 
d="M538 526q0 -21 -11.5 -37.5t-26.5 -25.5q-25 17 -56.5 30.5t-76.5 13.5q-55 0 -94.5 -23.5t-61.5 -69t-22 -111.5q0 -100 50 -151.5t135 -51.5q45 0 77 12.5t57 28.5q15 -10 24.5 -27t9.5 -39q0 -18 -10 -34t-33 -28q-20 -10 -55.5 -19.5t-87.5 -9.5q-88 0 -159.5 34.5
t-113.5 105t-42 179.5q0 104 41.5 175.5t111.5 108.5t154 37q59 0 101.5 -13.5t65.5 -35.5t23 -49zM415 749q0 -31 -21 -52.5t-56 -21.5q-33 0 -54.5 21.5t-21.5 52.5q0 33 21.5 54t54.5 21q35 0 56 -21t21 -54z" />
    <glyph glyph-name="cdotaccent" unicode="&#x10b;" horiz-adv-x="485" 
d="M313 381q-56 0 -95 -37t-39 -107t37.5 -105t96.5 -35q34 0 59 8.5t43 19.5q16 -12 25 -25.5t9 -32.5q0 -36 -40.5 -58.5t-109.5 -22.5q-78 0 -137.5 28t-92 84.5t-32.5 138.5q0 86 35.5 142.5t94 84.5t128.5 28q68 0 108 -24t40 -61q0 -16 -8.5 -30t-20.5 -24
q-18 11 -43 19.5t-58 8.5zM352 623q0 -31 -21 -52.5t-56 -21.5q-33 0 -54.5 21.5t-21.5 52.5q0 33 21.5 54t54.5 21q35 0 56 -21t21 -54z" />
    <glyph glyph-name="Ccaron" unicode="&#x10c;" horiz-adv-x="577" 
d="M538 526q0 -21 -11.5 -37.5t-26.5 -25.5q-25 17 -56.5 30.5t-76.5 13.5q-55 0 -94.5 -23.5t-61.5 -69t-22 -111.5q0 -100 50 -151.5t135 -51.5q45 0 77 12.5t57 28.5q15 -10 24.5 -27t9.5 -39q0 -18 -10 -34t-33 -28q-20 -10 -55.5 -19.5t-87.5 -9.5q-88 0 -159.5 34.5
t-113.5 105t-42 179.5q0 104 41.5 175.5t111.5 108.5t154 37q59 0 101.5 -13.5t65.5 -35.5t23 -49zM342 748q23 21 46.5 44t46.5 44q27 -1 45.5 -15.5t18.5 -38.5q0 -18 -9.5 -31t-31.5 -31l-39 -34q-23 -18 -39.5 -25.5t-37.5 -7.5q-25 0 -43 10t-35 26l-83 79
q0 31 14.5 48t40.5 17q17 0 32 -9t38 -35z" />
    <glyph glyph-name="ccaron" unicode="&#x10d;" horiz-adv-x="485" 
d="M313 381q-56 0 -95 -37t-39 -107t37.5 -105t96.5 -35q34 0 59 8.5t43 19.5q16 -12 25 -25.5t9 -32.5q0 -36 -40.5 -58.5t-109.5 -22.5q-78 0 -137.5 28t-92 84.5t-32.5 138.5q0 86 35.5 142.5t94 84.5t128.5 28q68 0 108 -24t40 -61q0 -16 -8.5 -30t-20.5 -24
q-18 11 -43 19.5t-58 8.5zM230 678l43 -47l90 89q32 -1 51 -16.5t19 -39.5q0 -18 -10 -30.5t-30 -29.5l-51 -47q-16 -13 -32.5 -20t-34.5 -7q-15 0 -27.5 3.5t-26 12.5t-33.5 27l-77 74q-3 16 1.5 32t17 27.5t33.5 11.5q17 0 31 -7.5t36 -32.5z" />
    <glyph glyph-name="Dcaron" unicode="&#x10e;" horiz-adv-x="661" 
d="M473 304q0 -100 -49 -151t-134 -51q-19 0 -39 1.5t-35 5.5v391q16 3 34 4t37 1q55 0 96.5 -21.5t65.5 -66t24 -113.5zM620 306q0 107 -43 177t-119 104.5t-178 34.5q-38 0 -83 -4t-84 -17q-18 -6 -29 -16.5t-11 -30.5v-483q0 -45 51 -63q38 -14 85.5 -18t80.5 -4
q99 0 173 35t115.5 106.5t41.5 178.5zM331 748q23 21 46.5 44t46.5 44q27 -1 45.5 -15.5t18.5 -38.5q0 -18 -9.5 -31t-31.5 -31l-39 -34q-23 -18 -39.5 -25.5t-37.5 -7.5q-25 0 -43 10t-35 26l-83 79q0 31 14.5 48t40.5 17q17 0 32 -9t38 -35z" />
    <glyph glyph-name="dcaron" unicode="&#x10f;" horiz-adv-x="722" 
d="M372 113v306h139v-323q0 -23 -10 -38.5t-31 -28.5q-26 -17 -69 -30.5t-98 -13.5q-82 0 -141.5 27.5t-92 84t-32.5 140.5q0 88 33 144t89 83.5t125 27.5q36 0 65 -8.5t47 -19.5v-116q-15 13 -38.5 23.5t-55.5 10.5q-36 0 -64 -15t-43.5 -47.5t-15.5 -83.5q0 -72 33 -106
t90 -34q24 0 41.5 5.5t28.5 11.5zM511 391h-139v260q8 2 25.5 5t36.5 3q41 0 59 -14t18 -51v-203zM672 501q-13 -15 -29.5 -21.5t-35.5 -6.5q-32 0 -53 20q19 39 30 77.5t15 74.5q14 6 31 11t35 5q27 0 43.5 -10.5t16.5 -34.5q0 -16 -8 -38.5t-20.5 -43t-24.5 -33.5z" />
    <glyph glyph-name="Dcroat" unicode="&#x110;" horiz-adv-x="697" 
d="M184 362v-113h140q23 0 36.5 14t13.5 44q0 18 -4.5 32t-10.5 23h-175zM214 249v113h-152q-24 0 -37 -14t-13 -45q0 -17 4.5 -31t10.5 -23h187zM508 304q0 -100 -49 -151t-133 -51q-19 0 -39 1.5t-36 5.5v391q17 3 34.5 4t37.5 1q54 0 96 -21.5t65.5 -66t23.5 -113.5z
M655 306q0 107 -42.5 177t-118.5 104.5t-178 34.5q-39 0 -84 -4t-84 -17q-18 -6 -28.5 -16.5t-10.5 -30.5v-483q0 -45 50 -63q39 -14 86 -18t80 -4q100 0 174 35t115 106.5t41 178.5z" />
    <glyph glyph-name="dcroat" unicode="&#x111;" horiz-adv-x="578" 
d="M540 529h-250q-4 7 -8 18t-4 23q0 41 37 41h251q3 -6 7 -16.5t4 -22.5q0 -43 -37 -43zM372 113v306h139v-323q0 -23 -10 -38.5t-31 -28.5q-26 -17 -69 -30.5t-98 -13.5q-82 0 -141.5 27.5t-92 84t-32.5 140.5q0 88 33 144t89 83.5t125 27.5q36 0 65 -8.5t47 -19.5v-116
q-15 13 -38.5 23.5t-55.5 10.5q-36 0 -64 -15t-43.5 -47.5t-15.5 -83.5q0 -72 33 -106t90 -34q24 0 41.5 5.5t28.5 11.5zM511 391h-139v280q8 2 25.5 5t36.5 3q41 0 59 -13.5t18 -51.5v-223z" />
    <glyph glyph-name="Emacron" unicode="&#x112;" horiz-adv-x="546" 
d="M77 416h140v-409q-9 -3 -26.5 -6t-37.5 -3q-35 0 -55.5 21t-20.5 55v342zM217 191h-140v339q0 36 20.5 56.5t55.5 20.5q20 0 37.5 -3t26.5 -6v-407zM153 253v113h302q6 -9 10.5 -23t4.5 -32q0 -29 -13 -43.5t-37 -14.5h-267zM153 -2v114h336q5 -8 9.5 -23t4.5 -33
q0 -29 -13 -43.5t-37 -14.5h-300zM153 493v114h331q6 -9 10.5 -23t4.5 -32q0 -30 -13 -44.5t-37 -14.5h-296zM406 692h-253q-4 9 -9 23t-5 29q0 30 13 42.5t34 12.5h253q6 -9 10 -23t4 -29q0 -30 -12.5 -42.5t-34.5 -12.5z" />
    <glyph glyph-name="emacron" unicode="&#x113;" horiz-adv-x="539" 
d="M124 171l-6 96l256 39q-3 32 -26.5 57t-68.5 25q-48 0 -79 -32t-33 -92l4 -63q9 -58 48 -84t95 -26q42 0 78.5 12t58.5 26q14 -9 23.5 -24t9.5 -32q0 -28 -23.5 -48t-63.5 -30t-92 -10q-78 0 -138.5 29t-95 87t-34.5 144q0 62 20 109t53.5 77.5t77 45.5t90.5 15
q68 0 118.5 -27t79.5 -74t29 -108q0 -30 -16 -45.5t-44 -19.5zM388 566h-253q-4 9 -9 23t-5 29q0 30 13 42.5t34 12.5h253q6 -9 10 -23t4 -29q0 -30 -12.5 -42.5t-34.5 -12.5z" />
    <glyph glyph-name="Ebreve" unicode="&#x114;" horiz-adv-x="546" 
d="M77 416h140v-409q-9 -3 -26.5 -6t-37.5 -3q-35 0 -55.5 21t-20.5 55v342zM217 191h-140v339q0 36 20.5 56.5t55.5 20.5q20 0 37.5 -3t26.5 -6v-407zM153 253v113h302q6 -9 10.5 -23t4.5 -32q0 -29 -13 -43.5t-37 -14.5h-267zM153 -2v114h336q5 -8 9.5 -23t4.5 -33
q0 -29 -13 -43.5t-37 -14.5h-300zM153 493v114h331q6 -9 10.5 -23t4.5 -32q0 -30 -13 -44.5t-37 -14.5h-296zM299 772q31 0 50.5 15.5t25.5 41.5q4 1 8.5 1h8.5q33 0 49 -18t16 -42q0 -40 -41 -70t-117 -30q-78 0 -118.5 30t-40.5 70q0 24 16.5 42t48.5 18h9t9 -1
q5 -26 25 -41.5t51 -15.5z" />
    <glyph glyph-name="ebreve" unicode="&#x115;" horiz-adv-x="539" 
d="M124 171l-6 96l256 39q-3 32 -26.5 57t-68.5 25q-48 0 -79 -32t-33 -92l4 -63q9 -58 48 -84t95 -26q42 0 78.5 12t58.5 26q14 -9 23.5 -24t9.5 -32q0 -28 -23.5 -48t-63.5 -30t-92 -10q-78 0 -138.5 29t-95 87t-34.5 144q0 62 20 109t53.5 77.5t77 45.5t90.5 15
q68 0 118.5 -27t79.5 -74t29 -108q0 -30 -16 -45.5t-44 -19.5zM284 651q31 0 50.5 15.5t25.5 41.5q4 1 8.5 1h8.5q33 0 49 -18t16 -42q0 -40 -41 -70t-117 -30q-78 0 -118.5 30t-40.5 70q0 24 16.5 42t48.5 18h9t9 -1q5 -26 25 -41.5t51 -15.5z" />
    <glyph glyph-name="Edotaccent" unicode="&#x116;" horiz-adv-x="546" 
d="M77 416h140v-409q-9 -3 -26.5 -6t-37.5 -3q-35 0 -55.5 21t-20.5 55v342zM217 191h-140v339q0 36 20.5 56.5t55.5 20.5q20 0 37.5 -3t26.5 -6v-407zM153 253v113h302q6 -9 10.5 -23t4.5 -32q0 -29 -13 -43.5t-37 -14.5h-267zM153 -2v114h336q5 -8 9.5 -23t4.5 -33
q0 -29 -13 -43.5t-37 -14.5h-300zM153 493v114h331q6 -9 10.5 -23t4.5 -32q0 -30 -13 -44.5t-37 -14.5h-296zM379 749q0 -31 -21 -52.5t-56 -21.5q-33 0 -54.5 21.5t-21.5 52.5q0 33 21.5 54t54.5 21q35 0 56 -21t21 -54z" />
    <glyph glyph-name="edotaccent" unicode="&#x117;" horiz-adv-x="539" 
d="M124 171l-6 96l256 39q-3 32 -26.5 57t-68.5 25q-48 0 -79 -32t-33 -92l4 -63q9 -58 48 -84t95 -26q42 0 78.5 12t58.5 26q14 -9 23.5 -24t9.5 -32q0 -28 -23.5 -48t-63.5 -30t-92 -10q-78 0 -138.5 29t-95 87t-34.5 144q0 62 20 109t53.5 77.5t77 45.5t90.5 15
q68 0 118.5 -27t79.5 -74t29 -108q0 -30 -16 -45.5t-44 -19.5zM357 623q0 -31 -21 -52.5t-56 -21.5q-33 0 -54.5 21.5t-21.5 52.5q0 33 21.5 54t54.5 21q35 0 56 -21t21 -54z" />
    <glyph glyph-name="Eogonek" unicode="&#x118;" horiz-adv-x="546" 
d="M77 416h140v-409q-9 -3 -26.5 -6t-37.5 -3q-35 0 -55.5 21t-20.5 55v342zM217 191h-140v339q0 36 20.5 56.5t55.5 20.5q20 0 37.5 -3t26.5 -6v-407zM153 253v113h302q6 -9 10.5 -23t4.5 -32q0 -29 -13 -43.5t-37 -14.5h-267zM153 -2v114h336q5 -8 9.5 -23t4.5 -33
q0 -29 -13 -43.5t-37 -14.5h-300zM153 493v114h331q6 -9 10.5 -23t4.5 -32q0 -30 -13 -44.5t-37 -14.5h-296zM367 10l105 -1q-17 -10 -29 -24.5t-12 -37.5q0 -22 15 -34.5t42 -12.5h8q3 -8 5 -16.5t2 -18.5q0 -24 -17.5 -42.5t-62.5 -18.5q-50 0 -84.5 27t-34.5 75
q0 28 10.5 48.5t25 34.5t27.5 21z" />
    <glyph glyph-name="eogonek" unicode="&#x119;" horiz-adv-x="539" 
d="M124 171l-6 96l256 39q-3 32 -26.5 57t-68.5 25q-48 0 -79 -32t-33 -92l4 -63q9 -58 48 -84t95 -26q42 0 78.5 12t58.5 26q14 -9 23.5 -24t9.5 -32q0 -28 -23.5 -48t-63.5 -30t-92 -10q-78 0 -138.5 29t-95 87t-34.5 144q0 62 20 109t53.5 77.5t77 45.5t90.5 15
q68 0 118.5 -27t79.5 -74t29 -108q0 -30 -16 -45.5t-44 -19.5zM319 10l105 -1q-17 -10 -29 -24.5t-12 -37.5q0 -22 15 -34.5t42 -12.5h8q3 -8 5 -16.5t2 -18.5q0 -24 -17.5 -42.5t-62.5 -18.5q-50 0 -84.5 27t-34.5 75q0 28 10.5 48.5t25 34.5t27.5 21z" />
    <glyph glyph-name="Ecaron" unicode="&#x11a;" horiz-adv-x="546" 
d="M77 416h140v-409q-9 -3 -26.5 -6t-37.5 -3q-35 0 -55.5 21t-20.5 55v342zM217 191h-140v339q0 36 20.5 56.5t55.5 20.5q20 0 37.5 -3t26.5 -6v-407zM153 253v113h302q6 -9 10.5 -23t4.5 -32q0 -29 -13 -43.5t-37 -14.5h-267zM153 -2v114h336q5 -8 9.5 -23t4.5 -33
q0 -29 -13 -43.5t-37 -14.5h-300zM153 493v114h331q6 -9 10.5 -23t4.5 -32q0 -30 -13 -44.5t-37 -14.5h-296zM299 748q23 21 46.5 44t46.5 44q27 -1 45.5 -15.5t18.5 -38.5q0 -18 -9.5 -31t-31.5 -31l-39 -34q-23 -18 -39.5 -25.5t-37.5 -7.5q-25 0 -43 10t-35 26l-83 79
q0 31 14.5 48t40.5 17q17 0 32 -9t38 -35z" />
    <glyph glyph-name="ecaron" unicode="&#x11b;" horiz-adv-x="539" 
d="M124 171l-6 96l256 39q-3 32 -26.5 57t-68.5 25q-48 0 -79 -32t-33 -92l4 -63q9 -58 48 -84t95 -26q42 0 78.5 12t58.5 26q14 -9 23.5 -24t9.5 -32q0 -28 -23.5 -48t-63.5 -30t-92 -10q-78 0 -138.5 29t-95 87t-34.5 144q0 62 20 109t53.5 77.5t77 45.5t90.5 15
q68 0 118.5 -27t79.5 -74t29 -108q0 -30 -16 -45.5t-44 -19.5zM241 678l43 -47l90 89q32 -1 51 -16.5t19 -39.5q0 -18 -10 -30.5t-30 -29.5l-51 -47q-16 -13 -32.5 -20t-34.5 -7q-15 0 -27.5 3.5t-26 12.5t-33.5 27l-77 74q-3 16 1.5 32t17 27.5t33.5 11.5q17 0 31 -7.5
t36 -32.5z" />
    <glyph glyph-name="Gcircumflex" unicode="&#x11c;" horiz-adv-x="655" 
d="M599 298v-210q0 -27 -11 -41t-34 -27q-27 -15 -77 -25.5t-100 -10.5q-95 0 -171.5 33t-120.5 104t-44 181q0 106 45 177.5t120.5 108t166.5 36.5q61 0 106.5 -13t70 -35.5t24.5 -50.5q0 -21 -11 -37.5t-26 -25.5q-26 16 -63.5 30.5t-89.5 14.5q-57 0 -101 -24.5t-69 -70
t-25 -109.5q0 -69 24.5 -114t67.5 -67t98 -22q27 0 48.5 5t33.5 10v126h-122q-5 9 -9.5 24t-4.5 31q0 30 13.5 43.5t36.5 13.5h168q26 0 41 -14.5t15 -40.5zM352 740q-22 -21 -45.5 -44t-48.5 -44q-26 1 -43.5 16t-17.5 37q0 18 9 31t31 31l39 34q44 35 77 35q23 0 41 -8.5
t36 -28.5l82 -85q0 -29 -15.5 -44t-41.5 -15q-17 0 -32 10.5t-35 33.5z" />
    <glyph glyph-name="gcircumflex" unicode="&#x11d;" horiz-adv-x="557" 
d="M259 18q-60 0 -110 23t-80.5 75t-30.5 137q0 79 31 132t87.5 80t130.5 27q54 0 99 -13.5t71 -30.5q18 -12 29 -28.5t11 -40.5v-313h-135v299q-12 7 -29 12t-41 5q-51 0 -83 -31.5t-32 -97.5q0 -73 30.5 -101t75.5 -28q35 0 57 12t38 27l5 -112q-20 -13 -50.5 -23
t-73.5 -10zM364 2v95h133v-99q0 -69 -32.5 -112.5t-87 -64t-122.5 -20.5q-52 0 -91.5 9t-60.5 22q-34 22 -34 60q0 20 8.5 35.5t20.5 23.5q26 -16 63 -28t79 -12q58 0 91 22t33 69zM334 565l-48 58q-25 -28 -43.5 -48.5t-40.5 -45.5q-32 1 -51 16t-19 38q0 17 9.5 29.5
t26.5 29.5l44 45q17 17 34.5 26.5t41.5 9.5q22 0 40.5 -8.5t40.5 -36.5l75 -91q0 -23 -13 -39.5t-41 -16.5q-17 0 -30 9t-26 25z" />
    <glyph glyph-name="Gbreve" unicode="&#x11e;" horiz-adv-x="655" 
d="M599 298v-210q0 -27 -11 -41t-34 -27q-27 -15 -77 -25.5t-100 -10.5q-95 0 -171.5 33t-120.5 104t-44 181q0 106 45 177.5t120.5 108t166.5 36.5q61 0 106.5 -13t70 -35.5t24.5 -50.5q0 -21 -11 -37.5t-26 -25.5q-26 16 -63.5 30.5t-89.5 14.5q-57 0 -101 -24.5t-69 -70
t-25 -109.5q0 -69 24.5 -114t67.5 -67t98 -22q27 0 48.5 5t33.5 10v126h-122q-5 9 -9.5 24t-4.5 31q0 30 13.5 43.5t36.5 13.5h168q26 0 41 -14.5t15 -40.5zM346 772q31 0 50.5 15.5t25.5 41.5q4 1 8.5 1h8.5q33 0 49 -18t16 -42q0 -40 -41 -70t-117 -30q-78 0 -118.5 30
t-40.5 70q0 24 16.5 42t48.5 18h9t9 -1q5 -26 25 -41.5t51 -15.5z" />
    <glyph glyph-name="gbreve" unicode="&#x11f;" horiz-adv-x="557" 
d="M259 18q-60 0 -110 23t-80.5 75t-30.5 137q0 79 31 132t87.5 80t130.5 27q54 0 99 -13.5t71 -30.5q18 -12 29 -28.5t11 -40.5v-313h-135v299q-12 7 -29 12t-41 5q-51 0 -83 -31.5t-32 -97.5q0 -73 30.5 -101t75.5 -28q35 0 57 12t38 27l5 -112q-20 -13 -50.5 -23
t-73.5 -10zM364 2v95h133v-99q0 -69 -32.5 -112.5t-87 -64t-122.5 -20.5q-52 0 -91.5 9t-60.5 22q-34 22 -34 60q0 20 8.5 35.5t20.5 23.5q26 -16 63 -28t79 -12q58 0 91 22t33 69zM281 651q31 0 50.5 15.5t25.5 41.5q4 1 8.5 1h8.5q33 0 49 -18t16 -42q0 -40 -41 -70
t-117 -30q-78 0 -118.5 30t-40.5 70q0 24 16.5 42t48.5 18h9t9 -1q5 -26 25 -41.5t51 -15.5z" />
    <glyph glyph-name="Gdotaccent" unicode="&#x120;" horiz-adv-x="655" 
d="M599 298v-210q0 -27 -11 -41t-34 -27q-27 -15 -77 -25.5t-100 -10.5q-95 0 -171.5 33t-120.5 104t-44 181q0 106 45 177.5t120.5 108t166.5 36.5q61 0 106.5 -13t70 -35.5t24.5 -50.5q0 -21 -11 -37.5t-26 -25.5q-26 16 -63.5 30.5t-89.5 14.5q-57 0 -101 -24.5t-69 -70
t-25 -109.5q0 -69 24.5 -114t67.5 -67t98 -22q27 0 48.5 5t33.5 10v126h-122q-5 9 -9.5 24t-4.5 31q0 30 13.5 43.5t36.5 13.5h168q26 0 41 -14.5t15 -40.5zM442 749q0 -31 -21 -52.5t-56 -21.5q-33 0 -54.5 21.5t-21.5 52.5q0 33 21.5 54t54.5 21q35 0 56 -21t21 -54z" />
    <glyph glyph-name="gdotaccent" unicode="&#x121;" horiz-adv-x="557" 
d="M259 18q-60 0 -110 23t-80.5 75t-30.5 137q0 79 31 132t87.5 80t130.5 27q54 0 99 -13.5t71 -30.5q18 -12 29 -28.5t11 -40.5v-313h-135v299q-12 7 -29 12t-41 5q-51 0 -83 -31.5t-32 -97.5q0 -73 30.5 -101t75.5 -28q35 0 57 12t38 27l5 -112q-20 -13 -50.5 -23
t-73.5 -10zM364 2v95h133v-99q0 -69 -32.5 -112.5t-87 -64t-122.5 -20.5q-52 0 -91.5 9t-60.5 22q-34 22 -34 60q0 20 8.5 35.5t20.5 23.5q26 -16 63 -28t79 -12q58 0 91 22t33 69zM360 623q0 -31 -21 -52.5t-56 -21.5q-33 0 -54.5 21.5t-21.5 52.5q0 33 21.5 54t54.5 21
q35 0 56 -21t21 -54z" />
    <glyph glyph-name="uni0122" unicode="&#x122;" horiz-adv-x="655" 
d="M599 298v-210q0 -27 -11 -41t-34 -27q-27 -15 -77 -25.5t-100 -10.5q-95 0 -171.5 33t-120.5 104t-44 181q0 106 45 177.5t120.5 108t166.5 36.5q61 0 106.5 -13t70 -35.5t24.5 -50.5q0 -21 -11 -37.5t-26 -25.5q-26 16 -63.5 30.5t-89.5 14.5q-57 0 -101 -24.5t-69 -70
t-25 -109.5q0 -69 24.5 -114t67.5 -67t98 -22q27 0 48.5 5t33.5 10v126h-122q-5 9 -9.5 24t-4.5 31q0 30 13.5 43.5t36.5 13.5h168q26 0 41 -14.5t15 -40.5zM370 -216q-13 -15 -29.5 -21t-35.5 -6q-32 0 -52 19q18 40 29 78.5t16 73.5q13 7 30 12t35 5q27 0 43.5 -10.5
t16.5 -34.5q0 -16 -8 -38.5t-20.5 -43t-24.5 -34.5z" />
    <glyph glyph-name="uni0123" unicode="&#x123;" horiz-adv-x="557" 
d="M273 699q14 15 28.5 20.5t30.5 5.5q17 0 32.5 -5.5t26.5 -14.5q-20 -39 -31 -77t-15 -75q-13 -7 -29 -12t-34 -5q-28 0 -45 10t-17 30q0 18 7.5 41.5t19.5 46t26 35.5zM259 18q-59 0 -109.5 23t-81 75t-30.5 137q0 79 31.5 132t87.5 80t131 27q53 0 98 -13.5t71 -30.5
q18 -12 29 -28.5t11 -40.5v-313h-135v299q-12 7 -28.5 12t-41.5 5q-51 0 -82.5 -31.5t-31.5 -97.5q0 -73 30 -101t75 -28q35 0 57.5 12t38.5 27l4 -112q-20 -13 -50.5 -23t-73.5 -10zM364 2v95h133v-99q0 -69 -32 -112.5t-87 -64t-123 -20.5q-52 0 -91.5 9t-59.5 22
q-34 22 -34 60q0 20 8.5 35.5t19.5 23.5q26 -16 63.5 -28t78.5 -12q58 0 91 22t33 69z" />
    <glyph glyph-name="Hcircumflex" unicode="&#x124;" horiz-adv-x="663" 
d="M84 415h144v-414q-10 -2 -28.5 -5t-38.5 -3q-42 0 -59.5 15.5t-17.5 51.5v355zM228 240h-144v367q10 2 29 5.5t38 3.5q40 0 58.5 -14.5t18.5 -53.5v-308zM460 415h144v-414q-10 -2 -28.5 -5t-38.5 -3q-41 0 -59 15.5t-18 51.5v355zM604 240h-144v367q10 2 29 5.5t38 3.5
q40 0 58.5 -15t18.5 -54v-307zM542 248h-392v114h392v-114zM335 740q-22 -21 -45.5 -44t-48.5 -44q-26 1 -43.5 16t-17.5 37q0 18 9 31t31 31l39 34q44 35 77 35q23 0 41 -8.5t36 -28.5l82 -85q0 -29 -15.5 -44t-41.5 -15q-17 0 -32 10.5t-35 33.5z" />
    <glyph glyph-name="hcircumflex" unicode="&#x125;" horiz-adv-x="575" 
d="M520 203h-139v90q0 47 -25 68t-63 21q-33 0 -59.5 -12.5t-45.5 -27.5l-5 112q23 14 57.5 26t77.5 12q93 0 147.5 -48t54.5 -144v-97zM69 264h139v-263q-9 -2 -26 -5t-37 -3q-39 0 -57.5 14t-18.5 51v206zM381 264l139 -1v-262q-9 -2 -26 -5t-37 -3q-40 0 -58 14t-18 51
v206zM208 192h-139v459q9 2 26 5t37 3q40 0 58 -14t18 -51v-402zM130 748q-22 -21 -45.5 -44t-48.5 -44q-26 1 -43.5 16t-17.5 37q0 18 9 31t31 31l39 34q44 35 77 35q23 0 41 -8.5t36 -28.5l82 -85q0 -29 -15.5 -44t-41.5 -15q-17 0 -32 10.5t-35 33.5z" />
    <glyph glyph-name="Hbar" unicode="&#x126;" horiz-adv-x="685" 
d="M626 433h-593q-4 7 -8 18t-4 23q0 41 38 41h593q4 -6 8 -16.5t4 -22.5q0 -23 -10 -33t-28 -10zM84 415h144v-414q-10 -2 -28.5 -5t-38.5 -3q-41 0 -59 15.5t-18 51.5v355zM228 240h-144v367q10 2 29 5.5t38 3.5q40 0 58.5 -14.5t18.5 -53.5v-308zM461 415h143v-414
q-9 -2 -27.5 -5t-38.5 -3q-42 0 -59.5 15.5t-17.5 51.5v355zM604 240h-143v367q9 2 28 5.5t38 3.5q40 0 58.5 -15t18.5 -54v-307zM542 248h-391v114h391v-114z" />
    <glyph glyph-name="hbar" unicode="&#x127;" horiz-adv-x="580" 
d="M39 611h250q5 -7 8.5 -17.5t3.5 -22.5q0 -42 -38 -42h-250q-3 6 -7 16.5t-4 23.5q0 42 37 42zM513 203h-139v90q0 47 -25 68t-63 21q-33 0 -59.5 -12.5t-45.5 -27.5l-5 112q23 14 57.5 26t77.5 12q93 0 147.5 -48t54.5 -144v-97zM62 264h139v-263q-9 -2 -26 -5t-37 -3
q-39 0 -57.5 14t-18.5 51v206zM374 264l139 -1v-262q-9 -2 -26 -5t-37 -3q-40 0 -58 14t-18 51v206zM201 192h-139v479q9 2 26 5t37 3q40 0 58 -13.5t18 -51.5v-422z" />
    <glyph glyph-name="Itilde" unicode="&#x128;" horiz-adv-x="290" 
d="M74 415h143v-414q-9 -2 -28 -5t-39 -3q-41 0 -58.5 15.5t-17.5 51.5v355zM217 240h-143v367q9 2 28 5.5t38 3.5q40 0 58.5 -14.5t18.5 -53.5v-308zM55 823q28 0 53.5 -7.5t47 -15t36.5 -7.5q21 0 32 12t15 24h5q27 0 47 -18t20 -48q0 -39 -25 -59t-64 -20q-31 0 -56 8
t-45.5 15.5t-36.5 7.5q-21 0 -31.5 -12t-15.5 -24h-4q-27 0 -47.5 17.5t-20.5 48.5q0 26 13.5 43.5t34.5 26t42 8.5z" />
    <glyph glyph-name="itilde" unicode="&#x129;" horiz-adv-x="268" 
d="M64 286h140v-286q-9 -2 -26 -5t-37 -3q-39 0 -58 14.5t-19 50.5v229zM204 239h-140v233q9 3 26 5.5t37 2.5q40 0 58.5 -14t18.5 -51v-176zM48 693q28 0 53 -7.5t46.5 -15t37.5 -7.5q20 0 31 12t16 24h4q27 0 47 -18t20 -48q0 -39 -25 -59t-64 -20q-31 0 -56 8t-45 15.5
t-37 7.5q-21 0 -31 -12t-16 -24h-4q-27 0 -47 17.5t-20 48.5q0 26 13 43.5t34 26t43 8.5z" />
    <glyph glyph-name="Imacron" unicode="&#x12a;" horiz-adv-x="290" 
d="M74 415h143v-414q-9 -2 -28 -5t-39 -3q-41 0 -58.5 15.5t-17.5 51.5v355zM217 240h-143v367q9 2 28 5.5t38 3.5q40 0 58.5 -14.5t18.5 -53.5v-308zM252 692h-253q-4 9 -9 23t-5 29q0 30 13 42.5t34 12.5h253q6 -9 10 -23t4 -29q0 -30 -12.5 -42.5t-34.5 -12.5z" />
    <glyph glyph-name="imacron" unicode="&#x12b;" horiz-adv-x="268" 
d="M64 286h140v-286q-9 -2 -26 -5t-37 -3q-39 0 -58 14.5t-19 50.5v229zM204 239h-140v233q9 3 26 5.5t37 2.5q40 0 58.5 -14t18.5 -51v-176zM243 566h-253q-4 9 -9 23t-5 29q0 30 13 42.5t34 12.5h252q7 -9 10.5 -23t3.5 -29q0 -30 -12.5 -42.5t-33.5 -12.5z" />
    <glyph glyph-name="Ibreve" unicode="&#x12c;" horiz-adv-x="290" 
d="M74 415h143v-414q-9 -2 -28 -5t-39 -3q-41 0 -58.5 15.5t-17.5 51.5v355zM217 240h-143v367q9 2 28 5.5t38 3.5q40 0 58.5 -14.5t18.5 -53.5v-308zM145 765q31 0 50.5 15.5t25.5 41.5q4 1 8.5 1h8.5q33 0 49 -18t16 -42q0 -40 -41 -70t-117 -30q-78 0 -118.5 30t-40.5 70
q0 24 16.5 42t48.5 18h9t9 -1q5 -26 25 -41.5t51 -15.5z" />
    <glyph glyph-name="ibreve" unicode="&#x12d;" horiz-adv-x="268" 
d="M64 286h140v-285q-9 -2 -26 -5t-37 -3q-39 0 -58 14.5t-19 50.5v228zM204 239h-140v237q9 3 26 5.5t37 2.5q40 0 58.5 -14t18.5 -51v-180zM134 651q31 0 50.5 15.5t25.5 41.5q4 1 8.5 1h8.5q33 0 49 -18t16 -42q0 -40 -41 -70t-117 -30q-78 0 -118.5 30t-40.5 70
q0 24 16.5 42t48.5 18h9t9 -1q5 -26 25 -41.5t51 -15.5z" />
    <glyph glyph-name="Iogonek" unicode="&#x12e;" horiz-adv-x="290" 
d="M134 16l83 -15q-27 -23 -27 -54q0 -23 14.5 -36t35.5 -13h19q7 -17 7 -35q0 -31 -21.5 -48t-58.5 -17q-55 0 -89 32.5t-34 81.5q0 39 20.5 64.5t50.5 39.5zM74 415h143v-414q-9 -2 -28 -5t-39 -3q-41 0 -58.5 15.5t-17.5 51.5v355zM217 240h-143v367q9 2 28 5.5t38 3.5
q40 0 58.5 -14.5t18.5 -53.5v-308z" />
    <glyph glyph-name="iogonek" unicode="&#x12f;" horiz-adv-x="268" 
d="M109 10l95 -9q-12 -7 -21.5 -20t-9.5 -34q0 -22 15 -34.5t42 -12.5h8q3 -8 5 -16.5t2 -18.5q0 -24 -17.5 -42.5t-62.5 -18.5q-50 0 -84.5 27t-34.5 75q0 28 10.5 48.5t25 34.5t27.5 21zM55 617q0 32 22 54t57 22t57 -22t22 -54t-22 -54.5t-57 -22.5t-57 22.5t-22 54.5z
M64 264h140v-263q-9 -2 -26 -5t-37 -3q-40 0 -58.5 14t-18.5 51v206zM204 192h-140v281q9 2 26 5t37 3q40 0 58.5 -14t18.5 -52v-223z" />
    <glyph glyph-name="Idotaccent" unicode="&#x130;" horiz-adv-x="290" 
d="M74 415h143v-414q-9 -2 -28 -5t-39 -3q-41 0 -58.5 15.5t-17.5 51.5v355zM217 240h-143v367q9 2 28 5.5t38 3.5q40 0 58.5 -14.5t18.5 -53.5v-308zM218 749q0 -31 -21 -52.5t-56 -21.5q-33 0 -54.5 21.5t-21.5 52.5q0 33 21.5 54t54.5 21q35 0 56 -21t21 -54z" />
    <glyph glyph-name="dotlessi" unicode="&#x131;" horiz-adv-x="268" 
d="M64 286h140v-285q-9 -2 -26 -5t-37 -3q-39 0 -58 14.5t-19 50.5v228zM204 239h-140v237q9 3 26 5.5t37 2.5q40 0 58.5 -14t18.5 -51v-180z" />
    <glyph glyph-name="IJ" unicode="&#x132;" horiz-adv-x="693" 
d="M74 415h143v-414q-9 -2 -28 -5t-39 -3q-41 0 -58.5 15.5t-17.5 51.5v355zM217 240h-143v367q9 2 28 5.5t38 3.5q40 0 58.5 -14.5t18.5 -53.5v-308zM479 290h143v-121q0 -59 -23 -100t-65 -62t-100 -21q-54 0 -88 17.5t-34 58.5q0 18 6 31t13 21q17 -5 33.5 -8t34.5 -3
q41 0 60.5 20.5t19.5 62.5v104zM622 231h-143v376q9 2 28 5.5t38 3.5q40 0 58.5 -14.5t18.5 -53.5v-317z" />
    <glyph glyph-name="ij" unicode="&#x133;" horiz-adv-x="540" 
d="M55 617q0 32 22 54t57 22t57 -22t22 -54t-22 -54.5t-57 -22.5t-57 22.5t-22 54.5zM64 264h140v-263q-9 -2 -26 -5t-37 -3q-40 0 -58.5 14t-18.5 51v206zM204 192h-140v281q9 2 26 5t37 3q40 0 58.5 -14t18.5 -52v-223zM265 -117q24 12 40 26t23.5 34t7.5 51v262h140v-277
q0 -63 -19.5 -101t-50 -55.5t-62.5 -17.5q-37 0 -57 22.5t-22 55.5zM324 617q0 32 22 54t57 22t57 -22t22 -54t-22 -54.5t-57 -22.5t-57 22.5t-22 54.5zM476 188l-140 4v281q9 2 26.5 5t37.5 3q40 0 58 -14t18 -52v-227z" />
    <glyph glyph-name="Jcircumflex" unicode="&#x134;" horiz-adv-x="398" 
d="M186 290h143v-121q0 -59 -23 -100t-65 -62t-100 -21q-54 0 -88 17.5t-34 58.5q0 18 6 31t13 21q17 -5 33.5 -8t34.5 -3q41 0 60.5 20.5t19.5 62.5v104zM329 231h-143v376q9 2 28 5.5t38 3.5q40 0 58.5 -14.5t18.5 -53.5v-317zM253 740q-22 -21 -45.5 -44t-48.5 -44
q-26 1 -43.5 16t-17.5 37q0 18 9 31t31 31l39 34q44 35 77 35q23 0 41 -8.5t36 -28.5l82 -85q0 -29 -15.5 -44t-41.5 -15q-17 0 -32 10.5t-35 33.5z" />
    <glyph glyph-name="jcircumflex" unicode="&#x135;" horiz-adv-x="270" 
d="M0 -103l24 13q24 14 33.5 36.5t9.5 55.5v268h140v-282q0 -69 -27 -111q-17 -29 -43 -44t-58 -15q-36 0 -57.5 21.5t-21.5 57.5zM207 239h-140v233q9 3 26 5.5t37 2.5q40 0 58.5 -14t18.5 -51v-176zM176 565l-49 58q-25 -28 -43.5 -48.5t-39.5 -45.5q-32 1 -51.5 16
t-19.5 38q0 17 9.5 29.5t27.5 29.5l43 45q17 17 35 26.5t41 9.5t41.5 -8.5t40.5 -36.5l75 -91q0 -23 -13.5 -39.5t-41.5 -16.5q-16 0 -29 9t-26 25z" />
    <glyph glyph-name="uni0136" unicode="&#x136;" horiz-adv-x="595" 
d="M151 321l156 22q87 -90 154 -161.5t110 -114.5q0 -36 -23.5 -56.5t-54.5 -20.5q-33 0 -54.5 17t-42.5 40zM311 271l-178 -5l311 346q54 0 78 -21t24 -50q0 -21 -11 -40t-35 -43zM70 416h144v-415q-10 -3 -28.5 -5.5t-38.5 -2.5q-42 0 -59.5 15t-17.5 52v356zM214 241
h-144v366q10 2 29 5.5t38 3.5q40 0 58.5 -14.5t18.5 -53.5v-307zM321 -216q-13 -15 -29.5 -21t-35.5 -6q-32 0 -52 19q18 40 29 78.5t16 73.5q13 7 30 12t35 5q27 0 43.5 -10.5t16.5 -34.5q0 -16 -8 -38.5t-20.5 -43t-24.5 -34.5z" />
    <glyph glyph-name="uni0137" unicode="&#x137;" horiz-adv-x="532" 
d="M262 195l-99 64l226 227q43 -1 68 -19.5t25 -47.5q0 -25 -16.5 -44t-51.5 -48zM168 238l109 50l226 -216q-3 -37 -22.5 -58.5t-53.5 -21.5q-26 0 -47 13t-45 42zM62 265l139 -4v-260q-9 -2 -26 -5t-37 -3q-39 0 -57.5 14t-18.5 51v207zM201 189l-139 4v458q9 2 26 5t37 3
q40 0 58 -14t18 -51v-405zM301 -216q-13 -15 -29.5 -21t-35.5 -6q-32 0 -52 19q18 40 29 78.5t16 73.5q13 7 30 12t35 5q27 0 43.5 -10.5t16.5 -34.5q0 -16 -8 -38.5t-20.5 -43t-24.5 -34.5z" />
    <glyph glyph-name="kgreenlandic" unicode="&#x138;" horiz-adv-x="532" 
d="M201 231h-139v245q9 3 26 5.5t36 2.5q41 0 59 -14t18 -51v-188zM261 193l-98 65l231 228q42 -1 67.5 -20t25.5 -48q0 -24 -17 -43t-52 -48zM168 238l108 51l227 -217q-3 -37 -22.5 -58.5t-53.5 -21.5q-26 0 -47 13t-45 42zM62 278h139v-277q-9 -2 -26 -5t-37 -3
q-39 0 -57.5 14t-18.5 51v220z" />
    <glyph glyph-name="Lacute" unicode="&#x139;" horiz-adv-x="509" 
d="M73 412h144v-405l-68 -9q-34 0 -55 21t-21 55v338zM149 -2v117h316q7 -9 12 -24t5 -32q0 -30 -14 -45.5t-37 -15.5h-282zM217 240h-144v367q10 2 29 5.5t38 3.5q40 0 58.5 -14.5t18.5 -53.5v-308zM110 745l108 92q35 0 54.5 -17t19.5 -42q0 -17 -8.5 -31t-31.5 -29
l-95 -65q-33 1 -50 15.5t-17 34.5q0 12 4 21.5t16 20.5z" />
    <glyph glyph-name="lacute" unicode="&#x13a;" horiz-adv-x="270" 
d="M105 789l108 92q35 0 54.5 -17t19.5 -42q0 -17 -8.5 -31t-31.5 -29l-95 -65q-33 1 -50 15.5t-17 34.5q0 12 4 21.5t16 20.5zM65 264l139 -4v-259q-9 -2 -26 -5t-37 -3q-39 0 -57.5 14t-18.5 51v206zM204 188l-139 4v459q9 2 26 5t37 3q40 0 58 -14t18 -51v-406z" />
    <glyph glyph-name="uni013B" unicode="&#x13b;" horiz-adv-x="509" 
d="M73 412h144v-405l-68 -9q-34 0 -55 21t-21 55v338zM149 -2v117h316q7 -9 12 -24t5 -32q0 -30 -14 -45.5t-37 -15.5h-282zM217 240h-144v367q10 2 29 5.5t38 3.5q40 0 58.5 -14.5t18.5 -53.5v-308zM289 -216q-13 -15 -29.5 -21t-35.5 -6q-32 0 -52 19q18 40 29 78.5
t16 73.5q13 7 30 12t35 5q27 0 43.5 -10.5t16.5 -34.5q0 -16 -8 -38.5t-20.5 -43t-24.5 -34.5z" />
    <glyph glyph-name="uni013C" unicode="&#x13c;" horiz-adv-x="271" 
d="M66 264l139 -4v-259q-9 -2 -26 -5t-37 -3q-39 0 -57.5 14t-18.5 51v206zM205 188l-139 4v459q9 2 26 5t37 3q40 0 58 -14t18 -51v-406zM151 -216q-13 -15 -29.5 -21t-35.5 -6q-32 0 -52 19q18 40 29 78.5t16 73.5q13 7 30 12t35 5q27 0 43.5 -10.5t16.5 -34.5
q0 -16 -8 -38.5t-20.5 -43t-24.5 -34.5z" />
    <glyph glyph-name="Lcaron" unicode="&#x13d;" horiz-adv-x="509" 
d="M73 412h144v-405l-68 -9q-34 0 -55 21t-21 55v338zM149 -2v117h316q7 -9 12 -24t5 -32q0 -30 -14 -45.5t-37 -15.5h-282zM217 240h-144v367q10 2 29 5.5t38 3.5q40 0 58.5 -14.5t18.5 -53.5v-308zM399 455q-13 -15 -29.5 -21.5t-35.5 -6.5q-32 0 -53 20q19 39 30 77.5
t15 74.5q14 6 31 11t35 5q27 0 43.5 -10.5t16.5 -34.5q0 -16 -8 -38.5t-20.5 -43t-24.5 -33.5z" />
    <glyph glyph-name="lcaron" unicode="&#x13e;" horiz-adv-x="416" 
d="M66 264l139 -4v-259q-9 -2 -26 -5t-37 -3q-39 0 -57.5 14t-18.5 51v206zM205 188l-139 4v459q9 2 26 5t37 3q40 0 58 -14t18 -51v-406zM366 501q-13 -15 -29.5 -21.5t-35.5 -6.5q-32 0 -53 20q19 39 30 77.5t15 74.5q14 6 31 11t35 5q27 0 43.5 -10.5t16.5 -34.5
q0 -16 -8 -38.5t-20.5 -43t-24.5 -33.5z" />
    <glyph glyph-name="Ldot" unicode="&#x13f;" horiz-adv-x="509" 
d="M73 412h144v-405l-68 -9q-34 0 -55 21t-21 55v338zM149 -2v117h316q7 -9 12 -24t5 -32q0 -30 -14 -45.5t-37 -15.5h-282zM217 240h-144v367q10 2 29 5.5t38 3.5q40 0 58.5 -14.5t18.5 -53.5v-308zM314 341q0 35 22.5 59t60.5 24t60 -24t22 -59t-22 -59.5t-60 -24.5
t-60.5 24.5t-22.5 59.5z" />
    <glyph glyph-name="ldot" unicode="&#x140;" horiz-adv-x="410" 
d="M66 264l139 -4v-259q-9 -2 -26 -5t-37 -3q-39 0 -57.5 14t-18.5 51v206zM205 188l-139 4v459q9 2 26 5t37 3q40 0 58 -14t18 -51v-406zM258 302q0 35 22.5 59t60.5 24t60 -24t22 -59t-22 -59.5t-60 -24.5t-60.5 24.5t-22.5 59.5z" />
    <glyph glyph-name="Lslash" unicode="&#x141;" horiz-adv-x="542" 
d="M374 348l-324 -136q-11 9 -25.5 28t-14.5 43q0 30 30 42l325 136q12 -10 26 -29.5t14 -42.5q0 -14 -8 -24.5t-23 -16.5zM110 412h143v-405l-67 -9q-35 0 -55.5 21t-20.5 55v338zM186 -2v117h316q6 -9 11 -24t5 -32q0 -30 -13.5 -45.5t-37.5 -15.5h-281zM253 240h-143v367
q9 2 28.5 5.5t37.5 3.5q41 0 59 -14.5t18 -53.5v-308z" />
    <glyph glyph-name="lslash" unicode="&#x142;" horiz-adv-x="368" 
d="M327 339l-277 -115q-11 9 -25.5 28t-14.5 43q0 30 30 42l277 115q13 -10 27 -29.5t14 -42.5q0 -15 -8 -25t-23 -16zM115 264l139 -4v-259q-9 -2 -26 -5t-37 -3q-39 0 -57.5 14t-18.5 51v206zM254 188l-139 4v459q9 2 26 5t36 3q41 0 59 -14t18 -51v-406z" />
    <glyph glyph-name="Nacute" unicode="&#x143;" horiz-adv-x="669" 
d="M72 447l130 2q4 -41 6 -83t2.5 -81.5t0.5 -77.5v-206q-9 -2 -27.5 -5t-36.5 -3q-41 0 -58 14.5t-17 50.5v389zM598 162l-129 -2q-8 75 -8.5 143.5t-0.5 131.5v173q9 2 27 5t37 3q40 0 57 -14.5t17 -50.5v-389zM598 208v84v-274q-12 -11 -34 -18t-53 -7q-32 0 -59.5 10.5
t-46.5 46.5l-130 242q-12 23 -23.5 46.5t-22 46.5t-20.5 45l-137 -31v183q12 16 36 24.5t52 8.5q32 0 60 -11t46 -47l131 -242q12 -22 23.5 -45.5t22.5 -47t20 -45.5zM310 745l108 92q35 0 54.5 -17t19.5 -42q0 -17 -8.5 -31t-31.5 -29l-95 -65q-33 1 -50 15.5t-17 34.5
q0 12 4 21.5t16 20.5z" />
    <glyph glyph-name="nacute" unicode="&#x144;" horiz-adv-x="572" 
d="M511 310v-95h-139v91q0 39 -23 57.5t-61 18.5q-27 0 -49 -6.5t-40 -16.5v-144h-139v158q0 25 10.5 40.5t30.5 29.5q31 21 80 35t109 14q105 0 163 -46.5t58 -135.5zM60 262h139v-261q-9 -2 -26 -5t-37 -3q-39 0 -57.5 14t-18.5 51v204zM372 262h139v-261q-9 -2 -26 -5
t-36 -3q-40 0 -58.5 14t-18.5 51v204zM256 621l99 109q42 0 64 -18.5t22 -42.5q0 -19 -9 -32.5t-29 -30.5l-94 -82q-35 0 -54.5 17.5t-19.5 37.5q0 11 5 20.5t16 21.5z" />
    <glyph glyph-name="uni0145" unicode="&#x145;" horiz-adv-x="669" 
d="M72 447l130 2q4 -41 6 -83t2.5 -81.5t0.5 -77.5v-206q-9 -2 -27.5 -5t-36.5 -3q-41 0 -58 14.5t-17 50.5v389zM598 162l-129 -2q-8 75 -8.5 143.5t-0.5 131.5v173q9 2 27 5t37 3q40 0 57 -14.5t17 -50.5v-389zM598 208v84v-274q-12 -11 -34 -18t-53 -7q-32 0 -59.5 10.5
t-46.5 46.5l-130 242q-12 23 -23.5 46.5t-22 46.5t-20.5 45l-137 -31v183q12 16 36 24.5t52 8.5q32 0 60 -11t46 -47l131 -242q12 -22 23.5 -45.5t22.5 -47t20 -45.5zM352 -216q-13 -15 -29.5 -21t-35.5 -6q-32 0 -52 19q18 40 29 78.5t16 73.5q13 7 30 12t35 5
q27 0 43.5 -10.5t16.5 -34.5q0 -16 -8 -38.5t-20.5 -43t-24.5 -34.5z" />
    <glyph glyph-name="uni0146" unicode="&#x146;" horiz-adv-x="572" 
d="M511 310v-95h-139v91q0 39 -23 57.5t-61 18.5q-27 0 -49 -6.5t-40 -16.5v-144h-139v158q0 25 10.5 40.5t30.5 29.5q31 21 80 35t109 14q105 0 163 -46.5t58 -135.5zM60 262h139v-261q-9 -2 -26 -5t-37 -3q-39 0 -57.5 14t-18.5 51v204zM372 262h139v-261q-9 -2 -26 -5
t-36 -3q-40 0 -58.5 14t-18.5 51v204zM302 -216q-13 -15 -29.5 -21t-35.5 -6q-32 0 -52 19q18 40 29 78.5t16 73.5q13 7 30 12t35 5q27 0 43.5 -10.5t16.5 -34.5q0 -16 -8 -38.5t-20.5 -43t-24.5 -34.5z" />
    <glyph glyph-name="Ncaron" unicode="&#x147;" horiz-adv-x="669" 
d="M72 447l130 2q4 -41 6 -83t2.5 -81.5t0.5 -77.5v-206q-9 -2 -27.5 -5t-36.5 -3q-41 0 -58 14.5t-17 50.5v389zM598 162l-129 -2q-8 75 -8.5 143.5t-0.5 131.5v173q9 2 27 5t37 3q40 0 57 -14.5t17 -50.5v-389zM598 208v84v-274q-12 -11 -34 -18t-53 -7q-32 0 -59.5 10.5
t-46.5 46.5l-130 242q-12 23 -23.5 46.5t-22 46.5t-20.5 45l-137 -31v183q12 16 36 24.5t52 8.5q32 0 60 -11t46 -47l131 -242q12 -22 23.5 -45.5t22.5 -47t20 -45.5zM341 748q23 21 46.5 44t46.5 44q27 -1 45.5 -15.5t18.5 -38.5q0 -18 -9.5 -31t-31.5 -31l-39 -34
q-23 -18 -39.5 -25.5t-37.5 -7.5q-25 0 -43 10t-35 26l-83 79q0 31 14.5 48t40.5 17q17 0 32 -9t38 -35z" />
    <glyph glyph-name="ncaron" unicode="&#x148;" horiz-adv-x="572" 
d="M511 310v-95h-139v91q0 39 -23 57.5t-61 18.5q-27 0 -49 -6.5t-40 -16.5v-144h-139v158q0 25 10.5 40.5t30.5 29.5q31 21 80 35t109 14q105 0 163 -46.5t58 -135.5zM60 262h139v-261q-9 -2 -26 -5t-37 -3q-39 0 -57.5 14t-18.5 51v204zM372 262h139v-261q-9 -2 -26 -5
t-36 -3q-40 0 -58.5 14t-18.5 51v204zM238 678l43 -47l90 89q32 -1 51 -16.5t19 -39.5q0 -18 -10 -30.5t-30 -29.5l-51 -47q-16 -13 -32.5 -20t-34.5 -7q-15 0 -27.5 3.5t-26 12.5t-33.5 27l-77 74q-3 16 1.5 32t17 27.5t33.5 11.5q17 0 31 -7.5t36 -32.5z" />
    <glyph glyph-name="napostrophe" unicode="&#x149;" horiz-adv-x="704" 
d="M643 310v-95h-139v91q0 39 -23 57.5t-61 18.5q-27 0 -49 -6.5t-40 -16.5v-144h-139v158q0 25 10.5 40.5t30.5 29.5q31 21 80 35t109 14q105 0 163 -46.5t58 -135.5zM192 262h139v-261q-9 -2 -26 -5t-37 -3q-39 0 -57.5 14t-18.5 51v204zM504 262h139v-261q-9 -2 -26 -5
t-36 -3q-40 0 -58.5 14t-18.5 51v204zM127 406q-9 -15 -22 -23t-33 -8q-15 0 -28.5 4t-25.5 10q4 35 8 75t7.5 79.5t4.5 72.5q13 6 30.5 11t35.5 5q27 0 48 -12t21 -43q0 -24 -6.5 -57t-17.5 -64t-22 -50z" />
    <glyph glyph-name="Eng" unicode="&#x14a;" horiz-adv-x="673" 
d="M389 -117v0q24 12 40 26t23.5 34t7.5 51v143h139v-158q0 -63 -19.5 -101t-50 -55.5t-62.5 -17.5q-37 0 -57 22.5t-21 55.5zM73 447l130 2q4 -41 6 -83t2.5 -81.5t0.5 -77.5v-206q-9 -2 -27.5 -5t-36.5 -3q-41 0 -58 14.5t-17 50.5v389zM599 162l-129 -2q-8 75 -8.5 143.5
t-0.5 131.5v173q9 2 27 5t37 3q40 0 57 -14.5t17 -50.5v-389zM599 208v84v-274q-12 -11 -34 -18t-53 -7q-32 0 -59.5 10.5t-46.5 46.5l-130 242q-12 23 -23.5 46.5t-22 46.5t-20.5 45l-137 -31v183q12 16 36 24.5t52 8.5q32 0 60 -11t46 -47l131 -242q12 -22 23.5 -45.5
t22.5 -47t20 -45.5z" />
    <glyph glyph-name="eng" unicode="&#x14b;" horiz-adv-x="572" 
d="M511 310v-95h-139v91q0 39 -23 57.5t-61 18.5q-27 0 -49 -6.5t-40 -16.5v-144h-139v158q0 25 10.5 40.5t30.5 29.5q31 21 80 35t109 14q105 0 163 -46.5t58 -135.5zM60 262h139v-261q-9 -2 -26 -5t-37 -3q-39 0 -57.5 14t-18.5 51v204zM301 -117q24 12 40 26t23.5 34
t7.5 51v249h139v-264q0 -63 -19.5 -101t-50 -55.5t-62.5 -17.5q-37 0 -57 22.5t-21 55.5z" />
    <glyph glyph-name="Omacron" unicode="&#x14c;" horiz-adv-x="698" 
d="M656 304q0 -104 -40 -175.5t-109.5 -108t-157.5 -36.5t-158 36.5t-110 108t-40 175.5t41 175t110.5 108t156.5 37q86 0 156 -37t110.5 -108t40.5 -175zM509 304q0 99 -43.5 151t-116.5 52q-72 0 -116 -51.5t-44 -151.5q0 -101 43.5 -152.5t116.5 -51.5q74 0 117 51.5
t43 152.5zM455 692h-253q-4 9 -9 23t-5 29q0 30 13 42.5t34 12.5h253q6 -9 10 -23t4 -29q0 -30 -12.5 -42.5t-34.5 -12.5z" />
    <glyph glyph-name="omacron" unicode="&#x14d;" horiz-adv-x="575" 
d="M538 239q0 -78 -31 -135t-87 -88t-132 -31t-132.5 30.5t-87.5 87.5t-31 136q0 78 31.5 134.5t88 87.5t131.5 31t131 -31t87.5 -88t31.5 -134zM287 382q-49 0 -78 -37.5t-29 -105.5q0 -70 28.5 -107t79.5 -37q50 0 78.5 37.5t28.5 106.5q0 67 -28.5 105t-79.5 38zM397 566
h-253q-4 9 -9 23t-5 29q0 30 13 42.5t34 12.5h253q6 -9 10 -23t4 -29q0 -30 -12.5 -42.5t-34.5 -12.5z" />
    <glyph glyph-name="Obreve" unicode="&#x14e;" horiz-adv-x="698" 
d="M656 304q0 -104 -40 -175.5t-109.5 -108t-157.5 -36.5t-158 36.5t-110 108t-40 175.5t41 175t110.5 108t156.5 37q86 0 156 -37t110.5 -108t40.5 -175zM509 304q0 99 -43.5 151t-116.5 52q-72 0 -116 -51.5t-44 -151.5q0 -101 43.5 -152.5t116.5 -51.5q74 0 117 51.5
t43 152.5zM350 765q31 0 50.5 15.5t25.5 41.5q4 1 8.5 1h8.5q33 0 49 -18t16 -42q0 -40 -41 -70t-117 -30q-78 0 -118.5 30t-40.5 70q0 24 16.5 42t48.5 18h9t9 -1q5 -26 25 -41.5t51 -15.5z" />
    <glyph glyph-name="obreve" unicode="&#x14f;" horiz-adv-x="575" 
d="M538 239q0 -78 -31 -135t-87 -88t-132 -31t-132.5 30.5t-87.5 87.5t-31 136q0 78 31.5 134.5t88 87.5t131.5 31t131 -31t87.5 -88t31.5 -134zM287 382q-49 0 -78 -37.5t-29 -105.5q0 -70 28.5 -107t79.5 -37q50 0 78.5 37.5t28.5 106.5q0 67 -28.5 105t-79.5 38zM288 651
q31 0 50.5 15.5t25.5 41.5q4 1 8.5 1h8.5q33 0 49 -18t16 -42q0 -40 -41 -70t-117 -30q-78 0 -118.5 30t-40.5 70q0 24 16.5 42t48.5 18h9t9 -1q5 -26 25 -41.5t51 -15.5z" />
    <glyph glyph-name="Ohungarumlaut" unicode="&#x150;" horiz-adv-x="698" 
d="M656 304q0 -104 -40 -175.5t-109.5 -108t-157.5 -36.5t-158 36.5t-110 108t-40 175.5t41 175t110.5 108t156.5 37q86 0 156 -37t110.5 -108t40.5 -175zM509 304q0 99 -43.5 151t-116.5 52q-72 0 -116 -51.5t-44 -151.5q0 -101 43.5 -152.5t116.5 -51.5q74 0 117 51.5
t43 152.5zM207 750l63 86q42 0 62.5 -17.5t20.5 -40.5q0 -20 -9.5 -33t-27.5 -33l-54 -59q-36 0 -54.5 16.5t-18.5 36.5q0 11 4 21t14 23zM407 750l64 86q42 0 62 -17.5t20 -40.5q0 -20 -9 -33t-28 -33l-54 -59q-35 0 -53.5 16.5t-18.5 36.5q0 11 4 21t13 23z" />
    <glyph glyph-name="ohungarumlaut" unicode="&#x151;" horiz-adv-x="575" 
d="M538 239q0 -78 -31 -135t-87 -88t-132 -31t-132.5 30.5t-87.5 87.5t-31 136q0 78 31.5 134.5t88 87.5t131.5 31t131 -31t87.5 -88t31.5 -134zM287 382q-49 0 -78 -37.5t-29 -105.5q0 -70 28.5 -107t79.5 -37q50 0 78.5 37.5t28.5 106.5q0 67 -28.5 105t-79.5 38zM139 621
l82 109q42 0 63.5 -18t21.5 -42q0 -18 -9.5 -31t-28.5 -33l-73 -82q-36 0 -55 17t-19 37q0 11 3.5 20.5t14.5 22.5zM346 621l82 109q42 0 63.5 -18t21.5 -42q0 -18 -9.5 -31t-28.5 -33l-73 -82q-36 0 -55 17t-19 37q0 11 3.5 20.5t14.5 22.5z" />
    <glyph glyph-name="OE" unicode="&#x152;" horiz-adv-x="952" 
d="M345 -16q-87 0 -156 36.5t-108.5 108t-39.5 175.5t40.5 175t109.5 108t154 37q61 0 108 -22t80 -63t49.5 -100t16.5 -135q0 -97 -28.5 -169.5t-85 -111.5t-140.5 -39zM346 100q78 0 122 51.5t44 152.5t-45 152t-122 51q-70 0 -113.5 -51.5t-43.5 -151.5
q0 -101 43.5 -152.5t114.5 -51.5zM566 -2q-36 0 -56 21t-20 55l-7 47v295h140v-409q-9 -3 -23.5 -6t-33.5 -3zM566 -2v114h328q6 -8 10.5 -23t4.5 -33q0 -29 -13.5 -43.5t-36.5 -14.5h-293zM483 191v297l7 42q0 36 20 56.5t56 20.5q19 0 33.5 -3t23.5 -6v-407h-140zM559 253
v113h302q5 -9 10 -23t5 -32q0 -29 -13.5 -43.5t-36.5 -14.5h-267zM566 493v114h324q5 -9 10 -23t5 -32q0 -30 -13.5 -44.5t-37.5 -14.5h-288z" />
    <glyph glyph-name="oe" unicode="&#x153;" horiz-adv-x="892" 
d="M514 239q0 -73 -26.5 -130.5t-78 -90.5t-126.5 -33q-76 0 -131 30.5t-85 87.5t-30 136q0 78 30.5 134.5t85.5 87.5t130 31q74 0 125.5 -33.5t78.5 -91t27 -128.5zM288 382q-50 0 -79 -37.5t-29 -105.5q0 -70 28 -107t80 -37q50 0 78.5 37.5t28.5 106.5q0 67 -28.5 105
t-78.5 38zM477 171l-5 96l255 39q-3 32 -26 57t-69 25q-47 0 -78.5 -32t-32.5 -92l4 -63q9 -58 47.5 -84t94.5 -26q42 0 79 12t59 26q14 -9 23.5 -24t9.5 -32q0 -28 -23.5 -48t-64 -30t-92.5 -10q-115 0 -182 65.5t-67 194.5q0 84 29.5 139t80.5 81.5t113 26.5q67 0 118 -27
t80 -74t29 -108q0 -30 -16 -45.5t-45 -19.5z" />
    <glyph glyph-name="Racute" unicode="&#x154;" horiz-adv-x="602" 
d="M215 318h72q53 0 85 24t32 70q0 47 -31 70.5t-94 23.5q-18 0 -34 -1.5t-30 -4.5v-182zM299 208h-226v346q0 19 11 29.5t29 17.5q32 11 76 16t92 5q133 0 200.5 -56t67.5 -152q0 -61 -32 -107.5t-88 -72.5t-130 -26zM275 242l125 31q24 -31 49.5 -63t48.5 -62t42 -55
t29 -42q-8 -28 -30 -44t-48 -16q-34 0 -53 15.5t-35 41.5zM73 260h144v-259q-10 -2 -28.5 -5t-38.5 -3q-42 0 -59.5 15.5t-17.5 51.5v200zM251 745l108 92q35 0 54.5 -17t19.5 -42q0 -17 -8.5 -31t-31.5 -29l-95 -65q-33 1 -50 15.5t-17 34.5q0 12 4 21.5t16 20.5z" />
    <glyph glyph-name="racute" unicode="&#x155;" horiz-adv-x="401" 
d="M199 354v-129h-139v144q0 27 13 46t36 34q32 19 78.5 30.5t98.5 11.5q99 0 99 -64q0 -15 -4.5 -28t-10.5 -23q-10 2 -25 3.5t-31 1.5q-32 0 -62.5 -7t-52.5 -20zM60 264l139 -4v-259q-9 -2 -26 -5t-37 -3q-39 0 -57.5 14t-18.5 51v206zM175 621l99 109q42 0 64 -18.5
t22 -42.5q0 -19 -9 -32.5t-29 -30.5l-94 -82q-35 0 -54.5 17.5t-19.5 37.5q0 11 5 20.5t16 21.5z" />
    <glyph glyph-name="uni0156" unicode="&#x156;" horiz-adv-x="602" 
d="M215 318h72q53 0 85 24t32 70q0 47 -31 70.5t-94 23.5q-18 0 -34 -1.5t-30 -4.5v-182zM299 208h-226v346q0 19 11 29.5t29 17.5q32 11 76 16t92 5q133 0 200.5 -56t67.5 -152q0 -61 -32 -107.5t-88 -72.5t-130 -26zM275 242l125 31q24 -31 49.5 -63t48.5 -62t42 -55
t29 -42q-8 -28 -30 -44t-48 -16q-34 0 -53 15.5t-35 41.5zM73 260h144v-259q-10 -2 -28.5 -5t-38.5 -3q-42 0 -59.5 15.5t-17.5 51.5v200zM334 -216q-13 -15 -29.5 -21t-35.5 -6q-32 0 -52 19q18 40 29 78.5t16 73.5q13 7 30 12t35 5q27 0 43.5 -10.5t16.5 -34.5
q0 -16 -8 -38.5t-20.5 -43t-24.5 -34.5z" />
    <glyph glyph-name="uni0157" unicode="&#x157;" horiz-adv-x="401" 
d="M199 354v-129h-139v144q0 27 13 46t36 34q32 19 78.5 30.5t98.5 11.5q99 0 99 -64q0 -15 -4.5 -28t-10.5 -23q-10 2 -25 3.5t-31 1.5q-32 0 -62.5 -7t-52.5 -20zM60 264l139 -4v-259q-9 -2 -26 -5t-37 -3q-39 0 -57.5 14t-18.5 51v206zM146 -216q-13 -15 -29.5 -21
t-35.5 -6q-32 0 -52 19q18 40 29 78.5t16 73.5q13 7 30 12t35 5q27 0 43.5 -10.5t16.5 -34.5q0 -16 -8 -38.5t-20.5 -43t-24.5 -34.5z" />
    <glyph glyph-name="Rcaron" unicode="&#x158;" horiz-adv-x="602" 
d="M215 318h72q53 0 85 24t32 70q0 47 -31 70.5t-94 23.5q-18 0 -34 -1.5t-30 -4.5v-182zM299 208h-226v346q0 19 11 29.5t29 17.5q32 11 76 16t92 5q133 0 200.5 -56t67.5 -152q0 -61 -32 -107.5t-88 -72.5t-130 -26zM275 242l125 31q24 -31 49.5 -63t48.5 -62t42 -55
t29 -42q-8 -28 -30 -44t-48 -16q-34 0 -53 15.5t-35 41.5zM73 260h144v-259q-10 -2 -28.5 -5t-38.5 -3q-42 0 -59.5 15.5t-17.5 51.5v200zM305 748q23 21 46.5 44t46.5 44q27 -1 45.5 -15.5t18.5 -38.5q0 -18 -9.5 -31t-31.5 -31l-39 -34q-23 -18 -39.5 -25.5t-37.5 -7.5
q-25 0 -43 10t-35 26l-83 79q0 31 14.5 48t40.5 17q17 0 32 -9t38 -35z" />
    <glyph glyph-name="rcaron" unicode="&#x159;" horiz-adv-x="401" 
d="M199 354v-129h-139v144q0 27 13 46t36 34q32 19 78.5 30.5t98.5 11.5q99 0 99 -64q0 -15 -4.5 -28t-10.5 -23q-10 2 -25 3.5t-31 1.5q-32 0 -62.5 -7t-52.5 -20zM60 264l139 -4v-259q-9 -2 -26 -5t-37 -3q-39 0 -57.5 14t-18.5 51v206zM185 678l43 -47l90 89
q32 -1 51 -16.5t19 -39.5q0 -18 -10 -30.5t-30 -29.5l-51 -47q-16 -13 -32.5 -20t-34.5 -7q-15 0 -27.5 3.5t-26 12.5t-33.5 27l-77 74q-3 16 1.5 32t17 27.5t33.5 11.5q17 0 31 -7.5t36 -32.5z" />
    <glyph glyph-name="Sacute" unicode="&#x15a;" horiz-adv-x="541" 
d="M253 101q55 0 80 20.5t25 50.5q0 27 -19.5 44t-58.5 29l-57 18q-53 17 -92.5 39t-62 56t-22.5 86q0 83 62.5 131.5t171.5 48.5q57 0 101 -11.5t69.5 -32.5t25.5 -51q0 -20 -10 -36.5t-25 -26.5q-23 16 -62 28t-85 12q-49 0 -74.5 -17t-25.5 -45q0 -21 17 -35t52 -25
l56 -17q90 -27 138.5 -72.5t48.5 -123.5q0 -83 -64.5 -135t-184.5 -52q-61 0 -109 13t-75.5 37t-27.5 56q0 24 14.5 41.5t32.5 26.5q27 -22 68 -39.5t93 -17.5zM224 745l108 92q35 0 54.5 -17t19.5 -42q0 -17 -8.5 -31t-31.5 -29l-95 -65q-33 1 -50 15.5t-17 34.5
q0 12 4 21.5t16 20.5z" />
    <glyph glyph-name="sacute" unicode="&#x15b;" horiz-adv-x="477" 
d="M441 138q0 -72 -54 -113t-156 -41q-82 0 -134.5 24.5t-52.5 68.5q0 19 9 34.5t22 24.5q29 -17 66 -31t85 -14q77 0 77 46q0 19 -14 30.5t-44 17.5l-48 12q-77 16 -115 51t-38 95q0 68 55 109t149 41q49 0 87.5 -9.5t61 -28.5t22.5 -46q0 -19 -8 -33.5t-20 -23.5
q-11 7 -33 15t-48.5 13.5t-50.5 5.5q-36 0 -57.5 -11t-21.5 -32q0 -14 12 -24.5t42 -17.5l44 -10q87 -20 125 -57t38 -96zM200 621l99 109q42 0 64 -18.5t22 -42.5q0 -19 -9 -32.5t-29 -30.5l-94 -82q-35 0 -54.5 17.5t-19.5 37.5q0 11 5 20.5t16 21.5z" />
    <glyph glyph-name="Scircumflex" unicode="&#x15c;" horiz-adv-x="541" 
d="M253 101q55 0 80 20.5t25 50.5q0 27 -19.5 44t-58.5 29l-57 18q-53 17 -92.5 39t-62 56t-22.5 86q0 83 62.5 131.5t171.5 48.5q57 0 101 -11.5t69.5 -32.5t25.5 -51q0 -20 -10 -36.5t-25 -26.5q-23 16 -62 28t-85 12q-49 0 -74.5 -17t-25.5 -45q0 -21 17 -35t52 -25
l56 -17q90 -27 138.5 -72.5t48.5 -123.5q0 -83 -64.5 -135t-184.5 -52q-61 0 -109 13t-75.5 37t-27.5 56q0 24 14.5 41.5t32.5 26.5q27 -22 68 -39.5t93 -17.5zM276 740q-22 -21 -45.5 -44t-48.5 -44q-26 1 -43.5 16t-17.5 37q0 18 9 31t31 31l39 34q44 35 77 35
q23 0 41 -8.5t36 -28.5l82 -85q0 -29 -15.5 -44t-41.5 -15q-17 0 -32 10.5t-35 33.5z" />
    <glyph glyph-name="scircumflex" unicode="&#x15d;" horiz-adv-x="477" 
d="M441 138q0 -72 -54 -113t-156 -41q-82 0 -134.5 24.5t-52.5 68.5q0 19 9 34.5t22 24.5q29 -17 66 -31t85 -14q77 0 77 46q0 19 -14 30.5t-44 17.5l-48 12q-77 16 -115 51t-38 95q0 68 55 109t149 41q49 0 87.5 -9.5t61 -28.5t22.5 -46q0 -19 -8 -33.5t-20 -23.5
q-11 7 -33 15t-48.5 13.5t-50.5 5.5q-36 0 -57.5 -11t-21.5 -32q0 -14 12 -24.5t42 -17.5l44 -10q87 -20 125 -57t38 -96zM283 565l-48 58q-25 -28 -43.5 -48.5t-40.5 -45.5q-32 1 -51 16t-19 38q0 17 9.5 29.5t26.5 29.5l44 45q17 17 34.5 26.5t41.5 9.5q22 0 40.5 -8.5
t40.5 -36.5l75 -91q0 -23 -13 -39.5t-41 -16.5q-17 0 -30 9t-26 25z" />
    <glyph glyph-name="Scedilla" unicode="&#x15e;" horiz-adv-x="541" 
d="M253 101q55 0 80 20.5t25 50.5q0 27 -19.5 44t-58.5 29l-57 18q-53 17 -92.5 39t-62 56t-22.5 86q0 83 62.5 131.5t171.5 48.5q57 0 101 -11.5t69.5 -32.5t25.5 -51q0 -20 -10 -36.5t-25 -26.5q-23 16 -62 28t-85 12q-49 0 -74.5 -17t-25.5 -45q0 -21 17 -35t52 -25
l56 -17q90 -27 138.5 -72.5t48.5 -123.5q0 -83 -64.5 -135t-184.5 -52q-61 0 -109 13t-75.5 37t-27.5 56q0 24 14.5 41.5t32.5 26.5q27 -22 68 -39.5t93 -17.5zM213 4l77 27q34 -20 48 -50t14 -65q0 -50 -31 -82t-85 -32q-36 0 -57.5 17t-21.5 48q0 16 5 28h11q33 0 47.5 15
t14.5 38q0 13 -5 28.5t-17 27.5z" />
    <glyph glyph-name="scedilla" unicode="&#x15f;" horiz-adv-x="477" 
d="M441 138q0 -72 -54 -113t-156 -41q-82 0 -134.5 24.5t-52.5 68.5q0 19 9 34.5t22 24.5q29 -17 66 -31t85 -14q77 0 77 46q0 19 -14 30.5t-44 17.5l-48 12q-77 16 -115 51t-38 95q0 68 55 109t149 41q49 0 87.5 -9.5t61 -28.5t22.5 -46q0 -19 -8 -33.5t-20 -23.5
q-11 7 -33 15t-48.5 13.5t-50.5 5.5q-36 0 -57.5 -11t-21.5 -32q0 -14 12 -24.5t42 -17.5l44 -10q87 -20 125 -57t38 -96zM192 4l77 27q34 -20 48 -50t14 -65q0 -50 -31 -82t-85 -32q-36 0 -57.5 17t-21.5 48q0 16 5 28h11q33 0 47.5 15t14.5 38q0 13 -5 28.5t-17 27.5z" />
    <glyph glyph-name="Scaron" unicode="&#x160;" horiz-adv-x="541" 
d="M253 101q55 0 80 20.5t25 50.5q0 27 -19.5 44t-58.5 29l-57 18q-53 17 -92.5 39t-62 56t-22.5 86q0 83 62.5 131.5t171.5 48.5q57 0 101 -11.5t69.5 -32.5t25.5 -51q0 -20 -10 -36.5t-25 -26.5q-23 16 -62 28t-85 12q-49 0 -74.5 -17t-25.5 -45q0 -21 17 -35t52 -25
l56 -17q90 -27 138.5 -72.5t48.5 -123.5q0 -83 -64.5 -135t-184.5 -52q-61 0 -109 13t-75.5 37t-27.5 56q0 24 14.5 41.5t32.5 26.5q27 -22 68 -39.5t93 -17.5zM275 748q23 21 46.5 44t46.5 44q27 -1 45.5 -15.5t18.5 -38.5q0 -18 -9.5 -31t-31.5 -31l-39 -34
q-23 -18 -39.5 -25.5t-37.5 -7.5q-25 0 -43 10t-35 26l-83 79q0 31 14.5 48t40.5 17q17 0 32 -9t38 -35z" />
    <glyph glyph-name="scaron" unicode="&#x161;" horiz-adv-x="477" 
d="M441 138q0 -72 -54 -113t-156 -41q-82 0 -134.5 24.5t-52.5 68.5q0 19 9 34.5t22 24.5q29 -17 66 -31t85 -14q77 0 77 46q0 19 -14 30.5t-44 17.5l-48 12q-77 16 -115 51t-38 95q0 68 55 109t149 41q49 0 87.5 -9.5t61 -28.5t22.5 -46q0 -19 -8 -33.5t-20 -23.5
q-11 7 -33 15t-48.5 13.5t-50.5 5.5q-36 0 -57.5 -11t-21.5 -32q0 -14 12 -24.5t42 -17.5l44 -10q87 -20 125 -57t38 -96zM191 678l43 -47l90 89q32 -1 51 -16.5t19 -39.5q0 -18 -10 -30.5t-30 -29.5l-51 -47q-16 -13 -32.5 -20t-34.5 -7q-15 0 -27.5 3.5t-26 12.5t-33.5 27
l-77 74q-3 16 1.5 32t17 27.5t33.5 11.5q17 0 31 -7.5t36 -32.5z" />
    <glyph glyph-name="uni0162" unicode="&#x162;" horiz-adv-x="545" 
d="M211 491l-2 116h299q6 -9 10.5 -24t4.5 -32q0 -30 -13.5 -45t-37.5 -15h-261zM333 607l2 -116h-300q-5 9 -10 24t-5 32q0 31 14 45.5t37 14.5h262zM199 518h143v-517q-9 -2 -28 -5t-38 -3q-42 0 -59.5 15.5t-17.5 51.5v458zM230 4l77 27q34 -20 48 -50t14 -65
q0 -50 -31 -82t-85 -32q-36 0 -57.5 17t-21.5 48q0 16 5 28h11q33 0 47.5 15t14.5 38q0 13 -5 28.5t-17 27.5z" />
    <glyph glyph-name="uni0163" unicode="&#x163;" horiz-adv-x="388" 
d="M61 264h139v-111q0 -30 18.5 -43t51.5 -13q16 0 33.5 3.5t30.5 8.5q8 -8 14 -20.5t6 -29.5q0 -31 -27.5 -52t-90.5 -21q-82 0 -128.5 37t-46.5 120v121zM148 359v108h194q5 -8 9.5 -22t4.5 -31q0 -28 -13 -41.5t-35 -13.5h-160zM200 238h-139v360q9 3 26.5 6t36.5 3
q39 0 57.5 -14t18.5 -51v-304zM138 4l77 27q34 -20 48 -50t14 -65q0 -50 -31 -82t-85 -32q-36 0 -57.5 17t-21.5 48q0 16 5 28h11q33 0 47.5 15t14.5 38q0 13 -5 28.5t-17 27.5z" />
    <glyph glyph-name="Tcaron" unicode="&#x164;" horiz-adv-x="545" 
d="M211 491l-2 116h299q6 -9 10.5 -24t4.5 -32q0 -30 -13.5 -45t-37.5 -15h-261zM333 607l2 -116h-300q-5 9 -10 24t-5 32q0 31 14 45.5t37 14.5h262zM199 518h143v-517q-9 -2 -28 -5t-38 -3q-42 0 -59.5 15.5t-17.5 51.5v458zM275 748q23 21 46.5 44t46.5 44
q27 -1 45.5 -15.5t18.5 -38.5q0 -18 -9.5 -31t-31.5 -31l-39 -34q-23 -18 -39.5 -25.5t-37.5 -7.5q-25 0 -43 10t-35 26l-83 79q0 31 14.5 48t40.5 17q17 0 32 -9t38 -35z" />
    <glyph glyph-name="tcaron" unicode="&#x165;" horiz-adv-x="541" 
d="M61 264h139v-111q0 -30 18.5 -43t51.5 -13q16 0 33.5 3.5t30.5 8.5q8 -8 14 -20.5t6 -29.5q0 -31 -27.5 -52t-90.5 -21q-82 0 -128.5 37t-46.5 120v121zM148 359v108h194q5 -8 9.5 -22t4.5 -31q0 -28 -13 -41.5t-35 -13.5h-160zM200 238h-139v360q9 3 26.5 6t36.5 3
q39 0 57.5 -14t18.5 -51v-304zM501 501q-13 -15 -29.5 -21.5t-35.5 -6.5q-32 0 -53 20q19 39 30 77.5t15 74.5q14 6 31 11t35 5q27 0 43.5 -10.5t16.5 -34.5q0 -16 -8 -38.5t-20.5 -43t-24.5 -33.5z" />
    <glyph glyph-name="Tbar" unicode="&#x166;" horiz-adv-x="545" 
d="M425 279h-336q-3 7 -7 18t-4 23q0 42 37 42h336q3 -6 7 -17t4 -23q0 -23 -9.5 -33t-27.5 -10zM211 491l-2 116h299q6 -9 10.5 -24t4.5 -32q0 -30 -13.5 -45t-37.5 -15h-261zM333 607l2 -116h-300q-5 9 -10 24t-5 32q0 31 14 45.5t37 14.5h262zM199 518h143v-517
q-9 -2 -28 -5t-38 -3q-42 0 -59.5 15.5t-17.5 51.5v458z" />
    <glyph glyph-name="tbar" unicode="&#x167;" horiz-adv-x="388" 
d="M102 203l-1 83h240q4 -6 8 -16.5t4 -23.5q0 -23 -10 -33t-28 -10h-213zM61 264h139v-111q0 -30 18.5 -43t51.5 -13q16 0 33.5 3.5t30.5 8.5q8 -8 14 -20.5t6 -29.5q0 -31 -27.5 -52t-90.5 -21q-82 0 -128.5 37t-46.5 120v121zM148 359v108h194q5 -8 9.5 -22t4.5 -31
q0 -28 -13 -41.5t-35 -13.5h-160zM200 238h-139v360q9 3 26.5 6t36.5 3q39 0 57.5 -14t18.5 -51v-304z" />
    <glyph glyph-name="Utilde" unicode="&#x168;" horiz-adv-x="659" 
d="M329 -16q-81 0 -139 29t-88.5 82t-30.5 123v68h143v-64q0 -58 32.5 -90t82.5 -32t83 32t33 90v64h143v-68q0 -70 -31 -123t-88.5 -82t-139.5 -29zM214 254h-143v353q9 2 28.5 5.5t37.5 3.5q41 0 59 -14.5t18 -53.5v-294zM588 253h-143v354q9 2 28 5.5t38 3.5
q41 0 59 -14.5t18 -53.5v-295zM245 823q28 0 53.5 -7.5t47 -15t36.5 -7.5q21 0 32 12t15 24h5q27 0 47 -18t20 -48q0 -39 -25 -59t-64 -20q-31 0 -56 8t-45.5 15.5t-36.5 7.5q-21 0 -31.5 -12t-15.5 -24h-4q-27 0 -47.5 17.5t-20.5 48.5q0 26 13.5 43.5t34.5 26t42 8.5z" />
    <glyph glyph-name="utilde" unicode="&#x169;" horiz-adv-x="571" 
d="M60 185v74h139v-73q0 -48 25 -69.5t70 -21.5q29 0 48.5 5.5t29.5 11.5v147h139v-162q0 -24 -8.5 -40.5t-29.5 -29.5q-31 -19 -77 -30.5t-103 -11.5q-70 0 -122.5 21t-81.5 65t-29 114zM511 213h-139v263q9 2 26 5t37 3q40 0 58 -13.5t18 -51.5v-206zM199 213h-139v263
q9 2 26 5t37 3q40 0 58 -13.5t18 -51.5v-206zM200 693q28 0 53.5 -7.5t47 -15t36.5 -7.5q21 0 32 12t15 24h5q27 0 47 -18t20 -48q0 -39 -25 -59t-64 -20q-31 0 -56 8t-45.5 15.5t-36.5 7.5q-21 0 -31.5 -12t-15.5 -24h-4q-27 0 -47.5 17.5t-20.5 48.5q0 26 13.5 43.5
t34.5 26t42 8.5z" />
    <glyph glyph-name="Umacron" unicode="&#x16a;" horiz-adv-x="659" 
d="M329 -16q-81 0 -139 29t-88.5 82t-30.5 123v68h143v-64q0 -58 32.5 -90t82.5 -32t83 32t33 90v64h143v-68q0 -70 -31 -123t-88.5 -82t-139.5 -29zM214 254h-143v353q9 2 28.5 5.5t37.5 3.5q41 0 59 -14.5t18 -53.5v-294zM588 253h-143v354q9 2 28 5.5t38 3.5
q41 0 59 -14.5t18 -53.5v-295zM434 692h-253q-4 9 -9 23t-5 29q0 30 13 42.5t34 12.5h253q6 -9 10 -23t4 -29q0 -30 -12.5 -42.5t-34.5 -12.5z" />
    <glyph glyph-name="umacron" unicode="&#x16b;" horiz-adv-x="571" 
d="M60 185v74h139v-73q0 -48 25 -69.5t70 -21.5q29 0 48.5 5.5t29.5 11.5v147h139v-162q0 -24 -8.5 -40.5t-29.5 -29.5q-31 -19 -77 -30.5t-103 -11.5q-70 0 -122.5 21t-81.5 65t-29 114zM511 213h-139v263q9 2 26 5t37 3q40 0 58 -13.5t18 -51.5v-206zM199 213h-139v263
q9 2 26 5t37 3q40 0 58 -13.5t18 -51.5v-206zM399 566h-253q-4 9 -9 23t-5 29q0 30 13 42.5t34 12.5h253q6 -9 10 -23t4 -29q0 -30 -12.5 -42.5t-34.5 -12.5z" />
    <glyph glyph-name="Ubreve" unicode="&#x16c;" horiz-adv-x="659" 
d="M329 -16q-81 0 -139 29t-88.5 82t-30.5 123v68h143v-64q0 -58 32.5 -90t82.5 -32t83 32t33 90v64h143v-68q0 -70 -31 -123t-88.5 -82t-139.5 -29zM214 254h-143v353q9 2 28.5 5.5t37.5 3.5q41 0 59 -14.5t18 -53.5v-294zM588 253h-143v354q9 2 28 5.5t38 3.5
q41 0 59 -14.5t18 -53.5v-295zM326 762q31 0 50.5 15.5t25.5 41.5q4 1 8.5 1h8.5q33 0 49 -18t16 -42q0 -40 -41 -70t-117 -30q-78 0 -118.5 30t-40.5 70q0 24 16.5 42t48.5 18h9t9 -1q5 -26 25 -41.5t51 -15.5z" />
    <glyph glyph-name="ubreve" unicode="&#x16d;" horiz-adv-x="571" 
d="M60 185v74h139v-73q0 -48 25 -69.5t70 -21.5q29 0 48.5 5.5t29.5 11.5v147h139v-162q0 -24 -8.5 -40.5t-29.5 -29.5q-31 -19 -77 -30.5t-103 -11.5q-70 0 -122.5 21t-81.5 65t-29 114zM511 213h-139v263q9 2 26 5t37 3q40 0 58 -13.5t18 -51.5v-206zM199 213h-139v263
q9 2 26 5t37 3q40 0 58 -13.5t18 -51.5v-206zM287 651q31 0 50.5 15.5t25.5 41.5q4 1 8.5 1h8.5q33 0 49 -18t16 -42q0 -40 -41 -70t-117 -30q-78 0 -118.5 30t-40.5 70q0 24 16.5 42t48.5 18h9t9 -1q5 -26 25 -41.5t51 -15.5z" />
    <glyph glyph-name="Uring" unicode="&#x16e;" horiz-adv-x="659" 
d="M329 -16q-81 0 -139 29t-88.5 82t-30.5 123v68h143v-64q0 -58 32.5 -90t82.5 -32t83 32t33 90v64h143v-68q0 -70 -31 -123t-88.5 -82t-139.5 -29zM214 254h-143v353q9 2 28.5 5.5t37.5 3.5q41 0 59 -14.5t18 -53.5v-294zM588 253h-143v354q9 2 28 5.5t38 3.5
q41 0 59 -14.5t18 -53.5v-295zM209 751q0 43 33 72.5t90 29.5q60 0 93 -29.5t33 -72.5t-33 -72.5t-93 -29.5q-57 0 -90 29.5t-33 72.5zM296 750q0 -15 10.5 -24.5t26.5 -9.5t27 9.5t11 25.5t-11 25t-27 9t-26.5 -9t-10.5 -26z" />
    <glyph glyph-name="uring" unicode="&#x16f;" horiz-adv-x="571" 
d="M60 185v74h139v-73q0 -48 25 -69.5t70 -21.5q29 0 48.5 5.5t29.5 11.5v147h139v-162q0 -24 -8.5 -40.5t-29.5 -29.5q-31 -19 -77 -30.5t-103 -11.5q-70 0 -122.5 21t-81.5 65t-29 114zM511 213h-139v263q9 2 26 5t37 3q40 0 58 -13.5t18 -51.5v-206zM199 213h-139v263
q9 2 26 5t37 3q40 0 58 -13.5t18 -51.5v-206zM158 631q0 44 32.5 75t89.5 31q60 0 93 -31t33 -75t-33 -74.5t-93 -30.5q-57 0 -89.5 30.5t-32.5 74.5zM244 631q0 -18 10.5 -28t26.5 -10t27 10t11 28t-11 28t-27 10t-26.5 -10t-10.5 -28z" />
    <glyph glyph-name="Uhungarumlaut" unicode="&#x170;" horiz-adv-x="659" 
d="M329 -16q-81 0 -139 29t-88.5 82t-30.5 123v68h143v-64q0 -58 32.5 -90t82.5 -32t83 32t33 90v64h143v-68q0 -70 -31 -123t-88.5 -82t-139.5 -29zM214 254h-143v353q9 2 28.5 5.5t37.5 3.5q41 0 59 -14.5t18 -53.5v-294zM588 253h-143v354q9 2 28 5.5t38 3.5
q41 0 59 -14.5t18 -53.5v-295zM178 750l63 86q42 0 62.5 -17.5t20.5 -40.5q0 -20 -9.5 -33t-27.5 -33l-54 -59q-36 0 -54.5 16.5t-18.5 36.5q0 11 4 21t14 23zM378 750l64 86q42 0 62 -17.5t20 -40.5q0 -20 -9 -33t-28 -33l-54 -59q-35 0 -53.5 16.5t-18.5 36.5q0 11 4 21
t13 23z" />
    <glyph glyph-name="uhungarumlaut" unicode="&#x171;" horiz-adv-x="571" 
d="M60 185v74h139v-73q0 -48 25 -69.5t70 -21.5q29 0 48.5 5.5t29.5 11.5v147h139v-162q0 -24 -8.5 -40.5t-29.5 -29.5q-31 -19 -77 -30.5t-103 -11.5q-70 0 -122.5 21t-81.5 65t-29 114zM511 213h-139v263q9 2 26 5t37 3q40 0 58 -13.5t18 -51.5v-206zM199 213h-139v263
q9 2 26 5t37 3q40 0 58 -13.5t18 -51.5v-206zM130 621l82 109q42 0 63.5 -18t21.5 -42q0 -18 -9.5 -31t-28.5 -33l-73 -82q-36 0 -55 17t-19 37q0 11 3.5 20.5t14.5 22.5zM337 621l82 109q42 0 63.5 -18t21.5 -42q0 -18 -9.5 -31t-28.5 -33l-73 -82q-36 0 -55 17t-19 37
q0 11 3.5 20.5t14.5 22.5z" />
    <glyph glyph-name="Uogonek" unicode="&#x172;" horiz-adv-x="659" 
d="M329 -16q-81 0 -139 29t-88.5 82t-30.5 123v68h143v-64q0 -58 32.5 -90t82.5 -32t83 32t33 90v64h143v-68q0 -70 -31 -123t-88.5 -82t-139.5 -29zM214 254h-143v353q9 2 28.5 5.5t37.5 3.5q41 0 59 -14.5t18 -53.5v-294zM588 253h-143v354q9 2 28 5.5t38 3.5
q41 0 59 -14.5t18 -53.5v-295zM308 10l105 -1q-17 -10 -29 -24.5t-12 -37.5q0 -22 15 -34.5t42 -12.5h8q3 -8 5 -16.5t2 -18.5q0 -24 -17.5 -42.5t-62.5 -18.5q-50 0 -84.5 27t-34.5 75q0 28 10.5 48.5t25 34.5t27.5 21z" />
    <glyph glyph-name="uogonek" unicode="&#x173;" horiz-adv-x="571" 
d="M364 7l118 28q-25 -20 -40.5 -39t-15.5 -49q0 -22 15 -34.5t42 -12.5h8q3 -8 5 -16.5t2 -18.5q0 -24 -17.5 -42.5t-61.5 -18.5q-52 0 -86 27t-34 75q0 41 22 66t43 35zM60 185v74h139v-73q0 -48 25 -69.5t70 -21.5q29 0 48.5 5.5t29.5 11.5v147h139v-162
q0 -24 -8.5 -40.5t-29.5 -29.5q-14 -8 -31.5 -14t-36.5 -12q-23 -7 -51.5 -11.5t-60.5 -4.5q-70 0 -122.5 21t-81.5 65t-29 114zM511 213h-139v263q9 2 26 5t37 3q40 0 58 -13.5t18 -51.5v-206zM199 213h-139v263q9 2 26 5t37 3q40 0 58 -13.5t18 -51.5v-206z" />
    <glyph glyph-name="Wcircumflex" unicode="&#x174;" horiz-adv-x="841" 
d="M348 458q10 4 29.5 9.5t39.5 5.5q35 0 58 -10.5t28 -30.5q19 -61 33.5 -111.5t28.5 -98t28 -99.5h4q15 85 26.5 162t22.5 153t21 157q30 16 64 16q31 0 52.5 -13.5t21.5 -43.5q0 -21 -5 -60.5t-13 -91t-19 -106.5t-23 -108t-24 -97t-23 -71q-13 -11 -40.5 -18.5
t-57.5 -7.5q-37 0 -64 11t-33 29q-11 30 -24 71.5t-27.5 90.5t-28.5 101q-12 -51 -26 -103t-27.5 -97.5t-24.5 -77.5q-12 -10 -36.5 -17.5t-54.5 -7.5q-37 0 -66 11t-38 29q-10 23 -23.5 70t-28.5 108.5t-28.5 127.5t-24.5 129t-17 113q11 11 32 20t44 9q32 0 51.5 -13.5
t24.5 -46.5q16 -88 26.5 -153t19 -114t15.5 -87.5t14 -73.5h5q11 42 20.5 78.5t20 73.5t22 81.5t25.5 101.5zM470 679l-48 58q-25 -28 -43.5 -48.5t-40.5 -45.5q-32 1 -51 16t-19 38q0 17 9.5 29.5t26.5 29.5l44 45q17 17 34.5 26.5t41.5 9.5q22 0 40.5 -8.5t40.5 -36.5
l75 -91q0 -23 -13 -39.5t-41 -16.5q-17 0 -30 9t-26 25z" />
    <glyph glyph-name="wcircumflex" unicode="&#x175;" horiz-adv-x="764" 
d="M385 297q-12 -52 -28.5 -106t-31.5 -101.5t-25 -76.5q-11 -10 -30.5 -16t-47.5 -6q-32 0 -56.5 9.5t-32.5 27.5q-10 20 -21.5 57t-23.5 85t-24 100t-22 100.5t-17 87.5q12 12 31 20.5t43 8.5q29 0 47.5 -13.5t22.5 -46.5q10 -64 18.5 -115t15.5 -89t12.5 -63.5t8.5 -38.5
h4q6 23 19 71.5t31 111t35 126.5q16 9 33 14t40 5q29 0 49.5 -9.5t26.5 -29.5q19 -62 35.5 -120t28.5 -102.5t17 -67.5h5q15 82 31.5 171.5t27.5 179.5q29 16 63 16q29 0 47.5 -12.5t18.5 -42.5q0 -14 -5.5 -45.5t-14.5 -72t-20.5 -86t-23 -87.5t-22 -75.5t-18.5 -52.5
q-10 -9 -33.5 -15.5t-50.5 -6.5q-69 0 -81 35q-10 28 -25 72t-29.5 96.5t-27.5 102.5zM433 565l-48 58q-25 -28 -43.5 -48.5t-40.5 -45.5q-32 1 -51 16t-19 38q0 17 9.5 29.5t26.5 29.5l44 45q17 17 34.5 26.5t41.5 9.5q22 0 40.5 -8.5t40.5 -36.5l75 -91q0 -23 -13 -39.5
t-41 -16.5q-17 0 -30 9t-26 25z" />
    <glyph glyph-name="Ycircumflex" unicode="&#x176;" horiz-adv-x="566" 
d="M356 198h-128q-26 39 -57 87t-61 98.5t-56.5 98t-43.5 86.5q10 16 29 29.5t46 13.5q33 0 52.5 -14t37.5 -50q5 -8 16.5 -29.5t26 -49.5t29.5 -56t26 -49t15 -28h6q24 48 43.5 88.5t38 82.5t40.5 90q14 7 31.5 11t32.5 4q30 0 49.5 -15.5t19.5 -45.5q0 -11 -10 -35.5
t-32.5 -66t-59.5 -103t-91 -147.5zM221 251h140v-250q-9 -2 -27.5 -5t-36.5 -3q-42 0 -59 15t-17 51v192zM288 740q-22 -21 -45.5 -44t-48.5 -44q-26 1 -43.5 16t-17.5 37q0 18 9 31t31 31l39 34q44 35 77 35q23 0 41 -8.5t36 -28.5l82 -85q0 -29 -15.5 -44t-41.5 -15
q-17 0 -32 10.5t-35 33.5z" />
    <glyph glyph-name="ycircumflex" unicode="&#x177;" horiz-adv-x="530" 
d="M142 117q-16 33 -35 81t-40 112t-44 147q12 13 31.5 21.5t42.5 8.5q29 0 47.5 -12.5t28.5 -45.5q24 -75 48 -148.5t50 -148.5h4q18 45 36 102.5t34 119.5t27 118q14 7 28.5 11t31.5 4q29 0 50 -12.5t21 -42.5q0 -27 -8.5 -67.5t-23 -88t-33.5 -98t-40 -97.5t-43 -84
q-52 -93 -96.5 -139.5t-88.5 -46.5q-34 0 -56 20.5t-26 52.5q21 18 44.5 42.5t45.5 52.5t38 54q-17 5 -35 22t-39 62zM319 565l-48 58q-25 -28 -43.5 -48.5t-40.5 -45.5q-32 1 -51 16t-19 38q0 17 9.5 29.5t26.5 29.5l44 45q17 17 34.5 26.5t41.5 9.5q22 0 40.5 -8.5
t40.5 -36.5l75 -91q0 -23 -13 -39.5t-41 -16.5q-17 0 -30 9t-26 25z" />
    <glyph glyph-name="Ydieresis" unicode="&#x178;" horiz-adv-x="566" 
d="M356 198h-128q-26 39 -57 87t-61 98.5t-56.5 98t-43.5 86.5q10 16 29 29.5t46 13.5q33 0 52.5 -14t37.5 -50q5 -8 16.5 -29.5t26 -49.5t29.5 -56t26 -49t15 -28h6q24 48 43.5 88.5t38 82.5t40.5 90q14 7 31.5 11t32.5 4q30 0 49.5 -15.5t19.5 -45.5q0 -11 -10 -35.5
t-32.5 -66t-59.5 -103t-91 -147.5zM221 251h140v-250q-9 -2 -27.5 -5t-36.5 -3q-42 0 -59 15t-17 51v192zM259 742q0 -30 -20.5 -50.5t-52.5 -20.5t-52 20.5t-20 50.5q0 29 20 50t52 21t52.5 -21t20.5 -50zM460 742q0 -30 -20.5 -50.5t-52.5 -20.5q-31 0 -52 20.5t-21 50.5
q0 29 21 50t52 21q32 0 52.5 -21t20.5 -50z" />
    <glyph glyph-name="Zacute" unicode="&#x179;" horiz-adv-x="559" 
d="M76 157l360 452h44q36 -30 36 -77q0 -21 -9.5 -41t-24.5 -39l-359 -452h-51q-14 12 -23.5 31t-9.5 43q0 22 10.5 43t26.5 40zM92 0l62 118h353q6 -10 11 -24.5t5 -33.5q0 -30 -14 -45t-38 -15h-379zM453 609l-49 -118h-340q-6 9 -11 24t-5 33q0 30 14 45.5t38 15.5h353z
M253 745l108 92q35 0 54.5 -17t19.5 -42q0 -17 -8.5 -31t-31.5 -29l-95 -65q-33 1 -50 15.5t-17 34.5q0 12 4 21.5t16 20.5z" />
    <glyph glyph-name="zacute" unicode="&#x17a;" horiz-adv-x="477" 
d="M121 0h-55q-13 11 -20.5 27t-7.5 35q0 17 8 33.5t20 31.5l291 350h50q13 -11 21 -27t8 -35q0 -17 -8 -33.5t-20 -31.5zM379 477v-109h-322q-5 9 -10 23.5t-5 30.5q0 29 13.5 42t34.5 13h289zM103 0v109h329q5 -8 9.5 -22.5t4.5 -31.5q0 -29 -13 -42t-35 -13h-295z
M211 621l99 109q42 0 64 -18.5t22 -42.5q0 -19 -9 -32.5t-29 -30.5l-94 -82q-35 0 -54.5 17.5t-19.5 37.5q0 11 5 20.5t16 21.5z" />
    <glyph glyph-name="Zdotaccent" unicode="&#x17b;" horiz-adv-x="559" 
d="M76 157l360 452h44q36 -30 36 -77q0 -21 -9.5 -41t-24.5 -39l-359 -452h-51q-14 12 -23.5 31t-9.5 43q0 22 10.5 43t26.5 40zM92 0l62 118h353q6 -10 11 -24.5t5 -33.5q0 -30 -14 -45t-38 -15h-379zM453 609l-49 -118h-340q-6 9 -11 24t-5 33q0 30 14 45.5t38 15.5h353z
M361 749q0 -31 -21 -52.5t-56 -21.5q-33 0 -54.5 21.5t-21.5 52.5q0 33 21.5 54t54.5 21q35 0 56 -21t21 -54z" />
    <glyph glyph-name="zdotaccent" unicode="&#x17c;" horiz-adv-x="477" 
d="M121 0h-55q-13 11 -20.5 27t-7.5 35q0 17 8 33.5t20 31.5l291 350h50q13 -11 21 -27t8 -35q0 -17 -8 -33.5t-20 -31.5zM379 477v-109h-322q-5 9 -10 23.5t-5 30.5q0 29 13.5 42t34.5 13h289zM103 0v109h329q5 -8 9.5 -22.5t4.5 -31.5q0 -29 -13 -42t-35 -13h-295z
M318 623q0 -31 -21 -52.5t-56 -21.5q-33 0 -54.5 21.5t-21.5 52.5q0 33 21.5 54t54.5 21q35 0 56 -21t21 -54z" />
    <glyph glyph-name="Zcaron" unicode="&#x17d;" horiz-adv-x="559" 
d="M76 157l360 452h44q36 -30 36 -77q0 -21 -9.5 -41t-24.5 -39l-359 -452h-51q-14 12 -23.5 31t-9.5 43q0 22 10.5 43t26.5 40zM92 0l62 118h353q6 -10 11 -24.5t5 -33.5q0 -30 -14 -45t-38 -15h-379zM453 609l-49 -118h-340q-6 9 -11 24t-5 33q0 30 14 45.5t38 15.5h353z
M292 748q23 21 46.5 44t46.5 44q27 -1 45.5 -15.5t18.5 -38.5q0 -18 -9.5 -31t-31.5 -31l-39 -34q-23 -18 -39.5 -25.5t-37.5 -7.5q-25 0 -43 10t-35 26l-83 79q0 31 14.5 48t40.5 17q17 0 32 -9t38 -35z" />
    <glyph glyph-name="zcaron" unicode="&#x17e;" horiz-adv-x="477" 
d="M121 0h-55q-13 11 -20.5 27t-7.5 35q0 17 8 33.5t20 31.5l291 350h50q13 -11 21 -27t8 -35q0 -17 -8 -33.5t-20 -31.5zM379 477v-109h-322q-5 9 -10 23.5t-5 30.5q0 29 13.5 42t34.5 13h289zM103 0v109h329q5 -8 9.5 -22.5t4.5 -31.5q0 -29 -13 -42t-35 -13h-295z
M197 678l43 -47l90 89q32 -1 51 -16.5t19 -39.5q0 -18 -10 -30.5t-30 -29.5l-51 -47q-16 -13 -32.5 -20t-34.5 -7q-15 0 -27.5 3.5t-26 12.5t-33.5 27l-77 74q-3 16 1.5 32t17 27.5t33.5 11.5q17 0 31 -7.5t36 -32.5z" />
    <glyph glyph-name="uni018F" unicode="&#x18f;" horiz-adv-x="659" 
d="M507 387l40 -103l-367 -58q3 -33 20.5 -62t48.5 -46.5t73 -17.5q83 0 120 46.5t37 130.5l-9 75q-9 53 -35 87t-64 50.5t-85 16.5q-55 0 -99 -19.5t-71 -42.5q-20 13 -31 28.5t-11 37.5t13 40t33 30q32 19 77.5 31t100.5 12q65 0 122.5 -20.5t101.5 -62t69.5 -104
t25.5 -145.5q0 -101 -37 -169.5t-103 -103t-153 -34.5q-93 0 -157.5 36.5t-97.5 97t-33 131.5q0 35 21 53.5t55 23.5z" />
    <glyph glyph-name="florin" unicode="&#x192;" horiz-adv-x="526" 
d="M275 321v108h195q5 -8 10 -22t5 -31q0 -29 -13.5 -42t-34.5 -13h-162zM306 359l4 -3l-29 -277q-9 -93 -55 -135t-121 -42q-56 0 -86 18.5t-30 54.5q0 17 6.5 31t15.5 21q14 -5 28 -9.5t37 -4.5q31 0 46.5 16.5t19.5 56.5l41 402q11 96 67 140t141 44q66 0 98.5 -17.5
t32.5 -56.5q0 -17 -6.5 -31t-15.5 -21q-19 6 -39.5 10.5t-48.5 4.5q-43 0 -64.5 -19t-27.5 -60z" />
    <glyph glyph-name="Ohorn" unicode="&#x1a0;" horiz-adv-x="743" 
d="M656 304q0 -104 -40 -175.5t-109.5 -108t-157.5 -36.5t-158 36.5t-110 108t-40 175.5t41 175t110.5 108t156.5 37q86 0 156 -37t110.5 -108t40.5 -175zM509 304q0 99 -43.5 151t-116.5 52q-72 0 -116 -51.5t-44 -151.5q0 -101 43.5 -152.5t116.5 -51.5q74 0 117 51.5
t43 152.5zM581 430h-19q-6 10 -10.5 36t-4.5 51q36 0 60 22t24 74v34q12 6 24 9.5t28 3.5q27 0 45.5 -12.5t18.5 -43.5v-8q0 -54 -23 -91t-60.5 -56t-82.5 -19z" />
    <glyph glyph-name="ohorn" unicode="&#x1a1;" horiz-adv-x="628" 
d="M540 239q0 -78 -31 -135t-87 -88t-132 -31t-132.5 30.5t-87.5 87.5t-31 136q0 78 31.5 134.5t88 87.5t131.5 31t131 -31t87.5 -88t31.5 -134zM289 382q-49 0 -78 -37.5t-29 -105.5q0 -70 28.5 -107t79.5 -37q50 0 78.5 37.5t28.5 106.5q0 67 -28.5 105t-79.5 38zM460 311
h-19q-6 10 -10.5 36t-4.5 51q36 0 60 22t24 74v34q12 6 24 9.5t28 3.5q27 0 45.5 -12.5t18.5 -43.5v-8q0 -54 -23 -91t-60.5 -56t-82.5 -19z" />
    <glyph glyph-name="Uhorn" unicode="&#x1af;" horiz-adv-x="739" 
d="M326 -16q-81 0 -139 29t-88.5 82t-30.5 123v68h143v-64q0 -58 32.5 -90t82.5 -32t83 32t33 90v64h143v-68q0 -70 -31 -123t-88.5 -82t-139.5 -29zM211 254h-143v353q9 2 28.5 5.5t37.5 3.5q41 0 59 -14.5t18 -53.5v-294zM585 253h-143v354q9 2 28 5.5t38 3.5
q41 0 59 -14.5t18 -53.5v-295zM594 430h-19q-6 10 -10.5 36t-4.5 51q36 0 60 22t24 74v34q12 6 24 9.5t28 3.5q27 0 45.5 -12.5t18.5 -43.5v-8q0 -54 -23 -91t-60.5 -56t-82.5 -19z" />
    <glyph glyph-name="uhorn" unicode="&#x1b0;" horiz-adv-x="678" 
d="M60 185v74h139v-73q0 -48 25 -69.5t70 -21.5q29 0 48.5 5.5t29.5 11.5v147h139v-162q0 -24 -8.5 -40.5t-29.5 -29.5q-31 -19 -77 -30.5t-103 -11.5q-70 0 -122.5 21t-81.5 65t-29 114zM511 213h-139v263q9 2 26 5t37 3q40 0 58 -13.5t18 -51.5v-206zM199 213h-139v263
q9 2 26 5t37 3q40 0 58 -13.5t18 -51.5v-206zM509 311h-19q-6 10 -10.5 36t-4.5 51q36 0 60 22t24 74v34q12 6 24 9.5t28 3.5q27 0 45.5 -12.5t18.5 -43.5v-8q0 -54 -23 -91t-60.5 -56t-82.5 -19z" />
    <glyph glyph-name="uni01C4" unicode="&#x1c4;" horiz-adv-x="1206" 
d="M473 304q0 -100 -49 -151t-134 -51q-19 0 -39 1.5t-35 5.5v391q16 3 34 4t37 1q55 0 96.5 -21.5t65.5 -66t24 -113.5zM620 306q0 107 -43 177t-119 104.5t-178 34.5q-38 0 -83 -4t-84 -17q-18 -6 -29 -16.5t-11 -30.5v-483q0 -45 51 -63q38 -14 85.5 -18t80.5 -4
q99 0 173 35t115.5 106.5t41.5 178.5zM723 157l360 452h44q36 -30 36 -77q0 -21 -9.5 -41t-24.5 -39l-359 -452h-51q-14 12 -23.5 31t-9.5 43q0 22 10.5 43t26.5 40zM739 0l62 118h353q6 -10 11 -24.5t5 -33.5q0 -30 -14 -45t-38 -15h-379zM1100 609l-49 -118h-340
q-6 9 -11 24t-5 33q0 30 14 45.5t38 15.5h353zM939 748q23 21 46.5 44t46.5 44q27 -1 45.5 -15.5t18.5 -38.5q0 -18 -9.5 -31t-31.5 -31l-39 -34q-23 -18 -39.5 -25.5t-37.5 -7.5q-25 0 -43 10t-35 26l-83 79q0 31 14.5 48t40.5 17q17 0 32 -9t38 -35z" />
    <glyph glyph-name="uni01C5" unicode="&#x1c5;" horiz-adv-x="1138" 
d="M473 304q0 -100 -49 -151t-134 -51q-19 0 -39 1.5t-35 5.5v391q16 3 34 4t37 1q55 0 96.5 -21.5t65.5 -66t24 -113.5zM620 306q0 107 -43 177t-119 104.5t-178 34.5q-38 0 -83 -4t-84 -17q-18 -6 -29 -16.5t-11 -30.5v-483q0 -45 51 -63q38 -14 85.5 -18t80.5 -4
q99 0 173 35t115.5 106.5t41.5 178.5zM782 0h-55q-13 11 -20.5 27t-7.5 35q0 17 8 33.5t20 31.5l291 350h50q13 -11 21 -27t8 -35q0 -17 -8 -33.5t-20 -31.5zM1040 477v-109h-322q-5 9 -10 23.5t-5 30.5q0 29 13.5 42t34.5 13h289zM764 0v109h329q5 -8 9.5 -22.5t4.5 -31.5
q0 -29 -13 -42t-35 -13h-295zM859 678l43 -47l90 89q32 -1 51 -16.5t19 -39.5q0 -18 -10 -30.5t-30 -29.5l-51 -47q-16 -13 -32.5 -20t-34.5 -7q-15 0 -27.5 3.5t-26 12.5t-33.5 27l-77 74q-3 16 1.5 32t17 27.5t33.5 11.5q17 0 31 -7.5t36 -32.5z" />
    <glyph glyph-name="uni01C6" unicode="&#x1c6;" horiz-adv-x="1050" 
d="M372 113v306h139v-323q0 -23 -10 -38.5t-31 -28.5q-26 -17 -69 -30.5t-98 -13.5q-82 0 -141.5 27.5t-92 84t-32.5 140.5q0 88 33 144t89 83.5t125 27.5q36 0 65 -8.5t47 -19.5v-116q-15 13 -38.5 23.5t-55.5 10.5q-36 0 -64 -15t-43.5 -47.5t-15.5 -83.5q0 -72 33 -106
t90 -34q24 0 41.5 5.5t28.5 11.5zM511 391h-139v260q8 2 25.5 5t36.5 3q41 0 59 -14t18 -51v-203zM694 0h-55q-13 11 -20.5 27t-7.5 35q0 17 8 33.5t20 31.5l291 350h50q13 -11 21 -27t8 -35q0 -17 -8 -33.5t-20 -31.5zM952 477v-109h-322q-5 9 -10 23.5t-5 30.5
q0 29 13.5 42t34.5 13h289zM676 0v109h329q5 -8 9.5 -22.5t4.5 -31.5q0 -29 -13 -42t-35 -13h-295zM770 678l43 -47l90 89q32 -1 51 -16.5t19 -39.5q0 -18 -10 -30.5t-30 -29.5l-51 -47q-16 -13 -32.5 -20t-34.5 -7q-15 0 -27.5 3.5t-26 12.5t-33.5 27l-77 74q-3 16 1.5 32
t17 27.5t33.5 11.5q17 0 31 -7.5t36 -32.5z" />
    <glyph glyph-name="uni01C7" unicode="&#x1c7;" horiz-adv-x="923" 
d="M73 412h144v-405l-68 -9q-34 0 -55 21t-21 55v338zM149 -2v117h316q7 -9 12 -24t5 -32q0 -30 -14 -45.5t-37 -15.5h-282zM217 240h-144v367q10 2 29 5.5t38 3.5q40 0 58.5 -14.5t18.5 -53.5v-308zM709 290h143v-121q0 -59 -23 -100t-65 -62t-100 -21q-54 0 -88 17.5
t-34 58.5q0 18 6 31t13 21q17 -5 33.5 -8t34.5 -3q41 0 60.5 20.5t19.5 62.5v104zM852 231h-143v376q9 2 28 5.5t38 3.5q40 0 58.5 -14.5t18.5 -53.5v-317z" />
    <glyph glyph-name="uni01C8" unicode="&#x1c8;" horiz-adv-x="781" 
d="M73 412h144v-405l-68 -9q-34 0 -55 21t-21 55v338zM149 -2v117h316q7 -9 12 -24t5 -32q0 -30 -14 -45.5t-37 -15.5h-282zM217 240h-144v367q10 2 29 5.5t38 3.5q40 0 58.5 -14.5t18.5 -53.5v-308zM506 -117q24 12 40 26t23.5 34t7.5 51v262h140v-277q0 -63 -19.5 -101
t-50 -55.5t-62.5 -17.5q-37 0 -57 22.5t-22 55.5zM565 617q0 32 22 54t57 22t57 -22t22 -54t-22 -54.5t-57 -22.5t-57 22.5t-22 54.5zM717 188l-140 4v281q9 2 26.5 5t37.5 3q40 0 58 -14t18 -52v-227z" />
    <glyph glyph-name="uni01C9" unicode="&#x1c9;" horiz-adv-x="543" 
d="M66 264l139 -4v-259q-9 -2 -26 -5t-37 -3q-39 0 -57.5 14t-18.5 51v206zM205 188l-139 4v459q9 2 26 5t37 3q40 0 58 -14t18 -51v-406zM268 -117q24 12 40 26t23.5 34t7.5 51v262h140v-277q0 -63 -19.5 -101t-50 -55.5t-62.5 -17.5q-37 0 -57 22.5t-22 55.5zM327 617
q0 32 22 54t57 22t57 -22t22 -54t-22 -54.5t-57 -22.5t-57 22.5t-22 54.5zM479 188l-140 4v281q9 2 26.5 5t37.5 3q40 0 58 -14t18 -52v-227z" />
    <glyph glyph-name="uni01CA" unicode="&#x1ca;" horiz-adv-x="1076" 
d="M73 447l130 2q4 -41 6 -83t2.5 -81.5t0.5 -77.5v-206q-9 -2 -27.5 -5t-36.5 -3q-41 0 -58 14.5t-17 50.5v389zM599 162l-129 -2q-8 75 -8.5 143.5t-0.5 131.5v173q9 2 27 5t37 3q40 0 57 -14.5t17 -50.5v-389zM599 208v84v-274q-12 -11 -34 -18t-53 -7q-32 0 -59.5 10.5
t-46.5 46.5l-130 242q-12 23 -23.5 46.5t-22 46.5t-20.5 45l-137 -31v183q12 16 36 24.5t52 8.5q32 0 60 -11t46 -47l131 -242q12 -22 23.5 -45.5t22.5 -47t20 -45.5zM862 290h143v-121q0 -59 -23 -100t-65 -62t-100 -21q-54 0 -88 17.5t-34 58.5q0 18 6 31t13 21
q17 -5 33.5 -8t34.5 -3q41 0 60.5 20.5t19.5 62.5v104zM1005 231h-143v376q9 2 28 5.5t38 3.5q40 0 58.5 -14.5t18.5 -53.5v-317z" />
    <glyph glyph-name="uni01CB" unicode="&#x1cb;" horiz-adv-x="945" 
d="M73 447l130 2q4 -41 6 -83t2.5 -81.5t0.5 -77.5v-206q-9 -2 -27.5 -5t-36.5 -3q-41 0 -58 14.5t-17 50.5v389zM599 162l-129 -2q-8 75 -8.5 143.5t-0.5 131.5v173q9 2 27 5t37 3q40 0 57 -14.5t17 -50.5v-389zM599 208v84v-274q-12 -11 -34 -18t-53 -7q-32 0 -59.5 10.5
t-46.5 46.5l-130 242q-12 23 -23.5 46.5t-22 46.5t-20.5 45l-137 -31v183q12 16 36 24.5t52 8.5q32 0 60 -11t46 -47l131 -242q12 -22 23.5 -45.5t22.5 -47t20 -45.5zM670 -117q24 12 40 26t23.5 34t7.5 51v262h140v-277q0 -63 -19.5 -101t-50 -55.5t-62.5 -17.5
q-37 0 -57 22.5t-22 55.5zM729 617q0 32 22 54t57 22t57 -22t22 -54t-22 -54.5t-57 -22.5t-57 22.5t-22 54.5zM881 188l-140 4v281q9 2 26.5 5t37.5 3q40 0 58 -14t18 -52v-227z" />
    <glyph glyph-name="uni01CC" unicode="&#x1cc;" horiz-adv-x="844" 
d="M511 310v-95h-139v91q0 39 -23 57.5t-61 18.5q-27 0 -49 -6.5t-40 -16.5v-144h-139v158q0 25 10.5 40.5t30.5 29.5q31 21 80 35t109 14q105 0 163 -46.5t58 -135.5zM60 262h139v-261q-9 -2 -26 -5t-37 -3q-39 0 -57.5 14t-18.5 51v204zM372 262h139v-261q-9 -2 -26 -5
t-36 -3q-40 0 -58.5 14t-18.5 51v204zM569 -117q24 12 40 26t23.5 34t7.5 51v262h140v-277q0 -63 -19.5 -101t-50 -55.5t-62.5 -17.5q-37 0 -57 22.5t-22 55.5zM628 617q0 32 22 54t57 22t57 -22t22 -54t-22 -54.5t-57 -22.5t-57 22.5t-22 54.5zM780 188l-140 4v281
q9 2 26.5 5t37.5 3q40 0 58 -14t18 -52v-227z" />
    <glyph glyph-name="uni01CD" unicode="&#x1cd;" horiz-adv-x="615" 
d="M313 488h-6q-11 -33 -25 -74.5t-29.5 -86.5t-28.5 -88l-17 -80q-6 -19 -12 -41t-12.5 -43t-12 -40.5t-9.5 -34.5q-11 -4 -24 -7t-32 -3q-38 0 -59 14.5t-21 41.5q0 12 4 24.5t8 28.5q10 33 26.5 83t36.5 108.5t40.5 116t38.5 106.5t30 79q14 8 42.5 15.5t56.5 7.5
q40 0 72 -11.5t40 -37.5q20 -53 43 -123.5t47 -146.5t45.5 -148t38.5 -130q-10 -12 -30 -19.5t-46 -7.5q-39 0 -55 13.5t-24 42.5l-36 119l-15 78q-14 46 -28 91t-26 84.5t-21 68.5zM145 138l54 112h240l19 -112h-313zM310 748q23 21 46.5 44t46.5 44q27 -1 45.5 -15.5
t18.5 -38.5q0 -18 -9.5 -31t-31.5 -31l-39 -34q-23 -18 -39.5 -25.5t-37.5 -7.5q-25 0 -43 10t-35 26l-83 79q0 31 14.5 48t40.5 17q17 0 32 -9t38 -35z" />
    <glyph glyph-name="uni01CE" unicode="&#x1ce;" horiz-adv-x="529" 
d="M253 -15q-101 0 -160.5 39t-59.5 117q0 68 42 104t125 44l134 14v15q0 36 -27 52t-76 16q-38 0 -75 -9.5t-66 -22.5q-11 8 -19 23.5t-8 32.5q0 40 43 58q29 12 67 18t75 6q101 0 161.5 -42.5t60.5 -133.5v-228q0 -25 -12.5 -39.5t-31.5 -26.5q-29 -17 -73 -27t-100 -10z
M253 89q26 0 48.5 5t33.5 12v102l-90 -8q-36 -3 -56 -16t-20 -38q0 -26 20 -41.5t64 -15.5zM224 678l43 -47l90 89q32 -1 51 -16.5t19 -39.5q0 -18 -10 -30.5t-30 -29.5l-51 -47q-16 -13 -32.5 -20t-34.5 -7q-15 0 -27.5 3.5t-26 12.5t-33.5 27l-77 74q-3 16 1.5 32t17 27.5
t33.5 11.5q17 0 31 -7.5t36 -32.5z" />
    <glyph glyph-name="uni01CF" unicode="&#x1cf;" horiz-adv-x="290" 
d="M74 415h143v-414q-9 -2 -28 -5t-39 -3q-41 0 -58.5 15.5t-17.5 51.5v355zM217 240h-143v367q9 2 28 5.5t38 3.5q40 0 58.5 -14.5t18.5 -53.5v-308zM145 748q23 21 46.5 44t46.5 44q27 -1 45.5 -15.5t18.5 -38.5q0 -18 -9.5 -31t-31.5 -31l-39 -34q-23 -18 -39.5 -25.5
t-37.5 -7.5q-25 0 -43 10t-35 26l-83 79q0 31 14.5 48t40.5 17q17 0 32 -9t38 -35z" />
    <glyph glyph-name="uni01D0" unicode="&#x1d0;" horiz-adv-x="268" 
d="M64 286h140v-286q-9 -2 -26 -5t-37 -3q-39 0 -58 14.5t-19 50.5v229zM204 239h-140v233q9 3 26 5.5t37 2.5q40 0 58.5 -14t18.5 -51v-176zM92 678l43 -47l90 89q32 -1 51 -16.5t19 -39.5q0 -18 -10 -30.5t-30 -29.5l-51 -47q-16 -13 -32.5 -20t-34.5 -7q-15 0 -27.5 3.5
t-26 12.5t-33.5 27l-78 74q-2 16 2.5 32t17 27.5t33.5 11.5q17 0 31 -7.5t36 -32.5z" />
    <glyph glyph-name="uni01D1" unicode="&#x1d1;" horiz-adv-x="698" 
d="M656 304q0 -104 -40 -175.5t-109.5 -108t-157.5 -36.5t-158 36.5t-110 108t-40 175.5t41 175t110.5 108t156.5 37q86 0 156 -37t110.5 -108t40.5 -175zM509 304q0 99 -43.5 151t-116.5 52q-72 0 -116 -51.5t-44 -151.5q0 -101 43.5 -152.5t116.5 -51.5q74 0 117 51.5
t43 152.5zM351 748q23 21 46.5 44t46.5 44q27 -1 45.5 -15.5t18.5 -38.5q0 -18 -9.5 -31t-31.5 -31l-39 -34q-23 -18 -39.5 -25.5t-37.5 -7.5q-25 0 -43 10t-35 26l-83 79q0 31 14.5 48t40.5 17q17 0 32 -9t38 -35z" />
    <glyph glyph-name="uni01D2" unicode="&#x1d2;" horiz-adv-x="575" 
d="M538 239q0 -78 -31 -135t-87 -88t-132 -31t-132.5 30.5t-87.5 87.5t-31 136q0 78 31.5 134.5t88 87.5t131.5 31t131 -31t87.5 -88t31.5 -134zM287 382q-49 0 -78 -37.5t-29 -105.5q0 -70 28.5 -107t79.5 -37q50 0 78.5 37.5t28.5 106.5q0 67 -28.5 105t-79.5 38zM247 678
l43 -47l90 89q32 -1 51 -16.5t19 -39.5q0 -18 -10 -30.5t-30 -29.5l-51 -47q-16 -13 -32.5 -20t-34.5 -7q-15 0 -27.5 3.5t-26 12.5t-33.5 27l-77 74q-3 16 1.5 32t17 27.5t33.5 11.5q17 0 31 -7.5t36 -32.5z" />
    <glyph glyph-name="uni01D3" unicode="&#x1d3;" horiz-adv-x="659" 
d="M329 -16q-81 0 -139 29t-88.5 82t-30.5 123v68h143v-64q0 -58 32.5 -90t82.5 -32t83 32t33 90v64h143v-68q0 -70 -31 -123t-88.5 -82t-139.5 -29zM214 254h-143v353q9 2 28.5 5.5t37.5 3.5q41 0 59 -14.5t18 -53.5v-294zM588 253h-143v354q9 2 28 5.5t38 3.5
q41 0 59 -14.5t18 -53.5v-295zM329 748q23 21 46.5 44t46.5 44q27 -1 45.5 -15.5t18.5 -38.5q0 -18 -9.5 -31t-31.5 -31l-39 -34q-23 -18 -39.5 -25.5t-37.5 -7.5q-25 0 -43 10t-35 26l-83 79q0 31 14.5 48t40.5 17q17 0 32 -9t38 -35z" />
    <glyph glyph-name="uni01D4" unicode="&#x1d4;" horiz-adv-x="571" 
d="M60 185v74h139v-73q0 -48 25 -69.5t70 -21.5q29 0 48.5 5.5t29.5 11.5v147h139v-162q0 -24 -8.5 -40.5t-29.5 -29.5q-31 -19 -77 -30.5t-103 -11.5q-70 0 -122.5 21t-81.5 65t-29 114zM511 213h-139v263q9 2 26 5t37 3q40 0 58 -13.5t18 -51.5v-206zM199 213h-139v263
q9 2 26 5t37 3q40 0 58 -13.5t18 -51.5v-206zM242 678l43 -47l90 89q32 -1 51 -16.5t19 -39.5q0 -18 -10 -30.5t-30 -29.5l-51 -47q-16 -13 -32.5 -20t-34.5 -7q-15 0 -27.5 3.5t-26 12.5t-33.5 27l-77 74q-3 16 1.5 32t17 27.5t33.5 11.5q17 0 31 -7.5t36 -32.5z" />
    <glyph glyph-name="uni01D5" unicode="&#x1d5;" horiz-adv-x="659" 
d="M443 881h-264q-4 8 -8.5 20.5t-4.5 26.5q0 27 12 38.5t31 11.5h264q6 -9 9.5 -21t3.5 -26q0 -28 -11.5 -39t-31.5 -11zM329 -16q-81 0 -139 29t-88.5 82t-30.5 123v68h143v-64q0 -58 32.5 -90t82.5 -32t83 32t33 90v64h143v-68q0 -70 -31 -123t-88.5 -82t-139.5 -29z
M214 254h-143v353q9 2 28.5 5.5t37.5 3.5q41 0 59 -14.5t18 -53.5v-294zM588 253h-143v354q9 2 28 5.5t38 3.5q41 0 59 -14.5t18 -53.5v-295zM300 745q0 -30 -20.5 -50.5t-52.5 -20.5t-52 20.5t-20 50.5q0 29 20 50t52 21t52.5 -21t20.5 -50zM501 745q0 -30 -20.5 -50.5
t-52.5 -20.5q-31 0 -52 20.5t-21 50.5q0 29 21 50t52 21q32 0 52.5 -21t20.5 -50z" />
    <glyph glyph-name="uni01D6" unicode="&#x1d6;" horiz-adv-x="571" 
d="M397 762h-265q-4 8 -8 20.5t-4 26.5q0 27 11.5 38.5t30.5 11.5h265q6 -8 9 -20.5t3 -26.5q0 -27 -11 -38.5t-31 -11.5zM60 185v74h139v-73q0 -48 25 -69.5t70 -21.5q29 0 48.5 5.5t29.5 11.5v147h139v-162q0 -24 -8.5 -40.5t-29.5 -29.5q-31 -19 -77 -30.5t-103 -11.5
q-70 0 -122.5 21t-81.5 65t-29 114zM511 213h-139v263q9 2 26 5t37 3q40 0 58 -13.5t18 -51.5v-206zM199 213h-139v263q9 2 26 5t37 3q40 0 58 -13.5t18 -51.5v-206zM255 620q0 -29 -20 -49.5t-53 -20.5q-32 0 -52 20.5t-20 49.5q0 30 20 50.5t52 20.5q33 0 53 -20.5
t20 -50.5zM456 620q0 -29 -20 -49.5t-53 -20.5q-31 0 -51.5 20.5t-20.5 49.5q0 30 20.5 50.5t51.5 20.5q33 0 53 -20.5t20 -50.5z" />
    <glyph glyph-name="uni01D7" unicode="&#x1d7;" horiz-adv-x="659" 
d="M329 -16q-81 0 -139 29t-88.5 82t-30.5 123v68h143v-64q0 -58 32.5 -90t82.5 -32t83 32t33 90v64h143v-68q0 -70 -31 -123t-88.5 -82t-139.5 -29zM214 254h-143v353q9 2 28.5 5.5t37.5 3.5q41 0 59 -14.5t18 -53.5v-294zM588 253h-143v354q9 2 28 5.5t38 3.5
q41 0 59 -14.5t18 -53.5v-295zM300 745q0 -30 -20.5 -50.5t-52.5 -20.5t-52 20.5t-20 50.5q0 29 20 50t52 21t52.5 -21t20.5 -50zM501 745q0 -30 -20.5 -50.5t-52.5 -20.5q-31 0 -52 20.5t-21 50.5q0 29 21 50t52 21q32 0 52.5 -21t20.5 -50zM297 933l71 89q35 0 52 -15.5
t17 -34.5q0 -15 -7.5 -27t-22.5 -28l-64 -66q-28 0 -45 13.5t-17 30.5q0 10 4 18.5t12 19.5z" />
    <glyph glyph-name="uni01D8" unicode="&#x1d8;" horiz-adv-x="571" 
d="M60 185v74h139v-73q0 -48 25 -69.5t70 -21.5q29 0 48.5 5.5t29.5 11.5v147h139v-162q0 -24 -8.5 -40.5t-29.5 -29.5q-31 -19 -77 -30.5t-103 -11.5q-70 0 -122.5 21t-81.5 65t-29 114zM511 213h-139v263q9 2 26 5t37 3q40 0 58 -13.5t18 -51.5v-206zM199 213h-139v263
q9 2 26 5t37 3q40 0 58 -13.5t18 -51.5v-206zM255 620q0 -30 -20.5 -50.5t-52.5 -20.5t-52 20.5t-20 50.5q0 29 20 50t52 21t52.5 -21t20.5 -50zM456 620q0 -30 -20.5 -50.5t-52.5 -20.5q-31 0 -52 20.5t-21 50.5q0 29 21 50t52 21q32 0 52.5 -21t20.5 -50zM253 816l71 89
q35 0 52 -15.5t17 -34.5q0 -15 -7.5 -27t-22.5 -28l-64 -66q-28 0 -45 13.5t-17 30.5q0 10 4 18.5t12 19.5z" />
    <glyph glyph-name="uni01D9" unicode="&#x1d9;" horiz-adv-x="659" 
d="M329 -16q-81 0 -139 29t-88.5 82t-30.5 123v68h143v-64q0 -58 32.5 -90t82.5 -32t83 32t33 90v64h143v-68q0 -70 -31 -123t-88.5 -82t-139.5 -29zM214 254h-143v353q9 2 28.5 5.5t37.5 3.5q41 0 59 -14.5t18 -53.5v-294zM588 253h-143v354q9 2 28 5.5t38 3.5
q41 0 59 -14.5t18 -53.5v-295zM300 745q0 -30 -20.5 -50.5t-52.5 -20.5t-52 20.5t-20 50.5q0 29 20 50t52 21t52.5 -21t20.5 -50zM501 745q0 -30 -20.5 -50.5t-52.5 -20.5q-31 0 -52 20.5t-21 50.5q0 29 21 50t52 21q32 0 52.5 -21t20.5 -50zM280 872l-100 97q0 24 14 38
t33 14q15 0 25.5 -7.5t20.5 -19.5l50 -57l79 84q30 -1 44.5 -15t14.5 -28q0 -16 -7 -26t-21 -22l-63 -59q-10 -8 -20.5 -14t-24.5 -6t-24.5 6t-20.5 15z" />
    <glyph glyph-name="uni01DA" unicode="&#x1da;" horiz-adv-x="571" 
d="M60 185v74h139v-73q0 -48 25 -69.5t70 -21.5q29 0 48.5 5.5t29.5 11.5v147h139v-162q0 -24 -8.5 -40.5t-29.5 -29.5q-31 -19 -77 -30.5t-103 -11.5q-70 0 -122.5 21t-81.5 65t-29 114zM511 213h-139v263q9 2 26 5t37 3q40 0 58 -13.5t18 -51.5v-206zM199 213h-139v263
q9 2 26 5t37 3q40 0 58 -13.5t18 -51.5v-206zM255 620q0 -30 -20.5 -50.5t-52.5 -20.5t-52 20.5t-20 50.5q0 29 20 50t52 21t52.5 -21t20.5 -50zM456 620q0 -30 -20.5 -50.5t-52.5 -20.5q-31 0 -52 20.5t-21 50.5q0 29 21 50t52 21q32 0 52.5 -21t20.5 -50zM244 743l-100 97
q0 24 14 38t33 14q15 0 25.5 -7.5t20.5 -19.5l50 -57l79 84q30 -1 44.5 -15t14.5 -28q0 -16 -7 -26t-21 -22l-63 -59q-10 -8 -20.5 -14t-24.5 -6t-24.5 6t-20.5 15z" />
    <glyph glyph-name="uni01DB" unicode="&#x1db;" horiz-adv-x="659" 
d="M329 -16q-81 0 -139 29t-88.5 82t-30.5 123v68h143v-64q0 -58 32.5 -90t82.5 -32t83 32t33 90v64h143v-68q0 -70 -31 -123t-88.5 -82t-139.5 -29zM214 254h-143v353q9 2 28.5 5.5t37.5 3.5q41 0 59 -14.5t18 -53.5v-294zM588 253h-143v354q9 2 28 5.5t38 3.5
q41 0 59 -14.5t18 -53.5v-295zM300 745q0 -30 -20.5 -50.5t-52.5 -20.5t-52 20.5t-20 50.5q0 29 20 50t52 21t52.5 -21t20.5 -50zM501 745q0 -30 -20.5 -50.5t-52.5 -20.5q-31 0 -52 20.5t-21 50.5q0 29 21 50t52 21q32 0 52.5 -21t20.5 -50zM277 876l-78 90q1 26 16 41
t35 15q19 0 32 -9t24 -26l65 -91q-4 -22 -18 -33t-30 -11q-14 0 -24 6t-22 18z" />
    <glyph glyph-name="uni01DC" unicode="&#x1dc;" horiz-adv-x="571" 
d="M60 185v74h139v-73q0 -48 25 -69.5t70 -21.5q29 0 48.5 5.5t29.5 11.5v147h139v-162q0 -24 -8.5 -40.5t-29.5 -29.5q-31 -19 -77 -30.5t-103 -11.5q-70 0 -122.5 21t-81.5 65t-29 114zM511 213h-139v263q9 2 26 5t37 3q40 0 58 -13.5t18 -51.5v-206zM199 213h-139v263
q9 2 26 5t37 3q40 0 58 -13.5t18 -51.5v-206zM255 620q0 -30 -20.5 -50.5t-52.5 -20.5t-52 20.5t-20 50.5q0 29 20 50t52 21t52.5 -21t20.5 -50zM456 620q0 -30 -20.5 -50.5t-52.5 -20.5q-31 0 -52 20.5t-21 50.5q0 29 21 50t52 21q32 0 52.5 -21t20.5 -50zM230 758l-78 90
q1 26 16 41t35 15q19 0 32 -9t24 -26l65 -91q-4 -22 -18 -33t-30 -11q-14 0 -24 6t-22 18z" />
    <glyph glyph-name="Gcaron" unicode="&#x1e6;" horiz-adv-x="655" 
d="M599 298v-210q0 -27 -11 -41t-34 -27q-27 -15 -77 -25.5t-100 -10.5q-95 0 -171.5 33t-120.5 104t-44 181q0 106 45 177.5t120.5 108t166.5 36.5q61 0 106.5 -13t70 -35.5t24.5 -50.5q0 -21 -11 -37.5t-26 -25.5q-26 16 -63.5 30.5t-89.5 14.5q-57 0 -101 -24.5t-69 -70
t-25 -109.5q0 -69 24.5 -114t67.5 -67t98 -22q27 0 48.5 5t33.5 10v126h-122q-5 9 -9.5 24t-4.5 31q0 30 13.5 43.5t36.5 13.5h168q26 0 41 -14.5t15 -40.5zM355 748q23 21 46.5 44t46.5 44q27 -1 45.5 -15.5t18.5 -38.5q0 -18 -9.5 -31t-31.5 -31l-39 -34
q-23 -18 -39.5 -25.5t-37.5 -7.5q-25 0 -43 10t-35 26l-83 79q0 31 14.5 48t40.5 17q17 0 32 -9t38 -35z" />
    <glyph glyph-name="gcaron" unicode="&#x1e7;" horiz-adv-x="557" 
d="M259 18q-60 0 -110 23t-80.5 75t-30.5 137q0 79 31 132t87.5 80t130.5 27q54 0 99 -13.5t71 -30.5q18 -12 29 -28.5t11 -40.5v-313h-135v299q-12 7 -29 12t-41 5q-51 0 -83 -31.5t-32 -97.5q0 -73 30.5 -101t75.5 -28q35 0 57 12t38 27l5 -112q-20 -13 -50.5 -23
t-73.5 -10zM364 2v95h133v-99q0 -69 -32.5 -112.5t-87 -64t-122.5 -20.5q-52 0 -91.5 9t-60.5 22q-34 22 -34 60q0 20 8.5 35.5t20.5 23.5q26 -16 63 -28t79 -12q58 0 91 22t33 69zM244 678l43 -47l90 89q32 -1 51 -16.5t19 -39.5q0 -18 -10 -30.5t-30 -29.5l-51 -47
q-16 -13 -32.5 -20t-34.5 -7q-15 0 -27.5 3.5t-26 12.5t-33.5 27l-77 74q-3 16 1.5 32t17 27.5t33.5 11.5q17 0 31 -7.5t36 -32.5z" />
    <glyph glyph-name="uni01EA" unicode="&#x1ea;" horiz-adv-x="698" 
d="M656 304q0 -104 -40 -175.5t-109.5 -108t-157.5 -36.5t-158 36.5t-110 108t-40 175.5t41 175t110.5 108t156.5 37q86 0 156 -37t110.5 -108t40.5 -175zM509 304q0 99 -43.5 151t-116.5 52q-72 0 -116 -51.5t-44 -151.5q0 -101 43.5 -152.5t116.5 -51.5q74 0 117 51.5
t43 152.5zM327 10l105 -1q-17 -10 -29 -24.5t-12 -37.5q0 -22 15 -34.5t42 -12.5h8q3 -8 5 -16.5t2 -18.5q0 -24 -17.5 -42.5t-62.5 -18.5q-50 0 -84.5 27t-34.5 75q0 28 10.5 48.5t25 34.5t27.5 21z" />
    <glyph glyph-name="uni01EB" unicode="&#x1eb;" horiz-adv-x="575" 
d="M538 239q0 -78 -31 -135t-87 -88t-132 -31t-132.5 30.5t-87.5 87.5t-31 136q0 78 31.5 134.5t88 87.5t131.5 31t131 -31t87.5 -88t31.5 -134zM287 382q-49 0 -78 -37.5t-29 -105.5q0 -70 28.5 -107t79.5 -37q50 0 78.5 37.5t28.5 106.5q0 67 -28.5 105t-79.5 38zM272 10
l105 -1q-17 -10 -29 -24.5t-12 -37.5q0 -22 15 -34.5t42 -12.5h8q3 -8 5 -16.5t2 -18.5q0 -24 -17.5 -42.5t-62.5 -18.5q-50 0 -84.5 27t-34.5 75q0 28 10.5 48.5t25 34.5t27.5 21z" />
    <glyph glyph-name="Aringacute" unicode="&#x1fa;" horiz-adv-x="615" 
d="M313 488h-6q-11 -33 -25 -74.5t-29.5 -86.5t-28.5 -88l-17 -80q-6 -19 -12 -41t-12.5 -43t-12 -40.5t-9.5 -34.5q-11 -4 -24 -7t-32 -3q-38 0 -59 14.5t-21 41.5q0 12 4 24.5t8 28.5q10 33 26.5 83t36.5 108.5t40.5 116t38.5 106.5t30 79q14 8 42.5 15.5t56.5 7.5
q40 0 72 -11.5t40 -37.5q20 -53 43 -123.5t47 -146.5t45.5 -148t38.5 -130q-10 -12 -30 -19.5t-46 -7.5q-39 0 -55 13.5t-24 42.5l-36 119l-15 78q-14 46 -28 91t-26 84.5t-21 68.5zM145 138l54 112h240l19 -112h-313zM286 969l71 89q35 0 52 -15.5t17 -34.5q0 -15 -7.5 -27
t-22.5 -28l-64 -66q-28 0 -45 13.5t-17 30.5q0 10 4 18.5t12 19.5zM190 751q0 43 33 72.5t90 29.5q60 0 93 -29.5t33 -72.5t-33 -72.5t-93 -29.5q-57 0 -90 29.5t-33 72.5zM277 750q0 -15 10.5 -24.5t26.5 -9.5t27 9.5t11 25.5t-11 25t-27 9t-26.5 -9t-10.5 -26z" />
    <glyph glyph-name="aringacute" unicode="&#x1fb;" horiz-adv-x="529" 
d="M253 -15q-101 0 -160.5 39t-59.5 117q0 68 42 104t125 44l134 14v15q0 36 -27 52t-76 16q-38 0 -75 -9.5t-66 -22.5q-11 8 -19 23.5t-8 32.5q0 40 43 58q29 12 67 18t75 6q101 0 161.5 -42.5t60.5 -133.5v-228q0 -25 -12.5 -39.5t-31.5 -26.5q-29 -17 -73 -27t-100 -10z
M253 89q26 0 48.5 5t33.5 12v102l-90 -8q-36 -3 -56 -16t-20 -38q0 -26 20 -41.5t64 -15.5zM140 631q0 44 32.5 75t89.5 31q60 0 93 -31t33 -75t-33 -74.5t-93 -30.5q-57 0 -89.5 30.5t-32.5 74.5zM226 631q0 -18 10.5 -28t26.5 -10t27 10t11 28t-11 28t-27 10t-26.5 -10
t-10.5 -28zM239 850l71 89q35 0 52 -15.5t17 -34.5q0 -15 -7.5 -27t-22.5 -28l-64 -66q-28 0 -45 13.5t-17 30.5q0 10 4 18.5t12 19.5z" />
    <glyph glyph-name="AEacute" unicode="&#x1fc;" horiz-adv-x="864" 
d="M493 487h-103l-131 -272l-19 -38l-83 -177q-11 -3 -22.5 -6t-29.5 -3q-37 0 -55 14.5t-18 39.5q0 12 3.5 25.5t11.5 29.5q13 29 36.5 76.5t52.5 104.5t59 114.5t56.5 108t45.5 84.5q12 9 35.5 16.5t51.5 7.5q20 0 42.5 -4.5t41 -14.5t24.5 -27zM147 138l54 112h237
l19 -112h-310zM396 527h139v-520q-8 -3 -26 -6t-37 -3q-35 0 -55.5 21t-20.5 55v453zM472 253v113h301q6 -9 11 -23t5 -32q0 -29 -13.5 -43.5t-36.5 -14.5h-267zM472 -2v114h335q5 -8 10 -23t5 -33q0 -29 -13.5 -43.5t-36.5 -14.5h-300zM438 493v75q12 17 30 28t42 11h292
q6 -9 11 -23t5 -32q0 -30 -13.5 -44.5t-36.5 -14.5h-330zM391 745l108 92q35 0 54.5 -17t19.5 -42q0 -17 -8.5 -31t-31.5 -29l-95 -65q-33 1 -50 15.5t-17 34.5q0 12 4 21.5t16 20.5z" />
    <glyph glyph-name="aeacute" unicode="&#x1fd;" horiz-adv-x="824" 
d="M590 -15q-111 0 -175.5 62.5t-69.5 170.5q0 6 -2 13.5t-2 13.5q0 84 31 138.5t81.5 81.5t110.5 27q67 0 118 -27t79.5 -74t28.5 -108q0 -30 -15.5 -45.5t-44.5 -19.5l-321 -47l-5 96l255 39q-3 32 -26.5 57t-68.5 25q-48 0 -79 -32t-32 -92l4 -63q8 -58 47 -84t95 -26
q42 0 78.5 12t59.5 26q14 -9 23.5 -24t9.5 -32q0 -28 -23.5 -48t-64 -30t-92.5 -10zM253 89q26 0 48.5 5t33.5 12v102l-90 -8q-36 -3 -56 -16t-20 -38q0 -26 20 -41.5t64 -15.5zM251 -15q-101 0 -159.5 39t-58.5 117q0 68 42 104t125 44l134 14v15q0 36 -27 52t-76 16
q-38 0 -75 -9.5t-66 -22.5q-11 8 -19 23.5t-8 32.5q0 40 43 58q29 12 67 18t75 6q94 0 144.5 -44t50.5 -132v-230q0 -25 -11 -41t-26 -24q-29 -16 -64 -26t-91 -10zM364 623l99 109q42 0 64 -18.5t22 -42.5q0 -19 -9 -32.5t-29 -30.5l-94 -82q-35 0 -54.5 17.5t-19.5 37.5
q0 11 5 20.5t16 21.5z" />
    <glyph glyph-name="Oslashacute" unicode="&#x1fe;" horiz-adv-x="698" 
d="M190 71l-85 -88q-30 7 -47.5 22.5t-17.5 37.5q0 15 8.5 28.5t27.5 32.5l36 33zM614 505l-34 -34l-64 79l71 75q29 -7 47 -23t18 -36q0 -15 -10.5 -30t-27.5 -31zM525 418l-304 -320l-46 95l284 302zM656 304q0 -104 -40 -175.5t-109.5 -108t-157.5 -36.5q-87 0 -157 38
t-110.5 110t-40.5 172q0 104 41 175t110.5 108t156.5 37q85 0 154.5 -38t111 -109.5t41.5 -172.5zM513 304q0 98 -45.5 150.5t-118.5 52.5q-72 0 -118 -51.5t-46 -151.5q0 -99 45.5 -151.5t118.5 -52.5q74 0 119 51.5t45 152.5zM313 745l108 92q35 0 54.5 -17t19.5 -42
q0 -17 -8.5 -31t-31.5 -29l-95 -65q-33 1 -50 15.5t-17 34.5q0 12 4 21.5t16 20.5z" />
    <glyph glyph-name="oslashacute" unicode="&#x1ff;" horiz-adv-x="575" 
d="M435 388l-53 62l59 89q13 0 27 -5.5t23.5 -15.5t9.5 -23q0 -9 -6 -19zM206 44l-72 -105q-13 0 -27.5 6t-23.5 16t-9 22q0 10 7 20l52 76zM224 74l-46 69l164 247l70 -32zM538 239q0 -78 -31 -135t-87 -88t-132 -31t-132.5 30.5t-87.5 87.5t-31 136q0 78 31.5 134.5
t88 87.5t131.5 31t131 -31t87.5 -88t31.5 -134zM288 383q-50 0 -83.5 -37t-33.5 -107t32.5 -107.5t84.5 -37.5q50 0 83 36.5t33 108.5q0 70 -33 107t-83 37zM233 623l99 109q42 0 64 -18.5t22 -42.5q0 -19 -9 -32.5t-29 -30.5l-94 -82q-35 0 -54.5 17.5t-19.5 37.5
q0 11 5 20.5t16 21.5z" />
    <glyph glyph-name="uni0200" unicode="&#x200;" horiz-adv-x="615" 
d="M313 488h-6q-11 -33 -25 -74.5t-29.5 -86.5t-28.5 -88l-17 -80q-6 -19 -12 -41t-12.5 -43t-12 -40.5t-9.5 -34.5q-11 -4 -24 -7t-32 -3q-38 0 -59 14.5t-21 41.5q0 12 4 24.5t8 28.5q10 33 26.5 83t36.5 108.5t40.5 116t38.5 106.5t30 79q14 8 42.5 15.5t56.5 7.5
q40 0 72 -11.5t40 -37.5q20 -53 43 -123.5t47 -146.5t45.5 -148t38.5 -130q-10 -12 -30 -19.5t-46 -7.5q-39 0 -55 13.5t-24 42.5l-36 119l-15 78q-14 46 -28 91t-26 84.5t-21 68.5zM145 138l54 112h240l19 -112h-313zM155 686l-66 78v6q0 32 17.5 48t40.5 16q19 0 33 -10
t26 -28l62 -91q-6 -27 -22 -38t-36 -11q-16 0 -30.5 9t-24.5 21zM352 686l-67 78v6q0 31 17.5 47.5t41.5 16.5q19 0 33 -10t25 -28l62 -91q-5 -27 -21.5 -38t-36.5 -11q-17 0 -30 9t-24 21z" />
    <glyph glyph-name="uni0201" unicode="&#x201;" horiz-adv-x="529" 
d="M115 554l-88 100v6q0 32 18 48.5t42 16.5q20 0 35 -10t27 -29l78 -112q-6 -28 -21 -39.5t-35 -11.5q-17 0 -30.5 9t-25.5 22zM325 554l-88 100v6q0 32 17.5 48.5t41.5 16.5q21 0 35.5 -10t27.5 -29l79 -112q-7 -28 -21.5 -39.5t-35.5 -11.5q-17 0 -30.5 9t-25.5 22z
M253 -15q-101 0 -160.5 39t-59.5 117q0 68 42 104t125 44l134 14v15q0 36 -27 52t-76 16q-38 0 -75 -9.5t-66 -22.5q-11 8 -19 23.5t-8 32.5q0 40 43 58q29 12 67 18t75 6q101 0 161.5 -42.5t60.5 -133.5v-228q0 -25 -12.5 -39.5t-31.5 -26.5q-29 -17 -73 -27t-100 -10z
M253 89q26 0 48.5 5t33.5 12v102l-90 -8q-36 -3 -56 -16t-20 -38q0 -26 20 -41.5t64 -15.5z" />
    <glyph glyph-name="uni0202" unicode="&#x202;" horiz-adv-x="615" 
d="M309 737q-31 0 -50.5 -15.5t-25.5 -41.5q-4 -1 -8 -1h-9q-32 0 -48.5 18.5t-16.5 41.5q0 41 41 70.5t117 29.5q77 0 118 -29.5t41 -70.5q0 -23 -16 -41.5t-49 -18.5h-8.5t-9.5 1q-5 26 -24.5 41.5t-51.5 15.5zM313 488h-6q-11 -33 -25 -74.5t-29.5 -86.5t-28.5 -88
l-17 -80q-6 -19 -12 -41t-12.5 -43t-12 -40.5t-9.5 -34.5q-11 -4 -24 -7t-32 -3q-38 0 -59 14.5t-21 41.5q0 12 4 24.5t8 28.5q10 33 26.5 83t36.5 108.5t40.5 116t38.5 106.5t30 79q14 8 42.5 15.5t56.5 7.5q40 0 72 -11.5t40 -37.5q20 -53 43 -123.5t47 -146.5t45.5 -148
t38.5 -130q-10 -12 -30 -19.5t-46 -7.5q-39 0 -55 13.5t-24 42.5l-36 119l-15 78q-14 46 -28 91t-26 84.5t-21 68.5zM145 138l54 112h240l19 -112h-313z" />
    <glyph glyph-name="uni0203" unicode="&#x203;" horiz-adv-x="529" 
d="M253 -15q-101 0 -160.5 39t-59.5 117q0 68 42 104t125 44l134 14v15q0 36 -27 52t-76 16q-38 0 -75 -9.5t-66 -22.5q-11 8 -19 23.5t-8 32.5q0 40 43 58q29 12 67 18t75 6q101 0 161.5 -42.5t60.5 -133.5v-228q0 -25 -12.5 -39.5t-31.5 -26.5q-29 -17 -73 -27t-100 -10z
M253 89q26 0 48.5 5t33.5 12v102l-90 -8q-36 -3 -56 -16t-20 -38q0 -26 20 -41.5t64 -15.5zM252 614q-31 0 -51 -15.5t-25 -41.5q-5 -1 -9 -1h-9q-32 0 -48.5 18.5t-16.5 41.5q0 41 41 70.5t118 29.5t117.5 -29.5t40.5 -70.5q0 -23 -16 -41.5t-49 -18.5h-8.5t-8.5 1
q-5 26 -25 41.5t-51 15.5z" />
    <glyph glyph-name="uni0204" unicode="&#x204;" horiz-adv-x="542" 
d="M73 416h140v-409q-9 -3 -26.5 -6t-37.5 -3q-35 0 -55.5 21t-20.5 55v342zM213 191h-140v339q0 36 20.5 56.5t55.5 20.5q20 0 37.5 -3t26.5 -6v-407zM149 253v113h302q6 -9 10.5 -23t4.5 -32q0 -29 -13 -43.5t-37 -14.5h-267zM149 -2v114h336q5 -8 9.5 -23t4.5 -33
q0 -29 -13 -43.5t-37 -14.5h-300zM149 493v114h331q6 -9 10.5 -23t4.5 -32q0 -30 -13 -44.5t-37 -14.5h-296zM138 686l-66 78v6q0 32 17.5 48t40.5 16q19 0 33 -10t26 -28l62 -91q-6 -27 -22 -38t-36 -11q-16 0 -30.5 9t-24.5 21zM335 686l-67 78v6q0 31 17.5 47.5
t41.5 16.5q19 0 33 -10t25 -28l62 -91q-5 -27 -21.5 -38t-36.5 -11q-17 0 -30 9t-24 21z" />
    <glyph glyph-name="uni0205" unicode="&#x205;" horiz-adv-x="539" 
d="M124 171l-6 96l256 39q-3 32 -26.5 57t-68.5 25q-48 0 -79 -32t-33 -92l4 -63q9 -58 48 -84t95 -26q42 0 78.5 12t58.5 26q14 -9 23.5 -24t9.5 -32q0 -28 -23.5 -48t-63.5 -30t-92 -10q-78 0 -138.5 29t-95 87t-34.5 144q0 62 20 109t53.5 77.5t77 45.5t90.5 15
q68 0 118.5 -27t79.5 -74t29 -108q0 -30 -16 -45.5t-44 -19.5zM115 554l-88 100v6q0 32 18 48.5t42 16.5q20 0 35 -10t27 -29l78 -112q-6 -28 -21 -39.5t-35 -11.5q-17 0 -30.5 9t-25.5 22zM325 554l-88 100v6q0 32 17.5 48.5t41.5 16.5q21 0 35.5 -10t27.5 -29l79 -112
q-7 -28 -21.5 -39.5t-35.5 -11.5q-17 0 -30.5 9t-25.5 22z" />
    <glyph glyph-name="uni0206" unicode="&#x206;" horiz-adv-x="542" 
d="M305 712q-31 0 -50.5 -16t-25.5 -41q-5 -1 -9 -1.5t-9 -0.5q-31 0 -47.5 18.5t-16.5 42.5q0 40 40.5 70t117.5 30t117.5 -30t40.5 -70q0 -24 -15.5 -42.5t-48.5 -18.5q-5 0 -9.5 0.5t-8.5 1.5q-5 25 -25 41t-51 16zM73 416h140v-409q-9 -3 -26.5 -6t-37.5 -3
q-35 0 -55.5 21t-20.5 55v342zM213 191h-140v339q0 36 20.5 56.5t55.5 20.5q20 0 37.5 -3t26.5 -6v-407zM149 253v113h302q6 -9 10.5 -23t4.5 -32q0 -29 -13 -43.5t-37 -14.5h-267zM149 -2v114h336q5 -8 9.5 -23t4.5 -33q0 -29 -13 -43.5t-37 -14.5h-300zM149 493v114h331
q6 -9 10.5 -23t4.5 -32q0 -30 -13 -44.5t-37 -14.5h-296z" />
    <glyph glyph-name="uni0207" unicode="&#x207;" horiz-adv-x="539" 
d="M124 171l-6 96l256 39q-3 32 -26.5 57t-68.5 25q-48 0 -79 -32t-33 -92l4 -63q9 -58 48 -84t95 -26q42 0 78.5 12t58.5 26q14 -9 23.5 -24t9.5 -32q0 -28 -23.5 -48t-63.5 -30t-92 -10q-78 0 -138.5 29t-95 87t-34.5 144q0 62 20 109t53.5 77.5t77 45.5t90.5 15
q68 0 118.5 -27t79.5 -74t29 -108q0 -30 -16 -45.5t-44 -19.5zM277 614q-31 0 -51 -15.5t-25 -41.5q-5 -1 -9 -1h-9q-32 0 -48.5 18.5t-16.5 41.5q0 41 41 70.5t118 29.5t117.5 -29.5t40.5 -70.5q0 -23 -16 -41.5t-49 -18.5h-8.5t-8.5 1q-5 26 -25 41.5t-51 15.5z" />
    <glyph glyph-name="uni0208" unicode="&#x208;" horiz-adv-x="290" 
d="M74 415h143v-414q-9 -2 -28 -5t-39 -3q-41 0 -58.5 15.5t-17.5 51.5v355zM217 240h-143v367q9 2 28 5.5t38 3.5q40 0 58.5 -14.5t18.5 -53.5v-308zM-22 686l-66 78v6q0 32 17.5 48t40.5 16q19 0 33 -10t26 -28l62 -91q-6 -27 -22 -38t-36 -11q-16 0 -30.5 9t-24.5 21z
M175 686l-67 78v6q0 31 17.5 47.5t41.5 16.5q19 0 33 -10t25 -28l62 -91q-5 -27 -21.5 -38t-36.5 -11q-17 0 -30 9t-24 21z" />
    <glyph glyph-name="uni0209" unicode="&#x209;" horiz-adv-x="267" 
d="M64 264h140v-263q-9 -2 -26 -5t-37 -3q-40 0 -58.5 14t-18.5 51v206zM204 192h-140v281q9 2 26 5t37 3q40 0 58.5 -14t18.5 -52v-223zM-22 553l-88 101v6q0 31 18 47.5t43 16.5q20 0 34.5 -10t26.5 -29l79 -112q-7 -28 -21.5 -39t-34.5 -11q-17 0 -31 9t-26 21zM189 553
l-89 101v5q0 32 18 48.5t42 16.5q21 0 35.5 -10t27.5 -29l78 -112q-7 -28 -21.5 -39t-35.5 -11q-16 0 -29.5 8.5t-25.5 21.5z" />
    <glyph glyph-name="uni020A" unicode="&#x20a;" horiz-adv-x="290" 
d="M145 737q-31 0 -50.5 -15.5t-25.5 -41.5q-4 -1 -8 -1h-9q-32 0 -48.5 18.5t-16.5 41.5q0 41 41 70.5t117 29.5q77 0 118 -29.5t41 -70.5q0 -23 -16 -41.5t-49 -18.5h-9.5t-8.5 1q-5 26 -24.5 41.5t-51.5 15.5zM74 415h143v-414q-9 -2 -28 -5t-39 -3q-41 0 -58.5 15.5
t-17.5 51.5v355zM217 240h-143v367q9 2 28 5.5t38 3.5q40 0 58.5 -14.5t18.5 -53.5v-308z" />
    <glyph glyph-name="uni020B" unicode="&#x20b;" horiz-adv-x="268" 
d="M64 264h140v-263q-9 -2 -26 -5t-37 -3q-40 0 -58.5 14t-18.5 51v206zM204 192h-140v281q9 2 26 5t37 3q40 0 58.5 -14t18.5 -52v-223zM127 614q-31 0 -50.5 -16t-25.5 -41q-4 -1 -8 -1h-9q-32 0 -48.5 18t-16.5 42q0 41 41 70.5t117 29.5q77 0 118 -30t41 -70
q0 -24 -16 -42t-49 -18h-8.5t-9.5 1q-5 25 -24.5 41t-51.5 16z" />
    <glyph glyph-name="uni020C" unicode="&#x20c;" horiz-adv-x="698" 
d="M656 304q0 -104 -40 -175.5t-109.5 -108t-157.5 -36.5t-158 36.5t-110 108t-40 175.5t41 175t110.5 108t156.5 37q86 0 156 -37t110.5 -108t40.5 -175zM509 304q0 99 -43.5 151t-116.5 52q-72 0 -116 -51.5t-44 -151.5q0 -101 43.5 -152.5t116.5 -51.5q74 0 117 51.5
t43 152.5zM186 686l-66 78v6q0 32 17.5 48t40.5 16q19 0 33 -10t26 -28l62 -91q-6 -27 -22 -38t-36 -11q-16 0 -30.5 9t-24.5 21zM383 686l-67 78v6q0 31 17.5 47.5t41.5 16.5q19 0 33 -10t25 -28l62 -91q-5 -27 -21.5 -38t-36.5 -11q-17 0 -30 9t-24 21z" />
    <glyph glyph-name="uni020D" unicode="&#x20d;" horiz-adv-x="575" 
d="M538 239q0 -78 -31 -135t-87 -88t-132 -31t-132.5 30.5t-87.5 87.5t-31 136q0 78 31.5 134.5t88 87.5t131.5 31t131 -31t87.5 -88t31.5 -134zM287 382q-49 0 -78 -37.5t-29 -105.5q0 -70 28.5 -107t79.5 -37q50 0 78.5 37.5t28.5 106.5q0 67 -28.5 105t-79.5 38zM125 554
l-88 100v6q0 32 18 48.5t42 16.5q20 0 35 -10t27 -29l78 -112q-6 -28 -21 -39.5t-35 -11.5q-17 0 -30.5 9t-25.5 22zM335 554l-88 100v6q0 32 17.5 48.5t41.5 16.5q21 0 35.5 -10t27.5 -29l79 -112q-7 -28 -21.5 -39.5t-35.5 -11.5q-17 0 -30.5 9t-25.5 22z" />
    <glyph glyph-name="uni020E" unicode="&#x20e;" horiz-adv-x="698" 
d="M349 737q-31 0 -51 -15.5t-25 -41.5q-5 -1 -9 -1h-9q-32 0 -48.5 18.5t-16.5 41.5q0 41 41 70.5t118 29.5t117.5 -29.5t40.5 -70.5q0 -23 -16 -41.5t-49 -18.5h-8.5t-8.5 1q-5 26 -25 41.5t-51 15.5zM656 304q0 -104 -40 -175.5t-109.5 -108t-157.5 -36.5t-158 36.5
t-110 108t-40 175.5t41 175t110.5 108t156.5 37q86 0 156 -37t110.5 -108t40.5 -175zM509 304q0 99 -43.5 151t-116.5 52q-72 0 -116 -51.5t-44 -151.5q0 -101 43.5 -152.5t116.5 -51.5q74 0 117 51.5t43 152.5z" />
    <glyph glyph-name="uni020F" unicode="&#x20f;" horiz-adv-x="575" 
d="M538 239q0 -78 -31 -135t-87 -88t-132 -31t-132.5 30.5t-87.5 87.5t-31 136q0 78 31.5 134.5t88 87.5t131.5 31t131 -31t87.5 -88t31.5 -134zM287 382q-49 0 -78 -37.5t-29 -105.5q0 -70 28.5 -107t79.5 -37q50 0 78.5 37.5t28.5 106.5q0 67 -28.5 105t-79.5 38zM288 614
q-31 0 -51 -15.5t-25 -41.5q-5 -1 -9 -1h-9q-32 0 -48.5 18.5t-16.5 41.5q0 41 41 70.5t118 29.5t117.5 -29.5t40.5 -70.5q0 -23 -16 -41.5t-49 -18.5h-8.5t-8.5 1q-5 26 -25 41.5t-51 15.5z" />
    <glyph glyph-name="uni0210" unicode="&#x210;" horiz-adv-x="602" 
d="M215 318h72q53 0 85 24t32 70q0 47 -31 70.5t-94 23.5q-18 0 -34 -1.5t-30 -4.5v-182zM299 208h-226v346q0 19 11 29.5t29 17.5q32 11 76 16t92 5q133 0 200.5 -56t67.5 -152q0 -61 -32 -107.5t-88 -72.5t-130 -26zM275 242l125 31q24 -31 49.5 -63t48.5 -62t42 -55
t29 -42q-8 -28 -30 -44t-48 -16q-34 0 -53 15.5t-35 41.5zM73 260h144v-259q-10 -2 -28.5 -5t-38.5 -3q-42 0 -59.5 15.5t-17.5 51.5v200zM142 686l-66 78v6q0 32 17.5 48t40.5 16q19 0 33 -10t26 -28l62 -91q-6 -27 -22 -38t-36 -11q-16 0 -30.5 9t-24.5 21zM339 686
l-67 78v6q0 31 17.5 47.5t41.5 16.5q19 0 33 -10t25 -28l62 -91q-5 -27 -21.5 -38t-36.5 -11q-17 0 -30 9t-24 21z" />
    <glyph glyph-name="uni0211" unicode="&#x211;" horiz-adv-x="401" 
d="M199 354v-129h-139v144q0 27 13 46t36 34q32 19 78.5 30.5t98.5 11.5q99 0 99 -64q0 -15 -4.5 -28t-10.5 -23q-10 2 -25 3.5t-31 1.5q-32 0 -62.5 -7t-52.5 -20zM60 264l139 -4v-259q-9 -2 -26 -5t-37 -3q-39 0 -57.5 14t-18.5 51v206zM62 554l-88 100v6q0 32 18 48.5
t42 16.5q20 0 35 -10t27 -29l78 -112q-6 -28 -21 -39.5t-35 -11.5q-17 0 -30.5 9t-25.5 22zM272 554l-88 100v6q0 32 17.5 48.5t41.5 16.5q21 0 35.5 -10t27.5 -29l79 -112q-7 -28 -21.5 -39.5t-35.5 -11.5q-17 0 -30.5 9t-25.5 22z" />
    <glyph glyph-name="uni0212" unicode="&#x212;" horiz-adv-x="602" 
d="M215 318h72q53 0 85 24t32 70q0 47 -31 70.5t-94 23.5q-18 0 -34 -1.5t-30 -4.5v-182zM299 208h-226v346q0 19 11 29.5t29 17.5q32 11 76 16t92 5q133 0 200.5 -56t67.5 -152q0 -61 -32 -107.5t-88 -72.5t-130 -26zM275 242l125 31q24 -31 49.5 -63t48.5 -62t42 -55
t29 -42q-8 -28 -30 -44t-48 -16q-34 0 -53 15.5t-35 41.5zM73 260h144v-259q-10 -2 -28.5 -5t-38.5 -3q-42 0 -59.5 15.5t-17.5 51.5v200zM297 737q-31 0 -51 -15.5t-25 -41.5q-5 -1 -9 -1h-9q-32 0 -48.5 18.5t-16.5 41.5q0 41 41 70.5t118 29.5t117.5 -29.5t40.5 -70.5
q0 -23 -16 -41.5t-49 -18.5h-8.5t-8.5 1q-5 26 -25 41.5t-51 15.5z" />
    <glyph glyph-name="uni0213" unicode="&#x213;" horiz-adv-x="401" 
d="M199 354v-129h-139v144q0 27 13 46t36 34q32 19 78.5 30.5t98.5 11.5q99 0 99 -64q0 -15 -4.5 -28t-10.5 -23q-10 2 -25 3.5t-31 1.5q-32 0 -62.5 -7t-52.5 -20zM60 264l139 -4v-259q-9 -2 -26 -5t-37 -3q-39 0 -57.5 14t-18.5 51v206zM220 614q-31 0 -51 -15.5
t-25 -41.5q-5 -1 -9 -1h-9q-32 0 -48.5 18.5t-16.5 41.5q0 41 41 70.5t118 29.5t117.5 -29.5t40.5 -70.5q0 -23 -16 -41.5t-49 -18.5h-8.5t-8.5 1q-5 26 -25 41.5t-51 15.5z" />
    <glyph glyph-name="uni0214" unicode="&#x214;" horiz-adv-x="659" 
d="M329 -16q-81 0 -139 29t-88.5 82t-30.5 123v68h143v-64q0 -58 32.5 -90t82.5 -32t83 32t33 90v64h143v-68q0 -70 -31 -123t-88.5 -82t-139.5 -29zM214 254h-143v353q9 2 28.5 5.5t37.5 3.5q41 0 59 -14.5t18 -53.5v-294zM588 253h-143v354q9 2 28 5.5t38 3.5
q41 0 59 -14.5t18 -53.5v-295zM178 686l-66 78v6q0 32 17.5 48t40.5 16q19 0 33 -10t26 -28l62 -91q-6 -27 -22 -38t-36 -11q-16 0 -30.5 9t-24.5 21zM375 686l-67 78v6q0 31 17.5 47.5t41.5 16.5q19 0 33 -10t25 -28l62 -91q-5 -27 -21.5 -38t-36.5 -11q-17 0 -30 9t-24 21
z" />
    <glyph glyph-name="uni0215" unicode="&#x215;" horiz-adv-x="571" 
d="M60 185v74h139v-73q0 -48 25 -69.5t70 -21.5q29 0 48.5 5.5t29.5 11.5v147h139v-162q0 -24 -8.5 -40.5t-29.5 -29.5q-31 -19 -77 -30.5t-103 -11.5q-70 0 -122.5 21t-81.5 65t-29 114zM511 213h-139v263q9 2 26 5t37 3q40 0 58 -13.5t18 -51.5v-206zM199 213h-139v263
q9 2 26 5t37 3q40 0 58 -13.5t18 -51.5v-206zM138 554l-88 100v6q0 32 18 48.5t42 16.5q20 0 35 -10t27 -29l78 -112q-6 -28 -21 -39.5t-35 -11.5q-17 0 -30.5 9t-25.5 22zM348 554l-88 100v6q0 32 17.5 48.5t41.5 16.5q21 0 35.5 -10t27.5 -29l79 -112q-7 -28 -21.5 -39.5
t-35.5 -11.5q-17 0 -30.5 9t-25.5 22z" />
    <glyph glyph-name="uni0216" unicode="&#x216;" horiz-adv-x="659" 
d="M329 -16q-81 0 -139 29t-88.5 82t-30.5 123v68h143v-64q0 -58 32.5 -90t82.5 -32t83 32t33 90v64h143v-68q0 -70 -31 -123t-88.5 -82t-139.5 -29zM214 254h-143v353q9 2 28.5 5.5t37.5 3.5q41 0 59 -14.5t18 -53.5v-294zM588 253h-143v354q9 2 28 5.5t38 3.5
q41 0 59 -14.5t18 -53.5v-295zM330 737q-31 0 -51 -15.5t-25 -41.5q-5 -1 -9 -1h-9q-32 0 -48.5 18.5t-16.5 41.5q0 41 41 70.5t118 29.5t117.5 -29.5t40.5 -70.5q0 -23 -16 -41.5t-49 -18.5h-8.5t-8.5 1q-5 26 -25 41.5t-51 15.5z" />
    <glyph glyph-name="uni0217" unicode="&#x217;" horiz-adv-x="571" 
d="M60 185v74h139v-73q0 -48 25 -69.5t70 -21.5q29 0 48.5 5.5t29.5 11.5v147h139v-162q0 -24 -8.5 -40.5t-29.5 -29.5q-31 -19 -77 -30.5t-103 -11.5q-70 0 -122.5 21t-81.5 65t-29 114zM511 213h-139v263q9 2 26 5t37 3q40 0 58 -13.5t18 -51.5v-206zM199 213h-139v263
q9 2 26 5t37 3q40 0 58 -13.5t18 -51.5v-206zM286 614q-31 0 -51 -15.5t-25 -41.5q-5 -1 -9 -1h-9q-32 0 -48.5 18.5t-16.5 41.5q0 41 41 70.5t118 29.5t117.5 -29.5t40.5 -70.5q0 -23 -16 -41.5t-49 -18.5h-8.5t-8.5 1q-5 26 -25 41.5t-51 15.5z" />
    <glyph glyph-name="uni0218" unicode="&#x218;" horiz-adv-x="541" 
d="M253 101q55 0 80 20.5t25 50.5q0 27 -19.5 44t-58.5 29l-57 18q-53 17 -92.5 39t-62 56t-22.5 86q0 83 62.5 131.5t171.5 48.5q57 0 101 -11.5t69.5 -32.5t25.5 -51q0 -20 -10 -36.5t-25 -26.5q-23 16 -62 28t-85 12q-49 0 -74.5 -17t-25.5 -45q0 -21 17 -35t52 -25
l56 -17q90 -27 138.5 -72.5t48.5 -123.5q0 -83 -64.5 -135t-184.5 -52q-61 0 -109 13t-75.5 37t-27.5 56q0 24 14.5 41.5t32.5 26.5q27 -22 68 -39.5t93 -17.5zM286 -216q-13 -15 -29.5 -21t-35.5 -6q-32 0 -52 19q18 40 29 78.5t16 73.5q13 7 30 12t35 5q27 0 43.5 -10.5
t16.5 -34.5q0 -16 -8 -38.5t-20.5 -43t-24.5 -34.5z" />
    <glyph glyph-name="uni0219" unicode="&#x219;" horiz-adv-x="477" 
d="M441 138q0 -72 -54 -113t-156 -41q-82 0 -134.5 24.5t-52.5 68.5q0 19 9 34.5t22 24.5q29 -17 66 -31t85 -14q77 0 77 46q0 19 -14 30.5t-44 17.5l-48 12q-77 16 -115 51t-38 95q0 68 55 109t149 41q49 0 87.5 -9.5t61 -28.5t22.5 -46q0 -19 -8 -33.5t-20 -23.5
q-11 7 -33 15t-48.5 13.5t-50.5 5.5q-36 0 -57.5 -11t-21.5 -32q0 -14 12 -24.5t42 -17.5l44 -10q87 -20 125 -57t38 -96zM264 -216q-13 -15 -29.5 -21t-35.5 -6q-32 0 -52 19q18 40 29 78.5t16 73.5q13 7 30 12t35 5q27 0 43.5 -10.5t16.5 -34.5q0 -16 -8 -38.5t-20.5 -43
t-24.5 -34.5z" />
    <glyph glyph-name="uni021A" unicode="&#x21a;" horiz-adv-x="545" 
d="M211 491l-2 116h299q6 -9 10.5 -24t4.5 -32q0 -30 -13.5 -45t-37.5 -15h-261zM333 607l2 -116h-300q-5 9 -10 24t-5 32q0 31 14 45.5t37 14.5h262zM199 518h143v-517q-9 -2 -28 -5t-38 -3q-42 0 -59.5 15.5t-17.5 51.5v458zM286 -216q-13 -15 -29.5 -21t-35.5 -6
q-32 0 -52 19q18 40 29 78.5t16 73.5q13 7 30 12t35 5q27 0 43.5 -10.5t16.5 -34.5q0 -16 -8 -38.5t-20.5 -43t-24.5 -34.5z" />
    <glyph glyph-name="uni021B" unicode="&#x21b;" horiz-adv-x="388" 
d="M61 264h139v-111q0 -30 18.5 -43t51.5 -13q16 0 33.5 3.5t30.5 8.5q8 -8 14 -20.5t6 -29.5q0 -31 -27.5 -52t-90.5 -21q-82 0 -128.5 37t-46.5 120v121zM148 359v108h194q5 -8 9.5 -22t4.5 -31q0 -28 -13 -41.5t-35 -13.5h-160zM200 238h-139v360q9 3 26.5 6t36.5 3
q39 0 57.5 -14t18.5 -51v-304zM225 -216q-13 -15 -29.5 -21t-35.5 -6q-32 0 -52 19q18 40 29 78.5t16 73.5q13 7 30 12t35 5q27 0 43.5 -10.5t16.5 -34.5q0 -16 -8 -38.5t-20.5 -43t-24.5 -34.5z" />
    <glyph glyph-name="uni022A" unicode="&#x22a;" horiz-adv-x="698" 
d="M466 887h-265q-4 8 -8 21t-4 26q0 28 11.5 39t30.5 11h265q6 -8 9 -20.5t3 -26.5q0 -27 -11 -38.5t-31 -11.5zM656 304q0 -104 -40 -175.5t-109.5 -108t-157.5 -36.5t-157.5 36.5t-110 108t-40.5 175.5t41 175t111 108t156 37t156 -37t110.5 -108t40.5 -175zM509 304
q0 99 -43.5 151t-116.5 52t-116.5 -51.5t-43.5 -151.5q0 -101 43.5 -152.5t116.5 -51.5q74 0 117 51.5t43 152.5zM320 745q0 -30 -20.5 -50.5t-52.5 -20.5t-52 20.5t-20 50.5q0 29 20 50t52 21t52.5 -21t20.5 -50zM521 745q0 -30 -20.5 -50.5t-52.5 -20.5q-31 0 -52 20.5
t-21 50.5q0 29 21 50t52 21q32 0 52.5 -21t20.5 -50z" />
    <glyph glyph-name="uni022B" unicode="&#x22b;" horiz-adv-x="575" 
d="M400 762h-264q-4 8 -8.5 20.5t-4.5 26.5q0 27 12 38.5t31 11.5h264q6 -8 9.5 -20.5t3.5 -26.5q0 -27 -11.5 -38.5t-31.5 -11.5zM538 239q0 -78 -31 -135t-87 -88t-132 -31t-132.5 30.5t-87.5 87.5t-31 136q0 78 31.5 134.5t88 87.5t131.5 31t131 -31t87.5 -88t31.5 -134z
M287 382q-49 0 -78 -37.5t-29 -105.5q0 -70 28.5 -107t79.5 -37q50 0 78.5 37.5t28.5 106.5q0 67 -28.5 105t-79.5 38zM259 620q0 -29 -20 -49.5t-53 -20.5q-31 0 -51.5 20.5t-20.5 49.5q0 30 20.5 50.5t51.5 20.5q33 0 53 -20.5t20 -50.5zM460 620q0 -29 -20 -49.5
t-53 -20.5q-31 0 -51.5 20.5t-20.5 49.5q0 30 20.5 50.5t51.5 20.5q33 0 53 -20.5t20 -50.5z" />
    <glyph glyph-name="uni022C" unicode="&#x22c;" horiz-adv-x="698" 
d="M466 887h-265q-4 8 -8 21t-4 26q0 28 11.5 39t30.5 11h265q6 -8 9 -20.5t3 -26.5q0 -27 -11 -38.5t-31 -11.5zM267 824q28 0 53.5 -7.5t47 -15.5t36.5 -8q21 0 32 12.5t15 23.5h5q27 0 47 -18t20 -48q0 -38 -25.5 -58t-63.5 -20q-31 0 -56 8t-45.5 15.5t-36.5 7.5
q-21 0 -31.5 -12t-15.5 -25h-4q-27 0 -47.5 18t-20.5 48q0 27 13 44.5t34.5 26t42.5 8.5zM656 304q0 -104 -40 -175.5t-109.5 -108t-157.5 -36.5t-158 36.5t-110 108t-40 175.5t41 175t110.5 108t156.5 37q86 0 156 -37t110.5 -108t40.5 -175zM509 304q0 99 -43.5 151
t-116.5 52q-72 0 -116 -51.5t-44 -151.5q0 -101 43.5 -152.5t116.5 -51.5q74 0 117 51.5t43 152.5z" />
    <glyph glyph-name="uni022D" unicode="&#x22d;" horiz-adv-x="575" 
d="M403 762h-264q-4 8 -8.5 20.5t-4.5 26.5q0 27 11.5 38.5t30.5 11.5h265q6 -8 9 -20.5t3 -26.5q0 -27 -11 -38.5t-31 -11.5zM538 239q0 -78 -31 -135t-87 -88t-132 -31t-132.5 30.5t-87.5 87.5t-31 136q0 78 31.5 134.5t88 87.5t131.5 31t131 -31t87.5 -88t31.5 -134z
M288 382q-50 0 -79 -37.5t-29 -105.5q0 -70 28 -107t80 -37q50 0 78.5 37.5t28.5 106.5q0 67 -28.5 105t-78.5 38zM207 693q28 0 53 -7.5t46.5 -15t37.5 -7.5q20 0 31 12t15 24h5q27 0 47 -18t20 -48q0 -39 -25 -59t-64 -20q-31 0 -56 8t-45 15.5t-37 7.5q-21 0 -31 -12
t-16 -24h-4q-27 0 -47.5 17.5t-20.5 48.5q0 26 13.5 43.5t34.5 26t43 8.5z" />
    <glyph glyph-name="uni0230" unicode="&#x230;" horiz-adv-x="698" 
d="M466 887h-265q-4 8 -8 21t-4 26q0 28 11.5 39t30.5 11h265q6 -8 9 -20.5t3 -26.5q0 -27 -11 -38.5t-31 -11.5zM656 304q0 -104 -40 -175.5t-109.5 -108t-157.5 -36.5t-158 36.5t-110 108t-40 175.5t41 175t110.5 108t156.5 37q86 0 156 -37t110.5 -108t40.5 -175z
M509 304q0 99 -43.5 151t-116.5 52q-72 0 -116 -51.5t-44 -151.5q0 -101 43.5 -152.5t116.5 -51.5q74 0 117 51.5t43 152.5zM425 750q0 -32 -21 -53t-55 -21t-55.5 21t-21.5 53t21.5 53t55.5 21t55 -21t21 -53z" />
    <glyph glyph-name="uni0231" unicode="&#x231;" horiz-adv-x="575" 
d="M400 762h-264q-4 8 -8.5 20.5t-4.5 26.5q0 27 12 38.5t31 11.5h264q6 -8 9.5 -20.5t3.5 -26.5q0 -27 -11.5 -38.5t-31.5 -11.5zM538 239q0 -78 -31 -135t-87 -88t-132 -31t-132.5 30.5t-87.5 87.5t-31 136q0 78 31.5 134.5t88 87.5t131.5 31t131 -31t87.5 -88t31.5 -134z
M288 382q-50 0 -79 -37.5t-29 -105.5q0 -70 28 -107t80 -37q50 0 78.5 37.5t28.5 106.5q0 67 -28.5 105t-78.5 38zM364 624q0 -32 -21 -53t-56 -21q-34 0 -55 21t-21 53t21 53.5t55 21.5q35 0 56 -21.5t21 -53.5z" />
    <glyph glyph-name="uni0232" unicode="&#x232;" horiz-adv-x="566" 
d="M356 198h-128q-26 39 -57 87t-61 98.5t-56.5 98t-43.5 86.5q10 16 29 29.5t46 13.5q33 0 52.5 -14t37.5 -50q5 -8 16.5 -29.5t26 -49.5t29.5 -56t26 -49t15 -28h6q24 48 43.5 88.5t38 82.5t40.5 90q14 7 31.5 11t32.5 4q30 0 49.5 -15.5t19.5 -45.5q0 -11 -10 -35.5
t-32.5 -66t-59.5 -103t-91 -147.5zM221 251h140v-250q-9 -2 -27.5 -5t-36.5 -3q-42 0 -59 15t-17 51v192zM401 692h-253q-4 9 -9 23t-5 29q0 30 13 42.5t34 12.5h253q6 -9 10 -23t4 -29q0 -30 -12.5 -42.5t-34.5 -12.5z" />
    <glyph glyph-name="uni0233" unicode="&#x233;" horiz-adv-x="530" 
d="M142 117q-16 33 -35 81t-40 112t-44 147q12 13 31.5 21.5t42.5 8.5q29 0 47.5 -12.5t28.5 -45.5q24 -75 48 -148.5t50 -148.5h4q18 45 36 102.5t34 119.5t27 118q14 7 28.5 11t31.5 4q29 0 50 -12.5t21 -42.5q0 -27 -8.5 -67.5t-23 -88t-33.5 -98t-40 -97.5t-43 -84
q-52 -93 -96.5 -139.5t-88.5 -46.5q-34 0 -56 20.5t-26 52.5q21 18 44.5 42.5t45.5 52.5t38 54q-17 5 -35 22t-39 62zM382 566h-253q-4 9 -9 23t-5 29q0 30 13 42.5t34 12.5h253q6 -9 10 -23t4 -29q0 -30 -12.5 -42.5t-34.5 -12.5z" />
    <glyph glyph-name="uni0237" unicode="&#x237;" horiz-adv-x="272" 
d="M-3 -114q24 11 40 25t23.5 34.5t7.5 51.5v259h140v-274q0 -63 -19.5 -101t-50 -55.5t-62.5 -17.5q-37 0 -57 22t-22 56zM208 188l-140 4v284q9 2 26.5 5t37.5 3q40 0 58 -13.5t18 -51.5v-231z" />
    <glyph glyph-name="uni0251" unicode="&#x251;" horiz-adv-x="574" 
d="M511 73l-138 -40v332q-11 6 -29 11.5t-41 5.5q-37 0 -65 -15t-43.5 -47.5t-15.5 -82.5q0 -74 30.5 -107.5t80.5 -33.5q31 0 55.5 13t32.5 28l33 -99q-22 -23 -59.5 -38t-85.5 -15q-61 0 -113.5 26t-84 81t-31.5 142q0 88 34.5 145t94 85t134.5 28q54 0 99 -12.5t73 -30.5
q17 -12 28 -28t11 -40v-308zM390 51l121 105q0 -45 9 -69.5t24 -41.5q-3 -24 -24.5 -42t-51.5 -18t-50.5 17t-27.5 49z" />
    <glyph glyph-name="uni0259" unicode="&#x259;" horiz-adv-x="538" 
d="M258 -15q-67 0 -118.5 28t-80 75.5t-28.5 106.5q0 30 16 45t45 19l321 47l5 -95l-255 -39q3 -33 26.5 -58t68.5 -25q49 0 80 31.5t31 92.5l-4 64q-8 59 -46.5 84t-91.5 25q-39 0 -74 -11.5t-57 -26.5q-14 9 -23.5 24t-9.5 33q0 28 23 47.5t62.5 29.5t88.5 10
q78 0 137 -29.5t92 -87t33 -142.5q0 -64 -19.5 -111t-53.5 -77t-77 -45t-91 -15z" />
    <glyph glyph-name="uni0261" unicode="&#x261;" horiz-adv-x="557" 
d="M259 18q-60 0 -110 23t-80.5 75t-30.5 137q0 79 31 132t87.5 80t130.5 27q54 0 99 -13.5t71 -30.5q18 -12 29 -28.5t11 -40.5v-313h-135v299q-12 7 -29 12t-41 5q-51 0 -83 -31.5t-32 -97.5q0 -73 30.5 -101t75.5 -28q35 0 57 12t38 27l5 -112q-20 -13 -50.5 -23
t-73.5 -10zM364 2v95h133v-99q0 -69 -32.5 -112.5t-87 -64t-122.5 -20.5q-52 0 -91.5 9t-60.5 22q-34 22 -34 60q0 20 8.5 35.5t20.5 23.5q26 -16 63 -28t79 -12q58 0 91 22t33 69z" />
    <glyph glyph-name="uni02BB" unicode="&#x2bb;" horiz-adv-x="192" 
d="M65 602q9 16 22 23.5t33 7.5q15 0 28.5 -3.5t25.5 -10.5q-4 -35 -8 -75t-7.5 -79.5t-5.5 -72.5q-12 -6 -29.5 -11.5t-35.5 -5.5q-27 0 -48 12t-21 44q0 23 6.5 56.5t17.5 65t22 49.5z" />
    </font>
</defs>
</svg>
